<svg width="265" height="275" viewBox="0 0 265 275" fill="none" xmlns="http://www.w3.org/2000/svg">
<g clip-path="url(#clip0_130_46739)">
<path fill-rule="evenodd" clip-rule="evenodd" d="M39.4541 0H225.546C246.609 0 263.685 17.1 263.685 38.1938V120.621C264.451 120.892 265 121.623 265 122.484V177.14C265 178 264.451 178.732 263.685 179.003V512.324C263.685 533.418 246.609 550.518 225.546 550.518H39.4541C18.3906 550.518 1.31514 533.418 1.31514 512.324V187.564C0.548943 187.293 0 186.561 0 185.701V154.092C0 153.232 0.548943 152.5 1.31514 152.229V140.151C0.548943 139.88 0 139.148 0 138.288V106.679C0 105.819 0.548943 105.087 1.31514 104.816V88.787C0.548943 88.5158 0 87.784 0 86.9239V70.461C0 69.6009 0.548943 68.8691 1.31514 68.5979V38.1938C1.31514 17.1 18.3906 0 39.4541 0ZM39.4541 7.90217C22.7485 7.90217 9.20596 21.4643 9.20596 38.1938V512.324C9.20596 529.054 22.7485 542.616 39.4541 542.616H225.546C242.251 542.616 255.794 529.054 255.794 512.324V38.1938C255.794 21.4643 242.251 7.90217 225.546 7.90217H205.764C203.498 8.70072 201.873 10.8632 201.873 13.4055C201.873 21.4586 195.355 27.9869 187.313 27.9869H77.0294C68.9879 27.9869 62.469 21.4586 62.469 13.4055C62.469 10.8632 60.8447 8.70072 58.5787 7.90217H39.4541Z" fill="url(#paint0_linear_130_46739)"/>
<rect x="21" y="54" width="223" height="44" rx="12" fill="white" fill-opacity="0.12"/>
<path d="M64.3028 75.9727C64.5538 76.4647 64.3584 77.067 63.8665 77.318C63.3746 77.569 62.7723 77.3737 62.5213 76.8817C61.7396 75.3498 62.0219 73.4704 63.2568 72.2355L65.3782 70.1142C66.9403 68.5521 69.4729 68.5521 71.035 70.1142C72.5971 71.6763 72.5971 74.209 71.035 75.7711C70.6445 76.1616 70.0113 76.1616 69.6208 75.7711C69.2303 75.3805 69.2303 74.7474 69.6208 74.3568C70.4019 73.5758 70.4019 72.3095 69.6208 71.5284C68.8398 70.7474 67.5734 70.7474 66.7924 71.5284L64.6711 73.6497C64.0535 74.2672 63.9123 75.2075 64.3028 75.9727ZM65.8493 76.1736C65.5983 75.6817 65.7936 75.0794 66.2856 74.8284C66.7775 74.5774 67.3798 74.7727 67.6308 75.2646C68.4125 76.7966 68.1302 78.6759 66.8952 79.9108L64.7739 82.0322C63.2118 83.5943 60.6792 83.5943 59.1171 82.0322C57.555 80.4701 57.555 77.9374 59.1171 76.3753C59.5076 75.9848 60.1408 75.9848 60.5313 76.3753C60.9218 76.7658 60.9218 77.399 60.5313 77.7895C59.7502 78.5706 59.7502 79.8369 60.5313 80.6179C61.3123 81.399 62.5787 81.399 63.3597 80.6179L65.481 78.4966C66.0985 77.8791 66.2398 76.9389 65.8493 76.1736Z" fill="white"/>
<path d="M84.2549 81.1299C85.2461 81.1299 86.0186 80.6992 86.4834 79.9131H86.5928V81H87.7822V75.9551C87.7822 74.4238 86.7773 73.501 84.9795 73.501C83.4072 73.501 82.2861 74.2803 82.0947 75.4355L82.0879 75.4766H83.2773L83.2842 75.4561C83.4756 74.8818 84.0566 74.5537 84.9385 74.5537C86.0391 74.5537 86.5928 75.0459 86.5928 75.9551V76.625L84.4805 76.7549C82.7646 76.8574 81.7939 77.6162 81.7939 78.9287V78.9424C81.7939 80.2822 82.8535 81.1299 84.2549 81.1299ZM83.0107 78.915V78.9014C83.0107 78.1699 83.5029 77.7734 84.624 77.7051L86.5928 77.582V78.252C86.5928 79.3047 85.7109 80.0977 84.501 80.0977C83.6465 80.0977 83.0107 79.6602 83.0107 78.915ZM91.7676 81H92.9707L95.6982 73.6309H94.4404L92.4238 79.7012H92.3145L90.2979 73.6309H89.04L91.7676 81ZM99.0205 81.1299C100.012 81.1299 100.784 80.6992 101.249 79.9131H101.358V81H102.548V75.9551C102.548 74.4238 101.543 73.501 99.7451 73.501C98.1729 73.501 97.0518 74.2803 96.8604 75.4355L96.8535 75.4766H98.043L98.0498 75.4561C98.2412 74.8818 98.8223 74.5537 99.7041 74.5537C100.805 74.5537 101.358 75.0459 101.358 75.9551V76.625L99.2461 76.7549C97.5303 76.8574 96.5596 77.6162 96.5596 78.9287V78.9424C96.5596 80.2822 97.6191 81.1299 99.0205 81.1299ZM97.7764 78.915V78.9014C97.7764 78.1699 98.2686 77.7734 99.3896 77.7051L101.358 77.582V78.252C101.358 79.3047 100.477 80.0977 99.2666 80.0977C98.4121 80.0977 97.7764 79.6602 97.7764 78.915ZM104.722 81H105.911V76.6387C105.911 75.3467 106.656 74.5537 107.832 74.5537C109.008 74.5537 109.555 75.1895 109.555 76.5156V81H110.744V76.2285C110.744 74.4785 109.821 73.501 108.167 73.501C107.08 73.501 106.39 73.959 106.021 74.7383H105.911V73.6309H104.722V81ZM115.933 83.5977C117.942 83.5977 119.214 82.5449 119.214 80.8975V73.6309H118.024V74.8477H117.942C117.491 74.0137 116.685 73.501 115.646 73.501C113.718 73.501 112.528 74.998 112.528 77.0625V77.0762C112.528 79.1406 113.711 80.6172 115.618 80.6172C116.63 80.6172 117.464 80.1592 117.929 79.3457H118.038V80.8359C118.038 81.9229 117.252 82.5449 115.933 82.5449C114.873 82.5449 114.217 82.1484 114.087 81.5879L114.08 81.5811H112.85L112.836 81.5879C113.021 82.7979 114.155 83.5977 115.933 83.5977ZM115.878 79.5645C114.511 79.5645 113.745 78.5391 113.745 77.0762V77.0625C113.745 75.5996 114.511 74.5537 115.878 74.5537C117.238 74.5537 118.065 75.5996 118.065 77.0625V77.0762C118.065 78.5391 117.245 79.5645 115.878 79.5645ZM123.452 81.1299C124.443 81.1299 125.216 80.6992 125.681 79.9131H125.79V81H126.979V75.9551C126.979 74.4238 125.975 73.501 124.177 73.501C122.604 73.501 121.483 74.2803 121.292 75.4355L121.285 75.4766H122.475L122.481 75.4561C122.673 74.8818 123.254 74.5537 124.136 74.5537C125.236 74.5537 125.79 75.0459 125.79 75.9551V76.625L123.678 76.7549C121.962 76.8574 120.991 77.6162 120.991 78.9287V78.9424C120.991 80.2822 122.051 81.1299 123.452 81.1299ZM122.208 78.915V78.9014C122.208 78.1699 122.7 77.7734 123.821 77.7051L125.79 77.582V78.252C125.79 79.3047 124.908 80.0977 123.698 80.0977C122.844 80.0977 122.208 79.6602 122.208 78.915ZM129.153 81H130.343V76.4336C130.343 75.3535 131.149 74.6357 132.284 74.6357C132.544 74.6357 132.77 74.6631 133.016 74.7041V73.5488C132.899 73.5283 132.646 73.501 132.421 73.501C131.423 73.501 130.732 73.9521 130.452 74.7246H130.343V73.6309H129.153V81ZM137.001 81.1299C138.026 81.1299 138.847 80.6445 139.298 79.8242H139.407V81H140.597V70.7051H139.407V74.793H139.298C138.895 74.0068 138.013 73.501 137.001 73.501C135.128 73.501 133.911 74.998 133.911 77.3086V77.3223C133.911 79.6191 135.135 81.1299 137.001 81.1299ZM137.274 80.0771C135.928 80.0771 135.128 79.0381 135.128 77.3223V77.3086C135.128 75.5928 135.928 74.5537 137.274 74.5537C138.614 74.5537 139.435 75.6064 139.435 77.3086V77.3223C139.435 79.0244 138.614 80.0771 137.274 80.0771ZM143.372 81H144.562V74.6152H146.236V73.6309H144.562V72.8447C144.562 72.0381 144.903 71.6211 145.751 71.6211C145.963 71.6211 146.161 71.6279 146.305 71.6553V70.7051C146.059 70.6572 145.799 70.6367 145.512 70.6367C144.11 70.6367 143.372 71.3408 143.372 72.8105V73.6309H142.148V74.6152H143.372V81ZM148.581 72.209C149.032 72.209 149.401 71.8398 149.401 71.3887C149.401 70.9375 149.032 70.5684 148.581 70.5684C148.13 70.5684 147.761 70.9375 147.761 71.3887C147.761 71.8398 148.13 72.209 148.581 72.209ZM147.979 81H149.169V73.6309H147.979V81ZM151.411 81H152.601V76.6387C152.601 75.3467 153.346 74.5537 154.521 74.5537C155.697 74.5537 156.244 75.1895 156.244 76.5156V81H157.434V76.2285C157.434 74.4785 156.511 73.501 154.856 73.501C153.77 73.501 153.079 73.959 152.71 74.7383H152.601V73.6309H151.411V81ZM161.61 81.1299C162.602 81.1299 163.374 80.6992 163.839 79.9131H163.948V81H165.138V75.9551C165.138 74.4238 164.133 73.501 162.335 73.501C160.763 73.501 159.642 74.2803 159.45 75.4355L159.443 75.4766H160.633L160.64 75.4561C160.831 74.8818 161.412 74.5537 162.294 74.5537C163.395 74.5537 163.948 75.0459 163.948 75.9551V76.625L161.836 76.7549C160.12 76.8574 159.149 77.6162 159.149 78.9287V78.9424C159.149 80.2822 160.209 81.1299 161.61 81.1299ZM160.366 78.915V78.9014C160.366 78.1699 160.858 77.7734 161.979 77.7051L163.948 77.582V78.252C163.948 79.3047 163.066 80.0977 161.856 80.0977C161.002 80.0977 160.366 79.6602 160.366 78.915ZM167.312 81H168.501V76.6387C168.501 75.3467 169.246 74.5537 170.422 74.5537C171.598 74.5537 172.145 75.1895 172.145 76.5156V81H173.334V76.2285C173.334 74.4785 172.411 73.501 170.757 73.501C169.67 73.501 168.979 73.959 168.61 74.7383H168.501V73.6309H167.312V81ZM178.502 81.1299C180.272 81.1299 181.264 80.1797 181.564 78.8467L181.578 78.7715L180.402 78.7783L180.389 78.8193C180.115 79.6396 179.486 80.0771 178.495 80.0771C177.183 80.0771 176.335 78.9902 176.335 77.2949V77.2812C176.335 75.6201 177.169 74.5537 178.495 74.5537C179.555 74.5537 180.211 75.1416 180.396 75.8662L180.402 75.8867H181.585L181.578 75.8457C181.359 74.5332 180.286 73.501 178.495 73.501C176.431 73.501 175.118 74.9912 175.118 77.2812V77.2949C175.118 79.6328 176.438 81.1299 178.502 81.1299ZM186.329 81.1299C188.065 81.1299 189.118 80.1455 189.371 79.1475L189.385 79.0928H188.195L188.168 79.1543C187.97 79.5986 187.354 80.0703 186.356 80.0703C185.044 80.0703 184.203 79.1816 184.169 77.6572H189.474V77.1924C189.474 74.9912 188.257 73.501 186.254 73.501C184.251 73.501 182.952 75.0596 182.952 77.3359V77.3428C182.952 79.6533 184.224 81.1299 186.329 81.1299ZM186.247 74.5605C187.334 74.5605 188.141 75.251 188.264 76.707H184.189C184.319 75.3057 185.153 74.5605 186.247 74.5605ZM192.29 81.0684C192.782 81.0684 193.179 80.665 193.179 80.1797C193.179 79.6875 192.782 79.291 192.29 79.291C191.805 79.291 191.401 79.6875 191.401 80.1797C191.401 80.665 191.805 81.0684 192.29 81.0684ZM195.476 81H196.665V76.4336C196.665 75.3535 197.472 74.6357 198.606 74.6357C198.866 74.6357 199.092 74.6631 199.338 74.7041V73.5488C199.222 73.5283 198.969 73.501 198.743 73.501C197.745 73.501 197.055 73.9521 196.774 74.7246H196.665V73.6309H195.476V81ZM203.275 81.1299C204.355 81.1299 205.101 80.6855 205.463 79.8994H205.572V81H206.762V73.6309H205.572V77.9922C205.572 79.2842 204.882 80.0771 203.583 80.0771C202.407 80.0771 201.929 79.4414 201.929 78.1152V73.6309H200.739V78.4023C200.739 80.1455 201.601 81.1299 203.275 81.1299Z" fill="white"/>
<path fill-rule="evenodd" clip-rule="evenodd" d="M138 128C138 121.373 143.373 116 150 116H232C238.627 116 244 121.373 244 128V212C244 218.627 238.627 224 232 224H150C143.373 224 138 218.627 138 212V128ZM138 239.5C138 235.358 141.358 232 145.5 232H236.5C240.642 232 244 235.358 244 239.5C244 243.642 240.642 247 236.5 247H145.5C141.358 247 138 243.642 138 239.5ZM174.5 255C170.358 255 167 258.358 167 262.5C167 266.642 170.358 270 174.5 270H207.5C211.642 270 215 266.642 215 262.5C215 258.358 211.642 255 207.5 255H174.5Z" fill="url(#paint1_linear_130_46739)"/>
<path fill-rule="evenodd" clip-rule="evenodd" d="M21 128C21 121.373 26.3726 116 33 116H115C121.627 116 127 121.373 127 128V212C127 218.627 121.627 224 115 224H33C26.3726 224 21 218.627 21 212V128ZM21 239.5C21 235.358 24.3579 232 28.5 232H119.5C123.642 232 127 235.358 127 239.5C127 243.642 123.642 247 119.5 247H28.5C24.3579 247 21 243.642 21 239.5ZM57.5 255C53.3579 255 50 258.358 50 262.5C50 266.642 53.3579 270 57.5 270H90.5C94.6421 270 98 266.642 98 262.5C98 258.358 94.6421 255 90.5 255H57.5Z" fill="url(#paint2_linear_130_46739)"/>
</g>
<defs>
<linearGradient id="paint0_linear_130_46739" x1="132.5" y1="0" x2="132.5" y2="275" gradientUnits="userSpaceOnUse">
<stop stop-color="white" stop-opacity="0.46"/>
<stop offset="1" stop-color="white" stop-opacity="0"/>
</linearGradient>
<linearGradient id="paint1_linear_130_46739" x1="191" y1="116" x2="191" y2="270" gradientUnits="userSpaceOnUse">
<stop stop-color="white" stop-opacity="0.12"/>
<stop offset="1" stop-color="white" stop-opacity="0.05"/>
</linearGradient>
<linearGradient id="paint2_linear_130_46739" x1="74" y1="116" x2="74" y2="270" gradientUnits="userSpaceOnUse">
<stop stop-color="white" stop-opacity="0.12"/>
<stop offset="1" stop-color="white" stop-opacity="0.05"/>
</linearGradient>
<clipPath id="clip0_130_46739">
<rect width="265" height="275" fill="white"/>
</clipPath>
</defs>
</svg>
