<svg width="311" height="243" viewBox="0 0 311 243" fill="none" xmlns="http://www.w3.org/2000/svg">
<path d="M211.107 132.799C211.107 132.678 211.107 132.678 211.107 132.799V130.248L208.815 129.883C208.695 129.883 208.574 129.762 208.453 129.762L202.302 128.79L197.477 127.939C196.753 125.631 195.788 123.444 194.702 121.257L201.095 112.144C201.095 112.023 201.216 112.023 201.216 111.901L202.543 109.957L195.909 103.275L189.274 96.5924L187.344 97.9289C187.224 97.9289 187.224 97.9289 187.103 98.0504L178.056 104.49C176.006 103.396 173.714 102.424 171.422 101.695L170.94 99.1439L169.613 90.6389C169.613 90.5174 169.492 90.3959 169.492 90.1529L169.13 87.9659H150.313L150.072 90.1529C149.951 90.2744 149.951 90.5174 149.951 90.7604L148.142 101.817C145.85 102.546 143.679 103.518 141.508 104.611L132.461 98.1719C132.34 98.1719 132.34 98.1719 132.22 98.0504L130.29 96.7139L128.481 98.5364L118.71 108.256L116.901 110.079L118.228 112.023C118.228 112.144 118.228 112.144 118.348 112.266L124.741 121.378C123.656 123.444 122.691 125.631 121.967 127.939L110.99 129.762C110.749 129.762 110.628 129.883 110.508 129.883L108.457 130.248V149.202L110.628 149.566C110.749 149.566 110.87 149.688 110.99 149.688L121.967 151.51C122.691 153.819 123.656 156.006 124.741 158.193L118.228 167.305C118.107 167.427 118.107 167.548 118.107 167.548L116.78 169.371L118.589 171.193L128.36 180.913L130.169 182.736L132.099 181.278C132.22 181.278 132.22 181.278 132.34 181.156L137.768 177.268L141.387 174.717C143.438 175.81 145.73 176.782 148.021 177.511L149.831 188.568C149.831 188.811 149.951 188.932 149.951 189.175L150.313 191.241H169.13L169.492 189.175C169.492 189.054 169.613 188.932 169.613 188.689L171.543 177.633C173.835 176.904 176.006 175.932 178.177 174.838L179.383 175.689L187.103 181.278C187.224 181.399 187.344 181.399 187.344 181.399L189.154 182.736L190.963 180.913L200.733 171.193L202.543 169.371L201.216 167.427C201.216 167.305 201.216 167.305 201.095 167.184L196.029 160.137L194.582 158.193C195.667 156.006 196.632 153.819 197.356 151.51L208.212 149.688C208.453 149.688 208.574 149.566 208.695 149.566L210.745 149.202V132.799H211.107ZM159.842 157.95C149.831 157.95 141.628 149.688 141.628 139.725C141.628 129.762 149.831 121.5 159.842 121.5C169.854 121.5 178.056 129.64 178.056 139.725C178.056 149.688 169.854 157.95 159.842 157.95Z" fill="#21BCC2"/>
<path opacity="0.3" d="M195.788 117.369H35.4805C35.4805 117.369 48.8696 101.331 70.2198 101.331C70.2198 101.331 72.6323 71.442 99.6517 71.442C114.609 71.442 119.916 78.8535 119.916 78.8535C119.916 78.8535 124.862 59.292 148.624 61.6005C170.698 63.7875 177.815 82.377 178.177 96.8355C178.298 96.8355 195.788 100.966 195.788 117.369ZM274.313 146.043C274.313 146.043 269.971 138.51 259.839 138.874C259.839 138.874 258.512 128.061 246.811 128.061C236.92 128.061 233.422 136.566 233.422 136.566C233.422 136.566 220.274 133.771 218.827 146.043H274.313Z" fill="#21BCC2"/>
<path d="M225.461 89.9099C225.34 89.9099 225.22 89.9099 225.22 89.7884C224.979 89.6669 224.858 89.4239 224.858 89.3024V84.9284H208.212C207.85 84.9284 207.609 84.6854 207.609 84.3209V76.4234C207.609 76.0589 207.85 75.8159 208.212 75.8159H224.858V71.4419C224.858 71.1989 224.979 70.9559 225.22 70.9559C225.461 70.8344 225.702 70.8344 225.823 70.9559L237.644 79.9469C237.765 80.0684 237.885 80.1899 237.885 80.4329C237.885 80.6759 237.765 80.7974 237.644 80.9189L225.823 89.9099C225.702 89.7884 225.582 89.9099 225.461 89.9099ZM208.695 83.5919H225.34C225.702 83.5919 225.944 83.8349 225.944 84.1994V87.9659L236.076 80.1899L225.944 72.4139V76.1804C225.944 76.5449 225.702 76.7879 225.34 76.7879H208.695V83.5919ZM216.294 108.256C216.173 108.256 216.053 108.256 215.932 108.135L204.111 99.1439C203.99 99.0224 203.87 98.9009 203.87 98.6579C203.87 98.4149 203.99 98.2934 204.111 98.1719L215.932 89.1809C216.173 89.0594 216.414 89.0594 216.535 89.1809C216.776 89.3024 216.897 89.5454 216.897 89.6669V94.0409H233.543C233.905 94.0409 234.146 94.2839 234.146 94.6484V102.546C234.146 102.91 233.905 103.153 233.543 103.153H216.897V107.527C216.897 107.77 216.776 108.013 216.535 108.013C216.535 108.256 216.414 108.256 216.294 108.256ZM205.558 98.6579L215.691 106.434V102.667C215.691 102.303 215.932 102.06 216.294 102.06H232.94V95.3774H216.294C215.932 95.3774 215.691 95.1344 215.691 94.7699V91.0034L205.558 98.6579ZM138.975 167.548C138.975 166.819 139.457 166.333 140.181 166.333C140.784 166.333 141.387 166.819 141.387 167.548C141.387 168.277 140.905 168.763 140.181 168.763C139.457 168.763 138.975 168.156 138.975 167.548ZM131.737 167.548C131.737 166.819 132.22 166.333 132.944 166.333C133.667 166.333 134.15 166.819 134.15 167.548C134.15 168.277 133.667 168.763 132.944 168.763C132.22 168.763 131.737 168.156 131.737 167.548ZM124.5 167.548C124.5 166.819 124.983 166.333 125.706 166.333C126.43 166.333 126.912 166.819 126.912 167.548C126.912 168.277 126.43 168.763 125.706 168.763C124.983 168.763 124.5 168.156 124.5 167.548ZM117.263 167.548C117.263 166.819 117.745 166.333 118.469 166.333C119.193 166.333 119.675 166.819 119.675 167.548C119.675 168.277 119.072 168.763 118.469 168.763C117.745 168.763 117.263 168.156 117.263 167.548ZM110.025 167.548C110.025 166.819 110.508 166.333 111.232 166.333C111.955 166.333 112.438 166.819 112.438 167.548C112.438 168.277 111.835 168.763 111.232 168.763C110.508 168.763 110.025 168.156 110.025 167.548ZM102.788 167.548C102.788 166.819 103.27 166.333 103.994 166.333C104.597 166.333 105.2 166.819 105.2 167.548C105.2 168.277 104.597 168.763 103.994 168.763C103.27 168.763 102.788 168.156 102.788 167.548ZM95.5506 167.548C95.5506 166.819 96.0331 166.333 96.7568 166.333C97.3599 166.333 97.963 166.819 97.963 167.548C97.963 168.277 97.4805 168.763 96.7568 168.763C96.0331 168.763 95.5506 168.156 95.5506 167.548ZM88.3132 167.548C88.3132 166.819 88.7957 166.333 89.5195 166.333C90.1226 166.333 90.7257 166.819 90.7257 167.548C90.7257 168.277 90.2432 168.763 89.5195 168.763C88.7957 168.763 88.3132 168.156 88.3132 167.548ZM78.4222 177.39H64.6712C62.9825 177.39 61.6556 176.053 61.6556 174.352V160.501C61.6556 158.8 62.9825 157.464 64.6712 157.464H78.4222C80.1109 157.464 81.4377 158.8 81.4377 160.501V174.352C81.4377 176.053 80.1109 177.39 78.4222 177.39ZM64.6712 158.8C63.7062 158.8 62.8619 159.651 62.8619 160.623V174.474C62.8619 175.446 63.7062 176.296 64.6712 176.296H78.4222C79.3872 176.296 80.2315 175.446 80.2315 174.474V160.623C80.2315 159.651 79.3872 158.8 78.4222 158.8H64.6712ZM161.652 106.92C161.652 106.312 162.255 105.705 162.858 105.705C163.582 105.705 164.064 106.312 164.064 106.92C164.064 107.649 163.582 108.135 162.858 108.135C162.134 108.135 161.652 107.527 161.652 106.92ZM161.652 99.6299C161.652 99.0224 162.255 98.4149 162.858 98.4149C163.582 98.4149 164.064 99.0224 164.064 99.6299C164.064 100.359 163.582 100.845 162.858 100.845C162.134 100.845 161.652 100.237 161.652 99.6299ZM161.652 92.3399C161.652 91.7324 162.255 91.1249 162.858 91.1249C163.582 91.1249 164.064 91.7324 164.064 92.3399C164.064 93.0689 163.582 93.5549 162.858 93.5549C162.134 93.5549 161.652 92.9474 161.652 92.3399ZM161.652 85.0499C161.652 84.4424 162.255 83.8349 162.858 83.8349C163.582 83.8349 164.064 84.4424 164.064 85.0499C164.064 85.7789 163.582 86.2649 162.858 86.2649C162.134 86.2649 161.652 85.6574 161.652 85.0499ZM161.652 77.7599C161.652 77.1524 162.255 76.5449 162.858 76.5449C163.582 76.5449 164.064 77.1524 164.064 77.7599C164.064 78.4889 163.582 78.9749 162.858 78.9749C162.134 78.9749 161.652 78.3674 161.652 77.7599ZM161.652 70.4699C161.652 69.8624 162.255 69.2549 162.858 69.2549C163.582 69.2549 164.064 69.8624 164.064 70.4699C164.064 71.1989 163.582 71.6849 162.858 71.6849C162.134 71.6849 161.652 71.0774 161.652 70.4699ZM161.652 63.1799C161.652 62.5724 162.255 61.9649 162.858 61.9649C163.582 61.9649 164.064 62.5724 164.064 63.1799C164.064 63.9089 163.582 64.3949 162.858 64.3949C162.134 64.3949 161.652 63.7874 161.652 63.1799ZM161.652 55.8899C161.652 55.2824 162.255 54.6749 162.858 54.6749C163.582 54.6749 164.064 55.2824 164.064 55.8899C164.064 56.6189 163.582 57.1049 162.858 57.1049C162.134 57.1049 161.652 56.4974 161.652 55.8899ZM169.613 47.8709H155.982C154.294 47.8709 152.967 46.5344 152.967 44.8334V30.9824C152.967 29.2814 154.294 27.9449 155.982 27.9449H169.733C171.422 27.9449 172.749 29.2814 172.749 30.9824V44.8334C172.628 46.4129 171.302 47.8709 169.613 47.8709ZM155.982 29.1599C155.018 29.1599 154.173 30.0104 154.173 30.9824V44.8334C154.173 45.8054 155.018 46.6559 155.982 46.6559H169.733C170.698 46.6559 171.543 45.8054 171.543 44.8334V30.9824C171.543 30.0104 170.698 29.1599 169.733 29.1599H155.982Z" fill="#21BCC2"/>
<path fill-rule="evenodd" clip-rule="evenodd" d="M194.461 213.84H221.481C223.169 213.84 224.496 212.503 224.496 210.802V158.8C224.496 157.099 223.169 155.763 221.481 155.763H194.461C192.772 155.763 191.445 157.099 191.445 158.8V210.802C191.445 212.503 192.772 213.84 194.461 213.84ZM192.772 158.8C192.772 157.828 193.617 156.978 194.582 156.978H221.601C222.566 156.978 223.411 157.828 223.411 158.8V210.802C223.411 211.774 222.566 212.625 221.601 212.625H194.582C193.617 212.625 192.772 211.774 192.772 210.802V158.8ZM210.866 164.025H206.161C205.8 164.025 205.558 163.782 205.558 163.418C205.558 163.053 205.8 162.81 206.161 162.81H210.866C211.228 162.81 211.469 163.053 211.469 163.418C211.469 163.782 211.228 164.025 210.866 164.025ZM205.558 206.186C205.558 204.485 206.885 203.148 208.574 203.148C210.263 203.148 211.59 204.485 211.59 206.186C211.59 207.887 210.263 209.223 208.574 209.223C206.885 209.223 205.558 207.887 205.558 206.186Z" fill="#21BCC2"/>
</svg>
