<svg width="265" height="275" viewBox="0 0 265 275" fill="none" xmlns="http://www.w3.org/2000/svg">
<g clip-path="url(#clip0_130_46567)">
<path fill-rule="evenodd" clip-rule="evenodd" d="M39.4541 0H225.546C246.609 0 263.685 17.1 263.685 38.1938V120.621C264.451 120.892 265 121.623 265 122.484V177.14C265 178 264.451 178.732 263.685 179.003V512.324C263.685 533.418 246.609 550.518 225.546 550.518H39.4541C18.3906 550.518 1.31514 533.418 1.31514 512.324V187.564C0.548943 187.293 0 186.561 0 185.701V154.092C0 153.232 0.548943 152.5 1.31514 152.229V140.151C0.548943 139.88 0 139.148 0 138.288V106.679C0 105.819 0.548943 105.087 1.31514 104.816V88.787C0.548943 88.5158 0 87.784 0 86.9239V70.461C0 69.6009 0.548943 68.8691 1.31514 68.5979V38.1938C1.31514 17.1 18.3906 0 39.4541 0ZM39.4541 7.90217C22.7485 7.90217 9.20596 21.4643 9.20596 38.1938V512.324C9.20596 529.054 22.7485 542.616 39.4541 542.616H225.546C242.251 542.616 255.794 529.054 255.794 512.324V38.1938C255.794 21.4643 242.251 7.90217 225.546 7.90217H205.764C203.498 8.70072 201.873 10.8632 201.873 13.4055C201.873 21.4586 195.355 27.9869 187.313 27.9869H77.0294C68.9879 27.9869 62.469 21.4586 62.469 13.4055C62.469 10.8632 60.8447 8.70072 58.5787 7.90217H39.4541Z" fill="url(#paint0_linear_130_46567)"/>
<path d="M231 48.7501V44.5813C231 44.3052 231.224 44.0813 231.5 44.0813C231.619 44.0813 231.733 44.1235 231.824 44.2003L240.552 51.6191C240.762 51.798 240.788 52.1135 240.609 52.3239C240.591 52.3445 240.572 52.3636 240.552 52.3811L231.824 59.7998C231.613 59.9787 231.298 59.9531 231.119 59.7427C231.042 59.6523 231 59.5375 231 59.4189V55.2501C225.654 55.2501 221.861 56.395 219.621 58.6849C219.524 58.7837 219.366 58.7854 219.267 58.6889C219.205 58.6278 219.179 58.5386 219.198 58.4535C220.703 51.9845 224.636 48.7501 231 48.7501ZM231 48.7501V44.5813C231 44.3052 231.224 44.0813 231.5 44.0813C231.619 44.0813 231.733 44.1235 231.824 44.2003L240.552 51.6191C240.762 51.798 240.788 52.1135 240.609 52.3239C240.591 52.3445 240.572 52.3636 240.552 52.3811L231.824 59.7998C231.613 59.9787 231.298 59.9531 231.119 59.7427C231.042 59.6523 231 59.5375 231 59.4189V55.2501C225.654 55.2501 221.861 56.395 219.621 58.6849C219.524 58.7837 219.366 58.7854 219.267 58.6889C219.205 58.6278 219.179 58.5386 219.198 58.4535C220.703 51.9845 224.636 48.7501 231 48.7501Z" fill="white"/>
<rect x="21" y="71" width="223" height="197" rx="12" fill="url(#paint1_linear_130_46567)"/>
<path d="M163.874 175.79C163.874 175.72 163.874 175.72 163.874 175.79V174.335L162.571 174.127C162.503 174.127 162.434 174.058 162.365 174.058L158.867 173.503L156.123 173.018C155.712 171.702 155.163 170.455 154.545 169.208L158.181 164.012C158.181 163.943 158.25 163.942 158.25 163.873L159.004 162.765L155.231 158.954L151.459 155.144L150.361 155.906C150.293 155.906 150.293 155.906 150.224 155.975L145.079 159.647C143.913 159.024 142.61 158.469 141.307 158.054L141.032 156.599L140.278 151.749C140.278 151.68 140.209 151.61 140.209 151.472L140.003 150.225H129.302L129.165 151.472C129.097 151.541 129.097 151.68 129.097 151.818L128.068 158.123C126.764 158.539 125.53 159.093 124.295 159.716L119.15 156.044C119.082 156.044 119.082 156.044 119.013 155.975L117.916 155.213L116.887 156.252L111.331 161.795L110.302 162.834L111.056 163.942C111.056 164.012 111.056 164.012 111.125 164.081L114.76 169.277C114.143 170.455 113.594 171.702 113.183 173.018L106.94 174.058C106.803 174.058 106.735 174.127 106.666 174.127L105.5 174.335V185.142L106.735 185.35C106.803 185.35 106.872 185.42 106.94 185.42L113.183 186.459C113.594 187.775 114.143 189.022 114.76 190.269L111.056 195.465C110.988 195.535 110.988 195.604 110.988 195.604L110.233 196.643L111.262 197.682L116.818 203.225L117.847 204.264L118.945 203.433C119.013 203.433 119.013 203.433 119.082 203.363L122.169 201.146L124.226 199.692C125.393 200.315 126.696 200.869 127.999 201.285L129.028 207.59C129.028 207.728 129.097 207.797 129.097 207.936L129.302 209.114H140.003L140.209 207.936C140.209 207.867 140.278 207.797 140.278 207.659L141.375 201.354C142.679 200.939 143.913 200.384 145.148 199.761L145.834 200.246L150.224 203.433C150.293 203.502 150.361 203.502 150.361 203.502L151.39 204.264L152.419 203.225L157.975 197.682L159.004 196.643L158.25 195.535C158.25 195.465 158.25 195.465 158.181 195.396L155.3 191.378L154.477 190.269C155.094 189.022 155.643 187.775 156.055 186.459L162.228 185.42C162.365 185.42 162.434 185.35 162.503 185.35L163.669 185.142V175.79H163.874ZM134.722 190.131C129.028 190.131 124.364 185.42 124.364 179.739C124.364 174.058 129.028 169.346 134.722 169.346C140.415 169.346 145.079 173.988 145.079 179.739C145.079 185.42 140.415 190.131 134.722 190.131Z" fill="white"/>
<path opacity="0.3" d="M155.163 166.991H64C64 166.991 71.6141 157.846 83.7554 157.846C83.7554 157.846 85.1273 140.803 100.493 140.803C108.998 140.803 112.017 145.029 112.017 145.029C112.017 145.029 114.829 133.874 128.342 135.191C140.895 136.438 144.942 147.038 145.148 155.282C145.217 155.282 155.163 157.638 155.163 166.991ZM199.818 183.341C199.818 183.341 197.349 179.046 191.587 179.253C191.587 179.253 190.832 173.087 184.179 173.087C178.554 173.087 176.565 177.937 176.565 177.937C176.565 177.937 169.088 176.344 168.265 183.341H199.818Z" fill="white"/>
<path d="M172.037 151.333C171.969 151.333 171.9 151.333 171.9 151.264C171.763 151.195 171.694 151.056 171.694 150.987V148.493H162.228C162.022 148.493 161.885 148.354 161.885 148.146V143.643C161.885 143.435 162.022 143.297 162.228 143.297H171.694V140.803C171.694 140.664 171.763 140.525 171.9 140.525C172.037 140.456 172.174 140.456 172.243 140.525L178.965 145.652C179.034 145.722 179.103 145.791 179.103 145.929C179.103 146.068 179.034 146.137 178.965 146.207L172.243 151.333C172.174 151.264 172.106 151.333 172.037 151.333ZM162.503 147.731H171.969C172.174 147.731 172.312 147.869 172.312 148.077V150.225L178.074 145.791L172.312 141.357V143.505C172.312 143.712 172.174 143.851 171.969 143.851H162.503V147.731ZM166.824 161.795C166.755 161.795 166.687 161.795 166.618 161.725L159.896 156.599C159.827 156.529 159.759 156.46 159.759 156.322C159.759 156.183 159.827 156.114 159.896 156.044L166.618 150.918C166.755 150.848 166.893 150.848 166.961 150.918C167.098 150.987 167.167 151.125 167.167 151.195V153.689H176.633C176.839 153.689 176.976 153.827 176.976 154.035V158.539C176.976 158.746 176.839 158.885 176.633 158.885H167.167V161.379C167.167 161.518 167.098 161.656 166.961 161.656C166.961 161.795 166.893 161.795 166.824 161.795ZM160.719 156.322L166.481 160.756V158.608C166.481 158.4 166.618 158.261 166.824 158.261H176.29V154.451H166.824C166.618 154.451 166.481 154.312 166.481 154.105V151.957L160.719 156.322ZM122.855 195.604C122.855 195.188 123.129 194.911 123.541 194.911C123.884 194.911 124.227 195.188 124.227 195.604C124.227 196.02 123.952 196.297 123.541 196.297C123.129 196.297 122.855 195.95 122.855 195.604ZM118.739 195.604C118.739 195.188 119.013 194.911 119.425 194.911C119.836 194.911 120.111 195.188 120.111 195.604C120.111 196.02 119.836 196.297 119.425 196.297C119.013 196.297 118.739 195.95 118.739 195.604ZM114.623 195.604C114.623 195.188 114.898 194.911 115.309 194.911C115.721 194.911 115.995 195.188 115.995 195.604C115.995 196.02 115.721 196.297 115.309 196.297C114.898 196.297 114.623 195.95 114.623 195.604ZM110.507 195.604C110.507 195.188 110.782 194.911 111.193 194.911C111.605 194.911 111.879 195.188 111.879 195.604C111.879 196.02 111.536 196.297 111.193 196.297C110.782 196.297 110.507 195.95 110.507 195.604ZM106.392 195.604C106.392 195.188 106.666 194.911 107.078 194.911C107.489 194.911 107.764 195.188 107.764 195.604C107.764 196.02 107.421 196.297 107.078 196.297C106.666 196.297 106.392 195.95 106.392 195.604ZM102.276 195.604C102.276 195.188 102.55 194.911 102.962 194.911C103.305 194.911 103.648 195.188 103.648 195.604C103.648 196.02 103.305 196.297 102.962 196.297C102.55 196.297 102.276 195.95 102.276 195.604ZM98.1604 195.604C98.1604 195.188 98.4347 194.911 98.8463 194.911C99.1893 194.911 99.5323 195.188 99.5323 195.604C99.5323 196.02 99.2579 196.297 98.8463 196.297C98.4347 196.297 98.1604 195.95 98.1604 195.604ZM94.0447 195.604C94.0447 195.188 94.319 194.911 94.7306 194.911C95.0736 194.911 95.4166 195.188 95.4166 195.604C95.4166 196.02 95.1422 196.297 94.7306 196.297C94.319 196.297 94.0447 195.95 94.0447 195.604ZM88.4199 201.216H80.6C79.6397 201.216 78.8851 200.454 78.8851 199.484V191.586C78.8851 190.616 79.6397 189.854 80.6 189.854H88.4199C89.3802 189.854 90.1347 190.616 90.1347 191.586V199.484C90.1347 200.454 89.3802 201.216 88.4199 201.216ZM80.6 190.616C80.0512 190.616 79.5711 191.101 79.5711 191.655V199.553C79.5711 200.107 80.0512 200.592 80.6 200.592H88.4199C88.9686 200.592 89.4488 200.107 89.4488 199.553V191.655C89.4488 191.101 88.9686 190.616 88.4199 190.616H80.6ZM135.75 161.033C135.75 160.686 136.093 160.34 136.436 160.34C136.848 160.34 137.122 160.686 137.122 161.033C137.122 161.448 136.848 161.725 136.436 161.725C136.025 161.725 135.75 161.379 135.75 161.033ZM135.75 156.876C135.75 156.529 136.093 156.183 136.436 156.183C136.848 156.183 137.122 156.529 137.122 156.876C137.122 157.291 136.848 157.569 136.436 157.569C136.025 157.569 135.75 157.222 135.75 156.876ZM135.75 152.719C135.75 152.373 136.093 152.026 136.436 152.026C136.848 152.026 137.122 152.373 137.122 152.719C137.122 153.135 136.848 153.412 136.436 153.412C136.025 153.412 135.75 153.065 135.75 152.719ZM135.75 148.562C135.75 148.216 136.093 147.869 136.436 147.869C136.848 147.869 137.122 148.216 137.122 148.562C137.122 148.978 136.848 149.255 136.436 149.255C136.025 149.255 135.75 148.908 135.75 148.562ZM135.75 144.405C135.75 144.059 136.093 143.712 136.436 143.712C136.848 143.712 137.122 144.059 137.122 144.405C137.122 144.821 136.848 145.098 136.436 145.098C136.025 145.098 135.75 144.752 135.75 144.405ZM135.75 140.248C135.75 139.902 136.093 139.556 136.436 139.556C136.848 139.556 137.122 139.902 137.122 140.248C137.122 140.664 136.848 140.941 136.436 140.941C136.025 140.941 135.75 140.595 135.75 140.248ZM135.75 136.092C135.75 135.745 136.093 135.399 136.436 135.399C136.848 135.399 137.122 135.745 137.122 136.092C137.122 136.507 136.848 136.784 136.436 136.784C136.025 136.784 135.75 136.438 135.75 136.092ZM135.75 131.935C135.75 131.588 136.093 131.242 136.436 131.242C136.848 131.242 137.122 131.588 137.122 131.935C137.122 132.35 136.848 132.627 136.436 132.627C136.025 132.627 135.75 132.281 135.75 131.935ZM140.278 127.362H132.527C131.566 127.362 130.812 126.6 130.812 125.63V117.732C130.812 116.762 131.566 116 132.527 116H140.346C141.307 116 142.061 116.762 142.061 117.732V125.63C141.993 126.531 141.238 127.362 140.278 127.362ZM132.527 116.693C131.978 116.693 131.498 117.178 131.498 117.732V125.63C131.498 126.184 131.978 126.669 132.527 126.669H140.346C140.895 126.669 141.375 126.184 141.375 125.63V117.732C141.375 117.178 140.895 116.693 140.346 116.693H132.527Z" fill="white"/>
<path fill-rule="evenodd" clip-rule="evenodd" d="M154.408 222H169.774C170.734 222 171.489 221.238 171.489 220.268V190.616C171.489 189.646 170.734 188.884 169.774 188.884H154.408C153.448 188.884 152.693 189.646 152.693 190.616V220.268C152.693 221.238 153.448 222 154.408 222ZM153.448 190.616C153.448 190.061 153.928 189.576 154.477 189.576H169.842C170.391 189.576 170.871 190.061 170.871 190.616V220.268C170.871 220.822 170.391 221.307 169.842 221.307H154.477C153.928 221.307 153.448 220.822 153.448 220.268V190.616ZM163.737 193.595H161.062C160.856 193.595 160.719 193.456 160.719 193.248C160.719 193.04 160.856 192.902 161.062 192.902H163.737C163.943 192.902 164.08 193.04 164.08 193.248C164.08 193.456 163.943 193.595 163.737 193.595ZM160.719 217.635C160.719 216.665 161.474 215.903 162.434 215.903C163.394 215.903 164.149 216.665 164.149 217.635C164.149 218.605 163.394 219.367 162.434 219.367C161.474 219.367 160.719 218.605 160.719 217.635Z" fill="white"/>
</g>
<defs>
<linearGradient id="paint0_linear_130_46567" x1="132.5" y1="0" x2="132.5" y2="275" gradientUnits="userSpaceOnUse">
<stop stop-color="white" stop-opacity="0.46"/>
<stop offset="1" stop-color="white" stop-opacity="0"/>
</linearGradient>
<linearGradient id="paint1_linear_130_46567" x1="132.5" y1="71" x2="132.5" y2="268" gradientUnits="userSpaceOnUse">
<stop stop-color="white" stop-opacity="0.12"/>
<stop offset="1" stop-color="white" stop-opacity="0"/>
</linearGradient>
<clipPath id="clip0_130_46567">
<rect width="265" height="275" fill="white"/>
</clipPath>
</defs>
</svg>
