<svg width="341" height="265" viewBox="0 0 341 265" fill="none" xmlns="http://www.w3.org/2000/svg">
<path opacity="0.3" d="M0 196.911H163.982C163.982 196.911 150.38 180.69 128.465 180.69C128.465 180.69 126.009 150.135 98.2382 150.135C82.9357 150.135 77.4571 157.68 77.4571 157.68C77.4571 157.68 72.3562 137.687 48.1745 139.95C25.5042 142.214 18.3252 161.075 17.9474 175.787C17.9474 175.975 0 180.125 0 196.911ZM322.486 152.587C322.486 152.587 314.74 139.007 296.604 139.762C296.604 139.762 294.148 120.523 273.367 120.523C255.797 120.523 249.563 135.612 249.563 135.612C249.563 135.612 226.137 130.52 223.303 152.399H322.486V152.587ZM193.643 265C193.643 265 199.499 254.815 213.101 255.381C213.101 255.381 214.991 240.858 230.671 240.858C243.895 240.858 248.618 252.363 248.618 252.363C248.618 252.363 266.377 248.591 268.455 265H193.643Z" fill="#21BCC2"/>
<path d="M157.182 124.673H67.2559V62.2421H82.1806V50.9254C82.1806 34.3275 95.5939 20.936 112.219 20.936C128.844 20.936 142.257 34.3275 142.257 50.9254V62.2421H157.182V124.673ZM69.1451 122.787H155.292V64.1282H140.368V50.9254C140.368 35.4592 127.71 22.8222 112.219 22.8222C96.7274 22.8222 84.0698 35.4592 84.0698 50.9254V64.1282H69.1451V122.787ZM129.599 64.1282H94.6493V50.9254C94.6493 41.3061 102.584 33.3844 112.219 33.3844C121.854 33.3844 129.788 41.3061 129.788 50.9254L129.599 64.1282ZM96.5385 62.2421H127.71V50.9254C127.71 42.2492 120.72 35.2706 112.03 35.2706C103.34 35.2706 96.3496 42.2492 96.3496 50.9254V62.2421H96.5385Z" fill="#21BCC2"/>
<path d="M254.664 148.626V97.5124C245.407 90.1565 207.623 84.3096 187.597 84.3096C167.383 84.3096 129.788 90.3452 120.531 97.5124V148.626C120.531 176.352 120.342 218.413 187.597 238.594C254.853 218.413 254.853 176.541 254.664 148.626ZM196.099 163.527L199.31 185.028H175.884L179.096 163.527C172.673 160.32 168.327 153.907 168.327 146.363C168.327 135.612 177.018 127.125 187.597 127.125C198.177 127.125 206.867 135.801 206.867 146.363C206.867 153.907 202.522 160.32 196.099 163.527Z" fill="#21BCC2"/>
<path d="M164.927 221.431C164.927 220.488 165.682 219.544 166.816 219.544C167.761 219.544 168.705 220.488 168.705 221.431C168.705 222.562 167.761 223.317 166.816 223.317C165.871 223.317 164.927 222.562 164.927 221.431ZM153.592 221.431C153.592 220.488 154.347 219.544 155.481 219.544C156.425 219.544 157.37 220.488 157.37 221.431C157.37 222.562 156.425 223.317 155.481 223.317C154.536 223.317 153.592 222.562 153.592 221.431ZM142.256 221.431C142.256 220.488 143.012 219.544 144.146 219.544C145.09 219.544 146.035 220.488 146.035 221.431C146.035 222.562 145.09 223.317 144.146 223.317C143.201 223.317 142.256 222.562 142.256 221.431ZM130.921 221.431C130.921 220.488 131.677 219.544 132.81 219.544C133.755 219.544 134.7 220.488 134.7 221.431C134.7 222.562 133.755 223.317 132.81 223.317C131.866 223.317 130.921 222.562 130.921 221.431ZM119.586 221.431C119.586 220.488 120.342 219.544 121.475 219.544C122.42 219.544 123.364 220.488 123.364 221.431C123.364 222.562 122.42 223.317 121.475 223.317C120.531 223.317 119.586 222.562 119.586 221.431ZM108.251 221.431C108.251 220.488 109.007 219.544 110.14 219.544C111.085 219.544 112.029 220.488 112.029 221.431C112.029 222.562 111.085 223.317 110.14 223.317C109.195 223.317 108.251 222.562 108.251 221.431ZM96.9157 221.431C96.9157 220.488 97.6714 219.544 98.8049 219.544C99.7495 219.544 100.694 220.488 100.694 221.431C100.694 222.562 99.7495 223.317 98.8049 223.317C97.8603 223.317 96.9157 222.562 96.9157 221.431ZM85.5805 221.431C85.5805 220.488 86.3362 219.544 87.4697 219.544C88.4143 219.544 89.3589 220.488 89.3589 221.431C89.3589 222.562 88.4143 223.317 87.4697 223.317C86.5251 223.317 85.5805 222.562 85.5805 221.431ZM74.2453 221.431C74.2453 220.488 75.001 219.544 76.1345 219.544C77.0791 219.544 78.0237 220.488 78.0237 221.431C78.0237 222.562 77.0791 223.317 76.1345 223.317C75.1899 223.317 74.2453 222.562 74.2453 221.431ZM293.77 192.196C293.77 191.064 294.715 190.31 295.659 190.31C296.604 190.31 297.548 191.064 297.548 192.196C297.548 193.139 296.604 194.082 295.659 194.082C294.715 194.082 293.77 193.139 293.77 192.196ZM282.435 192.196C282.435 191.064 283.379 190.31 284.324 190.31C285.269 190.31 286.213 191.064 286.213 192.196C286.213 193.139 285.269 194.082 284.324 194.082C283.379 194.082 282.435 193.139 282.435 192.196ZM271.1 192.196C271.1 191.064 272.044 190.31 272.989 190.31C273.933 190.31 274.878 191.064 274.878 192.196C274.878 193.139 273.933 194.082 272.989 194.082C272.044 194.082 271.1 193.139 271.1 192.196ZM259.764 192.196C259.764 191.064 260.709 190.31 261.654 190.31C262.598 190.31 263.543 191.064 263.543 192.196C263.543 193.139 262.598 194.082 261.654 194.082C260.709 194.082 259.764 193.139 259.764 192.196ZM248.429 192.196C248.429 191.064 249.374 190.31 250.318 190.31C251.263 190.31 252.208 191.064 252.208 192.196C252.208 193.139 251.263 194.082 250.318 194.082C249.374 194.082 248.429 193.139 248.429 192.196ZM237.094 192.196C237.094 191.064 238.039 190.31 238.983 190.31C239.928 190.31 240.872 191.064 240.872 192.196C240.872 193.139 239.928 194.082 238.983 194.082C238.039 194.082 237.094 193.139 237.094 192.196ZM225.759 192.196C225.759 191.064 226.704 190.31 227.648 190.31C228.593 190.31 229.537 191.064 229.537 192.196C229.537 193.139 228.593 194.082 227.648 194.082C226.704 194.082 225.759 193.139 225.759 192.196ZM214.424 192.196C214.424 191.064 215.368 190.31 216.313 190.31C217.258 190.31 218.202 191.064 218.202 192.196C218.202 193.139 217.258 194.082 216.313 194.082C215.368 194.082 214.424 193.139 214.424 192.196ZM203.089 192.196C203.089 191.064 204.033 190.31 204.978 190.31C205.922 190.31 206.867 191.064 206.867 192.196C206.867 193.139 205.922 194.082 204.978 194.082C204.033 194.082 203.089 193.139 203.089 192.196ZM217.446 133.349C217.446 132.406 218.202 131.463 219.336 131.463C220.469 131.463 221.225 132.406 221.225 133.349C221.225 134.292 220.469 135.235 219.336 135.235C218.391 135.235 217.446 134.48 217.446 133.349ZM217.446 122.032C217.446 121.089 218.202 120.146 219.336 120.146C220.469 120.146 221.225 121.089 221.225 122.032C221.225 122.975 220.469 123.918 219.336 123.918C218.391 123.918 217.446 123.164 217.446 122.032ZM217.446 110.715C217.446 109.772 218.202 108.829 219.336 108.829C220.469 108.829 221.225 109.772 221.225 110.715C221.225 111.658 220.469 112.601 219.336 112.601C218.391 112.601 217.446 111.847 217.446 110.715ZM217.446 99.3986C217.446 98.4555 218.202 97.5125 219.336 97.5125C220.469 97.5125 221.225 98.4555 221.225 99.3986C221.225 100.342 220.469 101.285 219.336 101.285C218.391 101.285 217.446 100.53 217.446 99.3986ZM217.446 88.0819C217.446 87.1388 218.202 86.1957 219.336 86.1957C220.469 86.1957 221.225 87.1388 221.225 88.0819C221.225 89.0249 220.469 89.968 219.336 89.968C218.391 89.968 217.446 89.2135 217.446 88.0819ZM217.446 76.7651C217.446 75.8221 218.202 74.879 219.336 74.879C220.469 74.879 221.225 75.8221 221.225 76.7651C221.225 77.7082 220.469 78.6512 219.336 78.6512C218.391 78.6512 217.446 77.8968 217.446 76.7651ZM217.446 65.4484C217.446 64.5053 218.202 63.5623 219.336 63.5623C220.469 63.5623 221.225 64.5053 221.225 65.4484C221.225 66.3915 220.469 67.3345 219.336 67.3345C218.391 67.3345 217.446 66.5801 217.446 65.4484ZM217.446 54.1317C217.446 53.1886 218.202 52.2456 219.336 52.2456C220.469 52.2456 221.225 53.1886 221.225 54.1317C221.225 55.0747 220.469 56.0178 219.336 56.0178C218.391 56.0178 217.446 55.2633 217.446 54.1317ZM217.446 42.8149C217.446 41.8719 218.202 40.9288 219.336 40.9288C220.469 40.9288 221.225 41.8719 221.225 42.8149C221.225 43.758 220.469 44.7011 219.336 44.7011C218.391 44.7011 217.446 43.9466 217.446 42.8149ZM336.277 207.473H315.118C312.473 207.473 310.395 205.399 310.395 202.758V181.445C310.395 178.804 312.473 176.73 315.118 176.73H336.277C338.922 176.73 341 178.804 341 181.445V202.758C341 205.399 338.922 207.473 336.277 207.473ZM315.118 178.616C313.607 178.616 312.284 179.936 312.284 181.445V202.758C312.284 204.267 313.607 205.587 315.118 205.587H336.277C337.788 205.587 339.111 204.267 339.111 202.758V181.445C339.111 179.936 337.788 178.616 336.277 178.616H315.118ZM60.6431 236.897H39.4841C36.8392 236.897 34.7611 234.822 34.7611 232.182V210.868C34.7611 208.228 36.8392 206.153 39.4841 206.153H60.6431C63.288 206.153 65.3661 208.228 65.3661 210.868V232.182C65.3661 234.822 63.288 236.897 60.6431 236.897ZM39.4841 208.039C37.9727 208.039 36.6503 209.359 36.6503 210.868V232.182C36.6503 233.69 37.9727 235.011 39.4841 235.011H60.6431C62.1545 235.011 63.4769 233.69 63.4769 232.182V210.868C63.4769 209.359 62.1545 208.039 60.6431 208.039H39.4841ZM230.104 30.7438H208.945C206.3 30.7438 204.222 28.669 204.222 26.0285V4.7153C204.222 2.07473 206.3 0 208.945 0H230.104C232.749 0 234.827 2.07473 234.827 4.7153V26.0285C234.827 28.669 232.56 30.7438 230.104 30.7438ZM208.756 1.88612C207.245 1.88612 205.922 3.20641 205.922 4.7153V26.0285C205.922 27.5374 207.245 28.8577 208.756 28.8577H229.915C231.426 28.8577 232.749 27.5374 232.749 26.0285V4.7153C232.749 3.20641 231.426 1.88612 229.915 1.88612H208.756Z" fill="#21BCC2"/>
</svg>
