<svg width="265" height="275" viewBox="0 0 265 275" fill="none" xmlns="http://www.w3.org/2000/svg">
<g clip-path="url(#clip0_130_46648)">
<path fill-rule="evenodd" clip-rule="evenodd" d="M39.4541 0H225.546C246.609 0 263.685 17.1 263.685 38.1938V120.621C264.451 120.892 265 121.623 265 122.484V177.14C265 178 264.451 178.732 263.685 179.003V512.324C263.685 533.418 246.609 550.518 225.546 550.518H39.4541C18.3906 550.518 1.31514 533.418 1.31514 512.324V187.564C0.548943 187.293 0 186.561 0 185.701V154.092C0 153.232 0.548943 152.5 1.31514 152.229V140.151C0.548943 139.88 0 139.148 0 138.288V106.679C0 105.819 0.548943 105.087 1.31514 104.816V88.787C0.548943 88.5158 0 87.784 0 86.9239V70.461C0 69.6009 0.548943 68.8691 1.31514 68.5979V38.1938C1.31514 17.1 18.3906 0 39.4541 0ZM39.4541 7.90217C22.7485 7.90217 9.20596 21.4643 9.20596 38.1938V512.324C9.20596 529.054 22.7485 542.616 39.4541 542.616H225.546C242.251 542.616 255.794 529.054 255.794 512.324V38.1938C255.794 21.4643 242.251 7.90217 225.546 7.90217H205.764C203.498 8.70072 201.873 10.8632 201.873 13.4055C201.873 21.4586 195.355 27.9869 187.313 27.9869H77.0294C68.9879 27.9869 62.469 21.4586 62.469 13.4055C62.469 10.8632 60.8447 8.70072 58.5787 7.90217H39.4541Z" fill="url(#paint0_linear_130_46648)"/>
<path d="M231 48.7501V44.5813C231 44.3052 231.224 44.0813 231.5 44.0813C231.619 44.0813 231.733 44.1235 231.824 44.2003L240.552 51.6191C240.762 51.798 240.788 52.1135 240.609 52.3239C240.591 52.3445 240.572 52.3636 240.552 52.3811L231.824 59.7998C231.613 59.9787 231.298 59.9531 231.119 59.7427C231.042 59.6523 231 59.5375 231 59.4189V55.2501C225.654 55.2501 221.861 56.395 219.621 58.6849C219.524 58.7837 219.366 58.7854 219.267 58.6889C219.205 58.6278 219.179 58.5386 219.198 58.4535C220.703 51.9845 224.637 48.7501 231 48.7501ZM231 48.7501V44.5813C231 44.3052 231.224 44.0813 231.5 44.0813C231.619 44.0813 231.733 44.1235 231.824 44.2003L240.552 51.6191C240.762 51.798 240.788 52.1135 240.609 52.3239C240.591 52.3445 240.572 52.3636 240.552 52.3811L231.824 59.7998C231.613 59.9787 231.298 59.9531 231.119 59.7427C231.042 59.6523 231 59.5375 231 59.4189V55.2501C225.654 55.2501 221.861 56.395 219.621 58.6849C219.524 58.7837 219.366 58.7854 219.267 58.6889C219.205 58.6278 219.179 58.5386 219.198 58.4535C220.703 51.9845 224.637 48.7501 231 48.7501Z" fill="white"/>
<rect x="21" y="71" width="223" height="197" rx="12" fill="url(#paint1_linear_130_46648)"/>
<path d="M88.6718 193.33C88.6718 192.9 89.0416 192.613 89.4115 192.613C89.7813 192.613 90.1512 192.972 90.1512 193.33C90.1512 193.76 89.7813 194.047 89.4115 194.047C88.9677 194.047 88.6718 193.76 88.6718 193.33ZM84.2336 193.33C84.2336 192.9 84.6035 192.613 84.9733 192.613C85.3432 192.613 85.713 192.972 85.713 193.33C85.713 193.76 85.3432 194.047 84.9733 194.047C84.5295 194.047 84.2336 193.76 84.2336 193.33ZM79.7955 193.33C79.7955 192.9 80.1653 192.613 80.5352 192.613C80.979 192.613 81.2749 192.972 81.2749 193.33C81.2749 193.76 80.979 194.047 80.5352 194.047C80.0914 194.047 79.7955 193.76 79.7955 193.33ZM75.3573 193.33C75.3573 192.9 75.7272 192.613 76.097 192.613C76.4669 192.613 76.8367 192.972 76.8367 193.33C76.8367 193.76 76.4669 194.047 76.097 194.047C75.6532 194.047 75.3573 193.76 75.3573 193.33ZM70.9192 193.33C70.9192 192.9 71.289 192.613 71.6589 192.613C72.0287 192.613 72.3986 192.972 72.3986 193.33C72.3986 193.76 72.0287 194.047 71.6589 194.047C71.215 194.047 70.9192 193.76 70.9192 193.33ZM66.481 193.33C66.481 192.9 66.8509 192.613 67.2207 192.613C67.5905 192.613 67.9604 192.972 67.9604 193.33C67.9604 193.76 67.5905 194.047 67.2207 194.047C66.7769 194.047 66.481 193.76 66.481 193.33ZM62.0429 193.33C62.0429 192.9 62.4127 192.613 62.7825 192.613C63.1524 192.613 63.5222 192.972 63.5222 193.33C63.5222 193.76 63.1524 194.047 62.7825 194.047C62.3387 194.047 62.0429 193.76 62.0429 193.33ZM57.6047 193.33C57.6047 192.9 57.9745 192.613 58.3444 192.613C58.7882 192.613 59.0841 192.972 59.0841 193.33C59.0841 193.76 58.7882 194.047 58.3444 194.047C57.9006 194.047 57.6047 193.76 57.6047 193.33ZM50.2817 199.208H41.8492C40.8137 199.208 40 198.419 40 197.416V189.244C40 188.241 40.8137 187.452 41.8492 187.452H50.2817C51.3173 187.452 52.131 188.241 52.131 189.244V197.416C52.131 198.419 51.3173 199.208 50.2817 199.208ZM41.8492 188.169C41.2575 188.169 40.7397 188.671 40.7397 189.244V197.416C40.7397 197.989 41.2575 198.491 41.8492 198.491H50.2817C50.8735 198.491 51.3913 197.989 51.3913 197.416V189.244C51.3913 188.671 50.8735 188.169 50.2817 188.169H41.8492Z" fill="white"/>
<path d="M87.7842 161.504C87.7842 161.074 88.154 160.787 88.5239 160.787C88.8937 160.787 89.2636 161.074 89.2636 161.504C89.2636 161.934 88.8937 162.221 88.5239 162.221C88.154 162.221 87.7842 161.862 87.7842 161.504ZM83.346 161.504C83.346 161.074 83.7159 160.787 84.0857 160.787C84.4556 160.787 84.8254 161.074 84.8254 161.504C84.8254 161.934 84.4556 162.221 84.0857 162.221C83.7159 162.221 83.346 161.862 83.346 161.504ZM78.9079 161.504C78.9079 161.074 79.2037 160.787 79.6476 160.787C80.0174 160.787 80.3873 161.074 80.3873 161.504C80.3873 161.934 80.0174 162.221 79.6476 162.221C79.2777 162.221 78.9079 161.862 78.9079 161.504ZM74.4697 161.504C74.4697 161.074 74.7656 160.787 75.2094 160.787C75.5792 160.787 75.9491 161.074 75.9491 161.504C75.9491 161.934 75.5792 162.221 75.2094 162.221C74.8396 162.221 74.4697 161.862 74.4697 161.504ZM65.8893 167.382H57.4568C56.4212 167.382 55.6075 166.593 55.6075 165.59V157.418C55.6075 156.415 56.4212 155.626 57.4568 155.626H65.8893C66.9248 155.626 67.7385 156.415 67.7385 157.418V165.59C67.7385 166.593 66.9248 167.382 65.8893 167.382ZM57.4568 156.343C56.865 156.343 56.3472 156.845 56.3472 157.418V165.59C56.3472 166.163 56.865 166.665 57.4568 166.665H65.8893C66.481 166.665 66.9988 166.163 66.9988 165.59V157.418C66.9988 156.845 66.481 156.343 65.8893 156.343H57.4568ZM203.472 171.324C203.472 170.966 203.842 170.607 204.212 170.607C204.582 170.607 204.952 170.966 204.952 171.324C204.952 171.754 204.582 172.041 204.212 172.041C203.768 172.041 203.472 171.754 203.472 171.324ZM199.034 171.324C199.034 170.966 199.404 170.607 199.774 170.607C200.144 170.607 200.513 170.966 200.513 171.324C200.513 171.754 200.144 172.041 199.774 172.041C199.33 172.041 199.034 171.754 199.034 171.324ZM194.596 171.324C194.596 170.966 194.966 170.607 195.336 170.607C195.705 170.607 196.075 170.966 196.075 171.324C196.075 171.754 195.705 172.041 195.336 172.041C194.892 172.041 194.596 171.754 194.596 171.324ZM221.151 177.202H212.718C211.683 177.202 210.869 176.413 210.869 175.41V167.238C210.869 166.235 211.683 165.446 212.718 165.446H221.151C222.186 165.446 223 166.235 223 167.238V175.41C223 176.413 222.186 177.202 221.151 177.202ZM212.718 166.163C212.127 166.163 211.609 166.665 211.609 167.238V175.41C211.609 175.983 212.127 176.485 212.718 176.485H221.151C221.743 176.485 222.26 175.983 222.26 175.41V167.238C222.26 166.665 221.743 166.163 221.151 166.163H212.718Z" fill="white"/>
<g clip-path="url(#clip1_130_46648)">
<g opacity="0.4">
<path d="M103.412 171.78C103.489 171.729 103.568 171.681 103.649 171.638L109.029 168.734L138.865 184.566C139.657 184.986 140.606 184.986 141.399 184.566L171.235 168.734L176.615 171.638C177.922 172.333 178.42 173.96 177.726 175.27C177.683 175.352 177.635 175.431 177.584 175.507L140.132 195.379L102.68 175.507C101.855 174.275 102.183 172.607 103.412 171.78Z" fill="white"/>
</g>
<path opacity="0.1" d="M102.552 189.019C102.803 188.553 103.184 188.171 103.649 187.92L109.029 185.016L138.865 200.847C139.657 201.268 140.606 201.268 141.399 200.847L171.235 185.016L176.615 187.92C177.931 188.631 178.422 190.278 177.711 191.597C177.461 192.062 177.079 192.444 176.615 192.696L141.415 211.691C140.614 212.123 139.65 212.123 138.848 211.691L103.649 192.696C102.333 191.984 101.842 190.338 102.552 189.019Z" fill="white"/>
<path d="M103.412 155.498C103.489 155.447 103.568 155.399 103.649 155.356L138.848 136.361C139.65 135.929 140.614 135.929 141.415 136.361L176.615 155.356C177.922 156.052 178.42 157.678 177.726 158.989C177.683 159.07 177.635 159.149 177.584 159.226L140.132 179.097L102.68 159.226C101.855 157.994 102.183 156.325 103.412 155.498Z" fill="white"/>
</g>
<path opacity="0.3" d="M78.6223 141.505H139.351C139.351 141.505 137.428 138.781 133.138 137.993C133.138 137.993 132.102 132.689 125.519 131.685C120.637 130.968 117.678 134.337 117.678 134.337C117.678 134.337 117.678 126.381 110.725 126.022C104.807 125.664 103.106 129.75 103.106 129.75C103.106 129.75 100.961 127.313 96.153 128.244C90.3834 129.391 89.1999 137.204 89.1999 137.204C89.1999 137.204 80.1757 137.276 78.6223 141.505Z" fill="white"/>
<path opacity="0.3" d="M198.599 164.967H165.165V151.062C165.979 150.775 166.94 150.488 167.976 150.416C174.411 149.843 175.743 154.932 175.743 154.932C175.743 154.932 177.148 152.997 181.216 152.997C188.539 152.997 189.205 160.81 189.205 160.81C194.975 160.81 198.599 164.967 198.599 164.967Z" fill="white"/>
</g>
<defs>
<linearGradient id="paint0_linear_130_46648" x1="132.5" y1="0" x2="132.5" y2="275" gradientUnits="userSpaceOnUse">
<stop stop-color="white" stop-opacity="0.46"/>
<stop offset="1" stop-color="white" stop-opacity="0"/>
</linearGradient>
<linearGradient id="paint1_linear_130_46648" x1="132.5" y1="71" x2="132.5" y2="268" gradientUnits="userSpaceOnUse">
<stop stop-color="white" stop-opacity="0.12"/>
<stop offset="1" stop-color="white" stop-opacity="0"/>
</linearGradient>
<clipPath id="clip0_130_46648">
<rect width="265" height="275" fill="white"/>
</clipPath>
<clipPath id="clip1_130_46648">
<rect width="75.8142" height="75.9811" fill="white" transform="matrix(-1 0 0 1 178.039 136.035)"/>
</clipPath>
</defs>
</svg>
