<svg width="265" height="275" viewBox="0 0 265 275" fill="none" xmlns="http://www.w3.org/2000/svg">
<g clip-path="url(#clip0_130_46500)">
<path fill-rule="evenodd" clip-rule="evenodd" d="M39.4541 0H225.546C246.609 0 263.685 17.1 263.685 38.1938V120.621C264.451 120.892 265 121.623 265 122.484V177.14C265 178 264.451 178.732 263.685 179.003V512.324C263.685 533.418 246.609 550.518 225.546 550.518H39.4541C18.3906 550.518 1.31514 533.418 1.31514 512.324V187.564C0.548943 187.293 0 186.561 0 185.701V154.092C0 153.232 0.548943 152.5 1.31514 152.229V140.151C0.548943 139.88 0 139.148 0 138.288V106.679C0 105.819 0.548943 105.087 1.31514 104.816V88.787C0.548943 88.5158 0 87.784 0 86.9239V70.461C0 69.6009 0.548943 68.8691 1.31514 68.5979V38.1938C1.31514 17.1 18.3906 0 39.4541 0ZM39.4541 7.90217C22.7485 7.90217 9.20596 21.4643 9.20596 38.1938V512.324C9.20596 529.054 22.7485 542.616 39.4541 542.616H225.546C242.251 542.616 255.794 529.054 255.794 512.324V38.1938C255.794 21.4643 242.251 7.90217 225.546 7.90217H205.764C203.498 8.70072 201.873 10.8632 201.873 13.4055C201.873 21.4586 195.355 27.9869 187.313 27.9869H77.0294C68.9879 27.9869 62.469 21.4586 62.469 13.4055C62.469 10.8632 60.8447 8.70072 58.5787 7.90217H39.4541Z" fill="url(#paint0_linear_130_46500)"/>
<path d="M231 48.7501V44.5813C231 44.3052 231.224 44.0813 231.5 44.0813C231.619 44.0813 231.733 44.1235 231.824 44.2003L240.552 51.6191C240.762 51.798 240.788 52.1135 240.609 52.3239C240.591 52.3445 240.572 52.3636 240.552 52.3811L231.824 59.7998C231.613 59.9787 231.298 59.9531 231.119 59.7427C231.042 59.6523 231 59.5375 231 59.4189V55.2501C225.654 55.2501 221.861 56.395 219.621 58.6849C219.524 58.7837 219.366 58.7854 219.267 58.6889C219.205 58.6278 219.179 58.5386 219.198 58.4535C220.703 51.9845 224.636 48.7501 231 48.7501ZM231 48.7501V44.5813C231 44.3052 231.224 44.0813 231.5 44.0813C231.619 44.0813 231.733 44.1235 231.824 44.2003L240.552 51.6191C240.762 51.798 240.788 52.1135 240.609 52.3239C240.591 52.3445 240.572 52.3636 240.552 52.3811L231.824 59.7998C231.613 59.9787 231.298 59.9531 231.119 59.7427C231.042 59.6523 231 59.5375 231 59.4189V55.2501C225.654 55.2501 221.861 56.395 219.621 58.6849C219.524 58.7837 219.366 58.7854 219.267 58.6889C219.205 58.6278 219.179 58.5386 219.198 58.4535C220.703 51.9845 224.636 48.7501 231 48.7501Z" fill="white"/>
<rect x="21" y="71" width="223" height="197" rx="12" fill="url(#paint1_linear_130_46500)"/>
<path opacity="0.3" d="M64 195.021H129.401C129.401 195.021 123.976 188.594 115.235 188.594C115.235 188.594 114.256 176.487 103.18 176.487C97.077 176.487 94.892 179.477 94.892 179.477C94.892 179.477 92.8576 171.555 83.2133 172.452C74.1717 173.349 71.3086 180.822 71.1579 186.651C71.1579 186.726 64 188.37 64 195.021ZM192.616 177.459C192.616 177.459 189.527 172.078 182.294 172.377C182.294 172.377 181.314 164.754 173.026 164.754C166.019 164.754 163.532 170.733 163.532 170.733C163.532 170.733 154.189 168.715 153.059 177.384H192.616V177.459ZM141.23 222C141.23 222 143.566 217.964 148.991 218.189C148.991 218.189 149.744 212.434 155.998 212.434C161.272 212.434 163.156 216.993 163.156 216.993C163.156 216.993 170.238 215.498 171.067 222H141.23Z" fill="white"/>
<path d="M126.688 166.399H90.8235V141.662H96.7758V137.178C96.7758 130.601 102.125 125.295 108.756 125.295C115.386 125.295 120.736 130.601 120.736 137.178V141.662H126.688V166.399ZM91.5769 165.651H125.935V142.409H119.982V137.178C119.982 131.05 114.934 126.043 108.756 126.043C102.578 126.043 97.5293 131.05 97.5293 137.178V142.409H91.5769V165.651ZM115.688 142.409H101.749V137.178C101.749 133.367 104.913 130.228 108.756 130.228C112.599 130.228 115.763 133.367 115.763 137.178L115.688 142.409ZM102.502 141.662H114.934V137.178C114.934 133.74 112.146 130.975 108.681 130.975C105.215 130.975 102.427 133.74 102.427 137.178V141.662H102.502Z" fill="white"/>
<path d="M165.567 175.89V155.637C161.875 152.722 146.806 150.406 138.819 150.406C130.757 150.406 115.763 152.797 112.071 155.637V175.89C112.071 186.876 111.996 203.541 138.819 211.537C165.642 203.541 165.642 186.95 165.567 175.89ZM142.209 181.794L143.49 190.313H134.147L135.428 181.794C132.867 180.523 131.134 177.982 131.134 174.993C131.134 170.733 134.599 167.37 138.819 167.37C143.038 167.37 146.504 170.808 146.504 174.993C146.504 177.982 144.771 180.523 142.209 181.794Z" fill="white"/>
<path d="M129.777 204.737C129.777 204.363 130.079 203.989 130.531 203.989C130.907 203.989 131.284 204.363 131.284 204.737C131.284 205.185 130.907 205.484 130.531 205.484C130.154 205.484 129.777 205.185 129.777 204.737ZM125.256 204.737C125.256 204.363 125.558 203.989 126.01 203.989C126.387 203.989 126.763 204.363 126.763 204.737C126.763 205.185 126.387 205.484 126.01 205.484C125.633 205.484 125.256 205.185 125.256 204.737ZM120.736 204.737C120.736 204.363 121.037 203.989 121.489 203.989C121.866 203.989 122.243 204.363 122.243 204.737C122.243 205.185 121.866 205.484 121.489 205.484C121.112 205.484 120.736 205.185 120.736 204.737ZM116.215 204.737C116.215 204.363 116.516 203.989 116.968 203.989C117.345 203.989 117.722 204.363 117.722 204.737C117.722 205.185 117.345 205.484 116.968 205.484C116.592 205.484 116.215 205.185 116.215 204.737ZM111.694 204.737C111.694 204.363 111.996 203.989 112.448 203.989C112.824 203.989 113.201 204.363 113.201 204.737C113.201 205.185 112.824 205.484 112.448 205.484C112.071 205.484 111.694 205.185 111.694 204.737ZM107.173 204.737C107.173 204.363 107.475 203.989 107.927 203.989C108.304 203.989 108.68 204.363 108.68 204.737C108.68 205.185 108.304 205.484 107.927 205.484C107.55 205.484 107.173 205.185 107.173 204.737ZM102.653 204.737C102.653 204.363 102.954 203.989 103.406 203.989C103.783 203.989 104.159 204.363 104.159 204.737C104.159 205.185 103.783 205.484 103.406 205.484C103.029 205.484 102.653 205.185 102.653 204.737ZM98.1318 204.737C98.1318 204.363 98.4332 203.989 98.8853 203.989C99.262 203.989 99.6387 204.363 99.6387 204.737C99.6387 205.185 99.262 205.484 98.8853 205.484C98.5085 205.484 98.1318 205.185 98.1318 204.737ZM93.611 204.737C93.611 204.363 93.9124 203.989 94.3645 203.989C94.7412 203.989 95.1179 204.363 95.1179 204.737C95.1179 205.185 94.7412 205.484 94.3645 205.484C93.9877 205.484 93.611 205.185 93.611 204.737ZM181.163 193.153C181.163 192.705 181.54 192.406 181.917 192.406C182.294 192.406 182.67 192.705 182.67 193.153C182.67 193.527 182.294 193.9 181.917 193.9C181.54 193.9 181.163 193.527 181.163 193.153ZM176.643 193.153C176.643 192.705 177.019 192.406 177.396 192.406C177.773 192.406 178.15 192.705 178.15 193.153C178.15 193.527 177.773 193.9 177.396 193.9C177.019 193.9 176.643 193.527 176.643 193.153ZM172.122 193.153C172.122 192.705 172.499 192.406 172.875 192.406C173.252 192.406 173.629 192.705 173.629 193.153C173.629 193.527 173.252 193.9 172.875 193.9C172.499 193.9 172.122 193.527 172.122 193.153ZM167.601 193.153C167.601 192.705 167.978 192.406 168.355 192.406C168.731 192.406 169.108 192.705 169.108 193.153C169.108 193.527 168.731 193.9 168.355 193.9C167.978 193.9 167.601 193.527 167.601 193.153ZM163.08 193.153C163.08 192.705 163.457 192.406 163.834 192.406C164.21 192.406 164.587 192.705 164.587 193.153C164.587 193.527 164.21 193.9 163.834 193.9C163.457 193.9 163.08 193.527 163.08 193.153ZM158.559 193.153C158.559 192.705 158.936 192.406 159.313 192.406C159.69 192.406 160.066 192.705 160.066 193.153C160.066 193.527 159.69 193.9 159.313 193.9C158.936 193.9 158.559 193.527 158.559 193.153ZM154.039 193.153C154.039 192.705 154.415 192.406 154.792 192.406C155.169 192.406 155.546 192.705 155.546 193.153C155.546 193.527 155.169 193.9 154.792 193.9C154.415 193.9 154.039 193.527 154.039 193.153ZM149.518 193.153C149.518 192.705 149.895 192.406 150.271 192.406C150.648 192.406 151.025 192.705 151.025 193.153C151.025 193.527 150.648 193.9 150.271 193.9C149.895 193.9 149.518 193.527 149.518 193.153ZM144.997 193.153C144.997 192.705 145.374 192.406 145.751 192.406C146.127 192.406 146.504 192.705 146.504 193.153C146.504 193.527 146.127 193.9 145.751 193.9C145.374 193.9 144.997 193.527 144.997 193.153ZM150.723 169.836C150.723 169.463 151.025 169.089 151.477 169.089C151.929 169.089 152.23 169.463 152.23 169.836C152.23 170.21 151.929 170.584 151.477 170.584C151.1 170.584 150.723 170.285 150.723 169.836ZM150.723 165.352C150.723 164.979 151.025 164.605 151.477 164.605C151.929 164.605 152.23 164.979 152.23 165.352C152.23 165.726 151.929 166.1 151.477 166.1C151.1 166.1 150.723 165.801 150.723 165.352ZM150.723 160.868C150.723 160.495 151.025 160.121 151.477 160.121C151.929 160.121 152.23 160.495 152.23 160.868C152.23 161.242 151.929 161.616 151.477 161.616C151.1 161.616 150.723 161.317 150.723 160.868ZM150.723 156.384C150.723 156.011 151.025 155.637 151.477 155.637C151.929 155.637 152.23 156.011 152.23 156.384C152.23 156.758 151.929 157.132 151.477 157.132C151.1 157.132 150.723 156.833 150.723 156.384ZM150.723 151.9C150.723 151.527 151.025 151.153 151.477 151.153C151.929 151.153 152.23 151.527 152.23 151.9C152.23 152.274 151.929 152.648 151.477 152.648C151.1 152.648 150.723 152.349 150.723 151.9ZM150.723 147.416C150.723 147.043 151.025 146.669 151.477 146.669C151.929 146.669 152.23 147.043 152.23 147.416C152.23 147.79 151.929 148.164 151.477 148.164C151.1 148.164 150.723 147.865 150.723 147.416ZM150.723 142.932C150.723 142.559 151.025 142.185 151.477 142.185C151.929 142.185 152.23 142.559 152.23 142.932C152.23 143.306 151.929 143.68 151.477 143.68C151.1 143.68 150.723 143.381 150.723 142.932ZM150.723 138.448C150.723 138.075 151.025 137.701 151.477 137.701C151.929 137.701 152.23 138.075 152.23 138.448C152.23 138.822 151.929 139.196 151.477 139.196C151.1 139.196 150.723 138.897 150.723 138.448ZM150.723 133.964C150.723 133.591 151.025 133.217 151.477 133.217C151.929 133.217 152.23 133.591 152.23 133.964C152.23 134.338 151.929 134.712 151.477 134.712C151.1 134.712 150.723 134.413 150.723 133.964ZM198.116 199.206H189.678C188.623 199.206 187.794 198.384 187.794 197.338V188.893C187.794 187.847 188.623 187.025 189.678 187.025H198.116C199.171 187.025 200 187.847 200 188.893V197.338C200 198.384 199.171 199.206 198.116 199.206ZM189.678 187.772C189.075 187.772 188.547 188.295 188.547 188.893V197.338C188.547 197.936 189.075 198.459 189.678 198.459H198.116C198.719 198.459 199.246 197.936 199.246 197.338V188.893C199.246 188.295 198.719 187.772 198.116 187.772H189.678ZM88.1861 210.865H79.7473C78.6925 210.865 77.8636 210.043 77.8636 208.996V200.552C77.8636 199.505 78.6925 198.683 79.7473 198.683H88.1861C89.2409 198.683 90.0697 199.505 90.0697 200.552V208.996C90.0697 210.043 89.2409 210.865 88.1861 210.865ZM79.7473 199.431C79.1445 199.431 78.6171 199.954 78.6171 200.552V208.996C78.6171 209.594 79.1445 210.117 79.7473 210.117H88.1861C88.7889 210.117 89.3163 209.594 89.3163 208.996V200.552C89.3163 199.954 88.7889 199.431 88.1861 199.431H79.7473ZM155.772 129.181H147.333C146.278 129.181 145.449 128.359 145.449 127.313V118.868C145.449 117.822 146.278 117 147.333 117H155.772C156.827 117 157.655 117.822 157.655 118.868V127.313C157.655 128.359 156.751 129.181 155.772 129.181ZM147.258 117.747C146.655 117.747 146.127 118.27 146.127 118.868V127.313C146.127 127.911 146.655 128.434 147.258 128.434H155.696C156.299 128.434 156.827 127.911 156.827 127.313V118.868C156.827 118.27 156.299 117.747 155.696 117.747H147.258Z" fill="white"/>
</g>
<defs>
<linearGradient id="paint0_linear_130_46500" x1="132.5" y1="0" x2="132.5" y2="275" gradientUnits="userSpaceOnUse">
<stop stop-color="white" stop-opacity="0.46"/>
<stop offset="1" stop-color="white" stop-opacity="0"/>
</linearGradient>
<linearGradient id="paint1_linear_130_46500" x1="132.5" y1="71" x2="132.5" y2="268" gradientUnits="userSpaceOnUse">
<stop stop-color="white" stop-opacity="0.12"/>
<stop offset="1" stop-color="white" stop-opacity="0"/>
</linearGradient>
<clipPath id="clip0_130_46500">
<rect width="265" height="275" fill="white"/>
</clipPath>
</defs>
</svg>
