<svg width="341" height="265" viewBox="0 0 341 265" fill="none" xmlns="http://www.w3.org/2000/svg">
<g clip-path="url(#clip0_97_17743)">
<path d="M90.5282 185.409C90.5282 184.614 91.2123 184.084 91.8964 184.084C92.5805 184.084 93.2646 184.746 93.2646 185.409C93.2646 186.204 92.5805 186.734 91.8964 186.734C91.0755 186.734 90.5282 186.204 90.5282 185.409ZM82.3189 185.409C82.3189 184.614 83.003 184.084 83.6871 184.084C84.3712 184.084 85.0553 184.746 85.0553 185.409C85.0553 186.204 84.3712 186.734 83.6871 186.734C82.8662 186.734 82.3189 186.204 82.3189 185.409ZM74.1097 185.409C74.1097 184.614 74.7938 184.084 75.4779 184.084C76.2988 184.084 76.8461 184.746 76.8461 185.409C76.8461 186.204 76.2988 186.734 75.4779 186.734C74.6569 186.734 74.1097 186.204 74.1097 185.409ZM65.9004 185.409C65.9004 184.614 66.5845 184.084 67.2686 184.084C67.9527 184.084 68.6368 184.746 68.6368 185.409C68.6368 186.204 67.9527 186.734 67.2686 186.734C66.4477 186.734 65.9004 186.204 65.9004 185.409ZM57.6912 185.409C57.6912 184.614 58.3753 184.084 59.0594 184.084C59.7435 184.084 60.4276 184.746 60.4276 185.409C60.4276 186.204 59.7435 186.734 59.0594 186.734C58.2384 186.734 57.6912 186.204 57.6912 185.409ZM49.4819 185.409C49.4819 184.614 50.166 184.084 50.8501 184.084C51.5342 184.084 52.2183 184.746 52.2183 185.409C52.2183 186.204 51.5342 186.734 50.8501 186.734C50.0292 186.734 49.4819 186.204 49.4819 185.409ZM41.2726 185.409C41.2726 184.614 41.9567 184.084 42.6408 184.084C43.325 184.084 44.0091 184.746 44.0091 185.409C44.0091 186.204 43.325 186.734 42.6408 186.734C41.8199 186.734 41.2726 186.204 41.2726 185.409ZM33.0634 185.409C33.0634 184.614 33.7475 184.084 34.4316 184.084C35.2525 184.084 35.7998 184.746 35.7998 185.409C35.7998 186.204 35.2525 186.734 34.4316 186.734C33.6107 186.734 33.0634 186.204 33.0634 185.409ZM19.5181 196.274H3.92052C2.00503 196.274 0.5 194.816 0.5 192.961V177.856C0.5 176.001 2.00503 174.544 3.92052 174.544H19.5181C21.4336 174.544 22.9386 176.001 22.9386 177.856V192.961C22.9386 194.816 21.4336 196.274 19.5181 196.274ZM3.92052 175.869C2.82596 175.869 1.86821 176.796 1.86821 177.856V192.961C1.86821 194.021 2.82596 194.949 3.92052 194.949H19.5181C20.6127 194.949 21.5704 194.021 21.5704 192.961V177.856C21.5704 176.796 20.6127 175.869 19.5181 175.869H3.92052Z" fill="#21BCC2"/>
<path d="M88.8863 126.579C88.8863 125.784 89.5704 125.254 90.2545 125.254C90.9386 125.254 91.6227 125.784 91.6227 126.579C91.6227 127.374 90.9386 127.904 90.2545 127.904C89.5704 127.904 88.8863 127.241 88.8863 126.579ZM80.6771 126.579C80.6771 125.784 81.3612 125.254 82.0453 125.254C82.7294 125.254 83.4135 125.784 83.4135 126.579C83.4135 127.374 82.7294 127.904 82.0453 127.904C81.3612 127.904 80.6771 127.241 80.6771 126.579ZM72.4678 126.579C72.4678 125.784 73.0151 125.254 73.836 125.254C74.5201 125.254 75.2042 125.784 75.2042 126.579C75.2042 127.374 74.5201 127.904 73.836 127.904C73.1519 127.904 72.4678 127.241 72.4678 126.579ZM64.2585 126.579C64.2585 125.784 64.8058 125.254 65.6267 125.254C66.3108 125.254 66.995 125.784 66.995 126.579C66.995 127.374 66.3108 127.904 65.6267 127.904C64.9426 127.904 64.2585 127.241 64.2585 126.579ZM48.3873 137.444H32.7897C30.8742 137.444 29.3692 135.986 29.3692 134.131V119.026C29.3692 117.171 30.8742 115.714 32.7897 115.714H48.3873C50.3028 115.714 51.8078 117.171 51.8078 119.026V134.131C51.8078 135.986 50.3028 137.444 48.3873 137.444ZM32.7897 117.039C31.6952 117.039 30.7374 117.966 30.7374 119.026V134.131C30.7374 135.191 31.6952 136.119 32.7897 136.119H48.3873C49.4819 136.119 50.4396 135.191 50.4396 134.131V119.026C50.4396 117.966 49.4819 117.039 48.3873 117.039H32.7897ZM302.874 144.731C302.874 144.069 303.558 143.406 304.242 143.406C304.927 143.406 305.611 144.069 305.611 144.731C305.611 145.526 304.927 146.056 304.242 146.056C303.422 146.056 302.874 145.526 302.874 144.731ZM294.665 144.731C294.665 144.069 295.349 143.406 296.033 143.406C296.717 143.406 297.401 144.069 297.401 144.731C297.401 145.526 296.717 146.056 296.033 146.056C295.212 146.056 294.665 145.526 294.665 144.731ZM286.456 144.731C286.456 144.069 287.14 143.406 287.824 143.406C288.508 143.406 289.192 144.069 289.192 144.731C289.192 145.526 288.508 146.056 287.824 146.056C287.003 146.056 286.456 145.526 286.456 144.731ZM335.574 155.596H319.977C318.061 155.596 316.556 154.139 316.556 152.284V137.179C316.556 135.324 318.061 133.866 319.977 133.866H335.574C337.49 133.866 338.995 135.324 338.995 137.179V152.284C338.995 154.139 337.49 155.596 335.574 155.596ZM319.977 135.191C318.882 135.191 317.925 136.119 317.925 137.179V152.284C317.925 153.344 318.882 154.271 319.977 154.271H335.574C336.669 154.271 337.627 153.344 337.627 152.284V137.179C337.627 136.119 336.669 135.191 335.574 135.191H319.977Z" fill="#21BCC2"/>
<g clip-path="url(#clip1_97_17743)">
<g opacity="0.4">
<path d="M117.794 145.573C117.935 145.478 118.081 145.391 118.232 145.311L128.183 139.944L183.37 169.208C184.836 169.985 186.592 169.985 188.058 169.208L243.244 139.944L253.196 145.311C255.615 146.597 256.535 149.603 255.251 152.025C255.171 152.176 255.084 152.322 254.989 152.464L185.714 189.196L116.439 152.464C114.913 150.186 115.519 147.101 117.794 145.573Z" fill="#21BCC2"/>
</g>
<path opacity="0.1" d="M116.203 177.439C116.667 176.578 117.372 175.872 118.231 175.408L128.183 170.041L183.37 199.304C184.836 200.082 186.591 200.082 188.057 199.304L243.244 170.041L253.196 175.408C255.63 176.724 256.538 179.766 255.225 182.204C254.761 183.065 254.055 183.772 253.196 184.236L188.088 219.348C186.606 220.148 184.822 220.148 183.34 219.348L118.231 184.236C115.797 182.92 114.889 179.877 116.203 177.439Z" fill="#21BCC2"/>
<path d="M117.794 115.477C117.935 115.382 118.081 115.294 118.232 115.214L183.34 80.1017C184.822 79.3026 186.606 79.3026 188.088 80.1017L253.196 115.214C255.615 116.5 256.535 119.506 255.251 121.929C255.171 122.079 255.084 122.226 254.989 122.367L185.714 159.1L116.439 122.367C114.913 120.09 115.519 117.005 117.794 115.477Z" fill="#21BCC2"/>
</g>
<path opacity="0.3" d="M71.9397 89.6112H184.27C184.27 89.6112 180.712 84.5762 172.777 83.1187C172.777 83.1187 170.861 73.3137 158.684 71.4587C149.654 70.1337 144.181 76.3612 144.181 76.3612C144.181 76.3612 144.181 61.6537 131.32 60.9912C120.374 60.3287 117.227 67.8812 117.227 67.8812C117.227 67.8812 113.26 63.3762 104.366 65.0987C93.6942 67.2187 91.5051 81.6612 91.5051 81.6612C91.5051 81.6612 74.8129 81.7937 71.9397 89.6112Z" fill="#21BCC2"/>
<path opacity="0.3" d="M293.861 132.981H232.018V107.276C233.523 106.746 235.301 106.216 237.217 106.083C249.12 105.023 251.583 114.431 251.583 114.431C251.583 114.431 254.183 110.853 261.708 110.853C275.253 110.853 276.484 125.296 276.484 125.296C287.156 125.296 293.861 132.981 293.861 132.981Z" fill="#21BCC2"/>
</g>
<defs>
<clipPath id="clip0_97_17743">
<rect width="340" height="265" fill="white" transform="translate(0.5)"/>
</clipPath>
<clipPath id="clip1_97_17743">
<rect width="140.233" height="140.45" fill="white" transform="matrix(-1 0 0 1 255.831 79.5)"/>
</clipPath>
</defs>
</svg>
