<svg width="16" height="17" viewBox="0 0 16 17" fill="none" xmlns="http://www.w3.org/2000/svg">
<path d="M8 0.75C3.71875 0.75 0.25 4.21875 0.25 8.5C0.25 12.7812 3.71875 16.25 8 16.25C12.2812 16.25 15.75 12.7812 15.75 8.5C15.75 4.21875 12.2812 0.75 8 0.75ZM8 14.75C4.53125 14.75 1.75 11.9688 1.75 8.5C1.75 5.0625 4.53125 2.25 8 2.25C11.4375 2.25 14.25 5.0625 14.25 8.5C14.25 11.9688 11.4375 14.75 8 14.75ZM9.90625 11.5C10.0938 11.625 10.3125 11.5938 10.4375 11.4062L11.0312 10.625C11.1562 10.4375 11.125 10.2188 10.9375 10.0938L8.875 8.5625V4.125C8.875 3.9375 8.6875 3.75 8.5 3.75H7.5C7.28125 3.75 7.125 3.9375 7.125 4.125V9.28125C7.125 9.375 7.15625 9.5 7.25 9.5625L9.90625 11.5Z" fill="#21B2BB"/>
</svg>
