<svg width="32" height="12" viewBox="0 0 32 12" fill="none" xmlns="http://www.w3.org/2000/svg">
<path d="M31.8118 5.66796C31.3548 4.511 30.2265 3.88092 29.0054 4.1014L26.496 4.55332C26.0794 4.62828 25.8029 5.027 25.8771 5.44364C25.952 5.86028 26.3501 6.13716 26.7661 6.06284L29.2754 5.61092C29.8726 5.50324 30.2412 5.86092 30.3871 6.23076C30.5337 6.60124 30.5081 7.11468 29.9993 7.44484L26.3162 9.83508C25.9738 10.0568 25.5571 10.0722 25.2006 9.87804C24.8435 9.6838 24.6298 9.3242 24.6298 8.91716V1.17204C24.6298 0.748362 24.2874 0.404842 23.8643 0.404842C23.4413 0.404842 23.0989 0.748362 23.0989 1.17204V8.91844C23.0989 9.8966 23.6109 10.7594 24.4691 11.2267C24.8678 11.4433 25.2973 11.5516 25.7248 11.5516C26.2182 11.5516 26.7098 11.4087 27.1488 11.1235L30.8319 8.73316C31.8751 8.05628 32.2687 6.825 31.8118 5.66796V5.66796ZM18.8563 4.10204L16.3469 4.55396C15.9309 4.62892 15.6544 5.02764 15.7286 5.44428C15.8035 5.86092 16.2016 6.1378 16.6176 6.06348L19.127 5.61156C19.7248 5.50388 20.0928 5.86156 20.2394 6.2314C20.3853 6.60188 20.3603 7.11532 19.8509 7.44548L16.1677 9.83572C15.8259 10.0575 15.4093 10.0728 15.0522 9.87868C14.695 9.68444 14.4819 9.32484 14.4819 8.9178V3.03348C14.4819 2.05468 13.9699 1.19196 13.1117 0.724681C12.2534 0.258041 11.2518 0.296522 10.432 0.827882L1.16742 6.83972C0.124871 7.51596 -0.268726 8.74732 0.188231 9.90428C0.64455 11.0606 1.77222 11.6901 2.99462 11.4702L11.0835 10.0139C11.4995 9.93892 11.7766 9.5402 11.7018 9.12356C11.6269 8.70692 11.2288 8.4294 10.8128 8.50436L2.7239 9.96068C2.12614 10.0684 1.75814 9.71068 1.61222 9.34084C1.46566 8.97036 1.49062 8.45692 2.00006 8.1262L11.2627 2.11564C11.6038 1.89444 12.0211 1.87844 12.3782 2.07268C12.7354 2.26756 12.9485 2.62716 12.9485 3.03412V8.91844C12.9485 9.8966 13.4605 10.7594 14.3187 11.2267C14.7174 11.4433 15.1475 11.5516 15.575 11.5516C16.0685 11.5516 16.5594 11.4087 16.9984 11.1235L20.6822 8.73316C21.7242 8.05692 22.1178 6.82564 21.6614 5.6686C21.2064 4.511 20.0774 3.8822 18.8563 4.10204V4.10204Z" fill="#009C32"/>
</svg>
