<svg width="376" height="94" viewBox="0 0 376 94" fill="none" xmlns="http://www.w3.org/2000/svg">
<path d="M33.8401 76.4033H74.8053V84.9009H33.8401V76.4033ZM330.091 49.1245L343.006 34.8741H333.381L322.796 46.7181V34.8741H315.126V64.8225H322.834V52.2077L334.151 64.8225H344.04L330.091 49.1245ZM79.3173 51.0985C79.1105 56.7385 78.3961 57.8101 75.2753 57.8101V64.8413H76.4409C84.2805 64.8413 86.1417 60.7993 86.4237 51.7941L86.7621 41.8301H94.0001V64.8225H101.67V34.8741H79.8437L79.3173 51.0985ZM46.0225 56.2497H62.1905L64.8789 64.8225H73.8465L61.7581 28.8017C60.5925 25.3237 59.2389 22.5601 54.6141 22.5601C49.9893 22.5601 48.5793 25.3237 47.3385 28.8017L34.6673 64.8225H43.0897L46.0225 56.2497V56.2497ZM54.2193 31.9601H54.4261L59.8405 49.0305H48.4477L54.2193 31.9601ZM233.402 39.1229H224.848V30.6629H244.701V23.1429H216.802V64.8225H233.402C242.595 64.8225 247.878 60.2353 247.878 51.8505C247.878 43.8981 242.52 39.1229 233.402 39.1229V39.1229ZM233.007 57.2837H224.848V46.4549H233.007C237.256 46.4549 239.644 48.3349 239.644 51.8693C239.644 55.4037 237.256 57.2837 233.007 57.2837ZM157.149 34.1785V23.0865H149.498V34.1785C145.48 34.311 141.679 36.0327 138.929 38.9653C136.18 41.8981 134.707 45.8021 134.834 49.8201C134.697 53.8463 136.165 57.7619 138.915 60.7058C141.665 63.6499 145.471 65.3808 149.498 65.5181V76.7981H157.168V65.5181C159.162 65.4524 161.124 64.9943 162.941 64.1693C164.758 63.3446 166.395 62.1694 167.757 60.7113C169.119 59.253 170.18 57.5405 170.879 55.6716C171.579 53.8026 171.902 51.8142 171.832 49.8201C171.913 47.8246 171.595 45.8331 170.897 43.962C170.2 42.0906 169.137 40.377 167.77 38.9209C166.403 37.4651 164.76 36.2957 162.937 35.4815C161.113 34.6673 159.146 34.2243 157.149 34.1785V34.1785ZM149.516 58.2801C147.486 58.0571 145.625 57.0451 144.335 55.4625C143.044 53.8799 142.427 51.8535 142.617 49.8201C142.451 47.7917 143.077 45.7781 144.364 44.2011C145.65 42.624 147.496 41.606 149.516 41.3601V58.2801ZM157.187 58.2801V41.3601C159.207 41.606 161.054 42.624 162.34 44.2011C163.626 45.7781 164.252 47.7917 164.086 49.8201C164.266 51.8514 163.646 53.8726 162.357 55.4531C161.068 57.0334 159.213 58.0479 157.187 58.2801ZM200.577 55.6293V45.5337C200.577 38.1641 195.896 33.5581 188.038 33.5581C180.179 33.5581 175.592 38.4461 175.216 43.5409H182.981C183.244 42.4505 184.409 40.5141 188.019 40.5141C188.694 40.4272 189.378 40.4983 190.019 40.722C190.662 40.9457 191.243 41.3155 191.717 41.8026C192.191 42.2895 192.546 42.8802 192.753 43.5277C192.96 44.1754 193.012 44.8621 192.907 45.5337H185.387C178.581 45.5337 174.539 49.1245 174.539 55.0653C174.486 56.483 174.731 57.896 175.259 59.2129C175.787 60.5299 176.585 61.7212 177.602 62.7101C178.619 63.699 179.833 64.4632 181.164 64.9535C182.495 65.4436 183.915 65.6487 185.331 65.5557C186.929 65.6397 188.523 65.3285 189.972 64.6499C191.422 63.971 192.681 62.9457 193.64 61.6641C194.264 62.7197 195.174 63.5766 196.266 64.1355C197.357 64.6946 198.584 64.9328 199.806 64.8225H202.457V57.9041C201.16 57.9041 200.577 57.2837 200.577 55.6293V55.6293ZM192.907 53.7493C192.939 54.4898 192.813 55.2286 192.537 55.9169C192.262 56.6052 191.845 57.2274 191.313 57.7426C190.779 58.2577 190.143 58.654 189.446 58.9055C188.748 59.1569 188.006 59.2577 187.267 59.2013C184.503 59.2013 182.323 58.2049 182.323 55.2157C182.323 52.2265 184.748 51.7941 186.797 51.7941H192.907V53.7493V53.7493ZM120.771 43.9733H115.263V34.8741H107.592V64.8225H120.903C129.231 64.8225 132.183 59.4081 132.183 54.2945C132.22 47.6957 128.084 43.9733 120.771 43.9733ZM120.207 58.2801H115.263V50.7601H120.207C122.858 50.7601 124.456 51.9633 124.456 54.5201C124.456 57.0769 122.933 58.2801 120.207 58.2801V58.2801ZM277.15 55.6293V45.5337C277.15 38.1641 272.469 33.5581 264.61 33.5581C256.752 33.5581 252.164 38.4461 251.788 43.5409H259.553C259.816 42.4505 260.982 40.5141 264.591 40.5141C265.266 40.4272 265.951 40.4983 266.592 40.722C267.235 40.9457 267.816 41.3155 268.289 41.8026C268.763 42.2895 269.118 42.8802 269.325 43.5277C269.532 44.1754 269.585 44.8621 269.479 45.5337H261.959C255.154 45.5337 251.112 49.1245 251.112 55.0653C251.059 56.483 251.303 57.896 251.832 59.2129C252.358 60.5299 253.157 61.7212 254.174 62.7101C255.191 63.699 256.406 64.4632 257.737 64.9535C259.068 65.4436 260.487 65.6487 261.903 65.5557C263.516 65.6555 265.129 65.352 266.597 64.6728C268.064 63.9934 269.338 62.9594 270.306 61.6641C270.921 62.7013 271.814 63.5463 272.884 64.1043C273.954 64.6623 275.157 64.911 276.36 64.8225H279.011V57.9041C277.676 57.9041 277.15 57.2837 277.15 55.6293ZM269.517 53.7493C269.545 54.489 269.417 55.2264 269.141 55.9133C268.865 56.6003 268.447 57.2212 267.915 57.7358C267.383 58.2502 266.748 58.6467 266.052 58.8993C265.356 59.1518 264.616 59.2546 263.877 59.2013C261.113 59.2013 258.932 58.2049 258.932 55.2157C258.932 52.2265 261.358 51.7941 263.407 51.7941H269.517V53.7493V53.7493ZM301.646 46.0225H291.062V34.8741H283.391V64.8413H291.062V53.0349H301.646V64.8225H309.317V34.8741H301.646V46.0225Z" fill="#EF3124"/>
</svg>
