<svg width="144" height="38" viewBox="0 0 144 38" fill="none" xmlns="http://www.w3.org/2000/svg">
<path d="M14.57 0.500004C11.8327 0.500004 9.1569 1.31171 6.8809 2.8325C4.6049 4.3532 2.831 6.5147 1.7835 9.0437C0.736001 11.5726 0.461899 14.3554 0.995899 17.0401C1.5299 19.7248 2.8481 22.1908 4.7836 24.1264C6.7192 26.0619 9.1852 27.3801 11.8699 27.9141C14.5546 28.4481 17.3374 28.174 19.8663 27.1265C22.3953 26.079 24.5568 24.3051 26.0775 22.0291C27.5983 19.7531 28.41 17.0773 28.41 14.34C28.4113 12.5221 28.0542 10.7219 27.3592 9.0421C26.6641 7.3624 25.6447 5.8361 24.3593 4.5507C23.0739 3.2653 21.5476 2.2459 19.8679 1.55083C18.1881 0.855773 16.3879 0.498694 14.57 0.500004ZM12.57 20.21L11.57 23.21C9.699 22.5579 8.0781 21.3383 6.9332 19.7212C5.7883 18.104 5.1766 16.17 5.1832 14.1886C5.1898 12.2073 5.8144 10.2773 6.9701 8.6679C8.1257 7.0584 9.7547 5.8496 11.63 5.21L12.63 8.21C11.3923 8.6278 10.3185 9.4264 9.5623 10.4915C8.8061 11.5567 8.4062 12.8338 8.42 14.14C8.3416 15.4713 8.709 16.7908 9.4642 17.89C10.2193 18.9892 11.3192 19.8056 12.59 20.21H12.57ZM17.29 23.34L16.29 20.28C17.5478 19.8729 18.6451 19.0793 19.4255 18.0121C20.2058 16.945 20.6295 15.6587 20.6362 14.3367C20.6428 13.0147 20.2321 11.7243 19.4625 10.6493C18.6929 9.5744 17.6036 8.7697 16.35 8.35L17.35 5.29C19.2513 5.9232 20.9033 7.1419 22.0694 8.7716C23.2355 10.4013 23.8558 12.3583 23.8413 14.3622C23.8269 16.3661 23.1785 18.314 21.9891 19.9267C20.7996 21.5395 19.1302 22.7343 17.22 23.34H17.29Z" fill="#00BEF0"/>
<path d="M38.2401 37.4397H36.0701V31.0597H39.8301V31.6997H36.8301V33.6997H38.2301C39.5101 33.6997 40.3401 34.2097 40.3401 35.4897V35.5497C40.3401 36.7997 39.5101 37.4397 38.2401 37.4397ZM38.2401 36.8697C39.2401 36.8697 39.5801 36.4197 39.5801 35.6597V35.5997C39.5801 34.8297 39.1301 34.3897 38.1801 34.3897H36.8301V36.8797L38.2401 36.8697ZM41.0501 36.1697C41.0501 35.0897 42.2001 34.6997 43.4101 34.6997H44.1101V34.3797C44.1101 33.6097 43.8501 33.2997 43.1101 33.2997C42.3701 33.2997 42.1101 33.5597 42.0301 34.1297H41.2601C41.2823 33.9106 41.3482 33.6982 41.4538 33.505C41.5595 33.3118 41.7027 33.1416 41.8751 33.0046C42.0475 32.8676 42.2456 32.7665 42.4577 32.7073C42.6698 32.6481 42.8916 32.6319 43.1101 32.6597C43.3381 32.6282 43.5703 32.6489 43.7892 32.7203C44.008 32.7917 44.2078 32.9118 44.3735 33.0717C44.5391 33.2316 44.6663 33.427 44.7454 33.6432C44.8245 33.8594 44.8534 34.0907 44.8301 34.3197V37.3797H44.0001V36.7997C43.8365 37.0335 43.6151 37.2209 43.3574 37.3436C43.0998 37.4663 42.8147 37.5201 42.5301 37.4997C41.7501 37.4997 41.0001 37.1197 41.0001 36.1597L41.0501 36.1697ZM44.1101 35.8497V35.2797H43.4701C42.4701 35.2797 41.8801 35.5397 41.8801 36.1697C41.8801 36.7997 42.1401 36.9397 42.7701 36.9397C43.4001 36.9397 44.1101 36.5397 44.1101 35.8397V35.8497ZM49.1101 35.3997H46.8101V37.4997H46.0001V32.8397H46.7701V34.8397H49.0701V32.8397H49.8401V37.4997H49.0701L49.1101 35.3997ZM51.9201 35.0797V37.4397H51.1501V32.7797H51.9201V34.9497L53.8301 32.7797H54.7201L52.7201 34.9497L54.8901 37.4397H54.0001L51.9201 35.0797ZM141.26 16.8297L142.79 18.6797C142.119 19.3673 141.314 19.9095 140.425 20.2725C139.535 20.6355 138.58 20.8116 137.62 20.7897C136.392 20.8308 135.171 20.5914 134.05 20.0897C133.059 19.5561 132.244 18.7472 131.703 17.7607C131.162 16.7741 130.918 15.6519 131 14.5297C131 10.7697 133.55 7.95969 137.32 7.95969C141.53 7.95969 143.57 11.0897 143.25 15.1697H133.68C133.712 15.671 133.862 16.1576 134.118 16.5902C134.373 17.0228 134.727 17.3892 135.15 17.6597C135.942 18.1255 136.853 18.3481 137.77 18.2997C138.421 18.3059 139.067 18.1787 139.667 17.9259C140.267 17.6731 140.809 17.3 141.26 16.8297ZM133.8 12.9397H140.56C140.451 12.1499 140.049 11.43 139.434 10.9225C138.819 10.4151 138.036 10.1571 137.24 10.1997C136.434 10.1709 135.644 10.4312 135.013 10.9337C134.383 11.4362 133.952 12.1477 133.8 12.9397ZM69.5001 20.4697H72.94L67.5201 14.1497L72.88 8.21969H69.5001L65.4201 12.9397H64.2001V8.21969H61.5901V20.3997H64.2001V15.5597H65.4101L69.5001 20.4697ZM80.79 10.4697C80.286 10.4647 79.787 10.5633 79.324 10.7595C78.86 10.9557 78.441 11.2453 78.094 11.6102C77.747 11.9751 77.479 12.4075 77.306 12.8805C77.133 13.3535 77.06 13.857 77.09 14.3597C77.06 14.8624 77.133 15.3659 77.306 15.8389C77.479 16.3119 77.747 16.7443 78.094 17.1092C78.441 17.4741 78.86 17.7636 79.324 17.9598C79.787 18.1561 80.286 18.2547 80.79 18.2497C81.292 18.2584 81.79 18.1618 82.253 17.966C82.715 17.7703 83.131 17.4797 83.474 17.1131C83.817 16.7465 84.079 16.3121 84.244 15.8378C84.409 15.3635 84.472 14.86 84.43 14.3597C84.475 13.8578 84.414 13.3521 84.251 12.8754C84.087 12.3987 83.825 11.9618 83.482 11.5929C83.139 11.2241 82.722 10.9317 82.258 10.7348C81.794 10.5378 81.294 10.4407 80.79 10.4497V10.4697ZM81.24 7.97969C84.68 7.97969 87.24 10.6597 87.24 14.3597C87.24 18.0597 84.75 20.7997 81.24 20.7997C80.499 20.8336 79.759 20.7094 79.069 20.4353C78.379 20.1611 77.756 19.7433 77.24 19.2097V25.5897H74.6V8.21969H77.22V9.68969C77.71 9.11449 78.328 8.66209 79.024 8.36859C79.721 8.07509 80.476 7.94879 81.23 7.99969L81.24 7.97969ZM115.94 8.23969H105V10.6597H109.15V20.3997H111.83V10.6997H116V8.21969L115.94 8.23969ZM59.7401 8.23969H48.8301V10.6597H53.0001V20.3997H55.6801V10.6997H59.8001V8.21969L59.7401 8.23969ZM45.5701 14.3397C45.5701 13.3239 45.1665 12.3497 44.4483 11.6315C43.73 10.9132 42.7558 10.5097 41.7401 10.5097C40.7243 10.5097 39.7501 10.9132 39.0318 11.6315C38.3136 12.3497 37.9101 13.3239 37.9101 14.3397C37.9101 15.3555 38.3136 16.3296 39.0318 17.0479C39.7501 17.7662 40.7243 18.1697 41.7401 18.1697C42.7558 18.1697 43.73 17.7662 44.4483 17.0479C45.1665 16.3296 45.5701 15.3555 45.5701 14.3397ZM35.2401 14.3397C35.2142 13.035 35.5775 11.7522 36.2835 10.6549C36.9896 9.55749 38.0064 8.69519 39.2044 8.17789C40.4024 7.66059 41.7273 7.51179 43.0102 7.75049C44.2931 7.98909 45.4759 8.60439 46.4078 9.51779C47.3397 10.4313 47.9785 11.6015 48.2427 12.8794C48.5069 14.1573 48.3846 15.4849 47.8914 16.693C47.3982 17.9011 46.5564 18.9349 45.4733 19.6628C44.3902 20.3906 43.115 20.7794 41.8101 20.7797C40.9491 20.8139 40.0902 20.6718 39.2862 20.362C38.4823 20.0521 37.7501 19.5812 37.1348 18.978C36.5195 18.3749 36.034 17.6523 35.7081 16.8546C35.3823 16.057 35.223 15.2011 35.2401 14.3397ZM128.89 8.21969V20.3997H126.27V12.5597L119.89 20.4097H117.78V8.21969H120.4V16.1297L126.78 8.27969H128.89V8.21969ZM103.24 20.4697H100.62V8.21969H103.24V20.4697ZM96.41 16.2597C96.422 16.0186 96.385 15.7775 96.3 15.5514C96.216 15.3253 96.085 15.1191 95.917 14.9456C95.749 14.772 95.548 14.6349 95.324 14.5427C95.101 14.4505 94.861 14.4053 94.62 14.4097H92V18.1697H94.68C94.922 18.1649 95.16 18.1109 95.38 18.011C95.6 17.9112 95.798 17.7675 95.961 17.5888C96.123 17.41 96.248 17.2 96.327 16.9715C96.406 16.743 96.438 16.5008 96.42 16.2597H96.41ZM99.09 16.2597C99.102 16.8244 98.997 17.3854 98.781 17.9072C98.565 18.4289 98.242 18.9 97.834 19.2903C97.426 19.6807 96.941 19.9818 96.41 20.1745C95.879 20.3672 95.314 20.4473 94.75 20.4097H89.33V8.21969H92V12.2197H95C95.542 12.1869 96.085 12.2684 96.593 12.459C97.101 12.6496 97.564 12.945 97.95 13.326C98.337 13.707 98.639 14.1651 98.837 14.6705C99.035 15.176 99.125 15.7174 99.1 16.2597H99.09Z" fill="black"/>
</svg>
