<svg width="180" height="44" viewBox="0 0 180 44" fill="none" xmlns="http://www.w3.org/2000/svg">
<g clip-path="url(#clip0_261_416)">
<path d="M48.1184 20.3659L48.7625 18.3431L46.6675 18.4094C45.6863 18.3732 44.7411 18.0421 43.9465 17.4582H44.2294C45.5057 17.4522 46.6736 16.7237 47.2394 15.5799L48.1605 13.6114C47.4381 13.6174 46.7157 13.5752 45.9993 13.4849C45.313 13.3224 44.699 12.9492 44.2354 12.4194C43.6093 11.7512 42.7425 11.3719 41.8274 11.3659C41.4722 11.3659 41.117 11.4261 40.7739 11.5344C40.8221 11.3719 40.8642 11.2094 40.8943 11.0408C41.0388 9.8669 40.7077 8.6809 39.9792 7.74782L38.3899 5.7913L37.4147 8.0789C37.2582 8.404 37.0234 8.687 36.7224 8.8916C36.5538 8.0729 36.1565 7.32642 35.5665 6.73645C34.5793 5.72508 33.2247 5.1592 31.81 5.17124C31.5632 5.17124 31.3164 5.1893 31.0756 5.22542L29.1732 5.59866C29.3358 4.96053 29.5946 4.35251 29.9438 3.79264L30.9913 2.1612L28.3545 2.40803L27.5117 0.60201L25.8863 1.48696L24.3813 0L22.8762 1.48696L21.2508 0.64415L20.408 2.40803L17.7712 2.10702L18.8187 3.74448C19.1679 4.30435 19.4267 4.91237 19.5893 5.5505L17.7833 5.19532H17.7231C17.4702 5.1592 17.2174 5.14114 16.9645 5.14114C15.5498 5.1291 14.1953 5.69498 13.208 6.70635C12.612 7.30234 12.2027 8.0609 12.0401 8.8916C11.7512 8.693 11.5164 8.4221 11.3599 8.103L10.3786 5.79732L8.7773 7.75986C8.0609 8.693 7.7418 9.8729 7.8803 11.0408C7.9104 11.2094 7.9525 11.3719 8.0007 11.5344C7.6575 11.4261 7.3023 11.3659 6.9472 11.3659C6.0321 11.3719 5.1652 11.7512 4.5391 12.4194C4.0816 12.9431 3.4736 13.3164 2.7933 13.4849C2.0709 13.5933 1.3365 13.6354 0.602 13.6114L1.499 15.61C2.0649 16.7538 3.2328 17.4823 4.509 17.4883H4.792C4.0094 18.0602 3.0763 18.3913 2.107 18.4334L0 18.3431L0.6441 20.3659C1.1258 21.9492 2.4923 23.111 4.1358 23.3217C3.9672 24.3873 3.293 25.3084 2.3298 25.79L0.7164 26.4461L1.5833 27.9572C2.2997 29.0709 3.5338 29.7331 4.8522 29.7211C5.1953 29.7211 5.5385 29.6849 5.8756 29.6127C5.9599 29.9799 6.0682 30.3471 6.1886 30.7023C6.4896 31.497 6.5077 32.3639 6.2488 33.1706L5.4662 34.814L7.2181 35.2776C7.6094 35.3799 8.0187 35.4281 8.4221 35.4281C8.711 35.4281 8.994 35.398 9.2769 35.3318C9.4816 35.2836 9.6863 35.2234 9.8789 35.1451C10.1017 35.5485 10.3846 35.9217 10.7037 36.2528C11.8234 37.4027 13.4127 37.9866 15.4294 37.9866H16.8682L13.9003 39.2207L16.1518 40.3344C17.0609 40.7799 17.988 41.1833 18.9331 41.5384L18.6622 42.3211L19.4388 42.6762C20.7271 43.1819 22.0936 43.4649 23.4783 43.513H25.3264C26.705 43.4649 28.0655 43.1759 29.3478 42.6702L30.1003 42.3211L29.8354 41.5384C30.7926 41.1712 31.7318 40.7558 32.6468 40.2923L34.8562 39.2207L31.8943 38.0167H33.3391C35.3558 38.0167 36.9512 37.4147 38.0649 36.2829C38.3899 35.9518 38.6669 35.5786 38.8896 35.1752C39.0823 35.2535 39.2869 35.3137 39.4916 35.3619C39.7746 35.4281 40.0575 35.4582 40.3465 35.4582C40.7498 35.4582 41.1592 35.404 41.5505 35.3077L43.3083 34.8441L42.5438 33.2308C42.2548 32.412 42.2669 31.515 42.5739 30.7023C42.7003 30.3351 42.8027 29.9619 42.8869 29.5886C43.2241 29.6609 43.5732 29.697 43.9164 29.697C45.2468 29.709 46.4869 29.0227 47.1913 27.891L48.0461 26.398L46.4568 25.7478C45.4936 25.2662 44.8194 24.3451 44.6508 23.2796C46.2943 23.0629 47.6609 21.907 48.1425 20.3177L48.1184 20.3659Z" fill="white"/>
<path d="M31.6176 26.7587H17.1694V32.1767C17.1694 34.4042 18.7768 35.7888 21.1547 35.7888C23.1413 35.7888 23.6651 35.867 24.3995 36.6015C24.8631 36.1018 25.5192 35.8189 26.2055 35.8309V35.7466L26.6631 34.3379L25.8865 33.4891C25.5734 33.5854 25.2483 33.6216 24.9233 33.6035C24.4356 33.5975 23.954 33.5493 23.4784 33.453H23.3279C23.2617 33.453 23.2617 33.453 23.2437 33.4891L23.1534 33.6396L22.9908 33.9105L22.6778 33.8383L21.2871 33.5132L21.0945 33.8262V33.8624L21.2631 34.049L21.1908 34.2898C21.0644 34.5848 20.8838 34.8496 20.655 35.0784L20.3059 35.4517L19.9868 35.0543L19.752 34.7593C19.4992 34.4282 19.439 33.9948 19.5835 33.6035L19.1922 33.766L19.0176 33.3808L18.9213 33.1098C18.6744 32.5379 18.861 31.8757 19.3607 31.5145L20.4804 30.9125L21.546 31.1232C21.546 31.0209 21.6122 30.6537 21.6423 30.5634H21.5821L20.9801 30.7921L20.3781 30.3828C20.2577 30.2624 20.2517 30.0637 20.3781 29.9373L20.95 29.0704L19.4992 27.2644L21.6724 28.1192L21.8229 27.9386L22.1239 27.5774L22.4671 27.9025C22.5574 27.9928 22.6176 28.1012 22.6477 28.2276C23.2497 28.4684 24.3634 29.1727 24.4537 30.3165L24.1105 30.455C24.1527 30.5152 24.2069 30.5634 24.2731 30.5935L25.8624 30.75L26.0069 30.7078C26.2778 30.6055 26.5667 30.5513 26.8557 30.5453C27.1447 30.5453 27.4276 30.6115 27.6865 30.7379C27.8008 30.6958 27.9273 30.6717 28.0477 30.6657H28.1259C28.9748 30.6657 29.4022 31.3038 29.7393 31.8095L29.9139 32.0624C30.2089 32.4838 30.6002 33.0978 30.6182 33.1219L30.7928 33.3928L30.5761 33.6456C30.3774 33.9105 30.0644 34.061 29.7333 34.061C29.637 34.067 29.5406 34.067 29.4443 34.061C29.36 34.043 29.2758 34.0189 29.1915 33.9828C29.1915 34.067 29.1915 34.1694 29.1433 34.2537L28.8965 35.6744C30.534 35.3433 31.6898 33.8744 31.6236 32.2008L31.6176 26.7587ZM17.1514 26.3192H28.4029C27.9453 25.8376 27.7888 25.1453 27.9935 24.5132C27.843 24.441 27.6985 24.3446 27.5721 24.2363C27.1326 24.5614 25.7661 25.5366 25.441 25.7834L25.3688 25.8316L20.95 25.049H20.8597C20.7152 25.055 20.5708 25.055 20.4263 25.049C20.3841 25.2476 20.2096 25.3861 20.0109 25.3861H19.9387C19.7039 25.344 19.5413 25.1212 19.5775 24.8864V24.7901C19.0055 24.3808 18.7346 23.6704 18.8851 22.9841V22.9058L18.9514 22.8577C18.9514 22.8577 19.0356 22.7975 19.15 22.7313L18.831 22.6831C18.7106 22.659 18.6323 22.5507 18.6504 22.4303C18.6684 22.3099 18.7768 22.2316 18.8972 22.2497H18.9032L19.6678 22.3701L19.74 19.6791L20.8778 18.4751L21.5882 19.968L20.8417 22.5567L21.5159 22.665C21.6363 22.6891 21.7146 22.7975 21.6965 22.9179C21.6785 23.0262 21.5882 23.0985 21.4798 23.0985H21.4437L20.8958 23.0082V23.0503C20.956 23.1587 21.0464 23.243 21.1607 23.2971L24.5259 23.3513L25.3868 22.5025C24.7306 22.2737 24.2611 21.6958 24.1828 21.0035C23.7614 20.841 23.4183 20.5279 23.2256 20.1246C23.0631 19.7453 23.033 19.3179 23.1474 18.9206C22.6176 18.7099 22.136 18.3908 21.7447 17.9814H16.748C16.9888 18.5714 17.1273 19.1975 17.1514 19.8296V26.3192Z" fill="#FCE527"/>
<path d="M55.9863 21.6715H60.9468V30.0996H64.5588V21.6715H69.5194V18.6133H55.9863V21.6715ZM74.2873 25.2836V18.6615H70.7957V30.0996H73.878L79.898 23.4053V30.0996H83.3897V18.6133H80.3074L74.2873 25.2836ZM95.0148 22.8755H89.4037V18.6615H85.912V30.0996H89.4037V25.8133H95.0148V30.0996H98.5058V18.6615H95.0148V22.8755ZM110.685 21.9846C109.86 21.7317 108.993 21.6294 108.132 21.6715H104.52V18.6615H101.029V30.0996L108.108 30.0515C108.849 30.0635 109.583 29.9792 110.3 29.7866C112.118 29.3411 113.37 27.6856 113.31 25.8133C113.382 24.0976 112.316 22.5324 110.685 21.9846ZM108.903 27.1618C108.463 27.3123 107.994 27.3725 107.53 27.3304H104.52V24.4167H107.53C107.982 24.3866 108.439 24.4408 108.879 24.5612C109.433 24.7237 109.806 25.2354 109.794 25.8133C109.8 26.4033 109.451 26.9391 108.903 27.1618ZM127.938 18.6615H123.556L119.342 22.9719H118.379V18.6615H114.887V30.0996H118.379V25.7652H119.342L123.508 30.0996H128.155L122.352 24.0796L127.938 18.6615Z" fill="#222220"/>
<path d="M135.453 18.3006C130.733 18.3006 127.915 20.9494 127.915 24.3688C127.915 27.7882 130.757 30.437 135.428 30.437C140.1 30.437 142.917 27.7882 142.917 24.3688C142.917 20.9494 140.172 18.3006 135.453 18.3006ZM135.428 27.6437C133.093 27.6437 131.6 26.2471 131.6 24.3688C131.6 22.4906 133.117 21.118 135.428 21.118C137.74 21.118 139.257 22.4906 139.257 24.3688C139.257 26.2471 137.764 27.6437 135.428 27.6437ZM154.422 19.1193V17.9635H150.93V19.1193C146.547 19.2156 143.923 21.0698 143.923 24.3447C143.923 27.6197 146.547 29.3294 150.93 29.4257V30.5815H154.422V29.4257C158.828 29.3294 161.453 27.6197 161.453 24.3447C161.453 21.0698 158.834 19.2156 154.422 19.1193ZM150.93 26.9695C148.522 26.8732 147.462 25.8859 147.462 24.3447C147.462 22.8036 148.522 21.6959 150.93 21.5996V26.9695ZM154.422 26.9695V21.5996C156.854 21.6959 157.889 22.8036 157.889 24.3447H157.895C157.895 25.8859 156.86 26.8732 154.422 26.9695ZM172.969 19.1193V17.9635H169.478V19.1193C165.095 19.2156 162.47 21.0698 162.47 24.3447C162.47 27.6197 165.095 29.3294 169.478 29.4257V30.5815H172.969V29.4257C177.376 29.3294 180.001 27.6197 180.001 24.3447C180.001 21.0698 177.376 19.2156 172.969 19.1193ZM169.478 26.9695C167.07 26.8732 166.01 25.8859 166.01 24.3447C166.01 22.8036 167.07 21.6959 169.478 21.5996V26.9695ZM176.431 24.3447C176.431 25.8859 175.402 26.8732 172.969 26.9695V21.5996C175.402 21.6959 176.437 22.8036 176.437 24.3447H176.431ZM21.7693 29.1247C21.697 29.1247 21.6308 29.1789 21.6248 29.2511V29.2571C21.6188 29.3354 21.679 29.4076 21.7572 29.4136H21.7632C21.8475 29.4136 21.9077 29.3474 21.9077 29.2692C21.9077 29.1849 21.8475 29.1247 21.7693 29.1247ZM21.7633 29.1186C21.7693 29.1186 21.7693 29.1247 21.7693 29.1247C21.7753 29.1247 21.7753 29.1186 21.7813 29.1186H21.7633ZM31.6 38.9916L30.7692 38.6725L30.998 37.8116L31.2508 36.8725C30.113 37.4564 28.9211 37.926 27.693 38.2752C27.091 38.4437 26.6575 38.522 26.6575 38.522V39.13C25.9171 39.2504 25.1706 39.3166 24.4181 39.3227H24.3518C23.5993 39.3166 22.8528 39.2504 22.1124 39.13V38.528C22.1124 38.528 21.6729 38.4437 21.0709 38.2752C19.8428 37.926 18.6508 37.4564 17.513 36.8725L17.7599 37.8116L17.9946 38.6725L17.1579 38.9916L16.2549 39.3347C17.495 39.9788 18.7893 40.5146 20.1258 40.936L19.8067 41.8029C21.2575 42.3568 22.8107 42.6277 24.3639 42.5916H24.4C25.9532 42.6277 27.5064 42.3568 28.9572 41.8029L28.6441 40.936C29.9746 40.5146 31.2689 39.9788 32.509 39.3347L31.6 38.9916ZM17.2602 39.3889L18.6087 38.9374L18.2054 37.613C19.0903 38.0524 20.0054 38.4197 20.9505 38.7086L20.2883 40.5146C19.2468 40.2377 18.2294 39.8585 17.2602 39.3889ZM24.4181 42.1641L24.388 42.1401C23.0635 42.134 21.7451 41.9534 20.4689 41.6043L21.2816 39.4009C22.293 39.6538 23.3344 39.7922 24.3819 39.7982H24.4482C25.4957 39.7862 26.5371 39.6538 27.5485 39.4009L28.3612 41.6043C27.0789 41.9655 25.7485 42.1521 24.4181 42.1641ZM28.5237 40.5508V40.5327L27.8615 38.7267C28.8067 38.4377 29.7217 38.0705 30.6067 37.631L30.2033 38.9554L31.5699 39.413C30.5946 39.8886 29.5712 40.2738 28.5237 40.5508ZM24.3819 4.62907C25.7424 4.59295 27.0789 5.00231 28.1865 5.79094C28.3611 4.89997 28.6922 4.04511 29.1678 3.26853L27.8013 3.42505L27.0909 1.90198L25.7123 2.61235L24.3819 1.29395L23.0514 2.61235L21.6728 1.90198L20.9625 3.42505L19.5959 3.26853C20.0715 4.04511 20.4026 4.89997 20.5772 5.79094C21.6849 5.00231 23.0213 4.59295 24.3819 4.62907ZM20.9023 3.95482L21.2815 3.99696L21.4441 3.65382L21.9197 2.63041L22.8046 3.08793L23.1478 3.26251L23.4247 3.00967L24.3819 2.04044L25.3391 3.00967L25.616 3.28057L25.9591 3.10599L26.8381 2.64847L27.3197 3.67188L27.4822 4.01502L27.8615 3.97288L28.2227 3.93074C28.0782 4.26184 27.9518 4.60499 27.8494 4.95415C25.6762 3.84044 23.0936 3.84044 20.9203 4.95415C20.818 4.60499 20.6916 4.26184 20.5471 3.93074L20.9023 3.95482ZM42.2375 17.0544L42.0749 16.8558C40.9552 15.429 39.8896 14.0745 37.9873 13.4544C38.0656 13.3882 38.1438 13.328 38.2281 13.2738C39.1311 12.7621 39.7692 11.8832 39.9739 10.8658C40.0763 9.94474 39.8174 9.02374 39.2515 8.28924L38.6495 7.53676L38.2702 8.43374C38.2702 8.48794 37.602 9.92673 36.2535 9.92673H35.8562C35.9284 8.98153 35.5853 8.04844 34.9171 7.37422C34.1044 6.54345 32.9846 6.07991 31.8228 6.08593C31.606 6.08593 31.3893 6.10399 31.1786 6.13409L30.2575 6.31469L30.8294 7.0672C31.2749 7.6692 31.6783 8.71064 31.2027 9.27053C30.9739 9.46924 30.7151 9.62574 30.4321 9.73404C29.8301 10.017 28.9632 10.4203 28.9632 11.4317C28.9632 12.0879 29.4749 12.7742 30.396 13.3581C33.111 15.0799 34.7906 16.8558 35.5191 18.8544C36.6448 21.9006 35.1759 23.6344 33.7492 24.5494L33.111 24.9588L33.6709 25.4705C34.1706 25.8979 34.7846 26.1628 35.4408 26.229H35.9886C36.5485 26.229 37.1024 26.1508 37.6381 25.9882C37.5057 26.223 37.3432 26.4457 37.1686 26.6504C36.3559 27.5956 35.1518 28.1133 33.9057 28.0471H33.3699L33.3278 28.5829C33.3218 29.3354 33.6529 30.0457 34.2248 30.5334C34.3753 30.6658 34.5438 30.7742 34.7244 30.8584C33.8335 31.7253 33.3278 32.9113 33.3097 34.1574C33.3097 34.8377 33.1532 35.512 32.8582 36.126L32.2562 37.029H33.3278C35.0977 37.029 36.4522 36.5414 37.3913 35.5722C37.8789 35.0605 38.2401 34.4404 38.4508 33.7661C38.8 34.0611 39.2094 34.2658 39.6549 34.3681C39.8656 34.4163 40.0823 34.4404 40.299 34.4404C40.6241 34.4404 40.9492 34.3982 41.2622 34.326L41.9485 34.1454L41.6475 33.5073C41.2682 32.4899 41.2682 31.3641 41.6475 30.3467C41.8702 29.6845 42.0268 28.9982 42.111 28.2999C42.6528 28.5768 43.2549 28.7153 43.8629 28.7093C44.8622 28.7213 45.7953 28.2277 46.3371 27.3909L46.6682 26.7889L46.0662 26.536C44.0495 25.6993 43.604 23.4478 43.5137 22.2317C43.7124 22.2738 43.911 22.2979 44.1157 22.3039L44.2843 22.4183C46.4756 22.4183 47.21 20.1849 47.2401 20.0886L47.487 19.2999H46.6622C44.9284 19.2397 43.309 18.421 42.2375 17.0544ZM44.2903 21.8103H44.206C43.7666 21.8163 43.3331 21.6959 42.9599 21.4672C42.9599 21.4672 42.6408 25.8197 45.8856 27.1682V27.1862C45.4582 27.8364 44.7238 28.2217 43.9472 28.2096C43.0682 28.2638 42.2194 27.8906 41.6656 27.2103C41.6836 28.2337 41.5151 29.2571 41.1719 30.2203C40.7324 31.3822 40.7324 32.6705 41.1719 33.8324C40.901 33.8986 40.6301 33.9347 40.3532 33.9347C40.1846 33.9347 40.01 33.9166 39.8475 33.8745C39.0468 33.6819 38.4087 33.0919 38.1498 32.3153C38.1498 32.3153 38.2763 36.4932 33.406 36.4932H33.3699C33.7371 35.7949 33.9298 35.0183 33.9238 34.2297C34.1345 31.1414 36.2294 30.7019 36.2294 30.7019C35.6515 30.6297 35.1037 30.425 34.6221 30.0999C34.1826 29.7327 33.9298 29.1909 33.9177 28.619C35.3264 28.6792 36.687 28.0952 37.608 27.0237C38.1619 26.3916 38.5291 25.621 38.6856 24.7962C37.909 25.3802 36.9518 25.6752 35.9826 25.633H35.489C34.9652 25.5789 34.4656 25.3742 34.0622 25.031C35.9164 23.827 37.2167 21.7682 36.0669 18.6437C35.1398 16.1394 32.9184 14.2672 30.685 12.8585C29.9445 12.4009 29.499 11.8832 29.499 11.4377C29.499 10.3902 30.986 10.3601 31.6 9.63173C32.3044 8.81304 31.8649 7.4886 31.2508 6.69395C31.4254 6.66385 31.606 6.65181 31.7806 6.65181C32.786 6.63977 33.7552 7.04311 34.4535 7.76551C35.1639 8.43973 35.4348 9.45714 35.1639 10.3963L35.489 10.4625C35.6876 10.4986 35.8863 10.5167 36.091 10.5227H36.2234C37.9873 10.5227 38.7819 8.67454 38.7819 8.67454C38.7819 8.67454 40.6602 10.9862 37.897 12.7922C37.4214 13.0993 37.2107 13.3942 37.295 13.6952L37.3371 13.8939L37.5358 13.93C39.5405 14.4718 40.5458 15.8565 41.792 17.4277C42.9719 18.9267 44.7539 19.8297 46.6622 19.8959H46.6983C46.6983 19.8959 46.0963 21.8103 44.2903 21.8103Z" fill="#222220"/>
<path d="M40.4249 13.7251C41.0991 14.1104 41.6831 14.6342 42.1406 15.2603C42.4838 15.79 42.9714 16.2114 43.5493 16.4643C43.766 16.5365 44.0008 16.5726 44.2296 16.5726C45.1506 16.5726 45.9935 16.0489 46.4149 15.2302L46.764 14.4476L45.9152 14.3994C45.0001 14.2308 44.1754 13.7613 43.5674 13.0569C43.1159 12.5693 42.4838 12.2863 41.8155 12.2803C41.2978 12.2863 40.7981 12.4429 40.3647 12.7198L39.5821 13.2676L40.4249 13.7251ZM41.8336 12.8643L41.8155 12.8703C42.3272 12.8703 42.8088 13.093 43.152 13.4723C43.8563 14.279 44.8195 14.8148 45.8791 14.9894C45.554 15.5974 44.9219 15.9766 44.2296 15.9827C44.061 15.9827 43.8925 15.9526 43.7299 15.8984C42.7547 15.5673 42.4115 14.0924 40.7199 13.2014C41.051 12.9847 41.4363 12.8703 41.8336 12.8643ZM40.8222 21.485L40.8102 21.473C40.3166 17.4997 37.4329 14.6282 34.2243 12.8884C33.9293 12.7258 33.6523 12.5934 33.3875 12.467C34.7119 12.7379 36.0905 12.4128 37.156 11.582C37.156 11.582 35.2958 12.9486 31.4911 11.7084C32.5447 12.3947 34.5915 13.3579 36.4637 14.9231C41.1353 19.0288 37.7942 23.0382 37.7942 23.0382C39.1908 21.7138 39.6784 19.691 39.0523 17.873C40.0396 19.5164 40.5152 21.4188 40.4129 23.3332C40.2804 26.4877 38.5286 29.2449 36.7226 31.4422C36.1808 32.1345 35.8075 32.9472 35.651 33.8141C35.958 32.9532 36.4216 32.1586 37.0236 31.4723C38.9801 29.1787 40.6356 26.8007 40.8704 23.3753C41.0751 23.9773 41.9059 25.7292 43.2303 26.3853C43.2303 26.3853 41.5687 25.386 40.8222 21.485ZM15.8992 36.168C15.6102 35.5539 15.4537 34.8797 15.4477 34.1994C15.4296 32.9532 14.9179 31.7673 14.0269 30.9004C14.2075 30.8161 14.3761 30.7078 14.5266 30.5753C15.0985 30.0877 15.4296 29.3773 15.4236 28.6248L15.3875 28.089H14.8456C13.6055 28.1492 12.4015 27.6375 11.5888 26.6924C11.4142 26.4877 11.2577 26.2649 11.1192 26.0302C11.655 26.1927 12.2089 26.271 12.7687 26.271H13.3166C13.9727 26.2047 14.5928 25.9399 15.0925 25.5124L15.6523 25.0007L15.0142 24.5914C13.5814 23.6763 12.1186 21.9425 13.2443 18.8964C13.9727 16.9158 15.6523 15.1278 18.3915 13.4061C19.3125 12.8041 19.8182 12.1359 19.8182 11.4797C19.8182 10.4683 18.9694 10.065 18.3493 9.782C18.0664 9.6736 17.8075 9.5171 17.5788 9.3185C17.0972 8.7586 17.5005 7.69305 17.952 7.11512L18.554 6.36261L17.6269 6.18201C17.4162 6.14589 17.1995 6.13385 16.9828 6.13385C15.8089 6.09773 14.6771 6.54924 13.8463 7.37398C13.1661 8.0422 12.8109 8.9813 12.8771 9.9325H12.5159C11.1614 9.9325 10.5232 8.4997 10.4992 8.4395L10.1199 7.54255L9.51787 8.2951C8.95797 9.0295 8.69917 9.9506 8.80147 10.8716C9.00617 11.889 9.63827 12.768 10.5413 13.2797C10.6256 13.3338 10.7099 13.394 10.7821 13.4603C8.87977 14.0623 7.81417 15.4349 6.69447 16.8616L6.53187 17.0663C5.46037 18.4328 3.83497 19.2516 2.10117 19.3118H1.27637L1.52927 20.1004C1.52927 20.1967 2.28777 22.4302 4.48507 22.4302H4.59347C4.79817 22.4241 4.99677 22.4001 5.19547 22.3579C5.10517 23.5619 4.65967 25.8255 2.63697 26.6623L2.03497 26.9151L2.36607 27.5171C2.90787 28.3539 3.84097 28.8476 4.84027 28.8355C5.44827 28.8415 6.04427 28.7031 6.58607 28.4262C6.67037 29.1245 6.82687 29.8108 7.04967 30.473C7.42887 31.4904 7.42887 32.6161 7.04967 33.6335L6.74867 34.2716L7.43487 34.4522C7.74797 34.5245 8.07307 34.5666 8.39817 34.5666C8.61487 34.5666 8.83157 34.5425 9.04227 34.4944C9.48777 34.392 9.89717 34.1874 10.2463 33.8924C10.457 34.5666 10.8182 35.1867 11.3059 35.6984C12.251 36.6676 13.6055 37.1492 15.3694 37.1552H16.441L15.8992 36.168ZM15.3814 36.5051C10.5112 36.5051 10.6316 32.3272 10.6316 32.3272C10.3727 33.1037 9.73457 33.6937 8.93387 33.8864C8.77137 33.9285 8.59677 33.9466 8.42827 33.9466C8.15127 33.9466 7.88037 33.9104 7.61557 33.8442C8.05497 32.6823 8.05497 31.394 7.61557 30.2322C7.27237 29.269 7.10987 28.2456 7.12787 27.2221C6.57407 27.9024 5.72527 28.2757 4.84627 28.2215H4.81617C4.03357 28.2335 3.29917 27.8422 2.87167 27.192C6.11657 25.8435 5.79747 21.491 5.79747 21.491C5.42417 21.7198 4.99077 21.8402 4.55127 21.8342H4.48507C2.67907 21.8342 2.07707 19.9198 2.07707 19.9198H2.11317C4.02157 19.8596 5.80947 18.9566 6.98947 17.4576C8.22957 15.8864 9.24097 14.5017 11.2457 13.9599L11.4443 13.9238L11.4865 13.7252C11.5406 13.4181 11.3299 13.1231 10.8844 12.8221C8.12117 11.0161 9.99947 8.7044 9.99947 8.7044C9.99947 8.7044 10.7821 10.5526 12.558 10.5526H12.6423C12.847 10.5466 13.0456 10.5285 13.2443 10.4924L13.5694 10.4262C13.2925 9.487 13.5694 8.4696 14.2798 7.79539C14.9781 7.07298 15.9473 6.66964 16.9527 6.68168C17.1273 6.68168 17.3079 6.69372 17.4824 6.72382C16.8804 7.52449 16.4349 8.8489 17.1393 9.6616C17.7413 10.366 19.2343 10.3961 19.2343 11.4676C19.2343 11.9131 18.8189 12.4308 18.0784 12.8944C15.839 14.3031 13.6176 16.1753 12.6965 18.6797C11.5467 21.8041 12.847 23.881 14.7012 25.067C14.2978 25.4041 13.7982 25.6148 13.2744 25.669H12.7747C11.8055 25.7111 10.8483 25.4161 10.0717 24.8322C10.2283 25.6569 10.5955 26.4275 11.1433 27.0596C12.0644 28.1251 13.4309 28.7151 14.8396 28.6549C14.8276 29.2268 14.5747 29.7686 14.1353 30.1359C13.6537 30.4609 13.1058 30.6656 12.5279 30.7379C12.5279 30.7379 14.6289 31.1653 14.8577 34.2656C14.8517 35.0542 15.0443 35.8308 15.4115 36.5292L15.3814 36.5051Z" fill="#222220"/>
<path d="M4.52728 16.5667H4.53338C4.76208 16.5667 4.99688 16.5306 5.21358 16.4584C5.79158 16.2055 6.27918 15.7841 6.62228 15.2543C7.07378 14.6283 7.65778 14.1045 8.33198 13.7192L9.17478 13.2677L8.39218 12.7199C7.95878 12.443 7.45908 12.2864 6.94738 12.2804C6.27918 12.2864 5.64708 12.5694 5.19558 13.063C4.59358 13.7614 3.76278 14.237 2.85378 14.4055L2.00488 14.4477L2.34808 15.2303C2.76948 16.049 3.60628 16.5607 4.52728 16.5667ZM5.61098 13.4724C5.94808 13.0931 6.42968 12.8704 6.94138 12.8704C7.33268 12.8764 7.71798 12.9968 8.04908 13.2075C6.34538 14.1165 5.99018 15.5734 5.03908 15.9045C4.88248 15.9587 4.71398 15.9888 4.54538 15.9888C3.84708 15.9888 3.20898 15.6035 2.88388 14.9895C3.94338 14.8149 4.90658 14.2791 5.61098 13.4724ZM8.36218 23.3574C8.25988 21.443 8.72948 19.5406 9.72278 17.8972C9.09668 19.7152 9.58428 21.738 10.981 23.0624C10.981 23.0624 7.63378 19.053 12.3114 14.9473C14.1836 13.3821 16.2245 12.4189 17.278 11.7326C13.4733 12.9727 11.6131 11.6062 11.6131 11.6062C12.6786 12.437 14.0512 12.762 15.3756 12.4911C15.1107 12.6176 14.8338 12.756 14.5388 12.9125C11.3301 14.6584 8.42848 17.5299 7.95288 21.5032V21.4731C7.20638 25.3741 5.54488 26.3734 5.54488 26.3734C6.86318 25.7232 7.69998 23.9654 7.89868 23.3634C8.12138 26.7948 9.79498 29.1727 11.7515 31.4604C12.3475 32.1466 12.8171 32.9413 13.1241 33.8022C12.9616 32.9413 12.5883 32.1286 12.0405 31.4423C10.2345 29.245 8.48868 26.4878 8.36218 23.3574ZM23.2798 16.1092C23.4905 15.9045 23.7855 15.8082 24.0805 15.8443V16.9821C24.0745 17.265 24.0022 17.5359 23.8638 17.7828H25.0016C24.8631 17.5359 24.7909 17.265 24.7849 16.9821V15.8443C25.0738 15.8082 25.3688 15.9045 25.5795 16.1092V15.3206H23.2798V16.1092ZM22.8043 10.649H22.7923C22.9669 10.7995 23.1716 10.9199 23.3943 10.9921L23.5388 11.0584V10.3119L22.2023 9.75195C22.2685 10.1252 22.4853 10.4503 22.8043 10.649ZM25.977 10.643L25.971 10.649C26.29 10.4503 26.5067 10.1252 26.573 9.75195L25.2365 10.3119V11.0523L25.375 10.9861C25.5977 10.9139 25.8024 10.7935 25.977 10.643Z" fill="#222220"/>
<path d="M28.3727 7.62736C28.3727 6.5016 26.4764 5.49023 24.3874 5.49023C22.2984 5.49023 20.4021 6.5016 20.4021 7.62736L20.4443 7.90428L21.281 12.7203L20.4443 13.2079L18.259 14.4481C18.259 14.4481 17.7713 14.7009 17.5426 14.8514C16.7178 15.4534 16.5433 16.2601 17.0188 16.6093C17.1392 15.7905 17.8556 15.1885 18.6864 15.2126C19.3787 15.2307 20.0229 15.5798 20.4142 16.1517C20.5346 16.2962 20.6429 16.4527 20.7392 16.6093C20.8657 16.8139 20.9921 16.9945 21.1185 17.1691H15.5439C16.0135 17.9758 16.2844 18.8848 16.3446 19.818V32.2012C16.3446 35.2113 18.6503 36.626 21.1606 36.626C23.0871 36.626 23.3459 36.5357 24.4055 37.5952C25.465 36.5357 25.7239 36.626 27.6503 36.626C30.1426 36.626 32.4663 35.1992 32.4663 32.2012V19.83C32.5265 18.8969 32.7974 17.9879 33.267 17.1812H27.6322C27.7586 17.0066 27.8851 16.826 28.0115 16.6213C28.1138 16.4648 28.2222 16.3083 28.3366 16.1638C28.7339 15.5919 29.378 15.2427 30.0703 15.2246C30.9011 15.2006 31.6175 15.8026 31.7379 16.6213C32.2195 16.2782 32.0449 15.4173 31.2142 14.8634C30.9914 14.7069 30.5038 14.4601 30.5038 14.4601L28.3366 13.1838L27.4998 12.6962L28.3366 7.8802L28.3727 7.62736ZM21.2088 8.18123L24.1466 9.17453V13.7859L21.9854 12.642L21.2088 8.18123ZM16.7479 17.9818H21.8108C22.2021 18.3912 22.6837 18.7163 23.2135 18.921C23.0991 19.3183 23.1292 19.7457 23.2917 20.125C23.4844 20.5283 23.8275 20.8414 24.2489 21.0039C24.3272 21.6962 24.7968 22.2741 25.4529 22.5029C25.0917 22.8701 24.7366 23.2133 24.5921 23.3517L21.2269 23.2976C21.1125 23.2434 21.0222 23.1591 20.962 23.0507V23.0086L21.5098 23.0989H21.5459C21.6543 23.0989 21.7446 23.0267 21.7627 22.9183C21.7807 22.7979 21.7024 22.6895 21.582 22.6654L20.9078 22.5571L21.6543 19.9685L20.9439 18.4755L19.8061 19.6795L19.7339 22.3705L18.9693 22.2501C18.8489 22.226 18.7406 22.3042 18.7165 22.4246V22.4307C18.6984 22.5511 18.7767 22.6594 18.8971 22.6835L19.2162 22.7317C19.1018 22.7979 19.0235 22.846 19.0175 22.8581L18.9513 22.9062V22.9845C18.8008 23.6708 19.0777 24.3812 19.6436 24.7905V24.8869C19.6075 25.1216 19.77 25.3444 20.0048 25.3865H20.077C20.2757 25.3865 20.4503 25.2481 20.4924 25.0494C20.6369 25.0554 20.7754 25.0554 20.9198 25.0494H21.0101L25.4228 25.8501L25.4951 25.8019C25.8443 25.5551 27.1867 24.5979 27.6262 24.2547C27.7526 24.3631 27.8971 24.4594 28.0476 24.5317C27.8429 25.1638 27.9994 25.8561 28.457 26.3377H17.1513V19.83C17.1272 19.1979 16.9887 18.5718 16.7479 17.9818ZM27.2469 23.9357C26.7894 24.2728 25.6637 25.0915 25.2543 25.3805L21.2509 24.6822V24.5738C21.3172 24.3029 21.3533 24.026 21.3593 23.7491L24.7305 23.8032L24.7968 23.737C24.8509 23.6828 25.9165 22.6534 26.4583 22.0574C26.6028 22.238 26.7713 22.3885 26.964 22.5089C26.8677 23.0026 26.97 23.5143 27.2469 23.9357ZM20.5586 23.2133V23.2313C20.6489 23.3999 20.7814 23.5444 20.9439 23.6407C20.9379 23.8875 20.9138 24.1283 20.8717 24.3691C20.8717 24.4233 20.8717 24.4775 20.8295 24.5317V24.6159C20.5526 24.6159 20.2817 24.5738 20.0168 24.4895C19.5352 24.2307 19.2643 23.7009 19.3426 23.1591C19.5593 23.0086 19.8061 22.9123 20.065 22.8761C20.2877 22.8701 20.4864 23.0026 20.5586 23.2133ZM20.1433 22.4126L20.2095 19.8661L20.8115 19.2641L21.1787 20.0287L20.4623 22.5089L20.1433 22.4126ZM27.2168 35.8253H26.6389L27.0904 34.3504C27.1626 34.1457 26.7894 33.8808 26.6329 33.646C27.0001 33.8688 27.3794 34.0674 27.7707 34.248C27.7707 34.2962 27.2168 35.8253 27.2168 35.8253ZM28.764 34.1758L28.7158 34.1337L28.4028 35.7591C28.2041 35.7591 27.9934 35.8012 27.8008 35.8133L28.1319 34.248C28.2282 33.7845 26.982 33.646 26.368 32.725C25.9647 33.0621 25.4469 33.2186 24.9292 33.1644C24.4717 33.1584 24.0202 33.1103 23.5747 33.02C23.4964 33.0139 23.4182 33.0139 23.3399 33.02C23.1533 33.0079 22.9727 33.1042 22.8764 33.2668L22.7861 33.4173L21.0703 33.0019L20.661 33.7123C20.5948 33.8086 20.6068 33.941 20.6911 34.0253L20.8055 34.1517C20.6911 34.3745 20.5466 34.5792 20.372 34.7537L20.1192 34.4407C19.9265 34.1276 19.9446 33.7243 20.1613 33.4293L20.8356 32.2915L22.2744 32.5083L22.0516 31.9965C21.7506 31.3223 22.2081 30.4614 22.2563 29.9678C22.2563 30.1183 22.0998 30.1484 21.9433 30.1484H21.5279C21.4978 30.1424 21.4616 30.1424 21.4315 30.1484L21.0402 30.3832L20.7332 30.1002C20.6851 30.0099 20.7031 29.9016 20.7754 29.8353L21.4857 29.0347L20.6429 28.0534L21.8469 28.6554L22.2081 28.222C22.3045 28.3183 22.2623 28.5711 22.2623 28.5711C23.1352 28.7879 23.7433 29.5825 23.7192 30.4855V30.6601C23.8396 30.8527 24.0322 30.9852 24.2489 31.0394L25.8804 31.2019C26.2055 31.0996 26.5366 31.0333 26.8737 30.9912C27.1626 30.9912 27.4516 31.0815 27.6924 31.238C27.8068 31.1598 27.9453 31.1116 28.0837 31.1056H28.1379C28.8663 31.1056 29.1733 31.7678 29.5647 32.3096C29.8596 32.725 30.257 33.3511 30.257 33.3511C30.1426 33.5196 29.956 33.622 29.7513 33.622C29.679 33.628 29.6128 33.628 29.5406 33.622C28.758 33.4775 28.6436 31.8641 28.1981 31.7377H28.1259C28.0416 31.7377 27.9633 31.7858 27.9212 31.8641C28.1259 32.4119 28.0055 32.6347 28.2282 33.0681C28.3907 33.327 28.5954 33.5618 28.8302 33.7604C28.8302 33.7604 28.8001 34.0012 28.764 34.1758ZM19.9928 32.5986H19.9807L20.053 32.7852C20.0048 32.9477 19.4509 33.1825 19.4509 33.1825L19.3305 32.9176C19.174 32.5384 19.2884 32.1049 19.6195 31.8581L20.5285 31.3042L21.4978 31.5089C21.4917 31.7016 21.5519 31.8882 21.6663 32.0447L20.6489 31.8521L20.0469 32.2735C19.9506 32.3578 19.9325 32.4902 19.9928 32.5986ZM31.6356 32.2072C31.7018 33.8808 30.5399 35.3497 28.8964 35.6748L29.1733 34.218C29.1733 34.1337 29.2034 34.0313 29.2155 33.947C29.2998 33.9832 29.3841 34.0072 29.4683 34.0253C29.5647 34.0313 29.661 34.0313 29.7573 34.0253C30.0884 34.0253 30.4014 33.8748 30.6001 33.6099L30.8168 33.3571L30.6362 33.1103C30.6362 33.1103 30.2329 32.4721 29.9319 32.0507L29.7633 31.7979C29.4262 31.2922 28.9988 30.6541 28.1499 30.6541H28.0717C27.9513 30.6601 27.8249 30.6842 27.7105 30.7263C27.4516 30.5999 27.1687 30.5337 26.8797 30.5337C26.5907 30.5397 26.3018 30.5939 26.0309 30.6962L25.8864 30.7384L24.2971 30.5818C24.2309 30.5517 24.1767 30.5036 24.1346 30.4434L24.4777 30.3049C24.3814 29.1551 23.2737 28.4507 22.6717 28.2159C22.6416 28.0895 22.5814 27.9812 22.4911 27.8909L22.1479 27.5658L21.8469 27.927L21.6964 28.1076L19.469 27.1925L20.9198 28.9986L20.3479 29.8654C20.2275 29.9858 20.2215 30.1845 20.3479 30.3109L20.9499 30.7203L21.5519 30.4915H21.6121C21.6121 30.5818 21.5459 30.9491 21.5158 31.0514L20.4683 30.8708L19.3486 31.4728C18.8309 31.846 18.6503 32.5323 18.9212 33.1103L19.0476 33.3812L19.2222 33.7664L19.6135 33.6039C19.469 33.9952 19.5292 34.4287 19.782 34.7598L20.0168 35.0608L20.3299 35.4581L20.679 35.0848C20.9078 34.8561 21.0884 34.5912 21.2148 34.2962L21.2871 34.0554L21.1185 33.8688V33.8327L21.3111 33.5196L22.7018 33.8447L23.0148 33.9169L23.1834 33.64L23.2737 33.4895C23.2737 33.4594 23.2737 33.4534 23.358 33.4534H23.5085C23.9841 33.5497 24.4657 33.5979 24.9473 33.6039C25.2723 33.622 25.5974 33.5858 25.9105 33.4895L26.681 34.3685L26.2235 35.7771V35.8614C25.5372 35.8494 24.881 36.1323 24.4175 36.632C23.677 35.8975 23.1533 35.8193 21.1727 35.8193C18.7948 35.8193 17.1874 34.4287 17.1874 32.2072V26.7892H31.6356V32.2072ZM32.0269 17.9818C31.78 18.5658 31.6476 19.1919 31.6235 19.83V23.8875C31.0998 23.7731 30.7085 23.3277 30.6723 22.7919V22.6052H30.4917C30.1787 22.5812 29.8897 22.4367 29.673 22.2139C29.4081 21.9069 29.2636 21.5216 29.2576 21.1183C28.9988 21.5397 29.0228 22.0815 29.3239 22.4788C29.5586 22.7738 29.9018 22.9725 30.275 23.0206C30.3834 23.719 30.9432 24.2608 31.6416 24.3511V26.3377H29.1131C28.4509 26.0006 28.174 25.2119 28.469 24.5317L28.5653 24.3149L28.3426 24.2307C27.6202 23.9778 27.2228 23.2012 27.4516 22.4668L27.4998 22.2862L27.3312 22.2079C26.6991 21.8407 26.3499 21.1243 26.4523 20.4019C26.1212 20.739 26.0369 21.2507 26.2476 21.6721C26.1272 21.8106 25.9707 21.9731 25.7961 22.1537C25.164 22.0213 24.7065 21.4735 24.6824 20.8293V20.6788L24.5439 20.6246C24.1767 20.5163 23.8757 20.2634 23.7011 19.9263C23.5867 19.6494 23.5626 19.3364 23.6409 19.0474C23.7613 19.0715 23.8817 19.0895 24.0021 19.1016C24.1225 19.1076 24.2489 19.1076 24.3693 19.1016C25.3446 19.1016 26.2717 18.6802 26.9218 17.9578L32.0269 17.9818ZM28.1259 13.8762L29.1131 14.4782L29.36 14.6226C28.8483 14.7611 28.3847 15.038 28.0175 15.4233L27.9754 15.4594C27.8911 15.5497 27.8128 15.64 27.7346 15.7364L27.6864 15.7966C27.6081 15.8929 27.5359 15.9952 27.4697 16.1036L27.4336 16.1578C27.3493 16.2782 27.271 16.4106 27.1927 16.543C26.6449 17.6327 25.5794 18.3611 24.3693 18.4815C23.1593 18.3611 22.0938 17.6327 21.5459 16.543C21.4677 16.4106 21.3894 16.2842 21.3111 16.1578L21.263 16.0915L21.0703 15.7785L21.0162 15.7123C20.9379 15.616 20.8596 15.5256 20.7814 15.4414L20.7392 15.3992C20.372 15.0139 19.9085 14.737 19.3968 14.5986L19.6496 14.4541L20.6429 13.8521L21.6603 13.2501L24.3754 14.725L27.0904 13.2982L28.1259 13.8762ZM26.7894 12.6721L24.6282 13.8099V9.18053L27.56 8.18723L26.7894 12.6721ZM24.3814 8.69293L21.1667 7.40461C21.4376 6.75445 22.7018 6.2006 24.3814 6.2006C26.061 6.2006 27.3252 6.75445 27.5961 7.40461L24.3814 8.69293Z" fill="#222220"/>
</g>
<defs>
<clipPath id="clip0_261_416">
<rect width="180" height="44" fill="white"/>
</clipPath>
</defs>
</svg>
