<svg width="130" height="27" viewBox="0 0 130 27" fill="none" xmlns="http://www.w3.org/2000/svg">
<path d="M35.66 26.4696C32.3494 26.5771 29.1251 25.402 26.66 23.1896C25.3394 21.9868 24.304 20.5044 23.6292 18.8505C22.9545 17.1966 22.6576 15.4129 22.76 13.6296C22.682 10.6066 23.7096 7.65903 25.65 5.33963C27.4636 3.25283 29.9314 1.84273 32.65 1.33963C35.9866 0.561426 39.4939 1.07213 42.47 2.76963C44.264 3.75833 45.7641 5.20433 46.818 6.96083C47.8719 8.71723 48.4419 10.7214 48.47 12.7696C48.67 16.6396 47.75 20.1196 44.89 22.8796C42.4291 25.2119 39.1499 26.4833 35.76 26.4196L35.66 26.4696ZM35.83 7.17963C34.5185 7.10643 33.2219 7.48833 32.1596 8.26093C31.0973 9.03353 30.3344 10.1493 30 11.4196C29.5114 12.9652 29.5114 14.624 30 16.1696C30.2974 17.2205 30.891 18.1635 31.7099 18.8862C32.5287 19.6088 33.5383 20.0806 34.618 20.245C35.6976 20.4095 36.8018 20.2598 37.7988 19.8138C38.7957 19.3677 39.6431 18.6442 40.24 17.7296C40.9376 16.6366 41.3354 15.3792 41.3933 14.0838C41.4513 12.7884 41.1673 11.5005 40.57 10.3496C40.1514 9.40263 39.4616 8.60093 38.5877 8.04563C37.7139 7.49043 36.6951 7.20643 35.66 7.22963L35.83 7.17963ZM90 16.1296C88.76 16.1996 87.59 16.2896 86.29 16.3596V25.8796H79.29V1.75963H86.15V10.6696C87.643 10.7989 89.147 10.6772 90.6 10.3096C91.458 10.0593 92.238 9.59343 92.864 8.95613C93.491 8.31893 93.944 7.53173 94.18 6.66963C94.64 5.07963 94.83 3.41963 95.18 1.66963H101.55C101.68 6.66963 100.7 11.0296 95.96 13.7296C96.16 14.0896 96.29 14.3796 96.48 14.6696C98.48 17.9196 100.38 21.1696 102.33 24.4496C102.556 24.9035 102.753 25.3711 102.92 25.8496H95.61C93.72 22.6596 91.84 19.3796 89.95 16.0996L90 16.1296ZM120.95 11.4196C120.999 10.7271 120.999 10.0321 120.95 9.33963C120.853 8.80203 120.602 8.30413 120.227 7.90643C119.853 7.50883 119.371 7.22853 118.84 7.09963C117.008 6.49643 115.064 6.30853 113.15 6.54963C111.354 6.66653 109.598 7.13183 107.98 7.91963C107.69 6.19963 107.39 4.56963 107.07 2.91963C108.469 2.24383 109.957 1.77233 111.49 1.51963C114.678 0.864127 117.971 0.908526 121.14 1.64963C124.52 2.49963 126.89 4.44963 127.54 8.01963C127.675 8.91293 127.728 9.81663 127.7 10.7196V19.7196C127.83 21.5696 127.99 21.7196 129.88 22.0596V25.8996C128.013 26.5131 125.99 26.4565 124.16 25.7396C123.677 25.4906 123.26 25.1305 122.944 24.6889C122.628 24.2473 122.421 23.7369 122.34 23.1996C122.285 22.9429 122.251 22.682 122.24 22.4196C119.93 25.7396 116.65 26.5496 113.01 26.3496C108.95 26.1196 105.83 23.3496 105.24 20.1696C104.3 14.9396 106.96 11.0396 112.24 10.2196C115.65 9.72963 116.6 9.95963 120.92 11.4196H120.95ZM120.9 15.9996C119.805 15.26 118.544 14.8031 117.23 14.6696C116.564 14.5344 115.877 14.5365 115.212 14.6758C114.546 14.8151 113.916 15.0886 113.36 15.4796C112.83 15.8759 112.44 16.4305 112.245 17.0633C112.051 17.6961 112.063 18.3742 112.28 18.9996C112.462 19.5557 112.808 20.0441 113.271 20.4009C113.735 20.7576 114.296 20.9663 114.88 20.9996C116.065 21.1201 117.262 20.9413 118.36 20.4796C119.262 20.1783 120.02 19.554 120.489 18.7268C120.958 17.8996 121.105 16.9282 120.9 15.9996ZM67.06 1.72963H73.82V25.9096H67V18.1796C65.73 18.4696 64.59 18.7996 63.39 18.9596C60.27 19.3796 57.31 18.9596 54.81 16.9596C52.9647 15.3729 51.7422 13.183 51.36 10.7796C50.77 7.77963 51.13 4.77963 51.03 1.77963H58.08V2.84963C58.08 4.84963 58.08 6.74963 58.18 8.72963C58.1992 9.31543 58.3348 9.89153 58.5787 10.4245C58.8227 10.9574 59.1702 11.4365 59.6011 11.8339C60.0319 12.2312 60.5375 12.5389 61.0884 12.7391C61.6393 12.9392 62.2245 13.0278 62.81 12.9996C64.3344 13.0468 65.832 12.5899 67.07 11.6996L67.06 1.72963ZM13.91 25.8196H7.12V7.90963H0V1.75963H21V7.83963H13.91V25.8196Z" fill="#333333"/>
</svg>
