<svg width="200" height="25" viewBox="0 0 200 25" fill="none" xmlns="http://www.w3.org/2000/svg">
<path d="M40.2998 8C39.9998 7.5 39.9998 7 40.0998 6.5C40.1998 6 40.5998 5.6 40.9998 5.3L49.9998 0.1C50.0998 0.1 50.2998 0 50.4998 0C50.6998 0 50.8998 0.1 50.9998 0.1L59.9998 5.2C60.3998 5.5 60.7998 5.9 60.8998 6.4C60.9998 6.9 60.9998 7.4 60.6998 7.9C60.3998 8.3 59.9998 8.7 59.4998 8.8C58.9998 9 58.4998 9 57.9998 8.7L50.4998 4.4L42.9998 8.7C42.7998 8.8 42.4998 8.9 42.2998 9H41.4998C41.1998 8.9 40.9998 8.8 40.7998 8.7C40.5998 8.4 40.4998 8.2 40.2998 8Z" fill="#EB3723"/>
<path d="M58.9001 10.8998H42.2001C41.9001 10.8998 41.7001 10.9998 41.5001 11.1998C41.3001 11.3998 41.2001 11.5998 41.2001 11.8998V21.4998C41.2001 22.0998 41.4001 22.6998 41.9001 23.0998C42.3001 23.4998 42.9001 23.7998 43.5001 23.7998C44.1001 23.7998 44.7001 23.5998 45.1001 23.0998C45.5001 22.6998 45.8001 22.0998 45.8001 21.4998V14.7998H48.5001V21.4998C48.5001 22.0998 48.7001 22.6998 49.2001 23.0998C49.6001 23.4998 50.2001 23.7998 50.8001 23.7998C51.4001 23.7998 52.0001 23.5998 52.4001 23.0998C52.8001 22.6998 53.1001 22.0998 53.1001 21.4998V14.7998H55.8001V21.4998C55.8001 22.0998 56.0001 22.6998 56.5001 23.0998C56.9001 23.4998 57.5001 23.7998 58.1001 23.7998C58.7001 23.7998 59.3001 23.5998 59.7001 23.0998C60.1001 22.6998 60.4001 22.0998 60.4001 21.4998V11.8998C60.3001 11.5998 60.2001 11.3998 60.0001 11.1998C59.4001 10.9998 59.2001 10.8998 58.9001 10.8998ZM10.8001 18.4998C10.6001 17.9998 10.2001 17.5998 9.8001 17.2998C9.5001 17.0998 9.2001 16.8998 8.8001 16.7998C9.3001 16.5998 9.7001 16.1998 10.0001 15.6998C10.3001 15.1998 10.4001 14.6998 10.4001 14.1998C10.4001 13.6998 10.4001 10.7998 6.4001 10.7998H0.400098H0.300098C0.300098 10.7998 0.200098 10.7998 0.200098 10.8998L0.100098 10.9998V23.3998C0.100098 23.3998 0.100098 23.4998 0.200098 23.4998L0.300098 23.5998H6.7001C10.8001 23.5998 11.0001 20.5998 11.0001 19.8998C11.1001 19.4998 11.0001 18.9998 10.8001 18.4998ZM3.9001 13.7998H5.2001C5.5001 13.7998 5.8001 13.8998 6.2001 13.9998C6.4001 14.0998 6.5001 14.1998 6.6001 14.2998C6.7001 14.4998 6.7001 14.5998 6.7001 14.7998C6.7001 15.3998 6.3001 15.7998 5.3001 15.7998H3.9001V13.7998ZM5.4001 20.7998H3.9001V18.6998H5.4001C6.5001 18.6998 7.1001 19.1998 7.1001 19.6998C7.1001 20.4998 6.6001 20.7998 5.4001 20.7998ZM131.5 9.79984C132.3 9.79984 133 9.69984 133.7 9.39984C134.4 9.09984 135 8.59984 135.4 7.89984L135.5 7.79984V7.69984C135.5 7.69984 135.5 7.59984 135.4 7.59984L135.3 7.49984L133.4 6.59984H133.1C133 6.59984 132.9 6.69984 132.9 6.79984C132.7 6.99984 132.5 7.19984 132.2 7.39984C131.9 7.49984 131.6 7.59984 131.4 7.59984C131.2 7.59984 130.8 7.49984 130.6 7.39984C130.3 7.29984 130.1 7.09984 129.9 6.79984C129.8 6.59984 129.6 6.49984 129.5 6.69984L127.6 7.59984C127.5 7.69984 127.5 7.69984 127.5 7.79984V8.09984C127.9 8.69984 128.5 9.29984 129.2 9.59984C130 9.79984 130.7 9.89984 131.5 9.79984C131.5 9.79984 131.5 9.89984 131.5 9.79984ZM33.9001 13.9998C34.4001 13.9998 34.9001 14.0998 35.3001 14.2998C35.7001 14.4998 36.1001 14.7998 36.4001 15.1998L36.5001 15.2998H36.7001C36.7001 15.2998 36.8001 15.2998 36.8001 15.1998L38.6001 12.8998C38.7001 12.7998 38.7001 12.6998 38.7001 12.5998C38.7001 12.4998 38.7001 12.3998 38.6001 12.2998C37.2001 11.1998 35.5001 10.4998 33.8001 10.4998C32.9001 10.4998 32.0001 10.5998 31.2001 10.8998C30.4001 11.1998 29.6001 11.6998 29.0001 12.2998C28.4001 12.8998 27.9001 13.6998 27.6001 14.4998C27.3001 15.2998 27.2001 16.1998 27.2001 17.0998C27.2001 19.6998 28.8001 23.6998 33.7001 23.6998C35.5001 23.6998 37.2001 23.0998 38.5001 21.8998C38.6001 21.7998 38.6001 21.6998 38.6001 21.5998C38.6001 21.4998 38.6001 21.3998 38.5001 21.2998L37.0001 19.4998L36.9001 19.3998H36.8001H36.7001C36.7001 19.3998 36.6001 19.3998 36.6001 19.4998C36.3001 19.8998 35.9001 20.0998 35.4001 20.2998C35.0001 20.4998 34.5001 20.5998 34.0001 20.5998C32.7001 20.5998 31.4001 19.4998 31.4001 17.1998C31.2001 15.3998 32.2001 13.9998 33.9001 13.9998ZM25.4001 14.7998C25.1001 13.9998 24.6001 13.1998 24.0001 12.5998C23.4001 11.9998 22.6001 11.4998 21.8001 11.1998C21.0001 10.8998 20.1001 10.6998 19.2001 10.7998C18.3001 10.7998 17.4001 10.8998 16.6001 11.1998C15.8001 11.4998 15.0001 11.9998 14.4001 12.5998C13.8001 13.1998 13.3001 13.9998 13.0001 14.7998C12.7001 15.5998 12.6001 16.4998 12.6001 17.3998C12.6001 20.0998 14.2001 24.0998 19.1001 24.0998C24.0001 24.0998 25.6001 20.0998 25.6001 17.3998C25.8001 16.4998 25.7001 15.5998 25.4001 14.7998ZM19.2001 20.7998C17.9001 20.7998 16.5001 19.6998 16.5001 17.2998C16.5001 15.2998 17.5001 13.7998 19.2001 13.7998C20.8001 13.7998 21.8001 15.2998 21.8001 17.2998C21.8001 19.6998 20.5001 20.7998 19.2001 20.7998ZM102.8 10.8998H99.6001H99.5001C99.5001 10.8998 99.4001 10.8998 99.4001 10.9998L99.3001 11.0998V15.6998H95.5001V11.1998V11.0998C95.5001 11.0998 95.5001 10.9998 95.4001 10.9998L95.3001 10.8998H92.0001H91.9001C91.9001 10.8998 91.8001 10.8998 91.8001 10.9998L91.7001 11.0998V23.4998C91.7001 23.4998 91.7001 23.5998 91.8001 23.5998L91.9001 23.6998H95.3001C95.3001 23.6998 95.4001 23.6998 95.4001 23.5998L95.5001 23.4998V18.6998H99.3001V23.4998C99.3001 23.4998 99.3001 23.5998 99.4001 23.5998L99.5001 23.6998H102.9C102.9 23.6998 103 23.6998 103 23.5998L103.1 23.4998V11.1998C103.2 10.9998 103 10.8998 102.8 10.8998ZM136.9 10.8998H133.3C133.2 10.8998 133.2 10.9998 133.2 11.0998L129.6 17.6998V11.1998V11.0998C129.6 11.0998 129.6 10.9998 129.5 10.9998L129.4 10.8998H126.1H126C126 10.8998 125.9 10.8998 125.9 10.9998L125.8 11.0998V23.3998C125.8 23.3998 125.8 23.4998 125.9 23.4998L126 23.5998H129.5C129.6 23.5998 129.6 23.5998 129.7 23.4998C129.8 23.4998 129.8 23.3998 129.8 23.3998L133.4 16.7998V23.3998C133.4 23.3998 133.4 23.4998 133.5 23.4998L133.6 23.5998H137C137 23.5998 137.1 23.5998 137.1 23.4998L137.2 23.3998V11.1998V11.0998C137.2 11.0998 137.2 10.9998 137.1 10.9998L137 10.8998H136.9ZM74.9001 14.7998C74.6001 13.9998 74.1001 13.1998 73.5001 12.5998C72.9001 11.9998 72.1001 11.4998 71.3001 11.1998C70.5001 10.8998 69.6001 10.6998 68.7001 10.7998C67.8001 10.7998 66.9001 10.8998 66.1001 11.1998C65.3001 11.4998 64.5001 11.9998 63.9001 12.5998C63.3001 13.1998 62.8001 13.9998 62.5001 14.7998C62.2001 15.5998 62.1001 16.4998 62.1001 17.3998C62.1001 20.0998 63.7001 24.0998 68.6001 24.0998C73.5001 24.0998 75.1001 20.0998 75.1001 17.3998C75.4001 16.4998 75.2001 15.5998 74.9001 14.7998ZM68.8001 20.7998C67.5001 20.7998 66.1001 19.6998 66.1001 17.2998C66.1001 15.2998 67.1001 13.7998 68.8001 13.7998C70.5001 13.7998 71.5001 15.2998 71.5001 17.2998C71.4001 19.6998 70.0001 20.7998 68.8001 20.7998ZM122.3 10.8998H119.1H119C119 10.8998 118.9 10.8998 118.9 10.9998L118.8 11.0998V23.4998C118.8 23.4998 118.8 23.5998 118.9 23.5998L119 23.6998H122.4C122.4 23.6998 122.5 23.6998 122.5 23.5998L122.6 23.4998V11.1998V11.0998C122.6 11.0998 122.6 10.9998 122.5 10.9998L122.4 10.8998H122.3ZM112 15.5998H110.1V11.2998V11.1998C110.1 11.1998 110.1 11.0998 110 11.0998L109.9 10.9998H106.6H106.5C106.5 10.9998 106.4 10.9998 106.4 11.0998L106.3 11.1998V23.5998C106.3 23.5998 106.3 23.6998 106.4 23.6998L106.5 23.7998H112.1C115.4 23.7998 117.2 22.2998 117.2 19.5998C117.1 16.8998 115.3 15.5998 112 15.5998ZM112.7 20.5998C112.4 20.7998 112 20.8998 111.7 20.8998H110.2V18.5998H111.7C112 18.5998 112.4 18.6998 112.7 18.7998C112.9 18.8998 113 18.9998 113.1 19.1998C113.2 19.3998 113.2 19.5998 113.2 19.7998C113.1 20.0998 113 20.3998 112.7 20.5998ZM88.1001 10.7998H85.0001H84.9001C84.9001 10.7998 84.8001 10.7998 84.8001 10.8998L84.7001 10.9998V16.3998C81.6001 16.8998 81.1001 15.7998 81.1001 14.8998V11.1998V11.0998C81.1001 11.0998 81.1001 10.9998 81.0001 10.9998L80.9001 10.8998H77.6001C77.5001 10.8998 77.4001 10.8998 77.4001 10.9998C77.4001 11.0998 77.3001 11.0998 77.3001 11.1998V13.6998C77.3001 15.0998 77.4001 16.5998 77.4001 17.0998C77.7001 18.7998 79.2001 19.4998 80.8001 19.6998C82.1001 19.7998 83.5001 19.6998 84.7001 19.3998V23.4998C84.7001 23.4998 84.7001 23.5998 84.8001 23.5998L84.9001 23.6998H88.3001C88.3001 23.6998 88.4001 23.6998 88.4001 23.5998L88.5001 23.4998V11.1998C88.5001 11.0998 88.4001 10.9998 88.4001 10.8998C88.3001 10.8998 88.2001 10.8998 88.1001 10.7998C88.1001 10.7998 88.1001 10.8998 88.1001 10.7998ZM185.3 10.7998H182.1H182C182 10.7998 181.9 10.7998 181.9 10.8998L181.8 10.9998V15.5998H178V11.0998V10.9998C178 10.9998 178 10.8998 177.9 10.8998L177.8 10.7998H174.5H174.4C174.4 10.7998 174.3 10.7998 174.3 10.8998L174.2 10.9998V23.3998C174.2 23.3998 174.2 23.4998 174.3 23.4998L174.4 23.5998H177.8C177.8 23.5998 177.9 23.5998 177.9 23.4998L178 23.3998V18.5998H181.8V23.3998C181.8 23.3998 181.8 23.4998 181.9 23.4998L182 23.5998H185.4C185.4 23.5998 185.5 23.5998 185.5 23.4998L185.6 23.3998V11.1998V11.0998C185.6 11.0998 185.6 10.9998 185.5 10.9998L185.4 10.8998C185.4 10.8998 185.3 10.8998 185.3 10.7998ZM153.8 15.7998H151V13.8998H157C157 13.8998 157.1 13.8998 157.1 13.7998L157.2 13.6998V11.3998V11.2998C157.2 11.2998 157.2 11.1998 157.1 11.1998L157 11.0998H147.4H147.3C147.3 11.0998 147.2 11.0998 147.2 11.1998L147.1 11.2998V23.6998C147.1 23.6998 147.1 23.7998 147.2 23.7998L147.3 23.8998H153.7C157.8 23.8998 158.1 20.8998 158.1 19.8998C158.1 18.8998 157.9 15.7998 153.8 15.7998ZM152.5 20.7998H151V18.5998H152.5C153.6 18.5998 154.1 18.9998 154.2 19.6998C154.2 20.3998 153.6 20.7998 152.5 20.7998ZM196 17.2998L199.9 11.3998C199.9 11.2998 200 11.2998 200 11.1998V11.0998C200 11.0998 200 10.9998 199.9 10.9998L199.8 10.8998H196.1C196 10.8998 196 10.9998 196 11.0998L192.7 16.4998V11.1998V11.0998C192.7 11.0998 192.7 10.9998 192.6 10.9998L192.5 10.8998H189.2H189.1C189.1 10.8998 189 10.8998 189 10.9998L188.9 11.0998V23.3998C188.9 23.3998 188.9 23.4998 189 23.4998L189.1 23.5998H192.5C192.5 23.5998 192.6 23.5998 192.6 23.4998L192.7 23.3998V17.9998L196 23.4998C196 23.5998 196.1 23.5998 196.1 23.5998C196.2 23.5998 196.2 23.6998 196.3 23.6998H199.8C199.8 23.6998 199.9 23.6998 199.9 23.5998L200 23.4998V23.3998C200 23.2998 200 23.1998 199.9 23.1998L196 17.2998ZM172.3 23.2998L167.7 11.1998C167.7 11.0998 167.6 11.0998 167.6 10.9998C167.5 10.9998 167.5 10.8998 167.4 10.8998H164C163.9 10.8998 163.8 10.8998 163.8 10.9998C163.7 10.9998 163.7 11.0998 163.7 11.1998L159 23.2998V23.5998C159 23.5998 159 23.6998 159.1 23.6998L159.2 23.7998H162.6C162.7 23.7998 162.8 23.7998 162.8 23.6998C162.9 23.6998 162.9 23.5998 162.9 23.4998L163.4 21.5998H167.5L168.1 23.4998C168.1 23.5998 168.2 23.5998 168.2 23.6998C168.3 23.6998 168.3 23.7998 168.4 23.7998H171.9C171.9 23.7998 172 23.7998 172 23.6998L172.1 23.5998V23.4998L172.3 23.2998ZM164.5 18.6998L165.6 14.7998L166.8 18.6998H164.5Z" fill="#1B58A9"/>
</svg>
