<svg width="100" height="36" viewBox="0 0 100 36" fill="none" xmlns="http://www.w3.org/2000/svg">
<path d="M29 4.73H5.15L6.88 0H30.7L29 4.73ZM28.15 7.08H4.3L2.58 11.8H26.4L28.15 7.08ZM25.57 14.13H1.73L0 18.85H23.8L25.57 14.13Z" fill="#009FDF"/>
<path d="M85.7302 30.6501H90.0002C90.6102 30.7269 91.2302 30.6501 91.8032 30.4265C92.3752 30.203 92.8832 29.8399 93.2802 29.3701C93.8762 28.601 94.1712 27.6411 94.1102 26.6701C94.1462 26.0518 94.0302 25.434 93.7722 24.8709C93.5142 24.3078 93.1222 23.8166 92.6302 23.4401C91.8312 22.9196 90.8812 22.6803 89.9302 22.7601H85.6802V30.6401L85.7302 30.6501ZM80.1002 35.4001V7.08005H98.5302L96.9002 11.8301H85.7302V18.1001H90.2802C93.9602 18.1001 95.8602 18.9801 97.1802 20.1001C98.1232 20.9391 98.8642 21.9799 99.3492 23.1451C99.8342 24.3104 100.05 25.57 99.9802 26.8301C100.049 28.1815 99.7812 29.5288 99.1992 30.7508C98.6182 31.9727 97.7422 33.0309 96.6502 33.8301C94.8702 35.0601 93.0202 35.4101 89.2502 35.4101L80.1002 35.4001ZM63.7702 35.4001V11.8301H55.5702V7.08005H78.3202L76.6902 11.8301H69.4402V35.4301H63.7602L63.7702 35.4001ZM41.0702 18.4001H44.3002C44.9706 18.4559 45.6457 18.4054 46.3002 18.2501C46.9706 18.0335 47.548 17.5964 47.9384 17.0099C48.3288 16.4234 48.5092 15.7222 48.4502 15.0201C48.5421 14.3225 48.3736 13.6156 47.9769 13.0344C47.5803 12.4533 46.9833 12.0388 46.3002 11.8701C45.5964 11.7034 44.8727 11.6361 44.1502 11.6701H41.1502V18.4001H41.0702ZM41.0702 23.3001V30.7301H45.0002C46.0695 30.8469 47.143 30.5499 48.0002 29.9001C48.4029 29.5356 48.7202 29.0866 48.9293 28.5853C49.1385 28.084 49.2344 27.5427 49.2102 27.0001C49.2312 26.1301 48.9679 25.2769 48.4602 24.5701C47.6302 23.4901 46.5802 23.2901 44.8302 23.2901H41.0802L41.0702 23.3001ZM50.1502 20.3V20.4001C51.1152 20.7916 52.0122 21.3316 52.8102 22.0001C53.6202 22.6702 54.2592 23.5224 54.6762 24.487C55.0932 25.4516 55.2762 26.5013 55.2102 27.5501C55.2102 31.43 53.1602 34.2301 49.7802 35.0501C48.4303 35.3836 47.039 35.5184 45.6502 35.4501H35.4502V7.08005H44.5302C45.9748 7.02585 47.4204 7.16025 48.8302 7.48005C52.1102 8.36005 54.2602 10.6301 54.2602 14.2101C54.2882 15.0588 54.1422 15.9043 53.8332 16.6952C53.5232 17.486 53.0562 18.2055 52.4602 18.8101C51.8252 19.4549 51.0672 19.965 50.2302 20.3101H50.1502V20.3Z" fill="#0A2973"/>
</svg>
