<svg width="70" height="30" viewBox="0 0 70 30" fill="none" xmlns="http://www.w3.org/2000/svg">
<g clip-path="url(#clip0_97_31951)">
<path d="M29.0004 4.2L28.6387 3.9C28.7593 3.78 31.2916 0.84 33.643 0.42C35.3312 0.12 54.022 0 54.8058 0C54.8661 0 55.6499 0 56.7351 0.42C57.6998 0.84 59.1469 1.68 60.2924 3.54L59.8704 3.78C57.8204 0.54 54.8661 0.48 54.8661 0.48C54.6852 0.48 35.3915 0.6 33.7636 0.84C32.8592 1.02 31.7739 1.62 30.568 2.64C29.6637 3.42 29.0607 4.2 29.0004 4.2Z" fill="#222222"/>
<g opacity="0.6">
<path opacity="0.6" d="M58.0009 1.20006C57.5789 0.900059 57.1568 0.720059 56.7951 0.540059C55.7098 0.0600586 54.8657 0.0600586 54.8657 0.0600586C54.0819 0.0600586 35.3308 0.180059 33.7029 0.480059C32.7382 0.660059 31.7132 1.26006 30.8691 1.92006C30.9294 1.92006 30.9897 1.92006 31.05 1.92006C31.8338 1.32006 32.7985 0.780059 33.7029 0.660059C35.3911 0.360059 54.0819 0.300059 54.8657 0.240059C54.926 0.240059 55.7098 0.240059 56.7951 0.660059C57.0965 0.780059 57.4583 0.960059 57.82 1.20006C57.82 1.20006 57.8803 1.20006 58.0009 1.20006Z" fill="#C5C5C5"/>
</g>
<path d="M49.6216 26.8799C49.6216 27.2399 49.3202 27.5999 48.8981 27.5999H20.8016C20.4399 27.5999 20.0781 27.2999 20.0781 26.8799V25.6199C20.0781 25.2599 20.3796 24.8999 20.8016 24.8999H48.9584C49.3202 24.8999 49.6819 25.1999 49.6819 25.6199V26.8799H49.6216Z" fill="black"/>
<path d="M50.4661 27.3598C50.4661 27.6598 50.1646 27.8998 49.8028 27.8998H19.8976C19.5358 27.8998 19.2344 27.6598 19.2344 27.3598C19.2344 27.0598 19.5358 26.8198 19.8976 26.8198H49.8028C50.1646 26.8198 50.4661 27.0598 50.4661 27.3598Z" fill="#515155"/>
<g opacity="0.4">
<path opacity="0.4" d="M50.406 27.1198C50.2854 26.9398 50.0443 26.8198 49.8031 26.8198H19.8979C19.5964 26.8198 19.3552 26.9398 19.2949 27.1198H50.406Z" fill="#D0D0D0"/>
</g>
<path d="M67.8289 11.3999L18.3888 12.7799C18.3888 12.7799 9.64634 14.0999 1.86856 17.9399C1.26563 18.4799 1.14505 18.9599 1.08476 19.5599C1.02446 19.7399 1.02446 19.9799 1.02446 20.1599C0.783291 21.1199 0.361241 23.2799 1.20534 24.1799C2.47149 25.5599 1.68768 24.7199 3.2553 26.5799C3.31559 26.6399 3.37588 26.6399 3.43618 26.6399L63.6687 26.4599L68.9142 24.7799L69.9392 21.6599L68.9142 19.7399L67.8289 11.3999Z" fill="#C6C4BB"/>
<path d="M0.723693 21.66C0.301643 23.94 1.62809 24.72 3.25599 26.58C3.31629 26.64 3.37658 26.64 3.43687 26.64L63.6694 26.46L68.9149 24.78L69.9399 21.66L68.9149 19.74C68.9752 19.74 0.964864 20.34 0.723693 21.66Z" fill="#B9B8B0"/>
<g opacity="0.6">
<path opacity="0.6" d="M1.20571 24.1799C2.47186 25.5599 1.68806 24.7199 3.25567 26.5799C3.31596 26.6399 3.37626 26.6399 3.43655 26.6399L63.6691 26.4599L68.9146 24.7799L69.4572 23.1599C69.4572 23.1599 0.964542 23.8799 1.20571 24.1799Z" fill="#B9B8B0"/>
</g>
<path d="M63.6084 5.70002C60.1115 2.16002 60.0512 1.26002 57.0968 1.20002C54.866 1.20002 54.3836 1.02002 52.1528 1.02002C49.0779 1.02002 46.0632 1.02002 42.9883 1.14002C39.9736 1.26002 36.8987 1.38002 33.8841 1.62002C31.7135 1.80002 29.8444 2.16002 29.6636 2.22002C26.1063 3.42002 16.0977 14.94 16.0977 14.94L39.7928 14.64L67.8892 11.4C67.8289 11.4 66.9245 9.12002 63.6084 5.70002Z" fill="#C8C7BE"/>
<path d="M60.0517 7.79998C55.6503 2.09998 54.7459 1.61998 53.7812 1.61998C51.3695 1.49998 50.4048 1.61998 48.0534 1.61998C45.099 1.61998 33.1008 2.03998 30.3876 3.11998C26.9509 4.49998 25.1421 7.37998 22.851 10.38C22.4892 10.8 21.9466 11.34 21.7054 11.88C21.7054 11.88 21.1025 13.2 22.3083 13.32C22.3083 13.32 48.4152 11.34 56.9767 10.44C58.3032 10.32 59.5693 8.93998 59.9914 8.39998C60.0517 8.15998 60.112 7.97998 60.0517 7.79998Z" fill="black"/>
<path d="M20.1378 11.8799C22.7304 8.51994 27.0715 4.79994 27.9156 4.01994C28.4583 3.59994 28.4583 3.17994 28.3377 2.93994C25.4436 4.79994 20.8011 9.71994 18.0879 12.6599C18.9923 12.7799 20.1378 11.8799 20.1378 11.8799Z" fill="#00384B"/>
<path d="M31.6536 3.1202C31.6536 3.1202 29.4228 3.60021 27.8551 5.1002C26.2875 6.6002 22.3685 12.1202 22.3685 12.1202C22.3685 12.1202 21.4038 13.0802 22.9111 12.8402C23.5141 12.7202 29.5433 12.1802 36.2359 11.6402C36.477 7.8002 37.2608 4.5602 37.8638 2.46021C35.5726 2.64021 33.3418 2.88021 31.6536 3.1202Z" fill="#00384B"/>
<path d="M39.3102 2.40017C39.0087 4.68017 38.7072 7.98017 38.7675 11.4602C44.013 10.9802 49.3791 10.5602 52.6952 10.2602C51.2481 6.48017 50.0423 3.72017 49.1379 1.92017C46.3644 1.98017 42.7468 2.16017 39.3102 2.40017Z" fill="#00384B"/>
<path d="M59.3874 7.62011C59.2065 7.08011 55.2875 1.92011 53.7802 1.86011C53.3581 1.86011 52.092 1.86011 50.2832 1.92011C51.7905 4.74011 53.2376 7.50011 54.4434 10.0801C55.4081 10.0201 55.9507 9.96011 55.9507 9.96011C55.9507 9.96011 56.8551 9.96011 57.5786 9.48011C58.3022 9.00011 59.5683 8.10011 59.3874 7.62011Z" fill="#00384B"/>
<path d="M7.17435 24.24C7.17435 21.06 9.88753 18.48 13.2639 18.48C16.6403 18.48 19.3535 21.06 19.3535 24.24C19.3535 25.08 19.1726 25.92 18.8109 26.64H19.9564C20.3785 25.68 20.6197 24.66 20.6197 23.58C20.6197 19.56 17.3036 16.26 13.2639 16.26C9.22431 16.26 5.9082 19.5 5.9082 23.52C5.9082 24.6 6.14937 25.68 6.57142 26.58H7.6567C7.35523 25.92 7.17435 25.08 7.17435 24.24Z" fill="#201E1E"/>
<path d="M20.6197 23.52C20.6197 19.5 17.3036 16.2 13.2639 16.2C9.22431 16.2 5.9082 19.5 5.9082 23.52C5.9082 24.6 6.14937 25.68 6.57142 26.58H6.7523C6.39055 25.74 6.20967 24.78 6.20967 23.82C6.20967 19.92 9.3449 16.8 13.2639 16.8C17.183 16.8 20.3182 19.92 20.3182 23.82C20.3182 24.78 20.1373 25.74 19.7756 26.58H19.9564C20.3785 25.68 20.6197 24.66 20.6197 23.52Z" fill="#201E1E"/>
<path d="M13.2634 18.48C9.88701 18.48 7.17383 21.06 7.17383 24.24C7.17383 25.08 7.35471 25.92 7.71646 26.64H18.8103C19.1721 25.92 19.353 25.08 19.353 24.24C19.353 21.06 16.6398 18.48 13.2634 18.48Z" fill="black"/>
<path d="M18.4504 24.8399C18.4504 27.7199 16.099 29.9999 13.2653 29.9999C10.4315 29.9999 8.08008 27.6599 8.08008 24.8399C8.08008 21.9599 10.4315 19.6799 13.2653 19.6799C16.099 19.6799 18.4504 21.9599 18.4504 24.8399Z" fill="#363635"/>
<path d="M18.4504 24.8399C18.4504 27.7199 16.099 29.9999 13.2653 29.9999C10.4315 29.9999 8.08008 27.6599 8.08008 24.8399C8.08008 21.9599 10.4315 19.6799 13.2653 19.6799C16.099 19.6799 18.4504 21.9599 18.4504 24.8399Z" fill="#222222"/>
<path d="M16.8221 24.8401C16.8221 26.7601 15.2545 28.3201 13.3251 28.3201C11.3957 28.3201 9.82812 26.7601 9.82812 24.8401C9.82812 22.9201 11.3957 21.3601 13.3251 21.3601C15.2545 21.3601 16.8221 22.9201 16.8221 24.8401Z" fill="black"/>
<path d="M16.5199 24.8399C16.5199 26.5799 15.0729 28.0199 13.3244 28.0199C11.5759 28.0199 10.1289 26.5799 10.1289 24.8399C10.1289 23.0999 11.5759 21.6599 13.3244 21.6599C15.0729 21.6599 16.5199 23.0399 16.5199 24.8399Z" fill="#DEE1D3"/>
<path d="M14.8923 22.92C14.8923 22.86 14.8923 22.86 14.8923 22.8C14.5306 22.5 14.1085 22.32 13.6262 22.26C13.5659 22.26 13.5659 22.26 13.5056 22.32L13.4453 22.38V24.18C13.4453 24.18 13.4453 24.24 13.5056 24.24C13.5056 24.24 13.5056 24.24 13.5659 24.24H13.6262L14.8923 22.92C14.8923 22.98 14.8923 22.92 14.8923 22.92Z" fill="#4C4C49"/>
<path d="M15.8571 24.66C15.9174 24.66 15.9174 24.6 15.9174 24.6C15.9174 24.12 15.7365 23.7 15.3748 23.34C15.3145 23.34 15.3145 23.28 15.2542 23.28H15.1939L13.9277 24.54V24.6C13.9277 24.6 13.9277 24.6 13.9277 24.66L13.988 24.72L15.8571 24.66C15.7968 24.72 15.7968 24.72 15.8571 24.66Z" fill="#4C4C49"/>
<path d="M15.1936 26.5201C15.2539 26.5201 15.2539 26.5201 15.3142 26.5201C15.6157 26.1601 15.8569 25.7401 15.8569 25.2601C15.8569 25.2001 15.8569 25.2001 15.7966 25.1401L15.7363 25.0801H13.9275C13.9275 25.0801 13.8672 25.0801 13.8672 25.1401V25.2001L15.1936 26.5201Z" fill="#4C4C49"/>
<path d="M13.5056 27.2999L13.5659 27.3599C14.0482 27.3599 14.4703 27.1799 14.832 26.8199C14.832 26.7599 14.8923 26.7599 14.8923 26.6999V26.6399L13.6262 25.3799H13.5659C13.5659 25.3799 13.5659 25.3799 13.5056 25.3799L13.4453 25.4399L13.5056 27.2999C13.4453 27.2999 13.4453 27.2999 13.5056 27.2999Z" fill="#4C4C49"/>
<path d="M11.6367 22.92C11.6367 22.86 11.6367 22.86 11.6367 22.8C11.9985 22.5 12.4205 22.32 12.9029 22.26C12.9632 22.26 12.9632 22.26 13.0235 22.32L13.0837 22.38V24.18C13.0837 24.18 13.0837 24.24 13.0235 24.24C13.0235 24.24 13.0235 24.24 12.9632 24.24H12.9029L11.6367 22.92C11.697 22.98 11.697 22.92 11.6367 22.92Z" fill="#4C4C49"/>
<path d="M10.7322 24.66L10.6719 24.6C10.6719 24.12 10.8528 23.7 11.2145 23.34C11.2748 23.34 11.2748 23.28 11.3351 23.28H11.3954L12.6615 24.54V24.6C12.6615 24.6 12.6615 24.6 12.6615 24.66L12.6012 24.72L10.7322 24.66C10.7322 24.72 10.7322 24.72 10.7322 24.66Z" fill="#4C4C49"/>
<path d="M11.3351 26.5201C11.2748 26.5201 11.2748 26.5201 11.2145 26.5201C10.913 26.1601 10.6719 25.7401 10.6719 25.2601C10.6719 25.2001 10.6719 25.2001 10.7322 25.1401L10.7925 25.0801H12.6012C12.6012 25.0801 12.6615 25.0801 12.6615 25.1401V25.2001L11.3351 26.5201C11.3954 26.5201 11.3351 26.5201 11.3351 26.5201Z" fill="#4C4C49"/>
<path d="M13.084 27.2999L13.0237 27.3599C12.5414 27.3599 12.1193 27.1799 11.7576 26.8199C11.7576 26.7599 11.6973 26.7599 11.6973 26.6999V26.6399L12.9634 25.3799H13.0237C13.0237 25.3799 13.0237 25.3799 13.084 25.3799L13.1443 25.4399L13.084 27.2999Z" fill="#4C4C49"/>
<path d="M14.2282 24.8399C14.2282 25.3799 13.8061 25.7999 13.2635 25.7999C12.7209 25.7999 12.2988 25.3799 12.2988 24.8399C12.2988 24.2999 12.7209 23.8799 13.2635 23.8799C13.8061 23.8799 14.2282 24.2999 14.2282 24.8399Z" fill="#DEE1D3"/>
<path d="M13.8681 24.36C13.8681 24.42 13.8078 24.48 13.7475 24.48C13.6872 24.48 13.627 24.42 13.627 24.36C13.627 24.3 13.6872 24.24 13.7475 24.24C13.8078 24.24 13.8681 24.3 13.8681 24.36Z" fill="#4C4C49"/>
<path d="M13.3857 24.1801C13.3857 24.2401 13.3254 24.3001 13.2651 24.3001C13.2048 24.3001 13.1445 24.2401 13.1445 24.1801C13.1445 24.1201 13.2048 24.0601 13.2651 24.0601C13.3254 24.0601 13.3857 24.1201 13.3857 24.1801Z" fill="#4C4C49"/>
<path d="M12.9033 24.42C12.9033 24.48 12.843 24.5401 12.7827 24.5401C12.7224 24.5401 12.6621 24.48 12.6621 24.42C12.6621 24.36 12.7224 24.3 12.7827 24.3C12.843 24.3 12.9033 24.3 12.9033 24.42Z" fill="#4C4C49"/>
<path d="M13.8681 25.38C13.8681 25.32 13.8078 25.26 13.7475 25.26C13.6872 25.26 13.627 25.32 13.627 25.38C13.627 25.44 13.6872 25.5 13.7475 25.5C13.8078 25.5 13.8681 25.44 13.8681 25.38Z" fill="#4C4C49"/>
<path d="M14.1084 24.9C14.1084 24.84 14.0481 24.78 13.9878 24.78C13.9275 24.78 13.8672 24.84 13.8672 24.9C13.8672 24.96 13.9275 25.02 13.9878 25.02C14.0481 25.02 14.1084 24.96 14.1084 24.9Z" fill="#4C4C49"/>
<path d="M12.6611 24.9C12.6611 24.84 12.6008 24.78 12.5405 24.78C12.4802 24.78 12.4199 24.84 12.4199 24.9C12.4199 24.96 12.4802 25.02 12.5405 25.02C12.6008 25.02 12.6611 24.96 12.6611 24.9Z" fill="#4C4C49"/>
<path d="M13.3857 25.5599C13.3857 25.4999 13.3254 25.4399 13.2651 25.4399C13.2048 25.4399 13.1445 25.4999 13.1445 25.5599C13.1445 25.6199 13.2048 25.6799 13.2651 25.6799C13.3254 25.6799 13.3857 25.6199 13.3857 25.5599Z" fill="#4C4C49"/>
<path d="M12.9033 25.38C12.9033 25.32 12.843 25.26 12.7827 25.26C12.7224 25.26 12.6621 25.32 12.6621 25.38C12.6621 25.44 12.7224 25.5 12.7827 25.5C12.843 25.5 12.9033 25.44 12.9033 25.38Z" fill="#4C4C49"/>
<path d="M6.99397 23.9401C6.99397 23.5801 7.05426 23.2201 7.05426 22.8601H0.42205C0.361757 22.8601 0.301464 22.8601 0.241171 22.9201C0.120586 22.9801 0.0602929 23.0401 0.0602929 23.1601L0 24.6001C0 24.6001 1.38674 26.6401 2.29113 26.9401C3.25581 27.2401 3.85874 27.1801 3.85874 27.1801H6.57192C6.69251 27.0001 6.93368 24.4201 6.99397 23.9401Z" fill="#201E1E"/>
<path opacity="0.6" d="M5.4874 22.8601H0.422803C0.36251 22.8601 0.302217 22.8601 0.241924 22.9201C0.121338 22.9801 0.0610456 23.0401 0.0610456 23.1601V24.4201C0.000752751 24.4201 5.42711 23.2201 5.4874 22.8601Z" fill="#222222"/>
<path d="M21.042 11.9399L19.7156 12.7799C19.7156 12.7799 19.1127 13.1999 19.5347 13.6799C19.5347 13.6799 19.7156 13.9199 20.3185 13.9199C20.8612 13.9199 22.0067 13.6799 22.0067 13.6799L21.042 11.9399Z" fill="black"/>
<path d="M23.3334 11.64C23.0923 10.92 21.7055 10.98 21.7055 10.98C21.1026 11.04 20.6806 11.58 20.3791 12.24C20.0173 12.96 20.2585 14.4 20.982 14.28C21.8261 14.1 21.4644 14.22 22.7908 13.86C23.1526 13.74 23.6349 12.54 23.3334 11.64Z" fill="#222222"/>
<path d="M23.3325 11.64C23.3325 11.58 23.2722 11.52 23.2119 11.46C23.2119 11.82 23.1516 12.18 22.9104 12.42C22.609 12.78 22.1869 12.96 21.7649 13.08C21.5237 13.14 21.2825 13.26 20.9811 13.32C20.8002 13.38 20.4987 13.44 20.3179 13.32C20.2576 13.32 20.2576 13.26 20.1973 13.2C20.1973 13.86 20.4987 14.46 20.9811 14.34C21.8252 14.16 21.4634 14.28 22.7899 13.92C23.1516 13.74 23.634 12.54 23.3325 11.64Z" fill="#141412"/>
<path d="M15.918 15.7201L66.8051 9.6001L67.8301 11.3401L67.8904 12.0001L66.3228 13.4401L15.918 15.7201Z" fill="#C8C7BE"/>
<path d="M34.1256 13.6199L35.8138 13.4399C35.8138 13.4399 36.1153 13.4399 36.055 13.7399C35.9344 14.0399 35.9344 14.0999 35.9344 14.0999C35.9344 14.0999 35.9344 14.2799 35.5727 14.3399C35.2712 14.3999 33.3418 14.6999 33.3418 14.6999C33.3418 14.6999 33.1007 14.7599 32.6183 14.5799C32.1963 14.3999 32.136 14.0399 32.3168 13.9199C32.3168 13.9199 32.3168 13.8599 32.558 13.7999C32.7992 13.7399 34.1256 13.6199 34.1256 13.6199Z" fill="#404744"/>
<path d="M32.7388 13.8599L35.5122 13.5599C35.5122 13.5599 35.8137 13.4999 35.874 13.6799C35.9343 13.7999 35.7534 13.9799 35.3314 14.0399C34.9093 14.0999 33.2814 14.3399 33.2814 14.3399C33.2814 14.3399 32.6785 14.4599 32.4373 14.2799C32.3167 14.0999 32.377 13.9199 32.7388 13.8599Z" fill="#C5C5C5"/>
<path d="M51.61 11.7L53.2982 11.52C53.2982 11.52 53.5997 11.52 53.5394 11.76C53.4188 12.06 53.4188 12.12 53.4188 12.12C53.4188 12.12 53.4188 12.24 53.057 12.36C52.7556 12.42 50.8262 12.72 50.8262 12.72C50.8262 12.72 50.585 12.78 50.1027 12.6C49.6806 12.42 49.6203 12.06 49.8012 11.94C49.8012 11.94 49.8012 11.88 50.0424 11.82C50.3439 11.82 51.61 11.7 51.61 11.7Z" fill="#404744"/>
<path d="M50.2231 11.94L52.9966 11.64C52.9966 11.64 53.2981 11.58 53.3584 11.76C53.4187 11.88 53.2378 12.06 52.8157 12.12C52.3937 12.18 50.7658 12.42 50.7658 12.42C50.7658 12.42 50.1628 12.54 49.9217 12.36C49.8011 12.18 49.8614 12 50.2231 11.94Z" fill="#C5C5C5"/>
<path d="M59.8706 1.97998C59.0265 1.97998 58.4838 2.21998 58.7853 2.87998L65.1161 10.08C65.1161 10.08 66.2616 11.7 67.4072 10.62C66.8646 9.65998 65.719 7.91998 63.6087 5.75998C61.6794 3.77998 60.775 2.63998 59.8706 1.97998Z" fill="#00384B"/>
<path d="M5.6079 17.0399C4.88439 16.9799 4.22117 16.9799 3.55794 17.2799C2.89472 17.5799 1.99033 17.9399 1.62857 18.2999C1.50799 18.4199 1.44769 18.5999 1.32711 18.7799C1.14623 19.3199 1.08594 19.8599 1.08594 20.3999C1.08594 20.5799 1.14623 20.6999 1.20652 20.8199C1.3874 21.2399 3.55794 20.8799 5.00497 19.7399C5.48732 19.4999 6.33142 17.0999 5.6079 17.0399Z" fill="#DEE1D3"/>
<path opacity="0.6" d="M4.94526 18.8999C4.82467 19.6199 4.40262 20.1599 3.92028 20.0999C3.43794 20.0399 3.13647 19.3799 3.25706 18.6599C3.37764 17.9399 3.79969 17.3999 4.28204 17.4599C4.76438 17.5199 5.06584 18.1199 4.94526 18.8999Z" fill="#E3EDEE"/>
<path d="M2.71443 19.8C2.71443 20.22 2.47326 20.58 2.1718 20.58C1.87033 20.58 1.68945 20.22 1.68945 19.74C1.68945 19.32 1.93062 18.96 2.23209 18.96C2.53355 18.96 2.77472 19.32 2.71443 19.8Z" fill="#E3D8C3"/>
<g opacity="0.4">
<path opacity="0.4" d="M5.48732 17.0399C4.82409 16.9799 4.16087 16.9799 3.55794 17.2799C2.89472 17.5799 1.99033 17.9399 1.62857 18.2999C1.50799 18.4199 1.44769 18.5999 1.32711 18.7799C1.14623 19.3199 1.08594 19.8599 1.08594 20.3999C1.08594 20.5199 1.14623 20.6399 1.14623 20.7599C2.17121 19.0799 3.55794 17.6399 5.48732 17.0399Z" fill="white"/>
</g>
<path d="M4.28111 24.4201C4.94433 24.3601 5.48697 24.8401 5.42667 25.5001C5.36638 26.1601 4.82374 26.7001 4.10023 26.7601C3.43701 26.8201 1.92969 26.4001 1.92969 25.8001C1.98998 25.0801 3.61789 24.4801 4.28111 24.4201Z" fill="#222222"/>
<path d="M4.16078 24.54C4.76371 24.48 5.24605 24.96 5.24605 25.56C5.18576 26.16 4.64312 26.7 4.04019 26.76C3.43726 26.82 1.99023 26.46 1.99023 25.86C1.99023 25.2 3.49756 24.6 4.16078 24.54Z" fill="black"/>
<path opacity="0.5" d="M21.2226 10.5599C23.8152 7.61994 27.1916 4.67994 27.9754 4.01994C28.4577 3.59994 28.4577 3.17994 28.3372 2.93994C25.8651 4.55994 22.0667 8.45994 19.3535 11.3399C19.9564 11.0999 20.5594 10.7999 21.2226 10.5599Z" fill="#00384B"/>
<g opacity="0.5">
<path opacity="0.5" d="M31.6546 7.50002C33.403 7.08002 35.2118 6.78002 36.9603 6.48002C37.2618 4.92002 37.6235 3.54002 37.925 2.52002C35.5736 2.64002 33.3428 2.88002 31.6546 3.12002C31.6546 3.12002 29.4237 3.60002 27.8561 5.10002C27.012 5.88002 25.5047 7.86002 24.2988 9.48002C26.7105 8.70002 29.1825 8.04002 31.6546 7.50002Z" fill="#00384B"/>
<path opacity="0.5" d="M50.5254 4.92017C49.9828 3.72017 49.5608 2.76017 49.1387 1.92017C46.3652 1.98017 42.7477 2.16017 39.311 2.40017C39.1904 3.48017 39.0698 4.74017 38.9492 6.18017C42.7477 5.52017 46.6667 5.16017 50.5254 4.92017Z" fill="#00384B"/>
<path opacity="0.5" d="M55.0483 4.74011C55.7718 4.74011 56.4953 4.68011 57.2188 4.68011C56.013 3.24011 54.5659 1.86011 53.7821 1.86011C53.3601 1.86011 52.0939 1.86011 50.2852 1.92011C50.8278 2.94011 51.3704 3.90011 51.8528 4.86011C52.938 4.80011 53.963 4.74011 55.0483 4.74011Z" fill="#00384B"/>
</g>
<path opacity="0.5" d="M60.4738 4.73998C61.1973 4.73998 61.9208 4.79998 62.7046 4.79998C61.3782 3.41998 60.6546 2.51998 59.9311 1.97998C59.087 1.97998 58.5444 2.21998 58.8459 2.87998L60.4738 4.73998Z" fill="#00384B"/>
<path d="M50.4654 24.24C50.4654 21.06 53.1786 18.48 56.555 18.48C59.9314 18.48 62.6445 21.06 62.6445 24.24C62.6445 25.08 62.4636 25.92 62.1019 26.64H63.2475C63.6695 25.68 63.9107 24.66 63.9107 23.58C63.9107 19.56 60.5946 16.26 56.555 16.26C52.5153 16.26 49.1992 19.56 49.1992 23.58C49.1992 24.66 49.4404 25.74 49.8624 26.64H50.9477C50.7065 25.92 50.4654 25.08 50.4654 24.24Z" fill="#201E1E"/>
<path d="M56.615 18.48C53.2386 18.48 50.5254 21.06 50.5254 24.24C50.5254 25.08 50.7063 25.92 51.068 26.64H62.1619C62.5237 25.92 62.7045 25.08 62.7045 24.24C62.7045 21.06 59.9311 18.48 56.615 18.48Z" fill="black"/>
<path d="M61.8001 24.8399C61.8001 27.7199 59.4486 29.9999 56.6149 29.9999C53.7208 29.9999 51.4297 27.6599 51.4297 24.8399C51.4297 21.9599 53.7811 19.6799 56.6149 19.6799C59.4486 19.6799 61.8001 21.9599 61.8001 24.8399Z" fill="#363635"/>
<path d="M61.8001 24.8399C61.8001 27.7199 59.4486 29.9999 56.6149 29.9999C53.7208 29.9999 51.4297 27.6599 51.4297 24.8399C51.4297 21.9599 53.7811 19.6799 56.6149 19.6799C59.4486 19.6799 61.8001 21.9599 61.8001 24.8399Z" fill="#222222"/>
<path d="M60.1112 24.8401C60.1112 26.7601 58.5435 28.3201 56.6142 28.3201C54.6848 28.3201 53.1172 26.7601 53.1172 24.8401C53.1172 22.9201 54.6848 21.3601 56.6142 21.3601C58.5435 21.3601 60.1112 22.9201 60.1112 24.8401Z" fill="black"/>
<path d="M59.811 24.8399C59.811 26.5799 58.3639 28.0199 56.6154 28.0199C54.867 28.0199 53.4199 26.5799 53.4199 24.8399C53.4199 23.0999 54.867 21.6599 56.6154 21.6599C58.3639 21.6599 59.811 23.0399 59.811 24.8399Z" fill="#DEE1D3"/>
<path d="M58.1834 22.92C58.1834 22.86 58.1834 22.86 58.1834 22.8C57.8216 22.5 57.3996 22.32 56.9172 22.26C56.8569 22.26 56.8569 22.26 56.7966 22.32C56.7966 22.32 56.7966 22.38 56.7363 22.38V24.18C56.7363 24.18 56.7363 24.24 56.7966 24.24C56.7966 24.24 56.7966 24.24 56.8569 24.24H56.9172L58.1834 22.92C58.1834 22.98 58.1834 22.92 58.1834 22.92Z" fill="#4C4C49"/>
<path d="M59.1481 24.66C59.2084 24.66 59.2084 24.6 59.2084 24.6C59.2084 24.12 59.0275 23.7 58.6658 23.34C58.6055 23.34 58.6055 23.28 58.5452 23.28H58.4849L57.2188 24.54V24.6C57.2188 24.6 57.2188 24.6 57.2188 24.66L57.279 24.72L59.1481 24.66C59.0878 24.72 59.1481 24.72 59.1481 24.66Z" fill="#4C4C49"/>
<path d="M58.5452 26.5201C58.6055 26.5201 58.6055 26.5201 58.6658 26.5201C58.9672 26.1601 59.2084 25.7401 59.2084 25.2601C59.2084 25.2001 59.2084 25.2001 59.1481 25.1401L59.0878 25.0801H57.279C57.279 25.0801 57.2188 25.0801 57.2188 25.1401V25.2001L58.5452 26.5201C58.4849 26.5201 58.4849 26.5201 58.5452 26.5201Z" fill="#4C4C49"/>
<path d="M56.7966 27.2999L56.8569 27.3599C57.3393 27.3599 57.7613 27.1799 58.1231 26.8199C58.1231 26.7599 58.1834 26.7599 58.1834 26.6999V26.6399L56.9172 25.3799H56.8569C56.8569 25.3799 56.8569 25.3799 56.7966 25.3799L56.7363 25.4399L56.7966 27.2999Z" fill="#4C4C49"/>
<path d="M54.9863 22.92C54.9863 22.86 54.9863 22.86 54.9863 22.8C55.3481 22.5 55.7701 22.32 56.2525 22.26C56.3128 22.26 56.3128 22.26 56.3731 22.32C56.3731 22.32 56.3731 22.38 56.4334 22.38V24.18C56.4334 24.18 56.4334 24.24 56.3731 24.24C56.3731 24.24 56.3731 24.24 56.3128 24.24H56.2525L54.9863 22.92C54.9863 22.98 54.9863 22.92 54.9863 22.92Z" fill="#4C4C49"/>
<path d="M54.0232 24.66L53.9629 24.6C53.9629 24.12 54.1438 23.7 54.5055 23.34C54.5658 23.34 54.5658 23.28 54.6261 23.28H54.6864L55.9526 24.54V24.6C55.9526 24.6 55.9526 24.6 55.9526 24.66L55.8923 24.72L54.0232 24.66C54.0835 24.72 54.0232 24.72 54.0232 24.66Z" fill="#4C4C49"/>
<path d="M54.6261 26.5201C54.5658 26.5201 54.5658 26.5201 54.5055 26.5201C54.2041 26.1601 53.9629 25.7401 53.9629 25.2601C53.9629 25.2001 53.9629 25.2001 54.0232 25.1401L54.0835 25.0801H55.8923C55.8923 25.0801 55.9526 25.0801 55.9526 25.1401V25.2001L54.6261 26.5201C54.6864 26.5201 54.6864 26.5201 54.6261 26.5201Z" fill="#4C4C49"/>
<path d="M56.3731 27.2999L56.3128 27.3599C55.8304 27.3599 55.4084 27.1799 55.0466 26.8199C55.0466 26.7599 54.9863 26.7599 54.9863 26.6999V26.6399L56.2525 25.3799H56.3128C56.3128 25.3799 56.3128 25.3799 56.3731 25.3799L56.4334 25.4399L56.3731 27.2999Z" fill="#4C4C49"/>
<path d="M57.5192 24.8399C57.5192 25.3799 57.0972 25.7999 56.5545 25.7999C56.0119 25.7999 55.5898 25.3799 55.5898 24.8399C55.5898 24.2999 56.0119 23.8799 56.5545 23.8799C57.0972 23.8799 57.5192 24.2999 57.5192 24.8399Z" fill="#DEE1D3"/>
<path d="M57.2177 24.36C57.2177 24.42 57.1574 24.48 57.0971 24.48C57.0369 24.48 56.9766 24.42 56.9766 24.36C56.9766 24.3 57.0369 24.24 57.0971 24.24C57.1574 24.24 57.2177 24.3 57.2177 24.36Z" fill="#4C4C49"/>
<path d="M56.7353 24.1801C56.7353 24.2401 56.675 24.3001 56.6147 24.3001C56.5544 24.3001 56.4941 24.2401 56.4941 24.1801C56.4941 24.1201 56.5544 24.0601 56.6147 24.0601C56.675 24.0601 56.7353 24.1201 56.7353 24.1801Z" fill="#4C4C49"/>
<path d="M56.0718 24.5401C56.1384 24.5401 56.1923 24.4863 56.1923 24.42C56.1923 24.3538 56.1384 24.3 56.0718 24.3C56.0052 24.3 55.9512 24.3538 55.9512 24.42C55.9512 24.4863 56.0052 24.5401 56.0718 24.5401Z" fill="#4C4C49"/>
<path d="M57.2177 25.38C57.2177 25.32 57.1574 25.26 57.0971 25.26C57.0369 25.26 56.9766 25.32 56.9766 25.38C56.9766 25.44 57.0369 25.5 57.0971 25.5C57.1574 25.5 57.2177 25.44 57.2177 25.38Z" fill="#4C4C49"/>
<path d="M57.3994 24.9C57.3994 24.84 57.3391 24.78 57.2788 24.78C57.2185 24.78 57.1582 24.84 57.1582 24.9C57.1582 24.96 57.2185 25.02 57.2788 25.02C57.3994 25.02 57.3994 24.96 57.3994 24.9Z" fill="#4C4C49"/>
<path d="M55.9521 24.9C55.9521 24.84 55.8918 24.78 55.8315 24.78C55.7712 24.78 55.7109 24.84 55.7109 24.9C55.7109 24.96 55.7712 25.02 55.8315 25.02C55.9521 25.02 55.9521 24.96 55.9521 24.9Z" fill="#4C4C49"/>
<path d="M56.7353 25.5599C56.7353 25.4999 56.675 25.4399 56.6147 25.4399C56.5544 25.4399 56.4941 25.4999 56.4941 25.5599C56.4941 25.6199 56.5544 25.6799 56.6147 25.6799C56.675 25.6799 56.7353 25.6199 56.7353 25.5599Z" fill="#4C4C49"/>
<path d="M56.1923 25.38C56.1923 25.32 56.132 25.26 56.0718 25.26C56.0115 25.26 55.9512 25.32 55.9512 25.38C55.9512 25.44 56.0115 25.5 56.0718 25.5C56.132 25.5 56.1923 25.44 56.1923 25.38Z" fill="#4C4C49"/>
<path d="M63.9107 23.52C63.9107 19.5 60.5946 16.2 56.555 16.2C52.5153 16.2 49.1992 19.5 49.1992 23.52C49.1992 24.6 49.4404 25.68 49.8624 26.58H50.0433C49.6816 25.74 49.5007 24.78 49.5007 23.82C49.5007 19.92 52.6359 16.8 56.555 16.8C60.474 16.8 63.6092 19.92 63.6092 23.82C63.6092 24.78 63.4283 25.74 63.0666 26.58H63.2475C63.6695 25.68 63.9107 24.66 63.9107 23.52Z" fill="#201E1E"/>
<path d="M58.9662 3.30007C58.9662 3.30007 58.0618 2.28007 59.2677 1.98007C59.9912 1.80007 60.2926 2.10007 61.2573 2.46007L61.8 2.70007C62.0411 2.82007 59.5691 4.02007 59.5691 4.02007L58.9662 3.30007Z" fill="#C5C5C5"/>
<path d="M61.8009 2.63991L61.2583 2.39991C60.4142 2.09991 60.0524 1.79991 59.5098 1.91991C59.8715 1.97991 60.2333 2.21991 60.8362 2.45991L61.3788 2.69991C61.5597 2.75991 60.6553 3.35991 59.9318 3.71991C60.5347 3.47991 61.9818 2.75991 61.8009 2.63991Z" fill="#A7A7A7"/>
<path d="M67.5294 20.58L68.7955 20.52C68.7955 20.52 69.1573 20.52 69.2779 20.7L69.6999 21.54C69.6999 21.54 69.7602 21.66 69.519 21.66C69.2779 21.66 68.2529 21.66 68.2529 21.66C68.2529 21.66 68.072 21.66 67.8911 21.54C67.7705 21.42 67.3485 20.7 67.3485 20.7C67.3485 20.7 67.2882 20.58 67.5294 20.58Z" fill="#A62920"/>
<path d="M68.1322 20.76L68.9763 20.7C68.9763 20.7 69.2175 20.7 69.2777 20.82L69.5792 21.42C69.5792 21.42 69.5792 21.54 69.4586 21.54C69.338 21.54 68.6145 21.54 68.6145 21.54C68.6145 21.54 68.4939 21.5399 68.3734 21.4799C68.2528 21.42 68.0116 20.88 68.0116 20.88C68.0116 20.88 67.9513 20.76 68.1322 20.76Z" fill="#E3301F"/>
<path d="M66.6243 12.5401C66.3228 12.7201 66.0817 12.9601 65.9008 13.3201C65.7199 13.6801 65.7199 14.0401 65.7802 14.4001C65.7802 14.7001 65.8405 15.0001 65.9008 15.3001C65.9611 15.6001 66.0214 15.9001 66.0817 16.2001C66.142 16.5001 66.2023 16.7401 66.2625 17.0401C66.3228 17.2201 66.3831 17.4001 66.5037 17.5201C66.6846 17.7001 66.9258 17.7601 67.1066 17.8801C67.3478 18.0001 67.6493 18.1201 67.8904 18.2401C68.1316 18.3601 68.7346 18.6601 68.7346 18.5401L67.9507 12.0001L67.7699 11.8201H67.7096C67.589 11.8801 67.4684 11.9401 67.3478 12.0601C67.1066 12.2401 66.8655 12.4201 66.6243 12.5401Z" fill="#A62920"/>
<path d="M65.8398 15C65.8398 15.12 65.9001 15.24 65.9001 15.36C65.9604 15.66 66.0207 15.96 66.081 16.26C66.1413 16.56 66.2016 16.8 66.2619 17.1C66.3222 17.28 66.3825 17.46 66.5031 17.58C66.6839 17.76 66.9251 17.82 67.106 17.94C67.3472 18.06 67.6486 18.18 67.8898 18.3C68.131 18.42 68.7339 18.72 68.7339 18.6L68.3119 15.12H65.8398V15Z" fill="#DC4E14"/>
<path d="M67.7703 12C67.7703 12 66.0218 12.84 66.0218 13.74C65.9615 14.58 66.5645 17.16 66.5645 17.16C66.5645 17.16 66.6247 17.4 66.9262 17.52L66.3836 14.58C66.3836 14.58 66.1424 13.5 66.7453 13.02C67.288 12.54 67.7703 12 67.7703 12Z" fill="#E3301F"/>
<path d="M16.2196 15.66L18.3299 15.54C18.3299 15.54 18.2696 15.78 18.0887 15.96C17.8476 16.14 16.8226 16.08 16.8226 16.08C16.8226 16.08 16.3402 16.08 16.2196 15.96C16.0388 15.9 16.0388 15.66 16.2196 15.66Z" fill="#E86408"/>
<path opacity="0.5" d="M16.22 15.78L17.667 15.72C17.667 15.72 17.667 15.9 17.4862 16.02C17.3656 16.14 16.6421 16.14 16.6421 16.14C16.6421 16.14 16.3406 16.14 16.22 16.08C16.1597 15.9 16.0994 15.78 16.22 15.78Z" fill="#E86408"/>
</g>
<defs>
<clipPath id="clip0_97_31951">
<rect width="70" height="30" fill="white"/>
</clipPath>
</defs>
</svg>
