<svg width="62" height="30" viewBox="0 0 62 30" fill="none" xmlns="http://www.w3.org/2000/svg">
<path d="M28.4776 10.6799H12.8574V24.6599H28.4776V10.6799Z" fill="black"/>
<path d="M32.5028 18.78L31.8419 24.6L31.3613 25.14H54.6714V22.56H57.5551V18.78H32.5028Z" fill="#191F26"/>
<path d="M57.5544 21V18.78H32.502L32.2617 21H57.5544Z" fill="#11151A"/>
<path d="M35.5061 17.9399C35.5061 17.9399 35.0254 20.6999 34.7851 21.4799C34.5448 22.2599 34.3646 22.3199 33.5836 22.3199C32.8026 22.3199 31.7812 22.3199 31.7812 22.3199V23.8199C31.7812 23.8199 33.5235 23.8199 34.1844 23.8199C34.8452 23.8199 35.446 23.8199 35.8064 22.7999C36.1669 21.7199 37.1882 18.2999 37.1882 18.2999L35.5061 17.9399Z" fill="url(#paint0_linear_97_34112)"/>
<path d="M35.6252 18.3599C35.6252 18.3599 35.1446 21.0599 34.9043 21.7199C34.664 22.3799 34.5438 22.4999 33.7628 22.4999C32.9818 22.4999 32.0205 22.4999 32.0205 22.4999L31.9004 23.5199C31.9004 23.5199 33.5826 23.5199 34.1833 23.5199C34.7841 23.5199 35.3248 23.5199 35.6853 22.5599C35.9857 21.5999 36.8868 18.4799 36.8868 18.4799L35.6252 18.3599Z" fill="#525252"/>
<path d="M32.5014 18.78H21.6874H20.4258L22.0479 24.72L22.4684 25.14H31.3599L31.8405 24.6L32.5014 18.78Z" fill="#818080"/>
<path opacity="0.4" d="M32.2611 20.58L32.5014 18.78H21.6874H20.4258L20.9064 20.58H32.2611Z" fill="#818080"/>
<path d="M22.4683 20.0998C22.4683 20.5198 22.1078 20.8798 21.6873 20.8798C21.2667 20.8798 20.9062 20.5198 20.9062 20.0998C20.9062 19.6798 21.2667 19.3198 21.6873 19.3198C22.1078 19.3198 22.4683 19.6798 22.4683 20.0998Z" fill="black"/>
<path d="M24.0913 20.0998C24.0913 20.5198 23.7308 20.8798 23.3103 20.8798C22.8898 20.8798 22.5293 20.5198 22.5293 20.0998C22.5293 19.6798 22.8898 19.3198 23.3103 19.3198C23.7308 19.3198 24.0913 19.6798 24.0913 20.0998Z" fill="black"/>
<path d="M23.9096 20.0999C23.9096 20.4599 23.6092 20.7599 23.2487 20.7599C22.8883 20.7599 22.5879 20.4599 22.5879 20.0999C22.5879 19.7399 22.8883 19.4399 23.2487 19.4399C23.6693 19.4399 23.9096 19.7399 23.9096 20.0999Z" fill="#FEEC22"/>
<path d="M22.3491 20.0999C22.3491 20.4599 22.0487 20.7599 21.6882 20.7599C21.3277 20.7599 21.0273 20.4599 21.0273 20.0999C21.0273 19.7399 21.3277 19.4399 21.6882 19.4399C22.0487 19.4399 22.3491 19.7399 22.3491 20.0999Z" fill="#E94849"/>
<path d="M21.3867 21.42L22.1677 24.6L22.5282 25.02H31.0592L31.7201 24.54L32.2607 19.26L31.4797 24.24L30.7588 24.9H22.8286L22.348 24.42L21.3867 21.42Z" fill="#4B4B4B"/>
<path d="M23.2485 19.5601C23.2485 19.5601 22.6477 19.6201 22.7678 20.2801C22.7678 20.2801 22.7078 19.7401 23.2485 19.5601Z" fill="white"/>
<path d="M57.8556 24.5999C57.8556 24.7199 57.7355 24.8399 57.6153 24.8399C57.4952 24.8399 57.375 24.7199 57.375 24.5999V18.6599C57.375 18.5399 57.4952 18.4199 57.6153 18.4199C57.7355 18.4199 57.8556 18.5399 57.8556 18.6599V24.5999Z" fill="url(#paint1_linear_97_34112)"/>
<path opacity="0.5" d="M57.795 24.5399C57.795 24.6599 57.7349 24.7199 57.6748 24.7199C57.6148 24.7199 57.5547 24.6599 57.5547 24.5399V18.5999C57.5547 18.4799 57.6148 18.4199 57.6748 18.4199C57.7349 18.4199 57.795 18.4799 57.795 18.5999V24.5399Z" fill="white"/>
<path d="M55.631 25.08C55.631 21.42 52.7473 18.48 49.1427 18.48C45.538 18.48 42.6543 21.42 42.6543 25.08C42.6543 25.2 42.6543 25.32 42.6543 25.5H55.631C55.631 25.32 55.631 25.2 55.631 25.08Z" fill="#F39E18"/>
<path d="M54.7907 25.1399C54.7907 21.9599 52.2674 19.3799 49.1434 19.3799C46.0194 19.3799 43.4961 21.9599 43.4961 25.1399C43.4961 25.2599 43.4961 25.3799 43.4961 25.4999H54.7907C54.7907 25.3199 54.7907 25.1999 54.7907 25.1399Z" fill="black"/>
<path d="M19.284 5.09995C19.284 4.61995 19.1639 4.19995 17.9623 4.19995C16.7608 4.19995 12.7957 4.19995 11.534 4.31995C10.4526 4.43995 8.89061 4.55995 7.38867 6.29995C7.86929 5.99995 9.01076 5.81995 11.5941 5.81995C14.5379 5.81995 16.3402 5.81995 17.3015 5.81995C17.4216 5.81995 17.5418 5.81995 17.6619 5.81995H19.3441C19.284 5.51995 19.284 5.45995 19.284 5.09995Z" fill="url(#paint2_linear_97_34112)"/>
<path d="M19.2857 6.42007C19.2857 6.12007 19.2857 5.94007 19.2857 5.82007H17.6035C18.2644 5.82007 18.3244 5.88007 18.3244 6.60007C18.3244 7.44007 18.3244 17.7601 18.3244 19.0201C18.3244 19.5001 18.3244 19.9801 18.3244 20.4601C18.5648 20.4601 18.745 20.4001 18.9252 20.3401C18.9252 20.2801 18.9853 20.2801 18.9853 20.2801C19.2857 20.1001 19.2256 20.0401 19.2256 19.6201C19.2857 19.2001 19.2857 7.32007 19.2857 6.42007Z" fill="url(#paint3_linear_97_34112)"/>
<path d="M17.3026 5.82003C16.3413 5.82003 14.539 5.82003 11.5952 5.82003C8.95179 5.82003 7.8704 6.00003 7.38978 6.30003C7.3297 6.36003 7.26962 6.42003 7.20954 6.48003C6.96923 6.78003 6.72892 7.14003 6.48861 7.50003C4.74637 10.38 2.04288 15.12 1.56226 15.96C1.32195 16.44 1.08164 16.92 0.961483 17.64C0.841328 18.18 0.78125 18.84 0.78125 19.68C0.78125 21.48 0.78125 23.4 0.78125 24.06C0.78125 24.72 0.78125 26.58 0.78125 26.58H8.47117H8.89172C8.89172 26.58 8.71148 24.3 9.7328 22.8C9.79288 22.74 9.79288 22.74 9.85295 22.68C10.9344 20.76 13.1572 20.34 14.2987 20.34C15.32 20.34 17.2425 20.58 18.3239 20.46C18.3239 20.04 18.3239 19.5 18.3239 19.02C18.3239 17.76 18.3239 7.44003 18.3239 6.60003C18.384 5.76003 18.2638 5.82003 17.3026 5.82003Z" fill="#FAC109"/>
<path d="M19.284 5.09995C19.284 4.61995 19.1639 4.19995 17.9623 4.19995C16.7608 4.19995 12.7957 4.19995 11.534 4.31995C10.4526 4.43995 8.89061 4.55995 7.38867 6.29995C7.86929 5.99995 9.01076 5.81995 11.5941 5.81995C14.5379 5.81995 16.3402 5.81995 17.3015 5.81995C17.4216 5.81995 17.5418 5.81995 17.6619 5.81995H19.3441C19.284 5.51995 19.284 5.45995 19.284 5.09995Z" fill="#FAC109"/>
<path d="M19.2857 6.42007C19.2857 6.12007 19.2857 5.94007 19.2857 5.82007H17.6035C18.2644 5.82007 18.3244 5.88007 18.3244 6.60007C18.3244 7.44007 18.3244 17.7601 18.3244 19.0201C18.3244 19.5001 18.3244 19.9801 18.3244 20.4601C18.5648 20.4601 18.745 20.4001 18.9252 20.3401C18.9252 20.2801 18.9853 20.2801 18.9853 20.2801C19.2857 20.1001 19.2256 20.0401 19.2256 19.6201C19.2857 19.2001 19.2857 7.32007 19.2857 6.42007Z" fill="#D48417"/>
<path d="M7.80897 7.56011C7.80897 7.56011 3.66362 14.7601 3.183 15.4801C2.70238 16.2001 2.52215 16.7401 2.52215 17.2801C2.52215 17.8201 2.46207 18.2401 3.48339 18.2401C4.50471 18.2401 5.76634 18.2401 6.42719 18.2401C7.08804 18.2401 7.02796 18.2401 7.44851 18.2401C7.86905 18.2401 8.40975 18.2401 8.71014 17.6401C9.01052 16.9801 10.152 15.1801 10.3923 14.8201C10.6326 14.4601 10.7528 14.2201 11.8942 14.2201C13.0357 14.2201 15.7993 14.2201 16.7004 14.2201C17.6016 14.2201 18.0222 14.0401 18.0222 13.3201C18.0222 12.6001 18.0222 8.40011 18.0222 7.68011C18.0222 6.96011 18.1423 6.36011 16.5202 6.36011C14.8981 6.36011 10.0318 6.60011 9.37099 6.60011C8.77021 6.60011 8.10936 7.02011 7.80897 7.56011Z" fill="#008CC4"/>
<path d="M5.10677 16.2601C7.26956 14.76 9.43235 13.26 11.5951 11.76C13.6979 10.26 15.8006 8.82005 17.9033 7.26005C17.9634 7.20005 18.0234 7.20005 18.0835 7.14005C18.0234 6.66005 17.8432 6.30005 16.5816 6.30005C14.9595 6.30005 10.0932 6.54005 9.43235 6.54005C8.7715 6.60005 8.11065 7.02005 7.81026 7.56005C7.81026 7.56005 3.66491 14.76 3.18429 15.4801C2.70367 16.2 2.52344 16.74 2.52344 17.2801C2.52344 17.5201 2.52344 17.76 2.64359 17.9401C3.48468 17.4001 4.32576 16.8001 5.10677 16.2601Z" fill="#008CC4"/>
<path d="M16.5197 6.30005C14.8977 6.30005 10.0314 6.54005 9.37052 6.54005C8.70967 6.60005 8.04881 7.02005 7.74843 7.56005C7.74843 7.56005 3.60308 14.76 3.12246 15.48C2.64184 16.2 2.4616 16.74 2.4616 17.28C2.4616 17.82 2.40153 18.24 3.42284 18.24C4.44416 18.24 5.70579 18.24 6.36664 18.24C7.0275 18.24 6.96742 18.24 7.38796 18.24H7.44804C7.86858 18.24 8.3492 18.24 8.64959 17.64C8.94998 16.98 10.0914 15.18 10.3318 14.82C10.5721 14.46 10.6922 14.22 11.8337 14.22C12.9752 14.22 15.7387 14.22 16.6399 14.22C17.5411 14.22 17.9616 14.04 17.9616 13.32C17.9616 12.6 17.9616 8.40005 17.9616 7.68005C18.0217 6.90005 18.2019 6.30005 16.5197 6.30005ZM17.6612 7.44005C17.6612 7.50005 17.6612 7.56005 17.6612 7.62005V13.26C17.6612 13.62 17.5411 13.68 17.5411 13.68C17.4209 13.8 17.1205 13.8 16.7601 13.8H11.9539C10.7523 13.8 10.4519 14.04 10.1515 14.58C10.0914 14.7 9.97129 14.88 9.79106 15.12C9.37052 15.84 8.64959 16.92 8.40928 17.4C8.22905 17.82 7.98874 17.82 7.56819 17.82H7.50812H7.44804H6.42672H3.48292C3.06238 17.82 2.94222 17.76 2.94222 17.7C2.88215 17.64 2.88215 17.46 2.88215 17.28V17.22C2.88215 16.74 3.06238 16.2 3.48292 15.66C3.96354 14.94 7.98874 7.98005 8.16897 7.68005C8.40928 7.26005 8.94998 6.90005 9.49067 6.84005C10.1515 6.78005 14.9577 6.60005 16.5798 6.60005C17.3008 6.60005 17.5411 6.72005 17.6011 6.84005C17.6612 6.96005 17.7213 7.14005 17.6612 7.44005Z" fill="black"/>
<path d="M7.3897 6.30005C7.32962 6.36005 7.26955 6.42005 7.26955 6.48005C7.02924 6.78005 6.78893 7.14005 6.54862 7.50005C5.94784 8.52005 5.16683 9.78005 4.4459 10.98C3.1242 13.2 1.92265 15.3601 1.62226 15.9001C1.38195 16.3801 1.14164 16.8601 1.02148 17.5801C1.14164 17.7001 1.38195 17.7001 1.68234 17.1601C2.0428 16.5001 3.78505 13.3801 5.28699 10.8601C6.24823 9.12005 7.08931 7.68005 7.20947 7.44005C7.44978 7.08005 7.63001 6.42005 7.3897 6.30005Z" fill="url(#paint4_linear_97_34112)"/>
<path d="M7.38876 6.30005C7.32869 6.36005 7.26861 6.42005 7.20853 6.48005C7.14845 6.54005 7.14845 6.60005 7.08838 6.66005C7.08838 6.90005 6.96822 7.20005 6.78799 7.44005C6.66783 7.68005 5.88682 9.00005 4.98566 10.6201C3.66396 12.9601 2.04186 15.9001 1.6814 16.5001C1.44109 16.9801 1.26086 17.0401 1.08062 16.9201C1.02055 17.1601 0.960468 17.3401 0.900391 17.5801C1.02055 17.7001 1.26086 17.7001 1.56124 17.1601C1.92171 16.5001 3.72403 13.3801 5.16589 10.8601C6.12713 9.12005 6.96822 7.68005 7.08838 7.44005C7.44884 7.08005 7.62907 6.42005 7.38876 6.30005Z" fill="url(#paint5_linear_97_34112)"/>
<path d="M15.7388 14.76C15.7388 14.76 16.8803 14.76 17.1206 14.76C17.3609 14.76 17.421 14.82 17.421 14.94C17.421 15.06 17.421 15.6 16.3396 15.6C15.3183 15.54 15.1981 14.76 15.7388 14.76Z" fill="#D48417"/>
<path d="M17.3003 15.3599C17.1201 15.2399 16.8798 15.1799 16.5193 15.1799C16.0987 15.1799 15.8584 15.3599 15.7383 15.4799C15.8584 15.5399 16.0987 15.5999 16.3991 15.6599C16.8798 15.5999 17.1201 15.4799 17.3003 15.3599Z" fill="#D48417"/>
<path d="M14.6573 19.6199C13.3957 19.6199 10.9325 20.0999 9.79102 22.1999C10.9325 20.6999 12.6147 19.7399 15.4383 19.9199C18.3821 20.0999 19.5837 23.0399 19.5837 23.8799C19.5837 23.8799 19.5837 21.3599 19.5837 20.8199C19.5837 20.3399 19.5236 19.9199 19.7038 19.6799C18.8026 19.9799 16.0391 19.6199 14.6573 19.6199Z" fill="black"/>
<path d="M14.4185 19.3198C11.1743 19.3198 8.53086 21.8398 8.23047 25.0198H20.5464C20.306 21.8398 17.6626 19.3198 14.4185 19.3198Z" fill="black"/>
<path d="M19.7043 25.0799C19.7043 27.7799 17.4814 29.9999 14.7779 29.9999C12.0744 29.9999 9.85156 27.7799 9.85156 25.0799C9.85156 22.3799 12.0744 20.1599 14.7779 20.1599C17.4814 20.1599 19.7043 22.3799 19.7043 25.0799Z" fill="#1D1D1B"/>
<path opacity="0.5" d="M14.8379 20.76C17.3011 20.76 19.2837 22.62 19.584 24.96C19.524 22.38 17.4213 20.28 14.8379 20.28C12.1945 20.28 10.0918 22.44 10.0918 25.02C10.0918 25.2 10.0918 25.38 10.1519 25.56V25.5C10.0317 22.86 12.1945 20.76 14.8379 20.76Z" fill="url(#paint6_radial_97_34112)"/>
<path opacity="0.5" d="M14.8379 29.3999C17.3011 29.3999 19.2837 27.5399 19.584 25.1999C19.524 27.7799 17.4213 29.8799 14.8379 29.8799C12.1945 29.8799 10.0918 27.7199 10.0918 25.1399C10.0918 24.9599 10.0918 24.7799 10.1519 24.5999V24.6599C10.0317 27.2999 12.1945 29.3999 14.8379 29.3999Z" fill="#1D1D1B"/>
<path d="M14.7775 21.3599C12.7349 21.3599 11.0527 23.0399 11.0527 25.0799C11.0527 27.1199 12.7349 28.7999 14.7775 28.7999C16.8202 28.7999 18.5023 27.1199 18.5023 25.0799C18.5023 23.0399 16.8202 21.3599 14.7775 21.3599Z" fill="#2E2D2C"/>
<path opacity="0.5" d="M17.9024 25.08C17.9024 26.82 16.5206 28.2 14.7783 28.2C13.0361 28.2 11.6543 26.82 11.6543 25.08C11.6543 23.34 13.0361 21.96 14.7783 21.96C16.4605 21.96 17.9024 23.34 17.9024 25.08Z" fill="white"/>
<path d="M17.4822 25.0798C17.4822 26.5798 16.2807 27.8398 14.7186 27.8398C13.2167 27.8398 11.9551 26.6398 11.9551 25.0798C11.9551 23.5798 13.1566 22.3198 14.7186 22.3198C16.2807 22.3198 17.4822 23.5798 17.4822 25.0798Z" fill="#2C2D2B"/>
<path d="M17.3004 25.0798C17.3004 26.4598 16.1589 27.5998 14.7772 27.5998C13.3954 27.5998 12.2539 26.4598 12.2539 25.0798C12.2539 23.6998 13.3954 22.5598 14.7772 22.5598C16.1589 22.5598 17.3004 23.6998 17.3004 25.0798Z" fill="#686867"/>
<path d="M15.6197 25.0799C15.6197 25.5599 15.2592 25.9199 14.7786 25.9199C14.298 25.9199 13.9375 25.5599 13.9375 25.0799C13.9375 24.5999 14.298 24.2399 14.7786 24.2399C15.2592 24.1799 15.6197 24.5999 15.6197 25.0799Z" fill="#2D2E2D"/>
<path d="M15.2581 25.0799C15.2581 25.3199 15.0178 25.5599 14.7775 25.5599C14.5372 25.5599 14.2969 25.3199 14.2969 25.0799C14.2969 24.8399 14.5372 24.5999 14.7775 24.5999C15.0178 24.5999 15.2581 24.7799 15.2581 25.0799Z" fill="#2D2E2D"/>
<g opacity="0.8">
<path opacity="0.8" d="M11.6543 24.8398C11.6543 24.8998 11.6543 24.8998 11.6543 24.9598C11.6543 26.6398 13.0361 28.0198 14.7183 28.0198C16.4004 28.0198 17.7822 26.6398 17.7822 24.9598C17.7822 24.8998 17.7822 24.8998 17.7822 24.8398C15.1989 25.6198 13.0962 25.3198 11.6543 24.8398Z" fill="#BBBABA"/>
</g>
<path d="M14.7179 19.0798C11.2334 19.0798 8.10938 22.0198 8.10938 25.4998C8.10938 25.9198 8.16945 26.2798 8.22953 26.6998H9.07062C9.01054 26.3998 9.01054 26.0998 9.01054 25.7398C9.01054 22.5598 11.4737 19.9198 14.5377 19.9198C17.4214 19.9198 19.7644 22.1998 20.0648 25.1398H20.6656C20.5454 21.8398 18.0822 19.0798 14.7179 19.0798Z" fill="#F39E18"/>
<path d="M0.420418 24.12C0.420418 24.72 0.420418 26.16 0.420418 26.64C0.420418 27.12 0.360341 27.66 1.56189 27.66C2.70336 27.66 4.80608 27.66 5.94755 27.66C7.02894 27.66 6.90879 27.66 7.20918 27.66C7.50957 27.66 7.87003 27.72 7.87003 27.12C7.87003 26.58 7.87003 26.4 7.87003 26.16C7.87003 25.92 7.93011 25.62 7.26926 25.62C6.6084 25.62 4.98631 25.62 4.2053 25.62C3.48437 25.62 2.46305 25.32 2.46305 24.6C2.46305 23.88 2.46305 23.52 2.10259 23.52C1.68205 23.52 1.44174 23.52 1.08127 23.52C0.660728 23.46 0.420418 23.52 0.420418 24.12Z" fill="#F39E18"/>
<path d="M7.20868 25.5601C7.1486 25.5601 7.08853 25.5601 7.08853 25.5601C7.08853 26.4001 6.96837 26.8201 5.8269 26.8201C4.62535 26.8201 1.8017 26.8201 0.419922 26.8201C0.419922 27.2401 0.540077 27.6001 1.56139 27.6001C2.70287 27.6001 4.80558 27.6001 5.94705 27.6001C7.02845 27.6001 6.90829 27.6001 7.20868 27.6001C7.50907 27.6001 7.86953 27.6601 7.86953 27.0601C7.86953 26.5201 7.86953 26.3401 7.86953 26.1001C7.86953 25.8601 7.86953 25.5601 7.20868 25.5601Z" fill="#D48417"/>
<path d="M12.3762 5.33988C15.8607 5.39988 18.0836 5.39988 18.8646 4.37988C17.1824 4.37988 13.4576 4.37988 12.1359 4.49988C11.1747 4.61988 9.85296 4.67988 8.53125 5.63988C9.43241 5.45988 10.694 5.33988 12.3762 5.33988Z" fill="#FFED00"/>
<path d="M1.74202 22.0799V20.5799C1.74202 19.9799 1.32148 19.4999 0.720703 19.4399C0.720703 20.8799 0.720703 22.3199 0.720703 23.2199C1.32148 23.1599 1.74202 22.6799 1.74202 22.0799Z" fill="black"/>
<path d="M1.62187 22.02V20.76C1.62187 20.28 1.2614 19.86 0.720703 19.8C0.720703 21.06 0.720703 22.26 0.720703 23.04C1.20132 22.92 1.62187 22.5 1.62187 22.02Z" fill="#EE7125"/>
<path d="M0.720703 22.02V22.98C1.20132 22.92 1.56179 22.56 1.56179 22.02H0.720703Z" fill="#E63324"/>
<path d="M0.841797 19.98V22.8C0.841797 22.8 1.08211 21.66 0.841797 19.98Z" fill="white"/>
<path d="M54.1906 25.0799C54.1906 27.7799 51.9677 29.9999 49.2642 29.9999C46.5608 29.9999 44.3379 27.7799 44.3379 25.0799C44.3379 22.3799 46.5608 20.1599 49.2642 20.1599C51.9677 20.1599 54.1906 22.3799 54.1906 25.0799Z" fill="#1D1D1B"/>
<path opacity="0.5" d="M49.3242 20.76C51.7874 20.76 53.77 22.62 54.0704 24.96C54.0103 22.38 51.9076 20.28 49.3242 20.28C46.6808 20.28 44.5781 22.44 44.5781 25.02C44.5781 25.2 44.5781 25.38 44.6382 25.56V25.5C44.5181 22.86 46.6808 20.76 49.3242 20.76Z" fill="url(#paint7_radial_97_34112)"/>
<path opacity="0.5" d="M49.3242 29.3999C51.7874 29.3999 53.77 27.5399 54.0704 25.1999C54.0103 27.7799 51.9076 29.8799 49.3242 29.8799C46.6808 29.8799 44.5781 27.7199 44.5781 25.1399C44.5781 24.9599 44.5781 24.7799 44.6382 24.5999V24.6599C44.5181 27.2999 46.6808 29.3999 49.3242 29.3999Z" fill="#1D1D1B"/>
<path d="M49.2639 21.3599C47.2212 21.3599 45.5391 23.0399 45.5391 25.0799C45.5391 27.1199 47.2212 28.7999 49.2639 28.7999C51.3065 28.7999 52.9887 27.1199 52.9887 25.0799C52.9887 23.0399 51.3065 21.3599 49.2639 21.3599Z" fill="#2E2D2C"/>
<path opacity="0.5" d="M52.3887 25.08C52.3887 26.82 51.0069 28.2 49.2647 28.2C47.5224 28.2 46.1406 26.82 46.1406 25.08C46.1406 23.34 47.5224 21.96 49.2647 21.96C50.9468 21.96 52.3887 23.34 52.3887 25.08Z" fill="white"/>
<path d="M51.9685 25.0798C51.9685 26.5798 50.767 27.8398 49.205 27.8398C47.703 27.8398 46.4414 26.6398 46.4414 25.0798C46.4414 23.5798 47.643 22.3198 49.205 22.3198C50.767 22.3198 51.9685 23.5798 51.9685 25.0798Z" fill="#2C2D2B"/>
<path d="M51.7867 25.0798C51.7867 26.4598 50.6453 27.5998 49.2635 27.5998C47.8817 27.5998 46.7402 26.4598 46.7402 25.0798C46.7402 23.6998 47.8817 22.5598 49.2635 22.5598C50.6453 22.5598 51.7867 23.6998 51.7867 25.0798Z" fill="#686867"/>
<path d="M50.1646 25.0799C50.1646 25.5599 49.8041 25.9199 49.3235 25.9199C48.8429 25.9199 48.4824 25.5599 48.4824 25.0799C48.4824 24.5999 48.8429 24.2399 49.3235 24.2399C49.744 24.1799 50.1646 24.5999 50.1646 25.0799Z" fill="#2D2E2D"/>
<path d="M49.7444 25.0799C49.7444 25.3199 49.5041 25.5599 49.2638 25.5599C49.0235 25.5599 48.7832 25.3199 48.7832 25.0799C48.7832 24.8399 49.0235 24.5999 49.2638 24.5999C49.5642 24.5999 49.7444 24.7799 49.7444 25.0799Z" fill="#2D2E2D"/>
<g opacity="0.8">
<path opacity="0.8" d="M46.1406 24.8398C46.1406 24.8998 46.1406 24.8998 46.1406 24.9598C46.1406 26.6398 47.5224 28.0198 49.2046 28.0198C50.8867 28.0198 52.2685 26.6398 52.2685 24.9598C52.2685 24.8998 52.2685 24.8998 52.2685 24.8398C49.7453 25.6198 47.5825 25.3198 46.1406 24.8398Z" fill="#BBBABA"/>
</g>
<path d="M1.20117 23.5799C1.20117 23.5799 1.9221 23.5799 1.98218 23.9999C2.04226 24.4199 1.86202 25.3799 2.28257 25.6199C2.70311 25.8599 6.7283 25.8599 6.7283 25.8599L2.70311 25.5599C2.70311 25.5599 2.16241 25.5599 2.16241 25.1399C2.16241 24.7199 2.16241 24.1199 2.16241 24.1199C2.16241 24.1199 2.22249 23.7599 1.98218 23.6399C1.74187 23.5199 1.20117 23.5799 1.20117 23.5799Z" fill="#65B339"/>
<path d="M60.798 6.23999H61.9996V21.6H60.1973V21H61.519V7.01999H60.6178L60.798 6.23999Z" fill="#003719"/>
<path d="M57.1328 0.720059L57.8537 0.0600586L60.9778 3.54006L60.1968 4.50006L59.7161 4.14006L60.4371 3.48006L57.9138 0.600059L57.3731 1.20006L57.1328 0.720059Z" fill="#003719"/>
<path d="M57.1331 19.02H20.666V0.540039H48.2416L57.1331 19.02Z" fill="#007641"/>
<path d="M20.666 18.78V19.02H57.1331L57.0129 18.78H20.666Z" fill="#004121"/>
<path d="M55.8106 18.3H21.5664V1.26001H47.4598L55.8106 18.3Z" fill="#2EA04A"/>
<path d="M39.4702 1.26001H37.9082V18.3H39.4702V1.26001Z" fill="#2EA04A"/>
<path d="M50.1045 6.66011L48.4824 3.36011V18.3001H50.1045V6.66011Z" fill="#2EA04A"/>
<path d="M28.7168 1.26001H27.2148V18.3H28.7168V1.26001Z" fill="#2EA04A"/>
<path d="M21.9869 1.26001H21.5664V18.3H21.9869V1.26001Z" fill="#2EA04A"/>
<path d="M28.597 0.719971H27.5156V18.6H28.597V0.719971Z" fill="#007641"/>
<path d="M39.2904 0.719971H38.209V18.6H39.2904V0.719971Z" fill="#007641"/>
<path d="M49.9837 0.719971H48.9023V18.6H49.9837V0.719971Z" fill="#007641"/>
<path d="M58.6349 23.64H60.9779V4.44L57.0128 0H47.4004L58.6349 23.64Z" fill="#007641"/>
<path d="M58.3953 21.1799H60.4379V4.49991L56.9534 0.659912H48.2422L58.3953 21.1799Z" fill="#2EA04A"/>
<path d="M50.2852 5.82003L58.696 2.28003L59.0565 2.76003L50.6456 6.36003L50.2852 5.82003Z" fill="#007641"/>
<path d="M52.8672 11.2199L60.6773 11.1599L60.8575 11.6399L53.0474 11.6999L52.8672 11.2199Z" fill="#007641"/>
<path d="M47.7012 0.659912L59.176 23.1599L58.9357 23.2799L47.7012 0.659912Z" fill="#003719"/>
<path d="M51.7266 0.300049L58.1549 11.46L58.8157 11.52L52.3874 0.420049L51.7266 0.300049Z" fill="#007641"/>
<path d="M57.7335 10.6199C57.7335 10.6799 57.6734 10.7999 57.5533 10.7999C57.4331 10.7999 57.373 10.7399 57.373 10.6199C57.373 10.5599 57.4331 10.4399 57.5533 10.4399C57.6734 10.4399 57.7335 10.5599 57.7335 10.6199Z" fill="#03693A"/>
<path d="M49.9238 4.26008C49.9238 4.26008 51.1254 3.78008 51.5459 4.32008C52.1467 5.04008 50.6448 5.82008 50.6448 5.82008L49.9238 4.26008Z" fill="#004422"/>
<path d="M50.8242 5.28004L51.6052 5.88004L51.7855 5.64004L51.0045 5.04004L50.8242 5.28004Z" fill="#B2B2B2"/>
<path d="M51.2464 4.86011C51.2464 5.16011 51.0061 5.3401 50.7658 5.3401C50.4654 5.3401 50.2852 5.10011 50.2852 4.86011C50.2852 4.56011 50.5255 4.38011 50.7658 4.38011C51.0061 4.32011 51.2464 4.56011 51.2464 4.86011Z" fill="#03693A"/>
<path d="M51.8766 5.29785L51.2695 6.04224L57.3255 10.9679L57.9325 10.2236L51.8766 5.29785Z" fill="#006135"/>
<path d="M51.9006 5.31227L51.7109 5.54492L57.7677 10.4698L57.9573 10.2372L51.9006 5.31227Z" fill="#004926"/>
<path d="M51.4586 5.8266L51.3828 5.91968L57.4411 10.8423L57.5169 10.7492L51.4586 5.8266Z" fill="#2EA04A"/>
<path d="M56.7734 11.4601C56.7734 11.4601 56.9537 10.1401 57.6145 10.0201C58.5758 9.84009 58.5157 11.5201 58.5157 11.5201L56.7734 11.4601Z" fill="#007641"/>
<path d="M58.0334 10.6801C58.0334 10.8601 57.8532 11.0401 57.673 11.0401C57.4927 11.0401 57.3125 10.8601 57.3125 10.6801C57.3125 10.5001 57.4927 10.3201 57.673 10.3201C57.8532 10.3201 58.0334 10.5001 58.0334 10.6801Z" fill="#002D13"/>
<path d="M21.3273 0.960029C21.3273 1.08003 21.2672 1.14003 21.147 1.14003C21.0269 1.14003 20.9668 1.08003 20.9668 0.960029C20.9668 0.840029 21.0269 0.780029 21.147 0.780029C21.2672 0.780029 21.3273 0.840029 21.3273 0.960029Z" fill="#004F2A"/>
<path d="M21.3273 18.3599C21.3273 18.4799 21.2672 18.5399 21.147 18.5399C21.0269 18.5399 20.9668 18.4799 20.9668 18.3599C20.9668 18.2399 21.0269 18.1799 21.147 18.1799C21.2672 18.1799 21.3273 18.2399 21.3273 18.3599Z" fill="#004F2A"/>
<path d="M28.2355 0.960029C28.2355 1.08003 28.1754 1.14003 28.0552 1.14003C27.9351 1.14003 27.875 1.08003 27.875 0.960029C27.875 0.840029 27.9351 0.780029 28.0552 0.780029C28.1754 0.780029 28.2355 0.840029 28.2355 0.960029Z" fill="#004F2A"/>
<path d="M28.2355 18.3599C28.2355 18.4799 28.1754 18.5399 28.0552 18.5399C27.9351 18.5399 27.875 18.4799 27.875 18.3599C27.875 18.2399 27.9351 18.1799 28.0552 18.1799C28.1754 18.1799 28.2355 18.2399 28.2355 18.3599Z" fill="#004F2A"/>
<path d="M38.9894 0.960029C38.9894 1.08003 38.9293 1.14003 38.8091 1.14003C38.689 1.14003 38.6289 1.08003 38.6289 0.960029C38.6289 0.840029 38.689 0.780029 38.8091 0.780029C38.9293 0.780029 38.9894 0.840029 38.9894 0.960029Z" fill="#004F2A"/>
<path d="M38.9894 18.3599C38.9894 18.4799 38.9293 18.5399 38.8091 18.5399C38.689 18.5399 38.6289 18.4799 38.6289 18.3599C38.6289 18.2399 38.689 18.1799 38.8091 18.1799C38.9293 18.1799 38.9894 18.2399 38.9894 18.3599Z" fill="#004F2A"/>
<path d="M48.1808 0.300117C48.1808 0.420117 48.1207 0.480117 48.0005 0.480117C47.8804 0.480117 47.8203 0.420117 47.8203 0.300117C47.8203 0.180117 47.8804 0.120117 48.0005 0.120117C48.0606 0.120117 48.1808 0.180117 48.1808 0.300117Z" fill="#004F2A"/>
<path d="M56.8937 0.300117C56.8937 0.420117 56.8336 0.480117 56.7134 0.480117C56.5933 0.480117 56.5332 0.420117 56.5332 0.300117C56.5332 0.180117 56.5933 0.120117 56.7134 0.120117C56.7735 0.120117 56.8937 0.180117 56.8937 0.300117Z" fill="#004F2A"/>
<path d="M60.798 23.16C60.798 23.28 60.7379 23.34 60.6177 23.34C60.4976 23.34 60.4375 23.28 60.4375 23.16C60.4375 23.04 60.4976 22.98 60.6177 22.98C60.7379 22.98 60.798 23.04 60.798 23.16Z" fill="#004F2A"/>
<path d="M60.798 4.61994C60.798 4.73994 60.7379 4.79994 60.6177 4.79994C60.4976 4.79994 60.4375 4.73994 60.4375 4.61994C60.4375 4.49994 60.4976 4.43994 60.6177 4.43994C60.7379 4.43994 60.798 4.55994 60.798 4.61994Z" fill="#004F2A"/>
<path d="M49.5636 18.3599C49.5636 18.4799 49.5035 18.5399 49.3834 18.5399C49.2632 18.5399 49.2031 18.4799 49.2031 18.3599C49.2031 18.2399 49.2632 18.1799 49.3834 18.1799C49.5035 18.1799 49.5636 18.2399 49.5636 18.3599Z" fill="#004F2A"/>
<path d="M26.9141 1.56006H22.168V17.9401H26.9141V1.56006Z" fill="#65B339"/>
<path d="M37.488 1.56006H28.957V17.9401H37.488V1.56006Z" fill="#65B339"/>
<path d="M39.7715 1.56006V17.9401H48.3025V3.66006L47.2211 1.56006H39.7715Z" fill="#65B339"/>
<path opacity="0.5" d="M26.9141 1.56006H22.168V7.56006H26.9141V1.56006Z" fill="#65B339"/>
<path opacity="0.5" d="M37.488 1.56006H28.957V7.56006H37.488V1.56006Z" fill="#65B339"/>
<path opacity="0.5" d="M48.3025 7.50006V3.66006L47.2211 1.56006H39.7715V7.50006H48.3025Z" fill="#65B339"/>
<path d="M50.3438 7.80005V17.9401H55.21L50.3438 7.80005Z" fill="#65B339"/>
<path d="M54.25 12.0599L58.3953 20.8199H60.1977V11.9399L54.25 12.0599Z" fill="#65B339"/>
<path d="M55.2109 4.67993L58.7555 11.0399L60.1373 10.9799V4.49993L58.8757 3.17993L55.2109 4.67993Z" fill="#65B339"/>
<path d="M52.9883 0.960029L54.4902 3.72003L58.1549 2.34003L56.8332 0.780029L52.9883 0.960029Z" fill="#65B339"/>
<path d="M51.7867 0.899902L53.6491 4.1399L51.7867 4.8599C51.7867 4.8599 52.1472 4.0199 51.1258 3.8399C51.1258 3.8399 50.6452 3.8399 50.0444 3.8999L48.4824 0.959902L51.7867 0.899902Z" fill="#65B339"/>
<path d="M52.627 5.70004L54.249 5.04004L56.4719 8.82004L52.627 5.70004Z" fill="#65B339"/>
<path d="M51.1855 6.30005L53.5286 11.04H56.5324L56.6526 10.74L51.1855 6.30005Z" fill="#65B339"/>
<path opacity="0.5" d="M60.1373 7.67993V4.49993L58.8757 3.17993L55.2109 4.67993L56.8931 7.67993H60.1373Z" fill="#65B339"/>
<path opacity="0.5" d="M52.9883 0.960029L54.4902 3.72003L58.1549 2.34003L56.8332 0.780029L52.9883 0.960029Z" fill="#65B339"/>
<path opacity="0.5" d="M51.7867 0.899902L53.6491 4.1399L51.7867 4.8599C51.7867 4.8599 52.1472 4.0199 51.1258 3.8399C51.1258 3.8399 50.6452 3.8399 50.0444 3.8999L48.4824 0.959902L51.7867 0.899902Z" fill="#65B339"/>
<path opacity="0.5" d="M55.8111 7.68004L54.249 5.04004L52.627 5.70004L55.0901 7.68004H55.8111Z" fill="#65B339"/>
<path opacity="0.5" d="M52.8677 7.68005L51.1855 6.30005L51.8464 7.68005H52.8677Z" fill="#65B339"/>
<path d="M21.5664 18.3001H27.5141C27.454 18.3001 23.7893 17.7601 21.5664 18.3001Z" fill="#004F2A"/>
<path d="M28.5371 18.3001H38.0894C38.0894 18.3001 32.1418 17.7601 28.5371 18.3001Z" fill="#004F2A"/>
<path d="M39.2305 18.3001H48.7828C48.7828 18.3001 42.775 17.7601 39.2305 18.3001Z" fill="#004F2A"/>
<path d="M49.9238 18.3001H56.4723C56.4723 18.3001 52.387 17.7601 49.9238 18.3001Z" fill="#004F2A"/>
<path d="M58.334 21.1799H60.4968C60.4968 21.1799 59.1751 20.6399 58.334 21.1799Z" fill="#004F2A"/>
<path d="M53.4688 11.22H56.8932C56.8932 11.22 54.7304 10.68 53.4688 11.22Z" fill="#004F2A"/>
<path d="M58.5156 11.22H60.4982C60.4982 11.22 59.2966 10.68 58.5156 11.22Z" fill="#004F2A"/>
<path d="M54.5488 4.0199L58.4539 2.3999C58.4539 2.3999 55.3899 3.4799 54.5488 4.0199Z" fill="#004F2A"/>
<path d="M53.9492 4.26001L51.486 5.28001C51.4259 5.34001 53.048 4.50001 53.9492 4.26001Z" fill="#004F2A"/>
<path d="M21.3867 0.719971H47.3402C47.4003 0.719971 22.9487 1.07997 21.3867 0.719971Z" fill="#65B339"/>
<path d="M48.3613 0.0600586H56.7121C56.652 0.0600586 50.8245 0.540059 48.3613 0.0600586Z" fill="#65B339"/>
<path d="M61.6992 6.54004V21.3C61.6992 21.3 62.0597 7.62004 61.6992 6.54004Z" fill="#1B623B"/>
<path d="M57.9757 13.3201C57.9156 13.3801 57.1346 14.3401 57.1947 14.9401C57.2548 15.3001 57.5552 15.5401 57.9757 15.5401C58.3963 15.5401 58.6966 15.3001 58.7567 14.9401C58.8168 14.3401 57.9757 13.3801 57.9757 13.3201ZM57.5552 15.2401C57.4951 15.1801 57.435 15.1801 57.435 15.1201C57.4951 15.1201 57.5552 15.0601 57.6152 15.0601C57.6152 15.1201 57.6753 15.1201 57.6753 15.1801C57.6152 15.1801 57.5552 15.2401 57.5552 15.2401ZM57.4951 14.8801H57.3149C57.2548 14.4001 57.8556 13.6801 57.9156 13.6201C57.9156 13.6201 57.3749 14.4001 57.4951 14.8801Z" fill="white"/>
<path opacity="0.5" d="M26.9141 16.6201H22.168V17.9401H26.9141V16.6201Z" fill="#65B339"/>
<path opacity="0.5" d="M37.488 16.6201H28.957V17.9401H37.488V16.6201Z" fill="#65B339"/>
<path opacity="0.5" d="M48.3025 16.6201H39.7715V17.9401H48.3025V16.6201Z" fill="#65B339"/>
<path opacity="0.5" d="M50.3457 16.6201V17.9401H55.212L54.6112 16.6201H50.3457Z" fill="#65B339"/>
<path opacity="0.5" d="M56.4727 16.6201L58.3951 20.8201H60.1975V16.6201H56.4727Z" fill="#65B339"/>
<path d="M21.6885 19.5601C21.6885 19.5601 21.0878 19.6201 21.2079 20.2801C21.1478 20.2801 21.1478 19.7401 21.6885 19.5601Z" fill="white"/>
<path opacity="0.5" d="M2.8839 18.54C2.70367 18.54 2.52344 18.78 2.52344 19.08C2.52344 19.38 2.70367 19.56 2.8839 19.56C3.06414 19.56 3.24437 19.32 3.24437 19.08C3.24437 18.78 3.06414 18.54 2.8839 18.54Z" fill="#C0BAC4"/>
<path d="M0.541016 12.4799C0.541016 12.7199 0.601093 15.6599 0.601093 16.1999C0.601093 16.7999 0.661171 17.1599 1.08171 17.1599C1.50226 17.1599 1.68249 17.0399 1.68249 15.9599C1.68249 14.9399 1.68249 13.0799 1.68249 12.6599C1.68249 12.2399 1.56233 11.8199 1.14179 11.8199C0.721248 11.7599 0.541016 11.8199 0.541016 12.4799Z" fill="#262625"/>
<path opacity="0.5" d="M1.14125 11.76C0.961013 11.76 0.780781 11.76 0.720703 11.88C0.780781 11.88 0.900936 11.88 1.02109 11.88C1.44163 11.88 1.56179 12.3 1.56179 12.72C1.56179 13.14 1.56179 15 1.56179 15.96C1.56179 17.04 1.38156 17.16 0.961013 17.16C0.961013 17.16 0.961013 17.16 0.900936 17.16C0.961013 17.16 1.02109 17.22 1.08117 17.22C1.50171 17.22 1.68194 17.1 1.68194 16.02C1.68194 15 1.68194 13.14 1.68194 12.72C1.68194 12.18 1.56179 11.76 1.14125 11.76Z" fill="#1D1D1B"/>
<path d="M3.12421 19.0799C3.12421 19.3199 3.00406 19.4999 2.82383 19.4999C2.64359 19.4999 2.52344 19.3199 2.52344 19.0799C2.52344 18.8399 2.64359 18.6599 2.82383 18.6599C3.00406 18.6599 3.12421 18.8399 3.12421 19.0799Z" fill="url(#paint8_radial_97_34112)"/>
<path d="M3.12515 19.0799C3.12515 19.3199 3.005 19.4999 2.88484 19.4999C2.76469 19.4999 2.64453 19.3199 2.64453 19.0799C2.64453 18.8399 2.76469 18.6599 2.88484 18.6599C3.005 18.6599 3.12515 18.8399 3.12515 19.0799Z" fill="#262625"/>
<path opacity="0.5" d="M2.82281 18.78C2.70266 18.78 2.64258 18.9 2.64258 19.02C2.64258 19.14 2.70266 19.26 2.82281 19.26C2.94297 19.26 3.00304 19.14 3.00304 19.02C2.94297 18.9 2.88289 18.78 2.82281 18.78Z" fill="#C0BAC4"/>
<path opacity="0.5" d="M0.901405 14.6399C0.841328 14.6399 0.78125 14.7599 0.78125 14.8799C0.78125 14.9999 0.841328 15.1199 0.901405 15.1199C0.961483 15.1199 1.02156 14.9999 1.02156 14.8799C1.02156 14.7599 0.961483 14.6399 0.901405 14.6399Z" fill="#C0BAC4"/>
<path d="M2.52326 19.2599H0.901163C0.600775 19.2599 0.360465 19.2 0.180233 19.0199C0 18.78 0 18.4799 0 18.2399C0 18.1799 0 18.18 0 18.12C0 17.94 0 17.6399 0 17.2799C0 16.7999 0 16.2 0 15.72C0 14.88 0.540698 14.7 0.841085 14.7C0.96124 14.7 1.02132 14.76 1.02132 14.88C1.02132 15 0.96124 15.06 0.841085 15.06C0.781008 15.06 0.360465 15.12 0.360465 15.78C0.360465 16.26 0.360465 16.86 0.360465 17.34C0.360465 17.6999 0.360465 17.9999 0.360465 18.1799C0.360465 18.2399 0.360465 18.2399 0.360465 18.2999C0.360465 18.5399 0.360465 18.7199 0.48062 18.8399C0.540698 18.8999 0.72093 18.9599 0.96124 18.9599H2.58333C2.70349 18.9599 2.76357 19.0199 2.76357 19.1399C2.70349 19.1399 2.64341 19.2599 2.52326 19.2599Z" fill="#2C2D2B"/>
<path d="M2.64435 18.9599C2.58427 18.9599 2.58427 18.8999 2.52419 18.8999H0.902102C0.781946 18.8999 0.721869 18.8999 0.661792 18.8999C0.541636 18.8999 0.481559 18.8399 0.481559 18.7799C0.361404 18.6599 0.361404 18.4799 0.361404 18.2399C0.361404 18.1799 0.361404 18.18 0.361404 18.12C0.361404 17.94 0.361404 17.6399 0.361404 17.2799C0.361404 16.7999 0.361404 16.2 0.361404 15.72C0.361404 15.06 0.781946 15 0.842024 15C0.962179 15 1.02226 14.94 1.02226 14.82C1.02226 14.76 1.02226 14.76 0.962179 14.7C0.661791 14.7 0.121094 14.94 0.121094 15.72C0.121094 16.2 0.121094 16.7999 0.121094 17.2799C0.121094 17.6399 0.121094 17.88 0.121094 18.06C0.121094 18.12 0.121094 18.12 0.121094 18.12C0.121094 18.42 0.121094 18.7199 0.301326 18.8999C0.421481 19.0799 0.481559 19.1399 0.601714 19.1999C0.721869 19.1999 0.842024 19.2599 0.962179 19.2599H2.58427C2.70443 19.2599 2.7645 19.1999 2.7645 19.0799C2.70443 19.0199 2.70443 18.9599 2.64435 18.9599Z" fill="#686867"/>
<path opacity="0.5" d="M2.6438 18.9601C2.6438 18.9601 2.58373 18.9001 2.52365 18.9001H0.901556C0.781401 18.9001 0.721324 18.9001 0.661246 18.9001C0.541091 18.9001 0.481014 18.8401 0.481014 18.7801C0.360859 18.6601 0.360859 18.4801 0.360859 18.2401C0.360859 18.1801 0.360859 18.1801 0.360859 18.1201C0.360859 17.9401 0.360859 17.6401 0.360859 17.2801C0.360859 16.8001 0.360859 16.2001 0.360859 15.7201C0.360859 15.1801 0.601169 15.0601 0.781401 15.0601C0.661246 15.0601 0.300781 15.1801 0.300781 15.7801C0.300781 16.2601 0.300781 16.8601 0.300781 17.3401C0.300781 17.7001 0.300781 18.0001 0.300781 18.1801C0.300781 18.2401 0.300781 18.2401 0.300781 18.3001C0.300781 18.5401 0.300781 18.7201 0.420936 18.8401C0.481014 18.9001 0.541091 18.9001 0.601169 18.9601C0.661246 18.9601 0.781401 18.9601 0.841479 18.9601H2.46357C2.58373 18.9001 2.70388 18.9601 2.6438 18.9601Z" fill="#C0BAC4"/>
<path opacity="0.5" d="M2.82396 18.9001C2.76388 18.8401 2.76388 18.8401 2.70381 18.8401H0.841403C0.721248 18.8401 0.661171 18.8401 0.541016 18.8401C0.661171 18.9001 0.781326 18.9001 0.961558 18.9001H2.82396Z" fill="#C0BAC4"/>
<defs>
<linearGradient id="paint0_linear_97_34112" x1="34.5165" y1="25.0601" x2="34.5165" y2="18.6185" gradientUnits="userSpaceOnUse">
<stop stop-color="#B6B8B9"/>
<stop offset="1" stop-color="#242626"/>
</linearGradient>
<linearGradient id="paint1_linear_97_34112" x1="57.5967" y1="17.0439" x2="57.5967" y2="25.5004" gradientUnits="userSpaceOnUse">
<stop offset="0.0285652" stop-color="white"/>
<stop offset="0.4551" stop-color="#B6B8B9"/>
<stop offset="1" stop-color="#79797B"/>
</linearGradient>
<linearGradient id="paint2_linear_97_34112" x1="12.819" y1="3.80755" x2="13.8483" y2="7.46147" gradientUnits="userSpaceOnUse">
<stop offset="0.0285652" stop-color="white"/>
<stop offset="0.2552" stop-color="#DCDDDD"/>
<stop offset="0.4761" stop-color="#C0C2C3"/>
<stop offset="0.6044" stop-color="#B6B8B9"/>
<stop offset="0.6993" stop-color="#B2B4B5"/>
<stop offset="0.8037" stop-color="#A5A6A8"/>
<stop offset="0.912" stop-color="#909092"/>
<stop offset="1" stop-color="#79797B"/>
</linearGradient>
<linearGradient id="paint3_linear_97_34112" x1="17.6424" y1="13.1336" x2="19.2967" y2="13.1336" gradientUnits="userSpaceOnUse">
<stop offset="0.0285652" stop-color="white"/>
<stop offset="0.4551" stop-color="#B6B8B9"/>
<stop offset="1" stop-color="#79797B"/>
</linearGradient>
<linearGradient id="paint4_linear_97_34112" x1="6.84336" y1="7.12949" x2="-6.64934" y2="32.3098" gradientUnits="userSpaceOnUse">
<stop stop-color="#A4DCE7"/>
<stop offset="0.2841" stop-color="#98D9EA"/>
<stop offset="0.7953" stop-color="#79D1F1"/>
<stop offset="1" stop-color="#6ACEF5"/>
</linearGradient>
<linearGradient id="paint5_linear_97_34112" x1="0.974286" y1="12.0098" x2="7.49456" y2="12.0098" gradientUnits="userSpaceOnUse">
<stop stop-color="#A4DCE7"/>
<stop offset="0.2841" stop-color="#98D9EA"/>
<stop offset="0.7953" stop-color="#79D1F1"/>
<stop offset="1" stop-color="#6ACEF5"/>
</linearGradient>
<radialGradient id="paint6_radial_97_34112" cx="0" cy="0" r="1" gradientUnits="userSpaceOnUse" gradientTransform="translate(14.776 25.0202) scale(5.55019 5.54303)">
<stop offset="0.394" stop-color="#1E211D"/>
<stop offset="0.4699" stop-color="#232622"/>
<stop offset="0.5613" stop-color="#323430"/>
<stop offset="0.6603" stop-color="#4A4B47"/>
<stop offset="0.7099" stop-color="#595956"/>
<stop offset="0.7577" stop-color="#696866"/>
<stop offset="0.8504" stop-color="#91918F"/>
<stop offset="0.918" stop-color="#B3B2B1"/>
</radialGradient>
<radialGradient id="paint7_radial_97_34112" cx="0" cy="0" r="1" gradientUnits="userSpaceOnUse" gradientTransform="translate(49.2725 25.0202) scale(5.54985 5.54269)">
<stop offset="0.394" stop-color="#1E211D"/>
<stop offset="0.4699" stop-color="#232622"/>
<stop offset="0.5613" stop-color="#323430"/>
<stop offset="0.6603" stop-color="#4A4B47"/>
<stop offset="0.7099" stop-color="#595956"/>
<stop offset="0.7577" stop-color="#696866"/>
<stop offset="0.8504" stop-color="#91918F"/>
<stop offset="0.918" stop-color="#B3B2B1"/>
</radialGradient>
<radialGradient id="paint8_radial_97_34112" cx="0" cy="0" r="1" gradientUnits="userSpaceOnUse" gradientTransform="translate(2.84339 19.0728) scale(0.272067 0.427077)">
<stop stop-color="white"/>
<stop offset="0.2702" stop-color="white"/>
<stop offset="0.3815" stop-color="#FDFCFD"/>
<stop offset="0.4516" stop-color="#F5F4F5"/>
<stop offset="0.5105" stop-color="#E7E5E9"/>
<stop offset="0.5627" stop-color="#D5D1D7"/>
<stop offset="0.6043" stop-color="#C0BAC4"/>
<stop offset="0.621" stop-color="#C8C3CC"/>
<stop offset="0.678" stop-color="#E0DDE2"/>
<stop offset="0.7365" stop-color="#F1F0F2"/>
<stop offset="0.797" stop-color="#FCFBFC"/>
<stop offset="0.8623" stop-color="white"/>
<stop offset="0.9072" stop-color="#FDFCFD"/>
<stop offset="0.9363" stop-color="#F5F4F5"/>
<stop offset="0.961" stop-color="#E7E5E9"/>
<stop offset="0.9831" stop-color="#D4D0D7"/>
<stop offset="1" stop-color="#C0BAC4"/>
</radialGradient>
</defs>
</svg>
