<svg width="18" height="18" viewBox="0 0 18 18" fill="none" xmlns="http://www.w3.org/2000/svg">
<path fill-rule="evenodd" clip-rule="evenodd" d="M12.2722 5.53018C12.4385 5.53463 12.5948 5.59402 12.7146 5.7081L13.2949 6.27555C13.5658 6.53984 13.5308 7.00112 13.2174 7.30798L8.12131 12.2816C7.87373 12.5233 7.40557 12.5407 7.13868 12.2816L4.78151 9.97987C4.46808 9.67351 4.43491 9.21273 4.70551 8.94893L5.28434 8.38198C5.55667 8.11769 6.02855 8.14986 6.34173 8.45498L7.62987 9.71311L11.6555 5.78358C11.8335 5.61159 12.0593 5.52547 12.2722 5.53018ZM11.0638 0.00102739C10.731 -0.0106035 10.3804 0.0765048 10.0247 0.263095C9.2458 0.67191 8.65781 0.588018 7.97301 0.263095C7.61328 0.0920952 7.25876 0.00696676 6.92849 0.016618C6.37664 0.0339406 5.88545 0.321002 5.51805 0.919376C5.05236 1.67811 4.49284 1.86866 3.73996 1.94636C2.6578 2.05599 1.9693 2.65016 1.93983 3.74396C1.91656 4.63336 1.52836 5.07706 0.914622 5.52077C0.0325091 6.15726 -0.263839 7.01423 0.25706 7.97713C0.681158 8.75813 0.568016 9.33522 0.25706 10.0264C-0.187834 11.0202 -0.0199771 11.9094 0.914622 12.4828C1.67146 12.9487 1.86234 13.505 1.93983 14.2593C2.0505 15.341 2.64543 16.0277 3.73996 16.0584C4.62826 16.0836 5.07464 16.4687 5.51805 17.0837C6.17561 17.9985 6.99434 18.2485 7.97301 17.7424C8.76129 17.3358 9.33468 17.4224 10.0247 17.7424C11.0227 18.2074 11.8248 17.9985 12.4811 17.0837C12.9245 16.4689 13.3709 16.0836 14.2592 16.0584C15.354 16.028 15.9487 15.3412 16.0593 14.2593C16.1368 13.505 16.3277 12.9487 17.0845 12.4828C18.0182 11.9096 18.1885 11.0202 17.7421 10.0264C17.4312 9.33522 17.319 8.75813 17.7421 7.97713C18.2643 7.01423 17.9679 6.15726 17.0845 5.52077C16.4696 5.07706 16.0841 4.63336 16.0593 3.74396C16.0309 2.65016 15.3414 2.05624 14.2592 1.94636C13.5048 1.86866 12.9478 1.67811 12.4811 0.919376C12.115 0.321002 11.6158 0.0208247 11.0638 0.00102739Z" fill="#23C6C8"/>
</svg>
