<svg width="16" height="16" viewBox="0 0 16 16" fill="none" xmlns="http://www.w3.org/2000/svg">
<path d="M15.3162 0C15.6939 0 16 0.304827 16 0.680851V3.40426C16 3.78028 15.6939 4.08511 15.3162 4.08511H13.9487V5.44681C13.9487 5.79597 13.6848 6.08375 13.3447 6.12308L13.265 6.12766H11.8974V7.48936C11.8974 7.83853 11.6335 8.1263 11.2934 8.16563L11.2137 8.17021H9.46598L9.58966 8.37398C9.98624 9.06883 10.216 9.85225 10.2516 10.6698L10.2564 10.8936C10.2564 13.7138 7.96044 16 5.12821 16C2.29598 16 0 13.7138 0 10.8936C0 8.07344 2.29598 5.78723 5.12821 5.78723C5.52816 5.78723 5.92233 5.83296 6.30484 5.92243L6.3412 5.93157L12.0977 0.199442C12.2045 0.0930253 12.3431 0.0254685 12.4913 0.00590548L12.5812 0H15.3162ZM14.6325 1.3617H12.8643L7.02422 7.17768C6.86121 7.34001 6.62869 7.40829 6.4063 7.36385L6.32354 7.34186C5.94198 7.21461 5.54002 7.14894 5.12821 7.14894C3.05124 7.14894 1.36752 8.82549 1.36752 10.8936C1.36752 12.9617 3.05124 14.6383 5.12821 14.6383C7.20517 14.6383 8.88889 12.9617 8.88889 10.8936C8.88889 10.0143 8.58438 9.18328 8.03557 8.5182C7.8123 8.24762 7.83157 7.85253 8.08012 7.60477L8.67865 7.00818C8.8069 6.88034 8.98093 6.80851 9.16239 6.80851H10.5299V5.44681C10.5299 5.09764 10.7939 4.80987 11.1339 4.77054L11.2137 4.76596H12.5812V3.40426C12.5812 3.05509 12.8452 2.76731 13.1852 2.72798L13.265 2.7234H14.6325V1.3617ZM4.03419 11.0298C4.52511 11.0298 4.92308 11.4261 4.92308 11.9149C4.92308 12.4037 4.52511 12.8 4.03419 12.8C3.54327 12.8 3.1453 12.4037 3.1453 11.9149C3.1453 11.4261 3.54327 11.0298 4.03419 11.0298Z" fill="#21BCC2"/>
</svg>
