<svg width="41" height="36" viewBox="0 0 41 36" fill="none" xmlns="http://www.w3.org/2000/svg">
<path d="M38.3514 16.1118H32.3203V4.47074C32.3203 2.27692 30.5204 0.5 28.2982 0.5H3.6982C1.6564 0.5 0 2.13525 0 4.15098V17.9494C0 20.1432 1.7999 21.9201 4.0221 21.9201H5.6006V27.9511C5.6006 28.3397 5.8056 28.7121 6.1582 28.8902C6.314 28.9671 6.478 29.0076 6.642 29.0076C6.9249 29.0076 7.2037 28.8902 7.4046 28.6716L13.653 21.9201H19.065V27.943C19.065 29.5014 20.3483 30.7683 21.9268 30.7683H31.6315L35.752 35.2207C35.916 35.3988 36.1497 35.5 36.3916 35.5C36.531 35.5 36.6663 35.4676 36.7934 35.4029C37.0763 35.2571 37.2608 34.9495 37.2608 34.6176V30.7643H38.1382C39.7167 30.7643 41 29.4973 41 27.939V18.7266C41 17.2856 39.811 16.1118 38.3514 16.1118ZM19.0609 18.9411V20.9892H13.4439C13.3127 20.9892 13.1856 21.0459 13.0954 21.1389L6.7076 28.0442C6.6953 28.0564 6.6625 28.0928 6.601 28.0685C6.5395 28.0442 6.5395 27.9957 6.5395 27.9795V21.4547C6.5395 21.1997 6.3304 20.9892 6.068 20.9892H4.018C2.3165 20.9892 0.9389 19.6292 0.9389 17.9494V4.15098C0.9389 2.64525 2.173 1.42691 3.6982 1.42691H28.2982C29.9997 1.42691 31.3773 2.78692 31.3773 4.46669V16.1118H21.9268C20.3483 16.1118 19.0609 17.3827 19.0609 18.9411ZM40.0201 27.939C40.0201 28.9631 39.1755 29.7969 38.1382 29.7969H36.7688C36.4982 29.7969 36.2768 30.0154 36.2768 30.2826V34.3545L32.2096 29.9547C32.1153 29.8535 31.9841 29.7969 31.8447 29.7969H21.9227C20.8854 29.7969 20.0408 28.9631 20.0408 27.939V18.9411C20.0408 17.917 20.8854 17.0832 21.9227 17.0832H38.3514C39.2698 17.0832 40.016 17.8199 40.016 18.7266V27.939H40.0201Z" fill="#1EB9B9"/>
<path d="M16.0841 13.1484C15.8627 13.1484 15.6782 13.2213 15.5265 13.367C15.3748 13.5127 15.2969 13.6949 15.2969 13.9094C15.2969 14.1523 15.3748 14.3384 15.5306 14.4761C15.6864 14.6096 15.8709 14.6784 16.08 14.6784C16.285 14.6784 16.4613 14.6096 16.6171 14.472C16.7729 14.3344 16.8508 14.1482 16.8508 13.9094C16.8508 13.6949 16.777 13.5127 16.6294 13.367C16.4859 13.2213 16.3055 13.1484 16.0841 13.1484Z" fill="#1EB9B9"/>
<path d="M17.5356 7.21079C17.1543 7.02864 16.7115 6.93555 16.2113 6.93555C15.6742 6.93555 15.2027 7.04483 14.7968 7.26341C14.395 7.48198 14.0875 7.75722 13.8743 8.08913C13.6652 8.42103 13.5586 8.74889 13.5586 9.0727C13.5586 9.23056 13.6242 9.37628 13.7595 9.50985C13.8907 9.64342 14.0547 9.71223 14.2474 9.71223C14.5754 9.71223 14.7968 9.51795 14.9157 9.13342C15.0387 8.76508 15.1904 8.4858 15.3708 8.2996C15.5512 8.10936 15.83 8.01627 16.2113 8.01627C16.5352 8.01627 16.8017 8.10936 17.0067 8.29556C17.2117 8.48175 17.3142 8.71246 17.3142 8.98366C17.3142 9.12532 17.2814 9.25485 17.2117 9.37223C17.1461 9.48961 17.06 9.5989 16.9616 9.69604C16.8632 9.79318 16.7033 9.9389 16.4819 10.1291C16.2318 10.3477 16.0309 10.5339 15.8833 10.6958C15.7357 10.8537 15.6168 11.0399 15.5266 11.2463C15.4364 11.4568 15.3913 11.7037 15.3913 11.9911C15.3913 12.2177 15.4528 12.3918 15.5758 12.5092C15.6988 12.6265 15.8505 12.6832 16.0268 12.6832C16.3712 12.6832 16.5762 12.5051 16.6418 12.153C16.6787 11.987 16.7074 11.8696 16.7279 11.8049C16.7484 11.7401 16.773 11.6713 16.8099 11.6065C16.8427 11.5418 16.896 11.4689 16.9698 11.388C17.0395 11.307 17.1338 11.2139 17.2527 11.1087C17.6791 10.7322 17.9702 10.4691 18.1342 10.3072C18.2982 10.1494 18.4417 9.95914 18.5606 9.74057C18.6795 9.52199 18.741 9.26699 18.741 8.97961C18.741 8.61127 18.6385 8.27127 18.4294 7.95555C18.2162 7.63984 17.9169 7.39293 17.5356 7.21079Z" fill="#1EB9B9"/>
<path d="M30.2949 20.6816C30.0981 20.6816 29.9423 20.7464 29.8193 20.8719C29.7004 20.9974 29.6389 21.1755 29.6389 21.4021C29.6389 21.5681 29.6512 21.8433 29.6758 22.2238L29.807 24.1829C29.8316 24.4379 29.8726 24.624 29.93 24.7495C29.9874 24.875 30.0899 24.9357 30.2416 24.9357C30.3892 24.9357 30.4917 24.871 30.5573 24.7455C30.6188 24.616 30.6639 24.4338 30.6803 24.195L30.8566 22.1793C30.8771 21.9931 30.8853 21.8109 30.8853 21.6328C30.8853 21.3293 30.8443 21.0945 30.7664 20.9326C30.6885 20.7626 30.5327 20.6816 30.2949 20.6816Z" fill="#1EB9B9"/>
<path d="M30.2621 25.6484C30.0899 25.6484 29.9423 25.7092 29.8193 25.8265C29.7004 25.9439 29.6389 26.0896 29.6389 26.2596C29.6389 26.4539 29.7004 26.6037 29.8275 26.713C29.9546 26.8223 30.0981 26.8749 30.2703 26.8749C30.4343 26.8749 30.5819 26.8223 30.7049 26.713C30.8279 26.6037 30.8894 26.4539 30.8894 26.2637C30.8894 26.0937 30.8279 25.952 30.7049 25.8306C30.5819 25.7092 30.4343 25.6484 30.2621 25.6484Z" fill="#1EB9B9"/>
</svg>
