<svg width="20" height="20" viewBox="0 0 20 20" fill="none" xmlns="http://www.w3.org/2000/svg">
<path d="M0 3C0 1.34315 1.34315 0 3 0H10C11.6569 0 13 1.34315 13 3V7C12.3333 7 11.6667 7 11 7V3C11 2.44772 10.5523 2 10 2H3C2.44772 2 2 2.44772 2 3V17C2 17.5523 2.44772 18 3 18H10C10.5523 18 11 17.5523 11 17V13H13V17C13 18.6569 11.6569 20 10 20H3C1.34315 20 0 18.6569 0 17V3Z" fill="#B9C3CD"/>
<path d="M5 10C5 9.44771 5.44772 9 6 9L15 9V7.5C15 7.11198 15.2245 6.75899 15.5758 6.59441C15.9272 6.42983 16.3421 6.48337 16.6402 6.73178L19.6347 9.22723C19.8578 9.41063 20 9.68871 20 10C20 10.2503 19.9081 10.479 19.7561 10.6544C19.7273 10.6877 19.6963 10.7191 19.6633 10.7484C19.6536 10.7569 19.6439 10.7653 19.6339 10.7735L16.6402 13.2682C16.3421 13.5166 15.9272 13.5702 15.5758 13.4056C15.2245 13.241 15 12.888 15 12.5V11L6 11C5.44772 11 5 10.5523 5 10Z" fill="#B9C3CD"/>
</svg>
