<svg width="24" height="24" viewBox="0 0 24 24" fill="none" xmlns="http://www.w3.org/2000/svg">
<path d="M19 8.25C19.4142 8.25 19.75 7.91421 19.75 7.5C19.75 7.08579 19.4142 6.75 19 6.75V8.25ZM10 6.75C9.58579 6.75 9.25 7.08579 9.25 7.5C9.25 7.91421 9.58579 8.25 10 8.25V6.75ZM19 6.75H10V8.25H19V6.75Z" fill="#2B3949"/>
<path d="M14 17.25C14.4142 17.25 14.75 16.9142 14.75 16.5C14.75 16.0858 14.4142 15.75 14 15.75V17.25ZM5 15.75C4.58579 15.75 4.25 16.0858 4.25 16.5C4.25 16.9142 4.58579 17.25 5 17.25V15.75ZM14 15.75H5V17.25H14V15.75Z" fill="#2B3949"/>
<circle cx="6.5" cy="7.5" r="3.5" stroke="#2B3949" stroke-width="1.5"/>
<circle cx="17.5" cy="16.5" r="3.5" stroke="#2B3949" stroke-width="1.5"/>
</svg>
