<svg width="22" height="22" viewBox="0 0 22 22" fill="none" xmlns="http://www.w3.org/2000/svg">
<path fill-rule="evenodd" clip-rule="evenodd" d="M2.5 2C2.22386 2 2 2.22386 2 2.5V19.5C2 19.7761 2.22386 20 2.5 20H19.5C19.7761 20 20 19.7761 20 19.5V2.5C20 2.22386 19.7761 2 19.5 2H2.5ZM0 2.5C0 1.11929 1.11929 0 2.5 0H19.5C20.8807 0 22 1.11929 22 2.5V19.5C22 20.8807 20.8807 22 19.5 22H2.5C1.11929 22 0 20.8807 0 19.5V2.5ZM4 5C4 4.44772 4.44772 4 5 4H9C9.55229 4 10 4.44772 10 5V9C10 9.55229 9.55229 10 9 10H5C4.44772 10 4 9.55229 4 9V5ZM6 6V8H8V6H6ZM12 5C12 4.44772 12.4477 4 13 4H17C17.5523 4 18 4.44772 18 5C18 5.55228 17.5523 6 17 6H13C12.4477 6 12 5.55228 12 5ZM12 9C12 8.44772 12.4477 8 13 8H17C17.5523 8 18 8.44772 18 9C18 9.55229 17.5523 10 17 10H13C12.4477 10 12 9.55229 12 9ZM4 13C4 12.4477 4.44772 12 5 12H9C9.55229 12 10 12.4477 10 13V17C10 17.5523 9.55229 18 9 18H5C4.44772 18 4 17.5523 4 17V13ZM6 14V16H8V14H6ZM12 13C12 12.4477 12.4477 12 13 12H17C17.5523 12 18 12.4477 18 13C18 13.5523 17.5523 14 17 14H13C12.4477 14 12 13.5523 12 13ZM12 17C12 16.4477 12.4477 16 13 16H17C17.5523 16 18 16.4477 18 17C18 17.5523 17.5523 18 17 18H13C12.4477 18 12 17.5523 12 17Z" fill="#B9C3CD"/>
</svg>
