<svg width="11" height="15" viewBox="0 0 11 15" fill="none" xmlns="http://www.w3.org/2000/svg">
<path d="M1.68773 5.31417C1.68773 4.50048 2.33567 3.85253 3.14937 3.85253H6.28362V5.31417C6.28362 5.61554 6.44937 5.88678 6.70554 6.02239C6.82608 6.08267 6.94663 6.1128 7.06718 6.1128C7.23293 6.1128 7.38362 6.0676 7.51924 5.96212L10.6686 3.70185C10.8795 3.55116 11.0001 3.31006 11.0001 3.0539C11.0001 2.79774 10.8795 2.55664 10.6686 2.40595L7.51924 0.145681C7.27814 -0.0200725 6.9617 -0.0502095 6.70554 0.0854069C6.44937 0.221023 6.28362 0.492256 6.28362 0.793626V2.25527H3.16444C1.47677 2.25527 0.120605 3.6265 0.120605 5.29911V8.97582L1.7028 7.84568V5.31417H1.68773Z" fill="#56CCF2"/>
<path d="M9.34247 9.02095C9.34247 9.83465 8.69452 10.4826 7.88082 10.4826H4.73151V9.02095C4.73151 8.71958 4.56575 8.44835 4.30959 8.31273C4.05342 8.17711 3.73699 8.20725 3.49589 8.373L0.331507 10.6333C0.120548 10.784 0 11.0251 0 11.2812C0 11.5374 0.120548 11.7785 0.331507 11.9292L3.48082 14.1894C3.61644 14.2799 3.78219 14.3401 3.93288 14.3401C4.05342 14.3401 4.17397 14.31 4.29452 14.2497C4.55068 14.1141 4.71644 13.8429 4.71644 13.5415V12.0799H7.86575C9.55342 12.0799 10.9096 10.7086 10.9096 9.03602V5.34424L9.3274 6.47438V9.02095H9.34247Z" fill="#56CCF2"/>
</svg>
