<svg width="14" height="10" viewBox="0 0 14 10" fill="none" xmlns="http://www.w3.org/2000/svg">
<g clip-path="url(#clip0_1_7900)">
<path d="M5.06041 9C4.6555 9 4.272 8.88399 4.02627 8.68397L0.700456 5.986C0.597631 5.90268 0.522563 5.80774 0.479542 5.70659C0.436521 5.60545 0.426392 5.50009 0.449732 5.39654C0.473073 5.29299 0.529426 5.19329 0.61557 5.10312C0.701714 5.01295 0.815961 4.93409 0.951777 4.87104C1.08754 4.80774 1.24233 4.7615 1.40725 4.73499C1.57218 4.70848 1.744 4.70221 1.91288 4.71654C2.08176 4.73088 2.24437 4.76553 2.3914 4.81852C2.53842 4.87151 2.66696 4.9418 2.76966 5.02534L4.95802 6.79922L10.4601 1.37472C10.6426 1.19561 10.9333 1.06826 11.2685 1.02058C11.6037 0.972909 11.956 1.00881 12.2482 1.12041C12.856 1.35243 13.0431 1.8439 12.6633 2.21765L6.1625 8.62397C6.05152 8.73382 5.89856 8.82538 5.71689 8.89071C5.53521 8.95604 5.33032 8.99316 5.11998 8.99886C5.0995 9 5.08088 9 5.06041 9Z" fill="#1A1A1C"/>
</g>
<defs>
<clipPath id="clip0_1_7900">
<rect width="13.2034" height="8.32" fill="white" transform="translate(0.046875 0.839844)"/>
</clipPath>
</defs>
</svg>
