<svg width="16" height="16" viewBox="0 0 16 16" fill="none" xmlns="http://www.w3.org/2000/svg">
<g clip-path="url(#clip0_201_1684)">
<path fill-rule="evenodd" clip-rule="evenodd" d="M0.000122075 3.75C0.000122075 2.7835 0.783624 2 1.75012 2H14.2501C15.2166 2 16.0001 2.7835 16.0001 3.75V4.48594C16.0003 4.49485 16.0003 4.50376 16.0001 4.51265V12.25C16.0001 13.2165 15.2166 14 14.2501 14H1.75012C0.783623 14 0.000122075 13.2165 0.000122075 12.25V4.51282C-4.04965e-05 4.50381 -4.08865e-05 4.49479 0.000122075 4.48577V3.75ZM2.38416 4.54805C2.02837 4.33595 1.568 4.45244 1.35591 4.80823C1.14381 5.16402 1.26029 5.62438 1.61608 5.83648L7.61562 9.41299C7.8522 9.55403 8.14706 9.55404 8.38366 9.41301L14.3839 5.8365C14.7397 5.62442 14.8562 5.16406 14.6441 4.80826C14.432 4.45246 13.9717 4.33595 13.6159 4.54803L7.99968 7.89564L2.38416 4.54805Z" fill="black"/>
</g>
<defs>
<clipPath id="clip0_201_1684">
<rect width="16" height="16" fill="white"/>
</clipPath>
</defs>
</svg>
