<svg width="155" height="147" viewBox="0 0 155 147" fill="none" xmlns="http://www.w3.org/2000/svg">
<g clip-path="url(#clip0_3_10391)">
<path d="M80.732 136.857H80.5945C80.6633 137.063 80.732 137.269 80.732 137.474C80.732 138.434 79.6318 139.393 77.7063 140.215C76.331 140.832 74.4743 141.38 72.205 141.929C70.142 142.408 67.7351 142.82 65.122 143.162C63.4028 143.436 61.6149 143.642 59.6894 143.848C57.0075 144.122 54.1881 144.327 51.1624 144.464C49.3744 144.533 47.5865 144.601 45.6611 144.67C43.9419 144.738 42.154 144.738 40.2973 144.738C39.2658 144.738 38.1655 144.738 37.134 144.738C35.2773 144.738 33.4206 144.67 31.7014 144.601C28.7445 144.464 25.925 144.327 23.2431 144.053C21.3177 143.916 19.5297 143.71 17.8106 143.505C15.1974 143.162 12.8594 142.82 10.7276 142.408C8.6646 141.997 6.8079 141.517 5.29503 141.038C1.92547 140.01 0.0687666 138.776 0.0687666 137.474C0.0687666 137.269 0.137533 137.063 0.2063 136.857H0V115.887H80.732V136.857Z" fill="#EDC36D"/>
<path d="M10.7275 115.887V142.477C8.66449 142.066 6.80779 141.586 5.29492 141.106V115.887H10.7275V115.887Z" fill="#E4A740"/>
<path d="M23.2431 115.887V144.122C21.3176 143.985 19.5297 143.779 17.8105 143.573V115.887H23.2431Z" fill="#E4A740"/>
<path d="M37.2028 115.887V144.738C35.3461 144.738 33.4894 144.67 31.7703 144.601V115.887H37.2028Z" fill="#E4A740"/>
<path d="M51.1625 115.887V144.533C49.3745 144.601 47.5866 144.67 45.6611 144.738V115.887H51.1625Z" fill="#E4A740"/>
<path d="M65.122 115.887V143.231C63.4028 143.505 61.6149 143.71 59.6895 143.916V115.887H65.122Z" fill="#E4A740"/>
<path d="M77.7064 115.887V140.284C76.3311 140.901 74.4744 141.449 72.2051 141.997V115.887H77.7064Z" fill="#E4A740"/>
<path d="M80.732 115.887C80.732 119.93 62.6464 123.151 40.366 123.151C18.0856 123.151 0 119.93 0 115.887C0 111.843 18.0856 108.622 40.366 108.622C62.6464 108.622 80.732 111.843 80.732 115.887Z" fill="#DC903D"/>
<path d="M80.732 110.336H80.5945C80.6633 110.541 80.732 110.747 80.732 110.952C80.732 111.912 79.6318 112.871 77.7063 113.694C76.331 114.31 74.4743 114.859 72.205 115.407C70.142 115.887 67.7351 116.298 65.122 116.641C63.4028 116.915 61.5461 117.12 59.6207 117.326C56.9388 117.6 54.1193 117.806 51.0936 117.943C49.3057 118.011 47.5178 118.08 45.6611 118.148C43.9419 118.217 42.154 118.217 40.2973 118.217C39.2658 118.217 38.1655 118.217 37.134 118.217C35.2773 118.217 33.4206 118.148 31.6327 118.08C28.6757 117.943 25.8563 117.806 23.1744 117.531C21.2489 117.394 19.461 117.189 17.7418 116.983C15.1287 116.641 12.7906 116.298 10.6588 115.887C8.59583 115.475 6.73913 114.996 5.22626 114.516C1.92547 113.42 0 112.255 0 110.952C0 110.747 0.0687666 110.541 0.137533 110.336H0V89.365H80.732V110.336Z" fill="#EDC36D"/>
<path d="M80.732 89.365C80.732 93.4083 62.6464 96.6293 40.366 96.6293C18.0856 96.6293 0 93.3398 0 89.365C0 85.3216 18.0856 82.1007 40.366 82.1007C62.6464 82.0321 80.732 85.3216 80.732 89.365Z" fill="#E4A740"/>
<path d="M10.7275 89.2965V115.887C8.66449 115.476 6.80779 114.996 5.29492 114.516V89.2965H10.7275Z" fill="#E4A740"/>
<path d="M23.2431 89.2965V117.531C21.3176 117.394 19.5297 117.189 17.8105 116.983V89.2965H23.2431V89.2965Z" fill="#E4A740"/>
<path d="M37.2027 89.2965V118.148C35.346 118.148 33.4893 118.08 31.7014 118.011V89.2965H37.2027Z" fill="#E4A740"/>
<path d="M51.1623 89.2965V117.943C49.3744 118.011 47.5864 118.08 45.7297 118.148V89.2965H51.1623V89.2965Z" fill="#E4A740"/>
<path d="M65.1219 89.2965V116.641C63.4028 116.915 61.5461 117.12 59.6206 117.326V89.2965H65.1219Z" fill="#E4A740"/>
<path d="M77.7064 89.2965V113.694C76.3311 114.31 74.4744 114.859 72.2051 115.407V89.2965H77.7064Z" fill="#E4A740"/>
<path d="M155 139.119H154.863C154.931 139.324 155 139.53 155 139.736C155 140.695 153.9 141.655 151.974 142.477C150.599 143.094 148.742 143.642 146.542 144.19C144.479 144.67 142.072 145.081 139.459 145.492C137.74 145.766 135.952 145.972 134.026 146.178C131.344 146.452 128.525 146.657 125.499 146.794C123.711 146.863 121.923 146.931 119.998 147C118.279 147.068 116.491 147.068 114.634 147.068C113.534 147.068 112.502 147.068 111.471 147.068C109.614 147.068 107.757 147 106.038 146.931C103.081 146.794 100.262 146.657 97.58 146.452C95.6545 146.315 93.8666 146.109 92.1474 145.903C89.5343 145.629 87.1962 145.218 85.0644 144.807C83.0014 144.396 81.1447 143.916 79.6319 143.436C76.2623 142.408 74.4056 141.175 74.4056 139.873C74.4056 139.667 74.4744 139.461 74.5431 139.256H74.2681V118.285H155V139.119Z" fill="#EDC36D"/>
<path d="M155 118.148C155 122.192 136.914 125.413 114.634 125.413C92.3537 125.413 74.2681 122.123 74.2681 118.148C74.2681 114.105 92.3537 110.884 114.634 110.884C136.914 110.815 155 114.105 155 118.148Z" fill="#E4A740"/>
<path d="M84.9269 118.148V144.738C82.864 144.327 81.0073 143.847 79.4944 143.368V118.148H84.9269V118.148Z" fill="#E4A740"/>
<path d="M97.5112 118.148V146.383C95.5857 146.246 93.7978 146.041 92.0786 145.835V118.217H97.5112V118.148Z" fill="#E4A740"/>
<path d="M111.471 118.148V147C109.614 147 107.757 146.931 106.038 146.863V118.148H111.471Z" fill="#E4A740"/>
<path d="M125.431 118.148V146.794C123.643 146.863 121.855 146.931 119.929 147V118.148H125.431Z" fill="#E4A740"/>
<path d="M139.39 118.148V145.492C137.671 145.766 135.883 145.972 133.958 146.178V118.148H139.39Z" fill="#E4A740"/>
<path d="M151.974 118.148V142.545C150.599 143.162 148.742 143.71 146.542 144.259V118.148H151.974Z" fill="#E4A740"/>
<path d="M116.353 111.158C98.8176 111.158 84.5829 98.8224 84.5829 83.1972H94.6916C94.6916 93.2714 104.388 101.084 116.353 101.084C128.319 101.084 138.015 92.8602 138.015 82.786C138.015 70.9986 129.281 68.2574 114.978 64.6937C109.82 63.3916 104.456 62.0895 99.8491 59.9651C90.5656 55.5791 84.5142 46.2588 84.5142 36.1846C84.5142 20.5595 98.7489 7.81262 116.284 7.81262C133.82 7.81262 148.055 20.9707 148.055 36.5958H137.946C137.946 26.5217 128.25 17.8867 116.284 17.8867C104.319 17.8867 94.6229 26.1105 94.6229 36.1161C94.6229 42.284 98.3363 48.0406 104.181 50.7818C107.826 52.4951 112.502 53.6602 117.385 54.8937C130.313 58.1147 148.123 62.5007 148.123 82.786C148.123 98.4798 133.889 111.158 116.353 111.158Z" fill="#639779"/>
<path d="M121.373 0H111.264V119.999H121.373V0Z" fill="#639779"/>
<path d="M143.103 83.3343C143.103 97.4518 131.482 109.171 116.353 111.295C114.703 111.501 112.984 111.638 111.333 111.638C109.614 111.638 107.895 111.501 106.244 111.295C105.007 111.09 103.7 110.884 102.531 110.541C102.118 110.404 101.637 110.336 101.224 110.199C88.6402 106.429 79.563 95.807 79.563 83.3343H89.6717C89.6717 90.3245 94.3478 96.4238 101.224 99.5077C102.187 99.9189 103.219 100.33 104.319 100.604C105.007 100.81 105.626 100.947 106.313 101.084C107.964 101.427 109.614 101.564 111.402 101.564C113.121 101.564 114.84 101.358 116.422 101.084C125.912 99.1651 133.063 91.9008 133.063 83.3343C133.063 73.3973 126.874 69.9022 116.422 66.8868C114.84 66.407 113.121 65.9959 111.402 65.5161C110.921 65.3791 110.508 65.3105 110.027 65.1735C108.789 64.8994 107.551 64.5567 106.313 64.214C104.594 63.8028 102.944 63.3231 101.293 62.7749C99.0927 62.0896 96.961 61.2672 94.9667 60.3763C85.6832 55.9903 79.6318 46.67 79.6318 36.5959C79.6318 24.1231 88.709 13.5007 101.293 9.73152C102.944 9.2518 104.594 8.84061 106.313 8.63502C107.964 8.36089 109.683 8.29236 111.402 8.29236C112.709 8.29236 113.946 8.36089 115.184 8.49795C115.597 8.56648 116.009 8.56648 116.422 8.63502C131.551 10.828 143.172 22.5469 143.172 36.5959H133.063C133.063 36.3217 133.063 35.9791 133.063 35.7049C132.582 27.5497 125.637 20.6966 116.491 18.8462C115.459 18.6406 114.428 18.5035 113.396 18.435C112.777 18.3665 112.09 18.3665 111.402 18.3665C109.683 18.3665 107.964 18.5035 106.313 18.8462C104.525 19.1889 102.806 19.7371 101.293 20.491C94.4166 23.5749 89.7405 29.6742 89.7405 36.6644C89.7405 42.8322 93.4538 48.5889 99.299 51.3301C99.9179 51.6043 100.606 51.9469 101.293 52.1525C102.875 52.7693 104.525 53.3175 106.313 53.7973C107.964 54.277 109.614 54.6882 111.402 55.0994C111.746 55.1679 112.09 55.305 112.502 55.3735C113.809 55.7161 115.115 55.9903 116.491 56.4015C128.662 59.691 143.103 65.0364 143.103 83.3343Z" fill="#75B38F"/>
<path d="M116.353 0.479736H106.244V120.478H116.353V0.479736Z" fill="#75B38F"/>
</g>
<defs>
<clipPath id="clip0_3_10391">
<rect width="155" height="147" fill="white"/>
</clipPath>
</defs>
</svg>
