<svg width="185" height="165" viewBox="0 0 185 165" fill="none" xmlns="http://www.w3.org/2000/svg">
<g clip-path="url(#clip0_3_10271)">
<path d="M102.35 61.5573C102.35 80.1131 87.3441 95.2042 68.7209 95.2042C50.1748 95.2042 35.0916 80.1901 35.0916 61.5573C35.0916 43.0014 50.0978 27.9873 68.7209 27.9873C87.2671 27.9873 102.35 43.0014 102.35 61.5573Z" fill="#DE9961"/>
<path d="M104.659 59.4014C104.659 77.9572 89.6526 93.0483 71.0295 93.0483C52.4064 93.0483 37.4001 78.0342 37.4001 59.4014C37.4001 40.8455 52.4064 25.8314 71.0295 25.8314C89.6526 25.8314 104.659 40.8455 104.659 59.4014Z" fill="#EDC36D"/>
<path d="M71.1066 86.3497C85.982 86.3497 98.0409 74.2845 98.0409 59.4014C98.0409 44.5182 85.982 32.453 71.1066 32.453C56.2313 32.453 44.1724 44.5182 44.1724 59.4014C44.1724 74.2845 56.2313 86.3497 71.1066 86.3497Z" fill="#F8E4B0"/>
<path d="M94.7319 59.4014C94.7319 72.4906 84.1121 83.0389 71.1067 83.0389C58.0243 83.0389 47.4814 72.4136 47.4814 59.4014C47.4814 46.3122 58.0243 35.7638 71.1067 35.7638C84.1121 35.7638 94.7319 46.3122 94.7319 59.4014Z" fill="#F3D171"/>
<path d="M63.1033 66.1769C63.1033 70.0267 66.6432 73.1065 71.0296 73.1065C75.4161 73.1065 78.956 70.0267 78.956 66.1769C78.956 59.4013 71.1836 60.0943 66.7202 58.0154C64.6424 56.9374 63.1033 54.7046 63.1033 52.3177C63.1033 48.468 66.6432 45.3112 71.0296 45.3112C75.4161 45.3112 78.956 48.468 78.956 52.3177" stroke="white" stroke-width="3.9124" stroke-miterlimit="10"/>
<path d="M71.1067 41.4614V77.3412" stroke="white" stroke-width="3.9124" stroke-miterlimit="10"/>
<path d="M165.607 119.766C165.607 141.401 148.062 158.956 126.36 158.956C104.736 158.956 87.1902 141.401 87.1902 119.766C87.1902 98.13 104.736 80.5751 126.36 80.5751C148.062 80.5751 165.607 98.13 165.607 119.766Z" fill="#DE9961"/>
<path d="M168.301 117.225C168.301 138.86 150.755 156.492 129.131 156.492C107.506 156.492 89.8835 138.937 89.8835 117.225C89.8835 95.5891 107.429 78.0342 129.131 78.0342C150.755 78.0342 168.301 95.5891 168.301 117.225Z" fill="#EDC36D"/>
<path d="M160.605 117.225C160.605 134.626 146.522 148.716 129.131 148.716C111.739 148.716 97.656 134.626 97.656 117.225C97.656 99.8239 111.739 85.7338 129.131 85.7338C146.522 85.7338 160.605 99.8239 160.605 117.225Z" fill="#F8E4B0"/>
<path d="M156.681 117.225C156.681 132.47 144.291 144.789 129.054 144.789C113.817 144.789 101.427 132.47 101.427 117.225C101.427 101.98 113.817 89.5835 129.054 89.5835C144.368 89.5835 156.681 101.98 156.681 117.225Z" fill="#F3D171"/>
<path d="M119.819 125.155C119.819 129.621 123.975 133.317 129.131 133.317C134.287 133.317 138.442 129.698 138.442 125.155C138.442 117.302 129.362 118.072 124.206 115.608C121.589 114.376 119.896 111.758 119.896 108.909C119.896 104.444 124.052 100.748 129.208 100.748C134.364 100.748 138.519 104.367 138.519 108.909" stroke="white" stroke-width="4.5666" stroke-miterlimit="10"/>
<path d="M129.131 96.2821V138.168" stroke="white" stroke-width="4.5666" stroke-miterlimit="10"/>
<path d="M85.574 5.04267C124.359 -1.50193 161.144 24.5995 167.685 63.4051" stroke="#C93D5C" stroke-width="9.2163" stroke-miterlimit="10"/>
<path d="M155.911 65.3299L179.459 61.3262L170.301 78.8811L155.911 65.3299Z" fill="#C93D5C" stroke="#C93D5C" stroke-width="7.9145" stroke-miterlimit="10"/>
<path d="M91.6533 160.958C52.3293 162.344 19.3925 131.546 18.0073 92.2783" stroke="#C93D5C" stroke-width="9.2163" stroke-miterlimit="10"/>
<path d="M29.8585 91.8934L6.00244 92.7403L17.3918 76.5713L29.8585 91.8934Z" fill="#C93D5C" stroke="#C93D5C" stroke-width="7.9145" stroke-miterlimit="10"/>
</g>
<defs>
<clipPath id="clip0_3_10271">
<rect width="185" height="164" fill="white" transform="translate(0 0.5)"/>
</clipPath>
</defs>
</svg>
