<svg width="422" height="328" viewBox="0 0 422 328" fill="none" xmlns="http://www.w3.org/2000/svg">
<g clip-path="url(#clip0_97_27853)">
<path opacity="0.3" d="M0 243.724H202.934C202.934 243.724 186.101 223.647 158.981 223.647C158.981 223.647 155.941 185.828 121.573 185.828C102.636 185.828 95.8559 195.166 95.8559 195.166C95.8559 195.166 89.5435 170.42 59.6177 173.221C31.5623 176.023 22.6781 199.368 22.2105 217.577C22.2105 217.811 0 222.947 0 243.724ZM399.088 188.863C399.088 188.863 389.502 172.054 367.058 172.988C367.058 172.988 364.019 149.176 338.301 149.176C316.558 149.176 308.843 167.852 308.843 167.852C308.843 167.852 279.853 161.549 276.346 188.629H399.088V188.863ZM239.64 328C239.64 328 246.888 315.394 263.721 316.094C263.721 316.094 266.059 298.118 285.464 298.118C301.829 298.118 307.674 312.359 307.674 312.359C307.674 312.359 329.651 307.69 332.223 328H239.64Z" fill="#21BCC2"/>
<path d="M194.519 154.312H83.2324V77.0393H101.702V63.0322C101.702 42.4884 118.302 25.9133 138.876 25.9133C159.45 25.9133 176.049 42.4884 176.049 63.0322V77.0393H194.519V154.312ZM85.5704 151.977H192.181V79.3738H173.711V63.0322C173.711 43.8891 158.047 28.2478 138.876 28.2478C119.704 28.2478 104.04 43.8891 104.04 63.0322V79.3738H85.5704V151.977ZM160.385 79.3738H117.133V63.0322C117.133 51.1261 126.952 41.3212 138.876 41.3212C150.799 41.3212 160.619 51.1261 160.619 63.0322L160.385 79.3738ZM119.471 77.0393H158.047V63.0322C158.047 52.2934 149.396 43.6557 138.642 43.6557C127.887 43.6557 119.237 52.2934 119.237 63.0322V77.0393H119.471Z" fill="#21BCC2"/>
<path d="M315.157 183.96V120.695C303.701 111.59 256.942 104.353 232.159 104.353C207.143 104.353 160.618 111.823 149.162 120.695V183.96C149.162 218.278 148.928 270.337 232.159 295.317C315.39 270.337 315.39 218.511 315.157 183.96ZM242.68 202.403L246.655 229.016H217.664L221.639 202.403C213.69 198.434 208.312 190.497 208.312 181.159C208.312 167.852 219.067 157.347 232.159 157.347C245.252 157.347 256.006 168.085 256.006 181.159C256.006 190.497 250.629 198.434 242.68 202.403Z" fill="#21BCC2"/>
<path d="M204.104 274.073C204.104 272.905 205.04 271.738 206.442 271.738C207.611 271.738 208.78 272.905 208.78 274.073C208.78 275.473 207.611 276.407 206.442 276.407C205.273 276.407 204.104 275.473 204.104 274.073ZM190.077 274.073C190.077 272.905 191.012 271.738 192.415 271.738C193.584 271.738 194.753 272.905 194.753 274.073C194.753 275.473 193.584 276.407 192.415 276.407C191.246 276.407 190.077 275.473 190.077 274.073ZM176.049 274.073C176.049 272.905 176.984 271.738 178.387 271.738C179.556 271.738 180.725 272.905 180.725 274.073C180.725 275.473 179.556 276.407 178.387 276.407C177.218 276.407 176.049 275.473 176.049 274.073ZM162.021 274.073C162.021 272.905 162.956 271.738 164.359 271.738C165.528 271.738 166.697 272.905 166.697 274.073C166.697 275.473 165.528 276.407 164.359 276.407C163.19 276.407 162.021 275.473 162.021 274.073ZM147.994 274.073C147.994 272.905 148.929 271.738 150.331 271.738C151.5 271.738 152.669 272.905 152.669 274.073C152.669 275.473 151.5 276.407 150.331 276.407C149.162 276.407 147.994 275.473 147.994 274.073ZM133.966 274.073C133.966 272.905 134.901 271.738 136.304 271.738C137.473 271.738 138.642 272.905 138.642 274.073C138.642 275.473 137.473 276.407 136.304 276.407C135.135 276.407 133.966 275.473 133.966 274.073ZM119.938 274.073C119.938 272.905 120.873 271.738 122.276 271.738C123.445 271.738 124.614 272.905 124.614 274.073C124.614 275.473 123.445 276.407 122.276 276.407C121.107 276.407 119.938 275.473 119.938 274.073ZM105.91 274.073C105.91 272.905 106.846 271.738 108.248 271.738C109.417 271.738 110.586 272.905 110.586 274.073C110.586 275.473 109.417 276.407 108.248 276.407C107.079 276.407 105.91 275.473 105.91 274.073ZM91.8827 274.073C91.8827 272.905 92.8179 271.738 94.2206 271.738C95.3896 271.738 96.5586 272.905 96.5586 274.073C96.5586 275.473 95.3896 276.407 94.2206 276.407C93.0517 276.407 91.8827 275.473 91.8827 274.073ZM363.553 237.888C363.553 236.487 364.722 235.553 365.891 235.553C367.059 235.553 368.228 236.487 368.228 237.888C368.228 239.055 367.059 240.222 365.891 240.222C364.722 240.222 363.553 239.055 363.553 237.888ZM349.525 237.888C349.525 236.487 350.694 235.553 351.863 235.553C353.032 235.553 354.201 236.487 354.201 237.888C354.201 239.055 353.032 240.222 351.863 240.222C350.694 240.222 349.525 239.055 349.525 237.888ZM335.497 237.888C335.497 236.487 336.666 235.553 337.835 235.553C339.004 235.553 340.173 236.487 340.173 237.888C340.173 239.055 339.004 240.222 337.835 240.222C336.666 240.222 335.497 239.055 335.497 237.888ZM321.469 237.888C321.469 236.487 322.638 235.553 323.807 235.553C324.976 235.553 326.145 236.487 326.145 237.888C326.145 239.055 324.976 240.222 323.807 240.222C322.638 240.222 321.469 239.055 321.469 237.888ZM307.442 237.888C307.442 236.487 308.611 235.553 309.78 235.553C310.949 235.553 312.118 236.487 312.118 237.888C312.118 239.055 310.949 240.222 309.78 240.222C308.611 240.222 307.442 239.055 307.442 237.888ZM293.414 237.888C293.414 236.487 294.583 235.553 295.752 235.553C296.921 235.553 298.09 236.487 298.09 237.888C298.09 239.055 296.921 240.222 295.752 240.222C294.583 240.222 293.414 239.055 293.414 237.888ZM279.386 237.888C279.386 236.487 280.555 235.553 281.724 235.553C282.893 235.553 284.062 236.487 284.062 237.888C284.062 239.055 282.893 240.222 281.724 240.222C280.555 240.222 279.386 239.055 279.386 237.888ZM265.359 237.888C265.359 236.487 266.528 235.553 267.697 235.553C268.866 235.553 270.035 236.487 270.035 237.888C270.035 239.055 268.866 240.222 267.697 240.222C266.528 240.222 265.359 239.055 265.359 237.888ZM251.331 237.888C251.331 236.487 252.5 235.553 253.669 235.553C254.838 235.553 256.007 236.487 256.007 237.888C256.007 239.055 254.838 240.222 253.669 240.222C252.5 240.222 251.331 239.055 251.331 237.888ZM269.099 165.051C269.099 163.883 270.035 162.716 271.437 162.716C272.84 162.716 273.775 163.883 273.775 165.051C273.775 166.218 272.84 167.385 271.437 167.385C270.268 167.385 269.099 166.451 269.099 165.051ZM269.099 151.043C269.099 149.876 270.035 148.709 271.437 148.709C272.84 148.709 273.775 149.876 273.775 151.043C273.775 152.211 272.84 153.378 271.437 153.378C270.268 153.378 269.099 152.444 269.099 151.043ZM269.099 137.036C269.099 135.869 270.035 134.702 271.437 134.702C272.84 134.702 273.775 135.869 273.775 137.036C273.775 138.204 272.84 139.371 271.437 139.371C270.268 139.371 269.099 138.437 269.099 137.036ZM269.099 123.029C269.099 121.862 270.035 120.695 271.437 120.695C272.84 120.695 273.775 121.862 273.775 123.029C273.775 124.196 272.84 125.364 271.437 125.364C270.268 125.364 269.099 124.43 269.099 123.029ZM269.099 109.022C269.099 107.855 270.035 106.688 271.437 106.688C272.84 106.688 273.775 107.855 273.775 109.022C273.775 110.189 272.84 111.357 271.437 111.357C270.268 111.357 269.099 110.423 269.099 109.022ZM269.099 95.015C269.099 93.8477 270.035 92.6804 271.437 92.6804C272.84 92.6804 273.775 93.8477 273.775 95.015C273.775 96.1822 272.84 97.3495 271.437 97.3495C270.268 97.3495 269.099 96.4157 269.099 95.015ZM269.099 81.0078C269.099 79.8406 270.035 78.6733 271.437 78.6733C272.84 78.6733 273.775 79.8406 273.775 81.0078C273.775 82.1751 272.84 83.3424 271.437 83.3424C270.268 83.3424 269.099 82.4085 269.099 81.0078ZM269.099 67.0007C269.099 65.8335 270.035 64.6662 271.437 64.6662C272.84 64.6662 273.775 65.8335 273.775 67.0007C273.775 68.168 272.84 69.3352 271.437 69.3352C270.268 69.3352 269.099 68.4014 269.099 67.0007ZM269.099 52.9936C269.099 51.8263 270.035 50.6591 271.437 50.6591C272.84 50.6591 273.775 51.8263 273.775 52.9936C273.775 54.1609 272.84 55.3281 271.437 55.3281C270.268 55.3281 269.099 54.3943 269.099 52.9936ZM416.156 256.797H389.971C386.698 256.797 384.127 254.229 384.127 250.961V224.581C384.127 221.312 386.698 218.744 389.971 218.744H416.156C419.43 218.744 422.001 221.312 422.001 224.581V250.961C422.001 254.229 419.43 256.797 416.156 256.797ZM389.971 221.079C388.101 221.079 386.464 222.713 386.464 224.581V250.961C386.464 252.828 388.101 254.463 389.971 254.463H416.156C418.027 254.463 419.663 252.828 419.663 250.961V224.581C419.663 222.713 418.027 221.079 416.156 221.079H389.971ZM75.0494 293.216H48.8644C45.5913 293.216 43.0195 290.648 43.0195 287.379V260.999C43.0195 257.731 45.5913 255.163 48.8644 255.163H75.0494C78.3226 255.163 80.8943 257.731 80.8943 260.999V287.379C80.8943 290.648 78.3226 293.216 75.0494 293.216ZM48.8644 257.498C46.994 257.498 45.3575 259.132 45.3575 260.999V287.379C45.3575 289.247 46.994 290.881 48.8644 290.881H75.0494C76.9198 290.881 78.5564 289.247 78.5564 287.379V260.999C78.5564 259.132 76.9198 257.498 75.0494 257.498H48.8644ZM284.764 38.0527H258.579C255.305 38.0527 252.734 35.4847 252.734 32.2164V5.8363C252.734 2.56797 255.305 0 258.579 0H284.764C288.037 0 290.608 2.56797 290.608 5.8363V32.2164C290.608 35.4847 287.803 38.0527 284.764 38.0527ZM258.345 2.33452C256.474 2.33452 254.838 3.96868 254.838 5.8363V32.2164C254.838 34.084 256.474 35.7182 258.345 35.7182H284.53C286.4 35.7182 288.037 34.084 288.037 32.2164V5.8363C288.037 3.96868 286.4 2.33452 284.53 2.33452H258.345Z" fill="#21BCC2"/>
</g>
<defs>
<clipPath id="clip0_97_27853">
<rect width="422" height="328" fill="white"/>
</clipPath>
</defs>
</svg>
