<svg width="40" height="40" viewBox="0 0 40 40" fill="none" xmlns="http://www.w3.org/2000/svg">
<circle cx="20" cy="20" r="20" fill="#F3F5F7"/>
<circle cx="20" cy="20" r="20" fill="#24CFCF"/>
<mask id="mask0_72_1201" style="mask-type:alpha" maskUnits="userSpaceOnUse" x="0" y="0" width="40" height="40">
<circle cx="20" cy="20" r="20" fill="#F3F5F7"/>
</mask>
<g mask="url(#mask0_72_1201)">
<g filter="url(#filter0_d_72_1201)">
<path d="M12.2855 26.2856C10.3427 25.9428 9.95219 23.5714 9.99981 22.4285C10.0474 21.2856 11.9998 14.2856 11.9998 14.2856H20.1427H28.2856C28.2856 14.2856 30.2379 21.2856 30.2856 22.4285C30.3332 23.5714 29.9427 25.9428 27.9998 26.2856C27.7141 28.0952 26.2855 30.5714 22.4284 31.7142V33.7142C24.2855 34.0952 28.1141 35.2285 28.5713 36.7142C29.0284 38.1999 29.4284 39.9047 29.5713 40.5714H20.1427H10.7141C10.857 39.9047 11.257 38.1999 11.7141 36.7142C12.1713 35.2285 15.9998 34.0952 17.857 33.7142V31.7142C13.9998 30.5714 12.5712 28.0952 12.2855 26.2856Z" fill="#F3F5F7"/>
<path fill-rule="evenodd" clip-rule="evenodd" d="M11.6836 13.8691H28.6021L28.687 14.1739L28.7713 14.4779C28.8249 14.6719 28.9015 14.9503 28.9935 15.2878C29.1775 15.9628 29.4235 16.8751 29.671 17.8234C29.9184 18.7713 30.168 19.7576 30.359 20.5799C30.5455 21.3832 30.6881 22.078 30.702 22.4113C30.7277 23.0281 30.6372 23.972 30.2721 24.8217C29.9355 25.6052 29.3424 26.352 28.3599 26.6304C27.9616 28.511 26.4509 30.8541 22.8452 32.0214V33.3779C23.7783 33.5877 25.0489 33.9445 26.1845 34.4152C26.8225 34.6796 27.4335 34.9864 27.9211 35.3327C28.3979 35.6713 28.8146 36.0879 28.9696 36.5918C29.4316 38.0931 29.8345 39.8106 29.9788 40.4842L30.0868 40.9882H10.1989L10.3068 40.4842C10.4512 39.8106 10.8541 38.0931 11.316 36.5918C11.4711 36.0879 11.8877 35.6713 12.3645 35.3327C12.8522 34.9864 13.4631 34.6796 14.1011 34.4152C15.2368 33.9445 16.5074 33.5877 17.4405 33.3779V32.0214C13.8348 30.8541 12.324 28.511 11.9258 26.6304C10.9433 26.352 10.3502 25.6052 10.0136 24.8217C9.64847 23.972 9.55796 23.0281 9.58366 22.4113C9.59755 22.078 9.74015 21.3832 9.92669 20.5799C10.1177 19.7576 10.3673 18.7713 10.6147 17.8234C10.8622 16.8751 11.1082 15.9628 11.2922 15.2878C11.3842 14.9503 11.4608 14.6719 11.5144 14.4779L11.5766 14.2532L11.5985 14.1742L11.6836 13.8691ZM12.3169 14.7025C12.2635 14.8956 12.1875 15.172 12.0962 15.507C11.9126 16.1802 11.6675 17.0894 11.421 18.0339C11.1743 18.9789 10.9269 19.9569 10.7384 20.7685C10.5455 21.5992 10.4262 22.2079 10.4163 22.446C10.3943 22.9721 10.4753 23.7853 10.7792 24.4927C11.08 25.1927 11.5715 25.7367 12.3581 25.8755L12.6509 25.9271L12.6972 26.2208C12.9574 27.8683 14.2692 30.2167 17.9755 31.3149L18.2738 31.4033V34.0543L17.9408 34.1225C17.0302 34.3093 15.6356 34.6812 14.4202 35.185C13.8118 35.4372 13.2638 35.7162 12.847 36.0121C12.4194 36.3158 12.186 36.5979 12.1125 36.8369C11.7498 38.0158 11.4226 39.3373 11.2343 40.1549H29.0514C28.8631 39.3373 28.5359 38.0158 28.1732 36.8369C28.0996 36.5979 27.8663 36.3158 27.4386 36.0121C27.0218 35.7162 26.4739 35.4372 25.8654 35.185C24.65 34.6812 23.2555 34.3093 22.3448 34.1225L22.0119 34.0543V31.4033L22.3102 31.3149C26.0165 30.2167 27.3283 27.8683 27.5884 26.2208L27.6348 25.9271L27.9276 25.8755C28.7142 25.7367 29.2057 25.1927 29.5064 24.4927C29.8104 23.7853 29.8913 22.9721 29.8694 22.446C29.8595 22.2079 29.7402 21.5992 29.5472 20.7685C29.3588 19.9569 29.1113 18.9789 28.8647 18.0339C28.6182 17.0894 28.373 16.1802 28.1895 15.507C28.0982 15.172 28.0221 14.8956 27.9688 14.7025H12.3169Z" fill="white"/>
<path d="M22.1918 15.8815C25.5373 15.433 27.4357 16.3695 27.7241 16.8367C27.7241 16.8367 28.7273 17.8606 28.7273 20.3662V20.4056C28.7272 22.5354 28.7272 23.3399 29.1572 23.7113C31.3202 21.3288 33.8721 10.5559 24.6432 7.47274C14.4914 4.5577 11.0882 9.62164 10.6556 12.518C7.94651 17.1292 9.369 21.5157 11.0994 23.7113C11.5294 23.3399 11.5294 22.5354 11.5294 20.4056V20.3662C11.5294 17.8606 12.9148 16.1151 13.3954 15.3209C14.9336 15.6946 18.8463 16.33 22.1918 15.8815Z" fill="white"/>
</g>
</g>
<defs>
<filter id="filter0_d_72_1201" x="-7.42258" y="-6.80416" width="55.2578" height="67.4228" filterUnits="userSpaceOnUse" color-interpolation-filters="sRGB">
<feFlood flood-opacity="0" result="BackgroundImageFix"/>
<feColorMatrix in="SourceAlpha" type="matrix" values="0 0 0 0 0 0 0 0 0 0 0 0 0 0 0 0 0 0 127 0" result="hardAlpha"/>
<feOffset dy="3.09278"/>
<feGaussianBlur stdDeviation="8.24742"/>
<feColorMatrix type="matrix" values="0 0 0 0 0 0 0 0 0 0.117647 0 0 0 0 0.313726 0 0 0 0.2 0"/>
<feBlend mode="normal" in2="BackgroundImageFix" result="effect1_dropShadow_72_1201"/>
<feBlend mode="normal" in="SourceGraphic" in2="effect1_dropShadow_72_1201" result="shape"/>
</filter>
</defs>
</svg>
