<svg width="24" height="24" viewBox="0 0 24 24" fill="none" xmlns="http://www.w3.org/2000/svg">
<path d="M9.5 9C10.3284 9 11 8.32843 11 7.5C11 6.67157 10.3284 6 9.5 6C8.67157 6 8 6.67157 8 7.5C8 8.32843 8.67157 9 9.5 9Z" fill="white"/>
<path d="M16 7.5C16 8.32843 15.3284 9 14.5 9C13.6716 9 13 8.32843 13 7.5C13 6.67157 13.6716 6 14.5 6C15.3284 6 16 6.67157 16 7.5Z" fill="white"/>
<path d="M9.28091 11.3753C8.9359 10.944 8.3066 10.8741 7.87534 11.2191C7.44408 11.5641 7.37416 12.1934 7.71917 12.6247C8.87399 14.0682 10.3944 14.875 12 14.875C13.6057 14.875 15.1261 14.0682 16.2809 12.6247C16.6259 12.1934 16.556 11.5641 16.1247 11.2191C15.6935 10.8741 15.0642 10.944 14.7192 11.3753C13.874 12.4318 12.8944 12.875 12 12.875C11.1057 12.875 10.1261 12.4318 9.28091 11.3753Z" fill="white"/>
<path fill-rule="evenodd" clip-rule="evenodd" d="M9.88664 21.2497C10.7252 22.0883 11 22.625 11 23C11 23.5523 11.4477 24 12 24C12.5523 24 13 23.5523 13 23C13 22.625 13.2748 22.0883 14.1134 21.2497C14.6138 20.7493 15.1888 20.2562 15.8312 19.7055C16.2491 19.3471 16.6956 18.9643 17.1685 18.5391C19.4412 16.496 22 13.7369 22 9.72727C22 4.32627 17.4936 0 12 0C6.50638 0 2 4.32627 2 9.72727C2 13.7369 4.55881 16.496 6.83145 18.5391C7.30441 18.9643 7.75087 19.3471 8.16884 19.7055C8.81112 20.2562 9.3862 20.7493 9.88664 21.2497ZM4 9.72727C4 5.4884 7.55249 2 12 2C16.4475 2 20 5.4884 20 9.72727C20 12.8085 18.0588 15.0494 15.8315 17.0518C15.4435 17.4005 15.0323 17.7539 14.6246 18.1044C13.9285 18.7026 13.2423 19.2923 12.6991 19.8355C12.4598 20.0748 12.2204 20.3304 12 20.6024C11.7796 20.3304 11.5402 20.0748 11.3009 19.8355C10.7577 19.2923 10.0716 18.7026 9.37542 18.1044C8.96767 17.7539 8.55648 17.4005 8.16855 17.0518C5.94119 15.0494 4 12.8085 4 9.72727Z" fill="white"/>
</svg>
