<svg width="17" height="14" viewBox="0 0 17 14" fill="none" xmlns="http://www.w3.org/2000/svg">
<path d="M16.5 6.75H7.5C7.21875 6.75 7 7 7 7.25V7.75C7 8.03125 7.21875 8.25 7.5 8.25H16.5C16.75 8.25 17 8.03125 17 7.75V7.25C17 7 16.75 6.75 16.5 6.75ZM16.5 11.75H7.5C7.21875 11.75 7 12 7 12.25V12.75C7 13.0312 7.21875 13.25 7.5 13.25H16.5C16.75 13.25 17 13.0312 17 12.75V12.25C17 12 16.75 11.75 16.5 11.75ZM16.5 1.75H7.5C7.21875 1.75 7 2 7 2.25V2.75C7 3.03125 7.21875 3.25 7.5 3.25H16.5C16.75 3.25 17 3.03125 17 2.75V2.25C17 2 16.75 1.75 16.5 1.75ZM3 11C2.1875 11 1.5 11.6875 1.5 12.5C1.5 13.3438 2.1875 14 3 14C3.8125 14 4.5 13.3438 4.5 12.5C4.5 11.6875 3.8125 11 3 11ZM5.34375 5.625C5.28125 5.5625 5.15625 5.5 5.09375 5.5C5 5.5 4.875 5.5625 4.8125 5.625L2.8125 7.59375L2.125 6.90625C2.0625 6.84375 1.9375 6.8125 1.84375 6.8125C1.75 6.8125 1.65625 6.84375 1.59375 6.90625L1.09375 7.40625C1.03125 7.46875 0.96875 7.59375 0.96875 7.65625C0.96875 7.75 1.03125 7.875 1.09375 7.9375L2.59375 9.40625C2.65625 9.46875 2.75 9.5 2.84375 9.5C2.9375 9.5 3.0625 9.46875 3.125 9.40625L3.625 8.90625L5.875 6.6875C5.9375 6.625 5.96875 6.5 5.96875 6.40625C5.96875 6.34375 5.9375 6.21875 5.875 6.15625L5.34375 5.625ZM5.34375 0.625C5.28125 0.5625 5.15625 0.5 5.09375 0.5C5 0.5 4.875 0.5625 4.8125 0.625L2.8125 2.59375L2.125 1.90625C2.0625 1.84375 1.9375 1.8125 1.84375 1.8125C1.75 1.8125 1.65625 1.84375 1.59375 1.90625L1.09375 2.40625C1.03125 2.46875 0.96875 2.5625 0.96875 2.65625C0.96875 2.75 1.03125 2.875 1.09375 2.9375L2.59375 4.40625C2.65625 4.46875 2.78125 4.5 2.84375 4.5C2.9375 4.5 3.0625 4.46875 3.125 4.40625L3.625 3.90625L5.875 1.65625C5.9375 1.59375 6 1.5 6 1.40625C6 1.3125 5.9375 1.1875 5.875 1.125L5.34375 0.625Z" fill="#21B2BB"/>
</svg>
