<svg width="22" height="16" viewBox="0 0 22 16" fill="none" xmlns="http://www.w3.org/2000/svg">
<path d="M12.0003 4.75192L12.0004 0.583136C12.0004 0.306994 12.2243 0.0831409 12.5004 0.0831467C12.6191 0.0831492 12.7339 0.125342 12.8243 0.202184L21.5521 7.62116C21.7625 7.8 21.7881 8.11555 21.6092 8.32595C21.5917 8.34651 21.5726 8.36562 21.5521 8.3831L12.8239 15.8017C12.6135 15.9805 12.298 15.9549 12.1191 15.7445C12.0423 15.6541 12.0001 15.5393 12.0001 15.4207L12.0002 11.2519C6.65407 11.2518 2.86095 12.3967 0.620832 14.6865C0.524293 14.7853 0.365984 14.787 0.26727 14.6905C0.204837 14.6294 0.178798 14.5401 0.198581 14.4551C1.70292 7.98617 5.63684 4.75178 12.0003 4.75192ZM12.0003 4.75192L12.0004 0.583136C12.0004 0.306994 12.2243 0.0831409 12.5004 0.0831467C12.6191 0.0831492 12.7339 0.125342 12.8243 0.202184L21.5521 7.62116C21.7625 7.8 21.7881 8.11555 21.6092 8.32595C21.5917 8.34651 21.5726 8.36562 21.5521 8.3831L12.8239 15.8017C12.6135 15.9805 12.298 15.9549 12.1191 15.7445C12.0423 15.6541 12.0001 15.5393 12.0001 15.4207L12.0002 11.2519C6.65407 11.2518 2.86095 12.3967 0.620832 14.6865C0.524293 14.7853 0.365984 14.787 0.26727 14.6905C0.204837 14.6294 0.178798 14.5401 0.198581 14.4551C1.70292 7.98617 5.63684 4.75178 12.0003 4.75192Z" fill="#309DCB"/>
</svg>
