<svg width="30" height="37" viewBox="0 0 30 37" fill="none" xmlns="http://www.w3.org/2000/svg">
<path d="M15.0005 0.867188C19.8696 0.867188 23.8168 4.81439 23.8168 9.68351L23.8199 12.6557C25.0583 12.7324 25.8484 12.9491 26.6629 13.3847C27.6373 13.9059 28.4108 14.6794 28.9319 15.6538C29.498 16.7122 29.6944 17.7293 29.6944 19.7427V29.0121C29.6944 31.0254 29.498 32.0426 28.9319 33.1009C28.4108 34.0754 27.6373 34.8489 26.6629 35.37C25.6045 35.9361 24.5873 36.1325 22.574 36.1325H7.42704C5.4137 36.1325 4.39656 35.9361 3.33818 35.37C2.36375 34.8489 1.59022 34.0754 1.06909 33.1009C0.50306 32.0426 0.306641 31.0254 0.306641 29.0121V19.7427C0.306641 17.7293 0.50306 16.7122 1.06909 15.6538C1.59022 14.6794 2.36375 13.9059 3.33818 13.3847C4.15299 12.949 4.94335 12.7323 6.18265 12.6556L6.18419 9.68351C6.18419 4.81439 10.1314 0.867188 15.0005 0.867188ZM22.574 15.5611H7.42704C5.85735 15.5611 5.29853 15.669 4.72411 15.9762C4.26181 16.2234 3.90778 16.5775 3.66054 17.0398C3.35333 17.6142 3.24542 18.173 3.24542 19.7427V29.0121C3.24542 30.5818 3.35333 31.1406 3.66054 31.715C3.90778 32.1773 4.26181 32.5314 4.72411 32.7786C5.29853 33.0858 5.85735 33.1937 7.42704 33.1937H22.574C24.1437 33.1937 24.7025 33.0858 25.2769 32.7786C25.7392 32.5314 26.0933 32.1773 26.3405 31.715C26.6477 31.1406 26.7556 30.5818 26.7556 29.0121V19.7427C26.7556 18.173 26.6477 17.6142 26.3405 17.0398C26.0933 16.5775 25.7392 16.2234 25.2769 15.9762C24.7025 15.669 24.1437 15.5611 22.574 15.5611ZM15.0005 19.9692C15.812 19.9692 16.4699 20.6271 16.4699 21.4386V25.8468C16.4699 26.6583 15.812 27.3162 15.0005 27.3162C14.189 27.3162 13.5311 26.6583 13.5311 25.8468V21.4386C13.5311 20.6271 14.189 19.9692 15.0005 19.9692ZM15.0005 3.80596C11.7544 3.80596 9.12297 6.43743 9.12297 9.68351V12.6223H20.8781V9.68351C20.8781 6.43743 18.2466 3.80596 15.0005 3.80596Z" fill="#212121"/>
</svg>
