<svg width="240" height="240" viewBox="0 0 240 240" fill="none" xmlns="http://www.w3.org/2000/svg">
<path d="M204.692 54.1357C209.775 60.7959 214.078 68.0315 217.514 75.6974L120.044 148.515L79.3086 122.636V91.5024L120.044 117.381L204.692 54.1357Z" fill="#21A038"/>
<path d="M37.7204 120.438C37.7204 119.04 37.754 117.653 37.8213 116.273L13.1344 115.047C13.0504 116.835 13 118.641 13 120.463C12.9895 134.7 15.7527 148.798 21.1311 161.95C26.5095 175.102 34.3971 187.049 44.3417 197.104L61.8527 179.366C54.1977 171.639 48.125 162.455 43.9836 152.342C39.8421 142.229 37.7137 131.387 37.7204 120.438Z" fill="url(#paint0_linear_115_4257)"/>
<path d="M120.013 37.0488C121.391 37.0488 122.76 37.0999 124.122 37.168L125.357 12.1405C123.587 12.0553 121.806 12.0128 120.013 12.0128C105.959 11.9954 92.0397 14.7917 79.0549 20.2411C66.07 25.6906 54.2752 33.6858 44.3477 43.7677L61.8586 61.5144C69.483 53.7539 78.5459 47.5972 88.5262 43.3986C98.5065 39.1999 109.207 37.0419 120.013 37.0488Z" fill="url(#paint1_linear_115_4257)"/>
<path d="M120.016 203.832C118.638 203.832 117.269 203.832 115.899 203.721L114.664 228.74C116.44 228.831 118.224 228.877 120.016 228.877C134.065 228.891 147.977 226.093 160.955 220.642C173.933 215.191 185.72 207.195 195.64 197.113L178.163 179.375C170.537 187.131 161.475 193.285 151.497 197.482C141.518 201.679 130.82 203.837 120.016 203.832Z" fill="url(#paint2_linear_115_4257)"/>
<path d="M166.389 51.598L187.194 36.0569C168.178 20.4516 144.441 11.9567 119.973 12.0002V37.0447C136.542 37.0239 152.726 42.0985 166.389 51.598Z" fill="url(#paint3_linear_115_4257)"/>
<path d="M226.999 120.439C227.012 113.923 226.45 107.42 225.318 101.006L202.287 118.207C202.287 118.949 202.287 119.689 202.287 120.439C202.293 132.09 199.882 143.614 195.213 154.261C190.543 164.908 183.718 174.442 175.18 182.245L191.792 200.852C202.892 190.696 211.762 178.29 217.827 164.438C223.893 150.584 227.017 135.594 226.999 120.439Z" fill="#21A038"/>
<path d="M120.022 203.836C108.524 203.84 97.1529 201.397 86.6454 196.664C76.1386 191.932 66.7292 185.016 59.027 176.364L40.6758 193.191C50.6955 204.443 62.9368 213.434 76.6059 219.582C90.275 225.73 105.066 228.898 120.022 228.88V203.836Z" fill="url(#paint4_linear_115_4257)"/>
<path d="M64.8273 58.6292L48.2237 40.0225C37.1203 50.1763 28.2468 62.5821 22.1787 76.4351C16.1106 90.288 12.9835 105.279 13.0001 120.436H37.7205C37.7154 108.785 40.1258 97.2614 44.7953 86.614C49.465 75.9671 56.2896 66.4327 64.8273 58.6292Z" fill="url(#paint5_linear_115_4257)"/>
<defs>
<linearGradient id="paint0_linear_115_4257" x1="49.3412" y1="193.979" x2="21.6836" y2="115.088" gradientUnits="userSpaceOnUse">
<stop offset="0.14" stop-color="#F1E813"/>
<stop offset="0.3" stop-color="#E6E418"/>
<stop offset="0.58" stop-color="#C9DA26"/>
<stop offset="0.89" stop-color="#A2CC39"/>
</linearGradient>
<linearGradient id="paint1_linear_115_4257" x1="51.4058" y1="48.1959" x2="121.204" y2="21.9499" gradientUnits="userSpaceOnUse">
<stop offset="0.06" stop-color="#0FA7DF"/>
<stop offset="0.54" stop-color="#0098F8"/>
<stop offset="0.92" stop-color="#0290EA"/>
</linearGradient>
<linearGradient id="paint2_linear_115_4257" x1="113.034" y1="213.761" x2="191.8" y2="196.203" gradientUnits="userSpaceOnUse">
<stop offset="0.12" stop-color="#A2CC39"/>
<stop offset="0.28" stop-color="#86C239"/>
<stop offset="0.87" stop-color="#219F38"/>
</linearGradient>
<linearGradient id="paint3_linear_115_4257" x1="114.831" y1="20.3881" x2="182.239" y2="40.914" gradientUnits="userSpaceOnUse">
<stop offset="0.06" stop-color="#0290EA"/>
<stop offset="0.79" stop-color="#0C89CA"/>
</linearGradient>
<linearGradient id="paint4_linear_115_4257" x1="46.8769" y1="190.143" x2="120.318" y2="217.226" gradientUnits="userSpaceOnUse">
<stop offset="0.13" stop-color="#F1E813"/>
<stop offset="0.3" stop-color="#EAE616"/>
<stop offset="0.53" stop-color="#D8DF1F"/>
<stop offset="0.8" stop-color="#BAD52D"/>
<stop offset="0.98" stop-color="#A2CC39"/>
</linearGradient>
<linearGradient id="paint5_linear_115_4257" x1="22.2093" y1="123.467" x2="52.2845" y2="46.2698" gradientUnits="userSpaceOnUse">
<stop offset="0.07" stop-color="#A2CC39"/>
<stop offset="0.26" stop-color="#81C45E"/>
<stop offset="0.92" stop-color="#0FA7DF"/>
</linearGradient>
</defs>
</svg>
