<svg width="23" height="22" viewBox="0 0 23 22" fill="none" xmlns="http://www.w3.org/2000/svg">
<g clip-path="url(#clip0_67_22773)">
<path fill-rule="evenodd" clip-rule="evenodd" d="M9.78125 2.0625C9.5914 2.0625 9.4375 2.2164 9.4375 2.40625V4.125H13.5625V2.40625C13.5625 2.2164 13.4086 2.0625 13.2188 2.0625H9.78125ZM15.625 4.125V2.40625C15.625 1.07732 14.5477 0 13.2188 0H9.78125C8.45231 0 7.375 1.07732 7.375 2.40625V4.125H1.875C1.30546 4.125 0.84375 4.58671 0.84375 5.15625C0.84375 5.72579 1.30546 6.1875 1.875 6.1875H21.125C21.6945 6.1875 22.1562 5.72579 22.1562 5.15625C22.1562 4.58671 21.6945 4.125 21.125 4.125H15.625ZM3.36371 9.38714C3.30283 8.7783 3.78094 8.25 4.39281 8.25C4.91725 8.25 5.35868 8.64254 5.41996 9.16339L6.63555 19.4959C6.66517 19.7477 6.87858 19.9375 7.13212 19.9375H15.8679C16.1214 19.9375 16.3348 19.7477 16.3645 19.4959L17.58 9.16339C17.6413 8.64254 18.0827 8.25 18.6072 8.25C19.2191 8.25 19.6972 8.7783 19.6363 9.38714L18.5101 20.6493C18.4334 21.4161 17.7881 22 17.0175 22H5.98248C5.21185 22 4.56661 21.4161 4.48993 20.6493L3.36371 9.38714ZM9.09375 9.625C8.52421 9.625 8.0625 10.0867 8.0625 10.6562V15.4688C8.0625 16.0383 8.52421 16.5 9.09375 16.5C9.66329 16.5 10.125 16.0383 10.125 15.4688V10.6562C10.125 10.0867 9.66329 9.625 9.09375 9.625ZM13.9062 9.625C13.3367 9.625 12.875 10.0867 12.875 10.6562V15.4688C12.875 16.0383 13.3367 16.5 13.9062 16.5C14.4758 16.5 14.9375 16.0383 14.9375 15.4688V10.6562C14.9375 10.0867 14.4758 9.625 13.9062 9.625Z" fill="#B9C4CA"/>
</g>
<defs>
<clipPath id="clip0_67_22773">
<rect width="22" height="22" fill="white" transform="translate(0.5)"/>
</clipPath>
</defs>
</svg>
