<svg width="308" height="308" viewBox="0 0 308 308" fill="none" xmlns="http://www.w3.org/2000/svg">
<circle cx="150.5" cy="136.5" r="136.5" fill="#F5F5F5"/>
<path d="M188.227 264.056H121.197C109.7 264.056 100.295 254.688 100.295 243.238V184.251C100.295 172.8 109.7 163.432 121.197 163.432H188.228C199.724 163.432 209.13 172.8 209.13 184.251V243.238C209.13 254.687 199.723 264.056 188.227 264.056Z" fill="white"/>
<path d="M188.221 163.431C199.718 163.431 209.123 172.799 209.123 184.25V243.237C209.123 254.688 199.718 264.056 188.221 264.056H121.191C109.695 264.056 100.289 254.688 100.289 243.237V184.25C100.289 172.799 109.695 163.431 121.191 163.431H188.221ZM188.221 160.141H121.191C117.935 160.141 114.77 160.782 111.784 162.045C108.905 163.264 106.317 165.004 104.093 167.22C101.869 169.435 100.121 172.013 98.8978 174.88C97.6291 177.855 96.9854 181.007 96.9854 184.25V243.237C96.9854 246.48 97.6291 249.632 98.8978 252.607C100.121 255.474 101.868 258.052 104.093 260.267C106.317 262.482 108.906 264.223 111.784 265.441C114.77 266.705 117.935 267.346 121.191 267.346H188.222C191.478 267.346 194.643 266.705 197.63 265.441C200.509 264.223 203.096 262.483 205.32 260.267C207.544 258.052 209.292 255.474 210.516 252.607C211.784 249.632 212.428 246.48 212.428 243.237V184.25C212.428 181.007 211.784 177.855 210.516 174.88C209.292 172.012 207.545 169.435 205.32 167.22C203.096 165.005 200.508 163.264 197.63 162.045C194.643 160.782 191.477 160.141 188.221 160.141Z" fill="#00227B"/>
<path d="M207.626 227.582C197.19 228.8 186.787 229.1 186.787 229.1C186.787 229.1 181.49 202.79 180.021 182.159C178.939 166.872 179.957 154.707 186.787 158.675C189.93 160.501 193.549 163.939 197.323 168.3C211.477 184.664 227.74 214.049 228.632 220.146C229.208 224.067 218.402 226.316 207.626 227.582Z" fill="white"/>
<path d="M185.389 230.85L185.104 229.435C185.072 229.273 181.833 213.107 179.736 196.368C178.499 186.499 177.895 178.35 177.939 172.15C177.998 163.681 179.233 158.877 181.824 157.033C182.962 156.224 184.897 155.596 187.653 157.197C196.739 162.477 208.272 179.297 214.338 188.853C218.383 195.228 222.257 201.928 225.244 207.72C227.349 211.8 229.94 217.225 230.332 219.896C230.446 220.672 230.37 221.848 229.36 223.046C227.9 224.778 224.867 226.133 219.814 227.31C216.109 228.173 211.348 228.916 205.664 229.518C196.04 230.536 186.928 230.806 186.837 230.809L185.389 230.85ZM184.421 159.626C184.09 159.626 183.916 159.75 183.821 159.816C182.7 160.614 179.341 165.572 183.142 195.927C184.864 209.674 187.362 223.039 188.193 227.336C191.123 227.218 198.076 226.881 205.32 226.114C222.138 224.332 225.895 221.836 226.73 220.846C226.961 220.572 226.942 220.445 226.934 220.391C226.446 217.067 220.101 204.335 211.435 190.681C201.398 174.868 192.1 163.74 185.923 160.151C185.222 159.744 184.746 159.626 184.421 159.626Z" fill="#00227B"/>
<path d="M133.684 157.704L131.572 173.619L130.37 182.667L127.807 201.986C127.807 201.986 123.123 205.159 115.332 207.673C112.421 208.614 109.068 209.456 105.367 210.008C99.3186 210.914 92.3249 211.03 84.7477 209.486C65.2532 205.509 53.5538 191.087 48.4886 183.835C38.6988 169.838 37.1923 166.054 39.9137 160.162C41.9913 155.646 45.551 154.822 45.551 154.822C45.551 154.822 45.3754 151.213 48.2431 149.93C56.8378 146.086 67.9095 156.352 67.9095 156.352C67.9095 156.352 68.322 145.312 74.2547 147.861C78.3421 149.618 79.269 161.638 79.269 161.638C79.269 161.638 84.7553 168.66 93.4708 169.591C98.0254 170.078 104.328 168.762 110.588 166.851C110.66 166.829 110.734 166.808 110.807 166.782C114.142 165.756 117.457 164.567 120.492 163.391C121.853 162.865 123.157 162.339 124.381 161.835C129.85 159.576 133.684 157.704 133.684 157.704Z" fill="white"/>
<path opacity="0.35" d="M48.4847 183.835C53.5547 191.085 65.2521 205.51 84.7448 209.486C96.9548 211.974 107.655 210.146 115.332 207.671C123.123 205.159 127.806 201.984 127.806 201.984L128.15 186.739C128.15 186.739 122.841 181.644 117.896 183.721C111.955 186.218 113.859 194.703 105.374 197.063C81.7855 203.623 62.6232 191.637 56.4573 186.375C47.9032 179.075 45.6717 174.477 44.4682 172.58C41.9771 168.655 40.0533 165.57 38.9687 162.808C37.8633 167.481 40.2232 172.019 48.4847 183.835Z" fill="#00227B"/>
<path d="M96.5085 212.381C92.4382 212.381 88.3848 211.974 84.4013 211.16C75.6386 209.373 67.463 205.349 60.103 199.199C55.3663 195.24 50.9835 190.399 47.0774 184.813C42.3104 177.994 39.2803 173.31 37.8984 169.547C36.574 165.941 36.7052 163.016 38.3496 159.447C39.9685 155.932 42.4162 154.316 43.8953 153.623C44.137 151.816 45.0781 149.472 47.538 148.372C54.5271 145.245 62.5922 150.084 66.5842 153.063C66.6229 152.861 66.6663 152.654 66.7126 152.444C67.3743 149.488 68.5165 147.482 70.107 146.482C71.084 145.868 72.7142 145.337 74.9373 146.293C77.1924 147.264 78.8377 150.121 79.9685 155.028C80.5472 157.542 80.8256 159.902 80.9304 160.947C82.1443 162.316 86.8887 167.167 93.6549 167.89C106.007 169.209 132.658 156.298 132.926 156.167C133.494 155.89 134.17 155.946 134.684 156.315C135.197 156.682 135.466 157.303 135.384 157.927L129.511 202.208C129.447 202.691 129.18 203.124 128.775 203.397C128.578 203.531 123.868 206.693 116.036 209.242C111.448 210.735 106.729 211.707 102.009 212.133C100.175 212.298 98.3398 212.381 96.5085 212.381ZM45.9475 156.483C45.7257 156.543 43.1043 157.326 41.4703 160.872C39.27 165.648 39.8108 168.432 49.8951 182.857C59.3762 196.418 71.5456 205.046 85.0895 207.809C97.4298 210.326 108.148 208.208 114.968 205.989C120.748 204.108 124.735 201.864 126.209 200.968L131.567 160.578C128.768 161.851 124.19 163.85 119.052 165.768C107.615 170.037 98.9458 171.895 93.2887 171.291C83.9558 170.295 78.1561 163 77.9135 162.689C77.7068 162.424 77.5822 162.105 77.5567 161.77C77.5548 161.742 77.3217 158.822 76.6118 155.755C75.4158 150.585 73.9848 149.609 73.5751 149.433C72.55 148.992 72.1073 149.269 71.9402 149.373C70.4969 150.278 69.7153 154.037 69.6209 156.416C69.5945 157.084 69.1791 157.676 68.559 157.931C67.9378 158.186 67.2261 158.058 66.7343 157.602C66.6324 157.508 56.3933 148.159 48.9445 151.492C47.2284 152.26 47.2596 154.576 47.2643 154.743C47.3153 155.587 46.7772 156.308 45.9475 156.483Z" fill="#00227B"/>
<path d="M69.3224 156.351C69.3621 156.831 69.2903 157.269 69.194 157.647C69.1459 157.843 69.0864 158.012 69.026 158.186C68.9647 158.349 68.8976 158.514 68.8316 158.662C68.5607 159.269 68.268 159.772 67.9896 160.26C67.7102 160.745 67.4411 161.207 67.191 161.67L67.0079 162.017C66.9503 162.134 66.8889 162.25 66.8332 162.367L66.6709 162.721L66.5161 163.078L66.3754 163.441L66.2451 163.809C66.2008 163.933 66.1677 164.059 66.1281 164.184C66.0866 164.309 66.0554 164.436 66.0214 164.563C65.8912 165.075 65.7788 165.601 65.7137 166.144C65.6429 166.685 65.5976 167.241 65.5844 167.806C65.5702 168.09 65.5759 168.374 65.573 168.664C65.5683 168.808 65.5806 168.951 65.5815 169.097C65.5844 169.243 65.5891 169.388 65.5882 169.536V169.546C65.5882 169.66 65.4956 169.752 65.3805 169.752C65.3002 169.752 65.2313 169.707 65.1974 169.64C64.9217 169.108 64.6725 168.555 64.48 167.978C64.277 167.403 64.1316 166.803 64.025 166.189C63.8154 164.961 63.8201 163.662 64.0505 162.393L64.1458 161.919C64.1826 161.763 64.2232 161.607 64.2619 161.45C64.3034 161.295 64.3497 161.143 64.3931 160.988C64.4384 160.835 64.4922 160.685 64.5423 160.534C64.749 159.932 65.0048 159.36 65.2682 158.825C65.5306 158.29 65.81 157.785 66.0365 157.347C66.2753 156.903 66.4103 156.543 66.4896 156.348L66.6558 155.941C66.9446 155.235 67.7536 154.895 68.4625 155.183C68.9637 155.388 69.2799 155.85 69.3224 156.351Z" fill="#00227B"/>
<path d="M82.8561 210.661C82.4228 210.661 82.0046 210.422 81.7988 210.01C81.5081 209.429 81.746 208.723 82.3293 208.434C87.0897 206.075 90.3426 198.713 91.734 187.144C92.8129 178.179 92.3645 169.84 92.3598 169.757C92.3239 169.11 92.8214 168.555 93.4718 168.518C94.1193 168.482 94.6791 168.978 94.7159 169.626C94.7206 169.71 95.1803 178.227 94.0806 187.392C93.4303 192.816 92.3683 197.419 90.9241 201.071C89.055 205.798 86.5167 208.984 83.3809 210.538C83.2119 210.622 83.0326 210.661 82.8561 210.661Z" fill="#00227B"/>
<g opacity="0.35">
<g opacity="0.35">
<g opacity="0.35">
<g opacity="0.35">
<path opacity="0.35" d="M235.145 286.305V286.066C233.258 286.147 235.145 286.305 235.145 286.305Z" fill="#00227B"/>
</g>
</g>
</g>
</g>
<path d="M211.328 257.436H97.9683C97.9683 257.436 98.6592 237.951 105.365 210.008C108.053 198.801 111.71 186.233 116.677 173.016C117.871 169.843 119.142 166.632 120.49 163.39C124.259 154.347 128.655 145.085 133.782 135.823H175.515C179.752 143.481 183.491 151.135 186.789 158.673C188.922 163.548 190.871 168.371 192.649 173.109C200.406 193.762 204.962 212.824 207.627 227.581C210.915 245.784 211.328 257.436 211.328 257.436Z" fill="white"/>
<path d="M195.77 187.641C197.96 190.077 198.962 192.912 199.887 195.76C200.352 197.184 200.809 198.612 201.246 200.045C201.465 200.762 201.69 201.477 201.885 202.2C202.086 202.921 202.282 203.645 202.478 204.368L203.052 206.541C203.241 207.266 203.432 207.99 203.609 208.719L204.652 213.09C204.822 213.82 205.008 214.545 205.174 215.275L205.672 217.466L206.182 219.654C206.354 220.382 206.532 221.11 206.692 221.842L207.676 226.226C207.845 226.955 207.99 227.691 208.146 228.423L208.606 230.622L208.837 231.721L208.952 232.271L209.059 232.822L209.491 235.027C209.634 235.762 209.783 236.496 209.938 237.229C210.087 237.963 210.238 238.697 210.394 239.431C211.051 242.357 211.531 245.322 211.73 248.325C211.755 248.7 211.785 249.074 211.803 249.451L211.851 250.58C211.875 251.334 211.896 252.087 211.885 252.846C211.88 253.603 211.863 254.361 211.814 255.121C211.77 255.882 211.706 256.643 211.591 257.409C211.569 257.556 211.431 257.658 211.282 257.636C211.181 257.621 211.102 257.553 211.068 257.464L211.067 257.46C210.525 256.027 210.083 254.586 209.665 253.146C209.459 252.426 209.261 251.704 209.069 250.983L208.793 249.899C208.706 249.537 208.617 249.176 208.526 248.814C208.175 247.367 207.865 245.916 207.587 244.459C207.453 243.729 207.331 242.998 207.22 242.264C207.1 241.532 206.989 240.799 206.875 240.065C206.764 239.331 206.647 238.599 206.528 237.866C206.401 237.135 206.261 236.406 206.118 235.677L205.691 233.491L205.584 232.945L205.47 232.4L205.241 231.31L204.784 229.13C204.63 228.404 204.485 227.675 204.318 226.952L203.342 222.604C203.185 221.878 203.002 221.158 202.829 220.436L202.296 218.273L201.75 216.113C201.661 215.753 201.56 215.395 201.463 215.037L201.17 213.962L199.991 209.665C199.583 208.237 199.166 206.812 198.769 205.381C198.57 204.665 198.372 203.95 198.179 203.233L198.036 202.695L197.884 202.159L197.585 201.086C197.186 199.656 196.807 198.22 196.434 196.781L196.16 195.7C196.069 195.34 195.968 194.982 195.872 194.623C195.68 193.905 195.519 193.177 195.399 192.437C195.279 191.697 195.195 190.944 195.163 190.175C195.146 189.791 195.144 189.402 195.158 189.007C195.173 188.612 195.198 188.212 195.268 187.799L195.271 187.784C195.298 187.627 195.446 187.522 195.602 187.548C195.67 187.561 195.728 187.595 195.77 187.641Z" fill="#00227B"/>
<path d="M97.7037 257.425C97.529 257.038 97.4092 256.654 97.2968 256.267C97.1845 255.88 97.1005 255.497 97.0259 255.112C96.8749 254.341 96.7937 253.574 96.7484 252.81C96.7276 252.427 96.7135 252.046 96.7144 251.665C96.7153 251.284 96.7305 250.905 96.7484 250.526L96.8126 249.39C96.8324 249.011 96.856 248.632 96.8871 248.254C97.0051 246.742 97.1203 245.228 97.2978 243.724C97.378 242.97 97.4677 242.218 97.5564 241.465C97.5998 241.089 97.6584 240.715 97.7093 240.338L97.8689 239.213L98.2021 236.965C98.3191 236.217 98.4551 235.472 98.5825 234.726C98.843 233.234 99.0884 231.74 99.3858 230.255C99.6746 228.769 99.9389 227.278 100.234 225.795C100.535 224.312 100.827 222.828 101.116 221.342C101.19 220.971 101.256 220.598 101.336 220.229L101.574 219.119L102.049 216.901L102.523 214.682C102.564 214.497 102.601 214.311 102.643 214.127L102.774 213.575L103.034 212.471L104.075 208.053C104.159 207.684 104.254 207.317 104.347 206.951C104.438 206.583 104.53 206.216 104.617 205.849C104.793 205.113 104.966 204.376 105.134 203.638C105.304 202.901 105.471 202.162 105.648 201.426C105.818 200.688 106.031 199.962 106.245 199.236C106.463 198.511 106.694 197.79 106.936 197.071C107.18 196.354 107.439 195.64 107.7 194.929L108.104 193.864C108.172 193.688 108.248 193.513 108.321 193.337C108.396 193.162 108.468 192.986 108.545 192.811C108.85 192.113 109.159 191.417 109.487 190.728C109.812 190.037 110.151 189.351 110.507 188.673C110.862 187.994 111.231 187.32 111.641 186.66C111.719 186.533 111.887 186.493 112.014 186.572C112.101 186.626 112.147 186.721 112.142 186.817V186.82C111.972 189.923 111.389 192.875 110.813 195.826C110.665 196.563 110.514 197.298 110.348 198.029C110.181 198.76 110.001 199.487 109.811 200.21C109.412 201.652 109.012 203.093 108.595 204.532C108.386 205.251 108.183 205.971 107.982 206.692C107.88 207.052 107.785 207.414 107.688 207.775C107.593 208.137 107.494 208.498 107.413 208.864L106.383 213.235L106.126 214.327L105.997 214.874C105.955 215.056 105.918 215.239 105.878 215.422L105.408 217.617L104.938 219.812L104.703 220.911C104.625 221.276 104.559 221.645 104.486 222.011C103.28 227.877 102.469 233.814 101.681 239.738L101.375 241.958C101.279 242.699 101.184 243.44 101.08 244.18L100.472 248.621C100.362 249.36 100.273 250.1 100.173 250.84C100.121 251.21 100.066 251.58 99.9975 251.949C99.9295 252.317 99.8625 252.686 99.7794 253.054C99.6142 253.789 99.4094 254.522 99.1668 255.254C99.046 255.619 98.9015 255.986 98.7533 256.351C98.6014 256.716 98.4362 257.082 98.2323 257.446L98.2304 257.45C98.1511 257.591 97.9727 257.642 97.8311 257.563C97.7716 257.529 97.7292 257.48 97.7037 257.425Z" fill="#00227B"/>
<path d="M130.618 232.852C124.153 235.459 114.147 234.913 107.326 234.091C103.235 233.598 100.363 229.837 100.966 225.777C101.516 222.071 104.791 219.377 108.547 219.552C114.927 219.85 124.498 219.989 130.559 218.65" fill="white"/>
<g opacity="0.35">
<g opacity="0.35">
<g opacity="0.35">
<g opacity="0.35">
<path opacity="0.35" d="M130.619 232.85C124.152 235.461 114.146 234.91 107.325 234.093C103.234 233.599 100.363 229.837 100.966 225.779C101.086 224.951 101.347 224.173 101.718 223.463C102.795 225.512 104.835 227.022 107.325 227.323C114.134 228.145 124.123 228.691 130.591 226.097L130.619 232.85Z" fill="#00227B"/>
</g>
</g>
</g>
</g>
<path d="M117.763 236.481C114.022 236.481 110.302 236.173 107.118 235.79C104.678 235.495 102.514 234.262 101.022 232.316C99.5282 230.366 98.9042 227.955 99.2648 225.528C99.5933 223.315 100.728 221.314 102.459 219.891C104.192 218.467 106.382 217.74 108.625 217.845C118.024 218.284 125.68 217.977 130.184 216.982C131.088 216.783 133.335 216.775 134.661 221.022C136.008 225.337 135.859 232.585 131.261 234.439C127.469 235.966 122.598 236.481 117.763 236.481ZM108.196 221.254C105.427 221.254 103.073 223.264 102.663 226.027C102.439 227.533 102.826 229.03 103.753 230.24C104.677 231.446 106.019 232.21 107.531 232.393C117.285 233.568 125.256 233.168 129.973 231.266C131.373 230.701 131.776 228.44 131.884 227.494C132.262 224.185 131.251 221.128 130.617 220.388C124.47 221.675 115.207 221.576 108.466 221.261C108.375 221.256 108.285 221.254 108.196 221.254Z" fill="#00227B"/>
<path d="M180.07 232.851C186.535 235.458 196.541 234.913 203.362 234.09C207.453 233.598 210.326 229.837 209.723 225.776C209.172 222.071 205.898 219.376 202.142 219.551C195.762 219.849 186.191 219.988 180.13 218.65" fill="white"/>
<g opacity="0.35">
<g opacity="0.35">
<g opacity="0.35">
<g opacity="0.35">
<path opacity="0.35" d="M203.362 234.093C196.541 234.911 186.536 235.461 180.068 232.851L180.096 226.034C186.563 228.628 196.552 228.083 203.362 227.26C205.841 226.965 207.869 225.466 208.952 223.429C209.333 224.144 209.601 224.933 209.727 225.778C210.325 229.837 207.454 233.6 203.362 234.093Z" fill="#00227B"/>
</g>
</g>
</g>
</g>
<path d="M192.927 236.481C188.091 236.481 183.221 235.967 179.428 234.438C174.83 232.584 174.681 225.336 176.028 221.021C177.353 216.776 179.601 216.782 180.505 216.981C185.01 217.977 192.666 218.284 202.064 217.845C204.309 217.74 206.497 218.467 208.23 219.89C209.961 221.313 211.096 223.315 211.425 225.527C211.785 227.954 211.16 230.365 209.667 232.315C208.175 234.261 206.011 235.495 203.572 235.789C200.387 236.173 196.667 236.481 192.927 236.481ZM180.073 220.388C179.44 221.128 178.429 224.185 178.806 227.495C178.914 228.44 179.316 230.702 180.718 231.267C185.435 233.169 193.405 233.569 203.159 232.393C204.671 232.211 206.013 231.446 206.937 230.24C207.864 229.03 208.251 227.534 208.027 226.027C207.604 223.175 205.11 221.128 202.226 221.261C195.482 221.576 186.22 221.674 180.073 220.388Z" fill="#00227B"/>
<path d="M182.567 213.959V236.717C182.567 240.939 179.097 244.396 174.858 244.396H132.777C128.544 244.396 125.074 240.939 125.074 236.717V213.959C125.074 209.737 128.544 206.286 132.777 206.286H174.858C177.354 206.286 179.581 207.484 180.994 209.328C181.98 210.616 182.567 212.222 182.567 213.959Z" fill="white"/>
<g opacity="0.35">
<g opacity="0.35">
<g opacity="0.35">
<g opacity="0.35">
<path opacity="0.35" d="M182.568 213.959V236.717C182.568 240.94 179.1 244.394 174.861 244.394H132.781C128.542 244.394 125.074 240.94 125.074 236.717V228.205C131.394 234.623 143.823 238.651 155.222 238.712C158.884 238.731 161.839 235.846 162.1 232.206C162.103 232.17 162.106 232.133 162.109 232.097C162.389 228.904 165.029 226.319 168.239 226.089C171.894 225.826 174.98 228.515 175.341 232.01C180.859 225.225 179.243 213.434 180.997 209.328C181.984 210.618 182.568 212.222 182.568 213.959Z" fill="#00227B"/>
</g>
</g>
</g>
</g>
<path d="M174.863 246.105H132.781C127.586 246.105 123.359 241.895 123.359 236.72V213.959C123.359 208.784 127.586 204.574 132.781 204.574H174.863C180.058 204.574 184.285 208.784 184.285 213.959V236.72C184.285 241.895 180.058 246.105 174.863 246.105ZM132.781 207.994C129.479 207.994 126.793 210.67 126.793 213.959V236.72C126.793 240.009 129.479 242.684 132.781 242.684H174.863C178.165 242.684 180.851 240.009 180.851 236.72V213.959C180.851 210.67 178.165 207.994 174.863 207.994H132.781Z" fill="#00227B"/>
<path d="M168.726 231.957C172.396 231.957 175.372 228.994 175.372 225.338C175.372 221.683 172.396 218.719 168.726 218.719C165.056 218.719 162.081 221.683 162.081 225.338C162.081 228.994 165.056 231.957 168.726 231.957Z" fill="#22A7F0"/>
<g opacity="0.7">
<g opacity="0.7">
<g opacity="0.7">
<g opacity="0.7">
<path opacity="0.7" d="M175.372 225.338C175.372 225.791 175.329 226.231 175.243 226.661C174.63 223.634 171.945 221.357 168.729 221.357C165.508 221.357 162.823 223.634 162.21 226.661C162.124 226.231 162.081 225.792 162.081 225.338C162.081 221.681 165.057 218.721 168.729 218.721C172.395 218.721 175.372 221.681 175.372 225.338Z" fill="white"/>
</g>
</g>
</g>
</g>
<g opacity="0.35">
<g opacity="0.35">
<g opacity="0.35">
<g opacity="0.35">
<path opacity="0.35" d="M175.375 225.336C175.375 228.99 172.401 231.953 168.732 231.953C165.063 231.953 162.088 228.99 162.088 225.336C162.088 224.49 162.248 223.684 162.544 222.941C163.501 225.41 165.912 227.158 168.733 227.158C171.553 227.158 173.963 225.41 174.921 222.941C175.216 223.684 175.375 224.489 175.375 225.336Z" fill="#00227B"/>
</g>
</g>
</g>
</g>
<path d="M168.73 233.238C164.356 233.238 160.797 229.694 160.797 225.337C160.797 220.98 164.356 217.436 168.73 217.436C173.105 217.436 176.663 220.98 176.663 225.337C176.663 229.694 173.105 233.238 168.73 233.238ZM168.73 220.002C165.777 220.002 163.373 222.395 163.373 225.337C163.373 228.279 165.777 230.673 168.73 230.673C171.684 230.673 174.087 228.279 174.087 225.337C174.087 222.395 171.684 220.002 168.73 220.002Z" fill="#00227B"/>
<path d="M149.896 245.675C149.184 245.675 148.608 245.1 148.608 244.392V228.804L140.193 222.494V206.282C140.193 205.573 140.77 205 141.48 205C142.191 205 142.768 205.574 142.768 206.282V221.213L151.183 227.523V244.392C151.183 245.1 150.607 245.675 149.896 245.675Z" fill="#00227B"/>
<path d="M154.647 256.646C162.091 256.646 169.249 253.895 174.84 248.999C182.584 242.219 195.621 234.132 210.011 239.319C215.785 241.399 219.72 245.215 222.404 249.437C229.318 233.482 243.821 232.526 250.098 241.569C250.098 241.569 239.546 291.707 236.108 292.823C231.181 294.421 219.344 292.74 219.344 292.74C219.344 292.74 178.163 287.188 154.647 287.188C131.131 287.188 89.9503 292.74 89.9503 292.74C89.9503 292.74 78.1131 294.42 73.1866 292.823C69.7478 291.707 59.1963 241.569 59.1963 241.569C65.4726 232.525 79.9765 233.482 86.89 249.437C89.5737 245.214 93.509 241.399 99.2832 239.319C113.673 234.132 126.71 242.219 134.454 248.999C140.045 253.894 147.203 256.646 154.647 256.646Z" fill="white"/>
<g opacity="0.35">
<path d="M250.099 241.569C250.099 241.569 239.547 291.709 236.108 292.825C231.183 294.424 219.343 292.744 219.343 292.744C219.343 292.744 178.164 287.189 154.647 287.189C131.134 287.189 89.9499 292.744 89.9499 292.744C89.9499 292.744 78.1137 294.424 73.19 292.825C69.7512 291.709 59.1987 241.569 59.1987 241.569C60.2333 240.08 61.4869 238.862 62.8953 237.938C66.2784 252.639 71.0774 271.834 73.19 272.518C78.1146 274.113 89.9499 272.433 89.9499 272.433C89.9499 272.433 131.134 261.324 154.647 261.324C178.164 261.324 219.343 272.433 219.343 272.433C219.343 272.433 231.183 274.113 236.108 272.518C238.22 271.834 243.02 252.639 246.403 237.938C247.811 238.863 249.065 240.081 250.099 241.569Z" fill="#00227B"/>
</g>
<path d="M79.5338 295.221C76.9512 295.221 74.428 295.028 72.6534 294.453C71.4432 294.06 70.4256 292.724 68.516 286.799C67.3984 283.33 66.057 278.501 64.5306 272.444C61.7818 261.54 59.1029 249.31 58.0787 244.558C57.5426 242.07 58.361 239.497 60.2158 237.844C63.7764 234.669 68.5491 233.447 73.3085 234.491C76.3084 235.149 79.2271 236.709 81.7493 239.002C83.8383 240.902 85.6544 243.275 87.1685 246.081C90.2411 242.176 94.1094 239.367 98.6989 237.714C103.899 235.839 109.34 235.467 114.872 236.607C119.338 237.528 123.879 239.438 128.368 242.285C129.169 242.792 129.404 243.849 128.895 244.647C128.386 245.444 127.324 245.678 126.524 245.171C117.284 239.312 108.315 237.886 99.8676 240.931C95.1034 242.648 91.2247 245.818 88.3409 250.356C88.0002 250.892 87.3885 251.196 86.7551 251.147C86.1208 251.097 85.5657 250.702 85.3127 250.119C82.4242 243.452 77.78 238.974 72.5703 237.833C68.9021 237.029 65.2339 237.963 62.5068 240.395C61.5685 241.231 61.1588 242.552 61.4373 243.843C62.4039 248.327 64.9375 259.899 67.5768 270.472C69.0276 276.283 70.3133 281.011 71.3988 284.523C72.9186 289.441 73.7125 290.883 73.9947 291.285C77.8744 292.368 86.6003 291.494 89.7078 291.053C89.7116 291.052 89.7153 291.052 89.7191 291.051C90.1316 290.996 131.285 285.483 154.646 285.483C178.008 285.483 219.161 290.996 219.573 291.051C219.577 291.052 219.582 291.052 219.585 291.053C222.694 291.494 231.419 292.368 235.299 291.285C235.576 290.89 236.348 289.49 237.817 284.773C238.877 281.371 240.132 276.787 241.547 271.148C244.072 261.092 246.491 250.151 247.709 244.525C248.108 242.682 247.414 240.792 245.942 239.711C243.131 237.647 239.648 237.031 236.136 237.977C231.103 239.332 226.786 243.644 223.98 250.12C223.728 250.702 223.173 251.098 222.538 251.148C221.903 251.198 221.293 250.893 220.952 250.357C218.069 245.82 214.191 242.649 209.427 240.932C200.905 237.86 191.86 239.336 182.54 245.319C181.742 245.83 180.68 245.602 180.166 244.807C179.652 244.014 179.882 242.955 180.679 242.443C185.196 239.543 189.767 237.591 194.264 236.641C199.85 235.46 205.345 235.822 210.595 237.715C215.185 239.368 219.053 242.178 222.127 246.083C225.352 240.111 229.934 236.102 235.24 234.674C239.719 233.468 244.362 234.3 247.981 236.957C250.539 238.835 251.75 242.088 251.067 245.245C249.778 251.206 247.222 262.754 244.592 273.122C243.101 279.001 241.791 283.685 240.699 287.042C238.836 292.771 237.835 294.067 236.639 294.455C231.417 296.149 219.705 294.525 219.109 294.441C218.463 294.354 177.709 288.904 154.647 288.904C131.582 288.904 90.8311 294.354 90.1854 294.441C89.789 294.494 84.551 295.221 79.5338 295.221Z" fill="#00227B"/>
<path d="M233.045 292.825H236.103C239.694 292.825 242.95 290.728 244.412 287.462C248.99 277.25 257.337 254.813 249.519 241.121C249.291 240.721 249.048 240.337 248.79 239.968C248.79 239.968 241.284 233.168 235.891 242.788C230.854 251.775 220.281 290.201 233.045 292.825Z" fill="#AFAFB2"/>
<g opacity="0.7">
<g opacity="0.7">
<g opacity="0.7">
<g opacity="0.7">
<path opacity="0.7" d="M233.137 249.194C233.272 248.979 233.407 248.776 233.538 248.587C240.168 238.967 249.399 245.767 249.399 245.767C249.715 246.136 250.016 246.52 250.294 246.92C251.22 248.238 251.96 249.636 252.539 251.1C252.165 247.504 251.231 244.104 249.527 241.123C249.299 240.723 249.056 240.338 248.798 239.97C248.798 239.97 241.292 233.17 235.899 242.79C235.08 244.246 234.12 246.47 233.137 249.194Z" fill="white"/>
</g>
</g>
</g>
</g>
<path d="M252.492 252.122C252.414 252.122 252.336 252.115 252.257 252.102L233.495 248.983C232.724 248.855 232.203 248.128 232.331 247.359C232.459 246.591 233.19 246.072 233.96 246.2L252.722 249.319C253.493 249.447 254.014 250.174 253.886 250.943C253.771 251.634 253.172 252.122 252.492 252.122Z" fill="#00227B"/>
<path d="M252.378 262.219C252.315 262.219 252.251 262.216 252.187 262.206L230.239 259.267C229.464 259.164 228.921 258.454 229.024 257.682C229.128 256.91 229.841 256.369 230.617 256.472L252.565 259.411C253.34 259.515 253.883 260.224 253.78 260.996C253.684 261.705 253.076 262.219 252.378 262.219Z" fill="#00227B"/>
<path d="M250.439 272.11C250.382 272.11 250.324 272.106 250.266 272.1L227.985 269.383C227.21 269.289 226.657 268.585 226.752 267.812C226.847 267.04 227.552 266.489 228.329 266.584L250.609 269.3C251.385 269.395 251.937 270.098 251.843 270.871C251.755 271.586 251.144 272.11 250.439 272.11Z" fill="#00227B"/>
<path d="M246.908 282.895C246.866 282.895 246.823 282.893 246.779 282.889L226.86 281.099C226.081 281.029 225.507 280.343 225.577 279.567C225.647 278.792 226.336 278.219 227.115 278.29L247.034 280.08C247.813 280.149 248.388 280.836 248.317 281.611C248.251 282.344 247.632 282.895 246.908 282.895Z" fill="#00227B"/>
<g opacity="0.35">
<g opacity="0.35">
<g opacity="0.35">
<g opacity="0.35">
<path opacity="0.35" d="M233.044 292.825H236.103C239.694 292.825 242.949 290.728 244.412 287.462C245.595 284.815 247.035 281.353 248.381 277.431C246.545 280.466 242.814 282.39 238.719 282.39H235.073C229.885 281.495 227.933 276.428 227.856 269.785C226.102 280.997 226.583 291.497 233.044 292.825Z" fill="#00227B"/>
</g>
</g>
</g>
</g>
<path d="M236.108 294.235H233.05C232.953 294.235 232.858 294.226 232.764 294.206C230.291 293.697 228.423 292.101 227.21 289.46C224.351 283.234 225.741 272.387 227.41 264.384C229.451 254.604 232.602 245.77 234.66 242.1C236.552 238.725 238.935 236.781 241.742 236.325C246.049 235.626 249.599 238.789 249.748 238.924C249.826 238.994 249.896 239.074 249.957 239.16C250.239 239.562 250.508 239.988 250.756 240.423C254.33 246.681 255.088 255.242 253.01 265.865C251.321 274.501 248.108 282.689 245.711 288.035C244.024 291.802 240.256 294.235 236.108 294.235ZM233.203 291.414H236.108C239.138 291.414 241.892 289.637 243.123 286.887C245.461 281.674 248.591 273.701 250.229 265.327C252.175 255.385 251.523 247.475 248.293 241.818C248.118 241.509 247.93 241.209 247.735 240.921C247.204 240.489 244.794 238.678 242.182 239.112C240.277 239.429 238.578 240.896 237.133 243.475C235.228 246.873 232.145 255.558 230.184 264.959C227.946 275.687 227.804 283.972 229.786 288.287C230.591 290.039 231.709 291.064 233.203 291.414Z" fill="#00227B"/>
<path d="M76.2453 292.825H73.1869C69.5961 292.825 66.3404 290.728 64.8782 287.462C60.3 277.25 51.9526 254.813 59.7714 241.121C59.9989 240.721 60.2424 240.337 60.5001 239.968C60.5001 239.968 68.0064 233.168 73.3993 242.788C78.4362 251.775 89.0085 290.201 76.2453 292.825Z" fill="#AFAFB2"/>
<g opacity="0.7">
<g opacity="0.7">
<g opacity="0.7">
<g opacity="0.7">
<path opacity="0.7" d="M76.1589 249.194C76.0239 248.979 75.8889 248.776 75.7577 248.587C69.1273 238.967 59.8964 245.767 59.8964 245.767C59.5802 246.136 59.2791 246.52 59.0016 246.92C58.0755 248.238 57.3355 249.636 56.7568 251.1C57.1306 247.504 58.0642 244.104 59.769 241.123C59.9965 240.723 60.24 240.338 60.4977 239.97C60.4977 239.97 68.004 233.17 73.3969 242.79C74.2143 244.246 75.1753 246.47 76.1589 249.194Z" fill="white"/>
</g>
</g>
</g>
</g>
<path d="M56.8028 252.123C56.1232 252.123 55.5238 251.634 55.4076 250.945C55.2793 250.177 55.7994 249.45 56.5715 249.321L75.3336 246.202C76.1048 246.074 76.8345 246.592 76.9628 247.361C77.0912 248.129 76.5711 248.856 75.7989 248.985L57.0369 252.104C56.9586 252.118 56.8802 252.123 56.8028 252.123Z" fill="#00227B"/>
<path d="M56.9179 262.22C56.2194 262.22 55.6115 261.705 55.5161 260.997C55.4123 260.226 55.956 259.516 56.731 259.412L78.6798 256.472C79.4558 256.368 80.1675 256.91 80.2723 257.682C80.3761 258.454 79.8324 259.164 79.0574 259.267L57.1086 262.207C57.0444 262.216 56.9811 262.22 56.9179 262.22Z" fill="#00227B"/>
<path d="M58.8494 272.109C58.1443 272.109 57.5335 271.586 57.4458 270.87C57.3504 270.097 57.9026 269.394 58.6795 269.299L80.9597 266.583C81.7356 266.489 82.4417 267.038 82.537 267.812C82.6324 268.585 82.0802 269.288 81.3033 269.383L59.0231 272.099C58.9646 272.107 58.9061 272.109 58.8494 272.109Z" fill="#00227B"/>
<path d="M62.3902 282.895C61.6653 282.895 61.0479 282.344 60.9818 281.611C60.912 280.836 61.4859 280.15 62.2647 280.08L82.184 278.29C82.9637 278.22 83.6509 278.792 83.7217 279.567C83.7915 280.343 83.2176 281.028 82.4388 281.099L62.5195 282.889C62.4761 282.893 62.4327 282.895 62.3902 282.895Z" fill="#00227B"/>
<g opacity="0.35">
<g opacity="0.35">
<g opacity="0.35">
<g opacity="0.35">
<path opacity="0.35" d="M76.2471 292.824H73.1887C69.5979 292.824 66.3422 290.726 64.88 287.46C63.6963 284.813 62.2567 281.352 60.9106 277.429C62.7466 280.464 66.4771 282.389 70.573 282.389H74.2185C79.4065 281.494 81.3586 276.426 81.436 269.784C83.1899 280.995 82.7075 291.495 76.2471 292.824Z" fill="#00227B"/>
</g>
</g>
</g>
</g>
<path d="M76.2456 294.235H73.1872C69.0404 294.235 65.2712 291.802 63.5853 288.035C61.1886 282.689 57.9754 274.502 56.2857 265.866C54.2081 255.242 54.9661 246.682 58.5399 240.423C58.7882 239.988 59.0572 239.563 59.3385 239.161C59.3989 239.074 59.4688 238.995 59.5471 238.925C59.6962 238.789 63.2465 235.626 67.5528 236.326C70.3601 236.782 72.7436 238.725 74.6353 242.101C76.6931 245.771 79.844 254.605 81.8848 264.385C83.5547 272.388 84.9442 283.235 82.0849 289.46C80.872 292.101 79.0039 293.698 76.5317 294.207C76.4373 294.225 76.341 294.235 76.2456 294.235ZM61.5596 240.922C61.3642 241.208 61.1773 241.509 61.0017 241.817C57.7715 247.475 57.1193 255.383 59.0647 265.327C60.7034 273.702 63.8327 281.674 66.1708 286.887C67.4027 289.638 70.1562 291.415 73.1863 291.415H76.0908C77.5851 291.064 78.7046 290.04 79.5089 288.287C81.4902 283.972 81.3496 275.687 79.1115 264.958C77.1499 255.557 74.067 246.873 72.1621 243.475C70.7169 240.896 69.0178 239.429 67.1129 239.112C64.5057 238.679 62.0967 240.484 61.5596 240.922Z" fill="#00227B"/>
<path d="M110.77 291.537C110.569 291.537 110.365 291.49 110.174 291.391C109.544 291.063 109.3 290.287 109.63 289.659C115.008 279.425 115.087 267.915 109.866 255.451C105.928 246.05 100.289 239.618 100.232 239.554C99.7623 239.023 99.8133 238.212 100.347 237.743C100.88 237.275 101.694 237.325 102.164 237.856C102.404 238.128 108.105 244.619 112.213 254.391C114.637 260.157 115.989 265.863 116.232 271.351C116.538 278.251 115.085 284.81 111.912 290.848C111.682 291.287 111.233 291.537 110.77 291.537Z" fill="#00227B"/>
<path d="M199.046 291.537C198.581 291.537 198.134 291.287 197.903 290.849C194.731 284.811 193.277 278.251 193.583 271.351C193.826 265.863 195.178 260.157 197.602 254.391C201.71 244.619 207.411 238.127 207.652 237.856C208.123 237.325 208.936 237.274 209.47 237.743C210.003 238.212 210.054 239.022 209.583 239.553C209.526 239.617 203.887 246.05 199.949 255.451C194.728 267.916 194.807 279.425 200.185 289.658C200.514 290.286 200.271 291.061 199.641 291.39C199.45 291.49 199.247 291.537 199.046 291.537Z" fill="#00227B"/>
<g opacity="0.35">
<path d="M197.324 168.3C195.838 169.993 194.276 171.601 192.649 173.111C188.785 176.694 184.552 179.743 180.022 182.159C172.372 186.247 163.885 188.539 154.946 188.582C146.214 188.62 137.902 186.508 130.369 182.668C125.435 180.149 120.837 176.895 116.677 173.017C114.608 171.084 112.646 169.001 110.804 166.783C114.14 165.757 117.454 164.568 120.489 163.391C124.258 154.348 128.654 145.086 133.781 135.824H175.514C179.752 143.482 183.491 151.136 186.788 158.674C189.931 160.5 193.55 163.939 197.324 168.3Z" fill="#00227B"/>
</g>
<path d="M218.374 127.004C217.647 127.082 216.995 126.558 216.917 125.834L212.844 88.0823C212.765 87.3583 213.291 86.7087 214.018 86.6306C221.642 85.8145 228.487 91.309 229.306 98.9029L230.697 111.777C231.516 119.371 225.999 126.188 218.374 127.004Z" fill="white"/>
<path d="M218.233 127.339C217.858 127.339 217.497 127.213 217.201 126.975C216.858 126.7 216.643 126.308 216.596 125.871L212.523 88.1193C212.476 87.683 212.602 87.2543 212.879 86.913C213.155 86.5717 213.549 86.3574 213.987 86.3104C221.779 85.4764 228.798 91.1109 229.635 98.8712L231.023 111.745C231.429 115.504 230.341 119.195 227.958 122.139C225.577 125.083 222.186 126.926 218.412 127.331L218.377 127.007L218.412 127.331C218.353 127.336 218.292 127.339 218.233 127.339ZM215.515 86.8773C215.033 86.8773 214.547 86.9027 214.057 86.9553C213.792 86.9835 213.554 87.1133 213.387 87.3192C213.22 87.526 213.143 87.7846 213.171 88.0488L217.245 125.801C217.273 126.065 217.403 126.302 217.611 126.468C217.818 126.635 218.078 126.711 218.343 126.683C221.944 126.297 225.178 124.538 227.452 121.73C229.725 118.922 230.763 115.4 230.376 111.813L228.987 98.9389C228.24 92.0239 222.348 86.8773 215.515 86.8773Z" fill="#00227B"/>
<g opacity="0.35">
<g opacity="0.35">
<g opacity="0.35">
<g opacity="0.35">
<path opacity="0.35" d="M230.047 105.743L230.7 111.781C231.518 119.372 226.002 126.191 218.376 127.01C217.65 127.089 216.997 126.56 216.919 125.837L215.833 115.802C216.085 116.237 216.58 116.504 217.113 116.452L218.012 116.353C224.036 115.709 228.749 111.314 230.047 105.743Z" fill="#00227B"/>
</g>
</g>
</g>
</g>
<path d="M218.23 128.824C217.516 128.824 216.829 128.583 216.265 128.131C215.612 127.607 215.203 126.861 215.114 126.031L211.04 88.2784C210.951 87.4483 211.191 86.6322 211.717 85.9816C212.243 85.331 212.992 84.9239 213.826 84.8346C222.433 83.9132 230.189 90.1391 231.115 98.7126L232.503 111.587C232.952 115.739 231.749 119.818 229.117 123.071C226.485 126.323 222.74 128.36 218.569 128.806C218.457 128.817 218.343 128.824 218.23 128.824ZM218.184 125.208H218.183C218.183 125.208 218.183 125.208 218.184 125.208ZM214.707 88.3894L218.672 125.147C221.681 124.703 224.371 123.172 226.291 120.8C228.314 118.3 229.238 115.166 228.893 111.973L227.505 99.099C226.811 92.6719 221.125 87.9607 214.707 88.3894Z" fill="#00227B"/>
<path d="M88.9132 100.024C89.6401 99.9463 90.2923 100.47 90.3707 101.194L94.4439 138.946C94.5222 139.67 93.9964 140.32 93.2696 140.398C85.6452 141.214 78.8006 135.719 77.9813 128.126L76.5927 115.252C75.7715 107.658 81.2889 100.84 88.9132 100.024Z" fill="white"/>
<path d="M91.7716 140.803C84.6107 140.804 78.4344 135.409 77.6529 128.16L76.2643 115.286C75.427 107.526 81.0841 100.535 88.8755 99.7009L88.9105 100.024L88.8755 99.7009C89.7789 99.6041 90.5945 100.258 90.6917 101.159L94.7649 138.911C94.8621 139.812 94.2051 140.623 93.3008 140.72C92.7882 140.776 92.2766 140.803 91.7716 140.803ZM89.0521 100.341C89.0162 100.341 88.9813 100.343 88.9444 100.347C81.5108 101.142 76.1133 107.813 76.9128 115.217L78.3014 128.091C79.0999 135.495 85.7964 140.871 93.2309 140.075C93.7775 140.017 94.1749 139.526 94.1164 138.982L90.0432 101.23C89.9885 100.72 89.5542 100.341 89.0521 100.341Z" fill="#00227B"/>
<g opacity="0.35">
<g opacity="0.35">
<g opacity="0.35">
<g opacity="0.35">
<path opacity="0.35" d="M93.3133 128.471L94.4423 138.945C94.5216 139.669 93.9911 140.319 93.2652 140.397C89.2628 140.823 85.4719 139.514 82.657 137.071C80.115 134.866 78.3687 131.731 77.9788 128.126L77.3936 122.701C80.0716 127.229 85.251 130.028 90.8411 129.431L92.224 129.283C92.7281 129.228 93.1274 128.904 93.3133 128.471Z" fill="#00227B"/>
</g>
</g>
</g>
</g>
<path d="M91.7725 142.285C83.8603 142.286 77.0374 136.326 76.1737 128.317L74.7851 115.443C73.86 106.869 80.1109 99.1445 88.7188 98.2232C90.4387 98.0389 91.9906 99.2837 92.1756 100.998L96.2488 138.751C96.4338 140.466 95.184 142.009 93.4622 142.194C92.8949 142.256 92.3304 142.285 91.7725 142.285ZM88.6169 101.883C82.2546 102.823 77.7029 108.63 78.3957 115.057L79.7843 127.931C80.4781 134.358 86.1645 139.069 92.5824 138.641L88.6169 101.883Z" fill="#00227B"/>
<path d="M153.652 178.217C189.53 178.217 218.615 149.249 218.615 113.514C218.615 77.779 189.53 48.8103 153.652 48.8103C117.774 48.8103 88.6895 77.779 88.6895 113.514C88.6895 149.249 117.774 178.217 153.652 178.217Z" fill="white"/>
<path d="M153.589 178.545C145.624 178.545 137.843 177.122 130.424 174.307C122.536 171.313 115.389 166.877 109.181 161.125C102.972 155.372 98.0164 148.592 94.4492 140.971C90.7565 133.081 88.7232 124.633 88.4051 115.86C88.087 107.087 89.5039 98.5145 92.6161 90.38C95.6216 82.5229 100.075 75.4048 105.85 69.2212C111.625 63.0376 118.435 58.1007 126.087 54.5477C134.008 50.8697 142.491 48.8446 151.299 48.5277C160.107 48.2109 168.714 49.6221 176.881 52.7219C184.77 55.7154 191.916 60.1512 198.125 65.9033C204.333 71.6563 209.289 78.4369 212.856 86.0571C216.549 93.9471 218.582 102.396 218.9 111.168C219.218 119.941 217.801 128.514 214.689 136.648C211.684 144.505 207.23 151.624 201.454 157.807C195.678 163.991 188.87 168.927 181.219 172.48C173.298 176.158 164.815 178.183 156.007 178.5C155.198 178.53 154.392 178.545 153.589 178.545ZM153.682 49.1351C152.897 49.1351 152.114 49.1492 151.322 49.1774C115.704 50.4579 87.7727 80.3605 89.0574 115.836C89.6794 133.02 96.9838 148.936 109.624 160.648C121.679 171.82 137.214 177.893 153.594 177.894C154.388 177.894 155.183 177.88 155.982 177.851C173.235 177.231 189.215 169.956 200.974 157.366C212.734 144.776 218.868 128.379 218.246 111.194C216.991 76.5067 188.255 49.1351 153.682 49.1351Z" fill="#00227B"/>
<g opacity="0.35">
<g opacity="0.35">
<g opacity="0.35">
<g opacity="0.35">
<path opacity="0.35" d="M217.623 102.256C218.142 105.165 218.46 108.145 218.571 111.185C219.859 146.896 191.844 176.89 155.99 178.18C120.135 179.464 90.0213 151.56 88.7253 115.85C88.6875 114.823 88.6743 113.795 88.6866 112.78C94.203 144.1 122.198 167.36 155.003 166.182C189.826 164.929 217.251 136.602 217.623 102.256Z" fill="#00227B"/>
</g>
</g>
</g>
</g>
<path d="M153.588 180.027C145.441 180.027 137.482 178.571 129.894 175.692C121.826 172.63 114.515 168.093 108.166 162.209C101.817 156.326 96.748 149.39 93.0996 141.596C89.3219 133.525 87.2424 124.883 86.9177 115.911C86.5929 106.939 88.0419 98.1698 91.2259 89.8491C94.3003 81.8134 98.8549 74.5317 104.762 68.208C110.669 61.8843 117.631 56.8346 125.457 53.2017C133.56 49.4391 142.237 47.3679 151.245 47.0444C160.254 46.721 169.058 48.1642 177.412 51.3354C185.48 54.3976 192.791 58.934 199.14 64.8177C205.489 70.7013 210.558 77.6371 214.206 85.4312C217.984 93.5017 220.063 102.144 220.388 111.116C220.713 120.088 219.264 128.857 216.08 137.178C213.005 145.214 208.451 152.495 202.544 158.819C196.636 165.143 189.673 170.192 181.847 173.825C173.744 177.588 165.068 179.659 156.059 179.983C155.234 180.012 154.409 180.027 153.588 180.027ZM153.683 50.6181C152.915 50.6181 152.15 50.6322 151.377 50.6594C116.58 51.9099 89.2917 81.1233 90.5472 115.781C91.1551 132.57 98.2914 148.118 110.64 159.562C122.418 170.476 137.594 176.41 153.597 176.41C154.373 176.41 155.15 176.396 155.93 176.368C172.786 175.762 188.396 168.654 199.886 156.355C211.376 144.055 217.368 128.036 216.759 111.247C215.531 77.3578 187.457 50.6181 153.683 50.6181Z" fill="#00227B"/>
<path d="M218.425 112.848C219.075 125.492 215.557 137.443 209.009 147.515C204.099 155.067 183.033 168.919 156.223 170.527C131.364 172.018 108.057 159.965 102.398 152.953C94.8506 143.599 90.1262 132.07 89.4758 119.425C87.7549 85.9631 115.906 70.6184 151.517 68.802C187.126 66.9855 216.704 79.3856 218.425 112.848Z" fill="#36CEC0"/>
<path d="M151.909 171.9C139.548 171.9 128.798 168.831 121.661 166.09C112.625 162.618 104.681 157.768 101.426 153.733C93.4351 143.831 88.8721 131.989 88.2292 119.489C87.8026 111.195 89.176 103.669 92.309 97.1196C95.2589 90.9558 99.7832 85.6155 105.758 81.2456C116.674 73.2615 132.475 68.5296 151.452 67.5621C170.431 66.5947 186.634 69.6935 198.311 76.5249C204.703 80.264 209.752 85.1163 213.318 90.9483C217.107 97.1441 219.245 104.492 219.671 112.786C220.314 125.286 216.988 137.529 210.056 148.192C207.176 152.622 200.022 158.053 191.387 162.363C183.803 166.149 171.558 170.855 156.298 171.769C154.816 171.858 153.351 171.9 151.909 171.9ZM158.154 69.874C156.004 69.874 153.814 69.9304 151.581 70.0442C133.092 70.9872 117.758 75.5537 107.236 83.2491C95.4882 91.8414 89.9321 103.992 90.7222 119.362C91.3377 131.337 95.712 142.684 103.371 152.176C105.65 155 112.042 159.731 122.56 163.771C130.297 166.743 142.405 170.113 156.149 169.288C170.987 168.398 182.895 163.822 190.271 160.14C200.155 155.206 205.979 149.892 207.963 146.841C214.609 136.62 217.796 124.887 217.181 112.913C216.391 97.5427 209.617 86.0207 197.049 78.6685C187.152 72.8789 173.8 69.874 158.154 69.874Z" fill="#00227B"/>
<g opacity="0.5">
<g opacity="0.5">
<g opacity="0.5">
<g opacity="0.5">
<path d="M205.493 110.43C206.304 104.158 203.262 98.5994 198.699 98.0143C194.136 97.4291 189.78 102.039 188.969 108.311C188.158 114.583 191.2 120.142 195.763 120.728C200.326 121.313 204.682 116.703 205.493 110.43Z" fill="white"/>
</g>
</g>
</g>
</g>
<g opacity="0.5">
<g opacity="0.5">
<g opacity="0.5">
<g opacity="0.5">
<path d="M192.581 133.745C193.349 130.945 192.017 128.143 189.604 127.486C187.192 126.83 184.614 128.567 183.846 131.367C183.077 134.167 184.41 136.969 186.822 137.625C189.235 138.282 191.813 136.544 192.581 133.745Z" fill="white"/>
</g>
</g>
</g>
</g>
<g opacity="0.35">
<path d="M204.281 82.2722C212.548 89.3612 217.732 99.409 218.425 112.848C219.076 125.495 215.556 137.445 209.012 147.517C204.101 155.069 183.033 168.921 156.222 170.532C146.756 171.103 137.518 169.706 129.389 167.367C162.302 164.688 187.957 147.696 194.046 138.33C202.358 125.546 206.822 110.377 205.994 94.332C205.777 90.0428 205.189 86.0273 204.281 82.2722Z" fill="#00227B"/>
</g>
<path d="M92.8697 92.3865C92.5035 92.3865 92.1353 92.2727 91.8201 92.0368C91.0781 91.4802 90.9072 90.4488 91.4123 89.6882C94.1082 85.2768 97.5508 81.2453 101.644 77.7065C105.629 74.2616 110.264 71.254 115.419 68.7672C120.466 66.3331 126.045 64.3831 131.999 62.971C137.9 61.572 144.199 60.6939 150.724 60.361C157.141 60.0338 163.428 60.2548 169.412 61.0163C175.451 61.7854 181.192 63.1082 186.475 64.9463C191.881 66.8276 196.827 69.257 201.177 72.1669C205.649 75.1586 209.516 78.6767 212.674 82.6246C213.226 83.2329 213.282 84.1646 212.766 84.8415C212.183 85.6068 211.087 85.7554 210.318 85.1744L210.135 85.039L209.997 84.8641C198.303 70.1822 176.763 62.5178 150.902 63.8369C124.898 65.1635 104.293 75.2611 94.3706 91.5403L94.3253 91.6146L94.2658 91.6926C93.9241 92.1468 93.4002 92.3865 92.8697 92.3865Z" fill="#00227B"/>
<g opacity="0.5">
<g opacity="0.5">
<g opacity="0.5">
<g opacity="0.5">
<path d="M104.976 138.596C104.976 138.596 92.8738 106.116 110.059 92.0501C127.245 77.984 152.946 76.727 152.43 78.3986C152.43 78.3986 124.333 86.7099 114.353 109.679C106.656 127.391 104.976 138.596 104.976 138.596Z" fill="white"/>
</g>
</g>
</g>
</g>
<path d="M212.528 296.549H97.313C93.5825 296.549 90.5581 293.536 90.5581 289.821C90.5581 287.68 92.3006 285.944 94.45 285.944H215.391C217.541 285.944 219.283 287.68 219.283 289.821C219.283 293.537 216.259 296.549 212.528 296.549Z" fill="#E6E9FA"/>
<g opacity="0.3">
<g opacity="0.3">
<g opacity="0.3">
<g opacity="0.3">
<path opacity="0.3" d="M219.281 289.822C219.281 290.557 219.162 291.263 218.943 291.926C218.337 290.57 216.976 289.63 215.392 289.63H94.451C93.3777 289.63 92.4035 290.061 91.6993 290.767C91.3642 291.101 91.0896 291.49 90.897 291.927C90.678 291.264 90.5581 290.559 90.5581 289.823C90.5581 288.754 90.9914 287.783 91.7003 287.082C92.4045 286.377 93.3786 285.944 94.4519 285.944H215.392C217.543 285.943 219.281 287.679 219.281 289.822Z" fill="white"/>
</g>
</g>
</g>
</g>
<g opacity="0.35">
<g opacity="0.35">
<g opacity="0.35">
<g opacity="0.35">
<path opacity="0.35" d="M219.279 289.821C219.279 291.676 218.524 293.361 217.299 294.575C216.08 295.793 214.388 296.547 212.526 296.547H97.3124C93.5819 296.547 90.5547 293.536 90.5547 289.821C90.5547 289.106 90.7482 288.435 91.0909 287.857C92.1122 290.265 94.5165 291.958 97.3115 291.958H212.525C214.388 291.958 216.08 291.206 217.298 289.987C217.908 289.38 218.402 288.658 218.741 287.857C219.086 288.435 219.279 289.106 219.279 289.821Z" fill="#00227B"/>
</g>
</g>
</g>
</g>
<path d="M212.521 298.259H97.306C92.6343 298.259 88.834 294.474 88.834 289.821C88.834 286.741 91.3506 284.235 94.443 284.235H215.384C218.477 284.235 220.993 286.741 220.993 289.821C220.993 294.473 217.193 298.259 212.521 298.259ZM94.442 287.655C93.2432 287.655 92.2671 288.626 92.2671 289.821C92.2671 292.588 94.527 294.839 97.305 294.839H212.521C215.299 294.839 217.559 292.588 217.559 289.821C217.559 288.627 216.584 287.655 215.384 287.655H94.442Z" fill="#00227B"/>
<path d="M226.007 210.198L214.738 285.942H95.1019L94.6941 283.202L83.8273 210.198C83.4714 207.8 85.3386 205.649 87.7683 205.649H222.065C224.5 205.649 226.362 207.8 226.007 210.198Z" fill="#FF66AC"/>
<path d="M226.007 210.198L214.738 285.942H95.1019L94.6941 283.202L83.8273 210.198C83.4714 207.8 85.3386 205.649 87.7683 205.649H222.065C224.5 205.649 226.362 207.8 226.007 210.198Z" fill="#E6E9FA"/>
<g opacity="0.5">
<g opacity="0.5">
<g opacity="0.5">
<g opacity="0.5">
<path opacity="0.5" d="M88.0732 214.899C87.7173 212.501 89.5845 210.35 92.0142 210.35H225.982L226.005 210.198C226.361 207.8 224.498 205.649 222.064 205.649H87.7673C85.3376 205.649 83.4705 207.8 83.8263 210.198L94.6922 283.202L95.1 285.942H98.6483L88.0732 214.899Z" fill="white"/>
</g>
</g>
</g>
</g>
<g opacity="0.35">
<g opacity="0.35">
<g opacity="0.35">
<g opacity="0.35">
<path opacity="0.35" d="M218.292 205.65H208.862C212.438 218.698 210.465 248.161 187.396 263.559C158.438 282.89 106.249 282.766 95.1685 283.203L95.5762 285.943H210.964L222.233 210.199C222.589 207.801 220.727 205.65 218.292 205.65Z" fill="#00227B"/>
</g>
</g>
</g>
</g>
<path d="M216.217 287.654H93.6201L82.1312 210.447C81.8877 208.812 82.37 207.157 83.4537 205.906C84.5374 204.654 86.1109 203.937 87.7695 203.937H222.068C223.727 203.937 225.3 204.654 226.383 205.906C227.467 207.157 227.949 208.812 227.706 210.447L216.217 287.654ZM96.5831 284.233H213.254L224.309 209.945C224.407 209.286 224.22 208.645 223.783 208.14C223.346 207.635 222.737 207.357 222.068 207.357H87.7695C87.1002 207.357 86.4913 207.636 86.0543 208.14C85.6172 208.645 85.4303 209.286 85.5285 209.945L96.5831 284.233Z" fill="#00227B"/>
<g opacity="0.3">
<g opacity="0.3">
<g opacity="0.3">
<g opacity="0.3">
<path opacity="0.3" d="M104.623 268.245C100.084 258.281 96.7792 241.273 97.524 231.263C98.2688 221.252 104.098 224.316 105.904 237.138C110.712 271.263 106.648 272.694 104.623 268.245Z" fill="white"/>
</g>
</g>
</g>
</g>
<path d="M225.411 214.192C225.411 214.192 216.139 209.81 207.432 213.741C199.094 217.505 193.196 244.306 203.998 251.095C210.665 255.286 215.204 251.584 218.976 252.671C224.571 254.282 236.049 226.687 225.411 214.192Z" fill="white"/>
<g opacity="0.35">
<path d="M229.596 231.635C228.497 242.868 222.543 253.699 218.979 252.673C215.205 251.587 210.668 255.289 204.001 251.099C198.84 247.853 197.492 240.046 198.402 232.357C199.016 236.843 200.754 240.686 204.001 242.726C210.668 246.912 215.107 244.967 218.979 244.3C223.766 243.475 227.669 238.267 229.596 231.635Z" fill="#00227B"/>
</g>
<path d="M210.836 254.857C208.586 254.857 205.983 254.367 203.082 252.544C200.485 250.912 198.61 248.271 197.508 244.694C196.583 241.693 196.238 238.036 196.508 234.118C196.828 229.478 197.974 224.718 199.732 220.715C201.076 217.657 203.381 213.694 206.723 212.185C216.048 207.975 225.739 212.455 226.147 212.648L226.481 212.806L226.72 213.087C231.589 218.805 231.87 226.706 231.248 232.325C230.548 238.657 228.304 245.374 225.392 249.855C222.475 254.342 220.033 254.758 218.498 254.316C217.502 254.029 216.244 254.23 214.786 254.462C213.635 254.646 212.311 254.857 210.836 254.857ZM215.37 213.811C212.76 213.811 210.34 214.309 208.143 215.301C206.335 216.117 204.416 218.591 202.88 222.088C201.298 225.687 200.225 230.157 199.935 234.354C199.424 241.765 201.239 247.341 204.915 249.652C208.622 251.982 211.482 251.526 214.245 251.085C216.032 250.8 217.72 250.531 219.454 251.03C219.653 251.065 221.083 250.516 223.098 247.038C227.798 238.929 230.779 223.614 224.349 215.598C223.62 215.296 221.744 214.586 219.29 214.161C217.941 213.928 216.633 213.811 215.37 213.811Z" fill="#00227B"/>
</svg>
