<svg width="152" height="147" viewBox="0 0 152 147" fill="none" xmlns="http://www.w3.org/2000/svg">
<path d="M0.404686 88.5518C-0.202235 89.2959 -0.202235 90.4459 0.539558 91.1224L55.4996 146.256C56.2414 147 57.3204 147 58.0622 146.391L81.9344 122.444L141.075 63.116C141.817 62.3718 141.817 61.1541 141.075 60.3424L86.1829 5.27655C85.4411 4.53242 84.2272 4.53242 79.5067 9.20016L21.1749 67.716L0.404686 88.5518Z" fill="#383837"/>
<path d="M6.67617 88.7547C6.06925 89.4988 6.06925 90.6488 6.81104 91.3253L61.7037 146.391C62.4455 147.068 63.5244 147.135 64.2662 146.526L88.1385 122.579L147.28 63.2512C148.021 62.5071 148.021 61.2894 147.28 60.4776L92.3869 5.47949C91.6451 4.73535 90.4313 4.73535 89.6895 5.47949L31.3576 63.9954L6.67617 88.7547Z" fill="#75B38F"/>
<path d="M114.506 51.4804C110.932 55.0658 105.065 55.0658 101.491 51.4804C97.9168 47.895 97.9168 42.0096 101.491 38.4243C105.065 34.8389 110.864 34.8389 114.506 38.4243C118.147 42.0096 118.147 47.8274 114.506 51.4804Z" fill="white"/>
<path d="M151.73 12.9208C152.472 9.67366 151.73 6.56184 149.64 3.9912C146.47 0.202886 142.964 -0.203005 140.603 0.135237C129.949 1.55585 119.159 21.2415 115.45 28.6829L119.024 32.2682C124.082 21.7827 134.062 5.88535 141.278 4.87063C142.357 4.73533 144.11 4.80298 145.998 7.03537C147.145 8.45599 147.549 10.0119 147.145 11.9061C144.65 23.068 116.731 38.6948 106.144 43.7685L108.234 48.098C112.213 46.0685 148.224 28.3446 151.73 12.9208Z" fill="#383837"/>
<path d="M53.4091 81.0428C48.9583 85.5752 49.4304 93.3548 54.5555 98.5637C59.6806 103.705 67.5031 104.246 72.0213 99.7137C79.9113 91.7989 69.9983 83.4105 67.3008 75.7662C65.9521 71.9102 66.7614 67.5807 69.6611 64.7395C74.1793 60.207 81.9344 60.7482 87.1269 65.8895C92.252 71.0308 92.7915 78.878 88.2733 83.4105" stroke="white" stroke-width="7.3805" stroke-miterlimit="10"/>
<path d="M91.6452 61.3571L49.7002 103.434" stroke="white" stroke-width="7.3805" stroke-miterlimit="10"/>
<path d="M92.5893 108.034L90.7686 109.793" stroke="white" stroke-width="4.7934" stroke-miterlimit="10"/>
<path d="M87.1946 113.379L67.5708 133.132" stroke="white" stroke-width="4.7934" stroke-miterlimit="10" stroke-dasharray="7.5 7.5"/>
<path d="M65.7499 134.891L63.9966 136.717" stroke="white" stroke-width="4.7934" stroke-miterlimit="10"/>
<path d="M42.0124 63.3188L40.259 65.0777" stroke="white" stroke-width="4.7934" stroke-miterlimit="10"/>
<path d="M36.6849 68.6631L16.9937 88.4164" stroke="white" stroke-width="4.7934" stroke-miterlimit="10" stroke-dasharray="7.5 7.5"/>
<path d="M15.2404 90.1753L13.4197 92.0018" stroke="white" stroke-width="4.7934" stroke-miterlimit="10"/>
</svg>
