<svg width="120" height="165" viewBox="0 0 120 165" fill="none" xmlns="http://www.w3.org/2000/svg">
<path d="M114.419 74.5625C115.85 69.4623 116.637 64.0749 116.637 58.4719C116.637 26.219 90.5188 0 58.3184 0C26.1181 0 0 26.219 0 58.5438C0 67.7384 2.07513 76.3583 5.79606 84.0444L58.2469 165L111.27 82.8232C112.487 80.1654 113.488 77.5076 114.275 74.7061L114.419 74.5625Z" fill="#517C64"/>
<path d="M117.71 74.5625L117.639 74.7061C116.851 77.5076 115.85 80.2373 114.633 82.8232L61.6815 165L39.8568 131.382L9.23066 84.0444C5.50973 76.3583 3.36304 67.6665 3.36304 58.5438C3.36304 26.219 29.4811 0 61.6815 0C87.5849 0 109.553 17.0244 117.138 40.5137C118.998 46.1885 120 52.2943 120 58.5438C120 64.0749 119.213 69.4623 117.71 74.5625Z" fill="#75B38F"/>
<path d="M103.041 58.4719C103.041 81.3866 84.5081 99.9913 61.6816 99.9913C38.8551 99.9913 20.322 81.3866 20.322 58.4719C20.322 35.5572 38.8551 16.9525 61.6816 16.9525C84.5081 16.9525 103.041 35.5572 103.041 58.4719Z" fill="white"/>
<path d="M48.0144 70.5399C48.0144 77.364 54.3114 82.8951 62.0395 82.8951C69.7675 82.8951 76.0645 77.364 76.0645 70.5399C76.0645 58.6156 62.3257 59.7649 54.526 56.0296C50.662 54.162 48.0144 50.2112 48.0144 45.9012C48.0144 39.0771 54.3114 33.6178 62.0395 33.6178C69.7675 33.6178 76.0645 39.1489 76.0645 45.9012" stroke="#75B38F" stroke-width="7.412" stroke-miterlimit="10"/>
<path d="M62.0396 26.7937V90.1503" stroke="#75B38F" stroke-width="7.412" stroke-miterlimit="10"/>
<path d="M117.71 74.5624L117.639 74.7061C116.852 77.5076 115.85 80.2372 114.633 82.8232L61.6816 165L39.8569 131.382C114.347 108.396 117.138 40.5137 117.138 40.5137C118.998 46.1885 120 52.2943 120 58.5437C120 64.0748 119.213 69.4623 117.71 74.5624Z" fill="#A9CEB9"/>
<path d="M109.767 68.9596C109.553 69.8216 109.338 70.6836 109.123 71.5456L109.052 71.6892C108.837 72.5512 108.551 73.3414 108.265 74.1315" stroke="white" stroke-width="4.8139" stroke-miterlimit="10"/>
<path d="M106.046 79.3035L64.6868 143.45" stroke="white" stroke-width="4.8139" stroke-miterlimit="10" stroke-dasharray="7.88 7.88"/>
<path d="M63.1125 145.749L61.6814 148.048L60.1787 145.821" stroke="white" stroke-width="4.8139" stroke-miterlimit="10"/>
<path d="M57.3166 141.367L43.22 119.602L17.245 79.5908C14.0965 73.054 12.3076 65.7271 12.3076 57.9691C12.3076 30.6008 34.4185 8.47632 61.6099 8.47632C81.6457 8.47632 98.8908 20.4724 106.619 37.7123" stroke="white" stroke-width="4.8139" stroke-miterlimit="10" stroke-dasharray="7.38 7.38"/>
<path d="M107.692 40.1545C107.978 41.0165 108.336 41.8785 108.622 42.7405C108.909 43.6025 109.123 44.4645 109.41 45.3265" stroke="white" stroke-width="4.8139" stroke-miterlimit="10"/>
<path d="M110.34 49.9957C110.769 52.5817 110.984 55.2395 110.984 57.9692C110.984 60.9143 110.698 63.7876 110.197 66.5891" stroke="white" stroke-width="4.8139" stroke-miterlimit="10" stroke-dasharray="6.64 6.64"/>
</svg>
