<svg width="16" height="16" viewBox="0 0 16 16" fill="none" xmlns="http://www.w3.org/2000/svg">
<path d="M0 2.66667C0 1.19391 1.19391 0 2.66667 0H3.84614C4.27545 0 4.65274 0.284593 4.77068 0.697381L5.70908 3.98178C5.88044 4.58155 5.62533 5.2214 5.08831 5.53872L4.45386 5.91363C3.55783 6.4431 3.23106 7.58004 3.70921 8.50448C4.549 10.1281 5.87194 11.451 7.49552 12.2908C8.41996 12.7689 9.5569 12.4422 10.0864 11.5461L10.4613 10.9117C10.7786 10.3747 11.4184 10.1196 12.0182 10.2909L15.3026 11.2293C15.7154 11.3473 16 11.7246 16 12.1539V13.3333C16 14.8061 14.8061 16 13.3333 16C5.96954 16 0 10.0305 0 2.66667Z" fill="black"/>
</svg>
