<svg width="18" height="18" viewBox="0 0 18 18" fill="none" xmlns="http://www.w3.org/2000/svg">
<path d="M1.72761 9.75293H7.85484V15.8802C7.85484 16.5029 8.36712 17.0253 8.99993 17.0253C9.63274 17.0253 10.145 16.5029 10.145 15.8802V9.75293H16.2723C16.895 9.75293 17.4173 9.24065 17.4173 8.60784C17.4173 7.97503 16.895 7.46275 16.2723 7.46275H10.145V1.33552C10.145 0.712751 9.63274 0.19043 8.99993 0.19043C8.36712 0.19043 7.85484 0.712751 7.85484 1.33552V7.46275H1.72761C1.10484 7.46275 0.58252 7.97503 0.58252 8.60784C0.58252 9.24065 1.10484 9.75293 1.72761 9.75293Z" fill="#1C1C1C"/>
</svg>
