<svg width="20" height="24" viewBox="0 0 20 24" fill="none" xmlns="http://www.w3.org/2000/svg">
<path d="M7.5 9C8.32843 9 9 8.32843 9 7.5C9 6.67157 8.32843 6 7.5 6C6.67157 6 6 6.67157 6 7.5C6 8.32843 6.67157 9 7.5 9Z" fill="#B9C3CD"/>
<path d="M14 7.5C14 8.32843 13.3284 9 12.5 9C11.6716 9 11 8.32843 11 7.5C11 6.67157 11.6716 6 12.5 6C13.3284 6 14 6.67157 14 7.5Z" fill="#B9C3CD"/>
<path d="M7.28091 11.3753C6.9359 10.944 6.3066 10.8741 5.87534 11.2191C5.44408 11.5641 5.37416 12.1934 5.71917 12.6247C6.87399 14.0682 8.39439 14.875 10 14.875C11.6057 14.875 13.1261 14.0682 14.2809 12.6247C14.6259 12.1934 14.556 11.5641 14.1247 11.2191C13.6935 10.8741 13.0642 10.944 12.7192 11.3753C11.874 12.4318 10.8944 12.875 10 12.875C9.10569 12.875 8.12609 12.4318 7.28091 11.3753Z" fill="#B9C3CD"/>
<path fill-rule="evenodd" clip-rule="evenodd" d="M7.88664 21.2497C8.72518 22.0883 9 22.625 9 23C9 23.5523 9.44771 24 10 24C10.5523 24 11 23.5523 11 23C11 22.625 11.2748 22.0883 12.1134 21.2497C12.6138 20.7493 13.1888 20.2562 13.8312 19.7055C14.2491 19.3471 14.6956 18.9643 15.1685 18.5391C17.4412 16.496 20 13.7369 20 9.72727C20 4.32627 15.4936 0 10 0C4.50638 0 0 4.32627 0 9.72727C0 13.7369 2.55881 16.496 4.83145 18.5391C5.30441 18.9643 5.75087 19.3471 6.16884 19.7055C6.81112 20.2562 7.3862 20.7493 7.88664 21.2497ZM2 9.72727C2 5.4884 5.55249 2 10 2C14.4475 2 18 5.4884 18 9.72727C18 12.8085 16.0588 15.0494 13.8315 17.0518C13.4435 17.4005 13.0323 17.7539 12.6246 18.1044C11.9285 18.7026 11.2423 19.2923 10.6991 19.8355C10.4598 20.0748 10.2204 20.3304 10 20.6024C9.77957 20.3304 9.54016 20.0748 9.30086 19.8355C8.75766 19.2923 8.07156 18.7026 7.37542 18.1044C6.96767 17.7539 6.55648 17.4005 6.16855 17.0518C3.94119 15.0494 2 12.8085 2 9.72727Z" fill="#B9C3CD"/>
</svg>
