<svg width="22" height="16" viewBox="0 0 22 16" fill="none" xmlns="http://www.w3.org/2000/svg">
<path d="M5 10C4.44772 10 4 10.4477 4 11C4 11.5523 4.44772 12 5 12H11C11.5523 12 12 11.5523 12 11C12 10.4477 11.5523 10 11 10H5Z" fill="#B9C3CD"/>
<path fill-rule="evenodd" clip-rule="evenodd" d="M0 3C0 1.34315 1.34315 0 3 0H19C20.6569 0 22 1.34315 22 3V13C22 14.6569 20.6569 16 19 16H3C1.34315 16 0 14.6569 0 13V3ZM3 2C2.44772 2 2 2.44772 2 3V4H20V3C20 2.44772 19.5523 2 19 2H3ZM2 13V6H20V13C20 13.5523 19.5523 14 19 14H3C2.44772 14 2 13.5523 2 13Z" fill="#B9C3CD"/>
</svg>
