<svg width="18" height="19" viewBox="0 0 18 19" fill="none" xmlns="http://www.w3.org/2000/svg">
<path d="M7.5 13.0034C10.5376 13.0034 13 10.541 13 7.50342C13 4.46585 10.5376 2.00342 7.5 2.00342C4.46243 2.00342 2 4.46585 2 7.50342C2 10.541 4.46243 13.0034 7.5 13.0034ZM13.5003 12.0037L17.7071 16.2963C18.0976 16.6868 18.0976 17.32 17.7071 17.7105C17.3166 18.101 16.6834 18.101 16.2929 17.7105L12.0003 13.5037C10.7468 14.4454 9.18855 15.0034 7.5 15.0034C3.35786 15.0034 0 11.6456 0 7.50342C0 3.36128 3.35786 0.00341797 7.5 0.00341797C11.6421 0.00341797 15 3.36128 15 7.50342C15 9.19197 14.442 10.7502 13.5003 12.0037Z" fill="#171717"/>
</svg>
