<svg width="422" height="328" viewBox="0 0 422 328" fill="none" xmlns="http://www.w3.org/2000/svg">
<g clip-path="url(#clip0_97_27935)">
<path d="M310.781 185.009C310.781 184.795 310.781 184.795 310.781 185.009V180.507L306.703 179.864C306.488 179.864 306.273 179.65 306.059 179.65L295.112 177.935L286.526 176.434C285.238 172.361 283.521 168.502 281.589 164.643L292.965 148.565C292.965 148.35 293.18 148.35 293.18 148.136L295.541 144.706L283.736 132.915L271.93 121.124L268.496 123.482C268.281 123.482 268.281 123.482 268.067 123.697L251.969 135.059C248.32 133.129 244.241 131.414 240.163 130.128L239.305 125.626L236.943 110.62C236.943 110.405 236.729 110.191 236.729 109.762L236.085 105.903H202.6L202.171 109.762C201.957 109.977 201.957 110.405 201.957 110.834L198.737 130.343C194.659 131.629 190.795 133.344 186.932 135.273L170.833 123.911C170.619 123.911 170.619 123.911 170.404 123.697L166.97 121.339L163.75 124.554L146.364 141.705L143.144 144.92L145.505 148.35C145.505 148.565 145.505 148.565 145.72 148.779L157.096 164.858C155.164 168.502 153.447 172.361 152.159 176.434L132.627 179.65C132.197 179.65 131.983 179.864 131.768 179.864L128.119 180.507V213.95L131.983 214.594C132.197 214.594 132.412 214.808 132.627 214.808L152.159 218.024C153.447 222.097 155.164 225.956 157.096 229.814L145.505 245.893C145.291 246.107 145.291 246.322 145.291 246.322L142.93 249.537L146.149 252.753L163.535 269.903L166.755 273.119L170.189 270.546C170.404 270.546 170.404 270.546 170.619 270.332L180.278 263.472L186.717 258.97C190.366 260.899 194.444 262.614 198.522 263.901L201.742 283.409C201.742 283.838 201.957 284.052 201.957 284.481L202.6 288.126H236.085L236.729 284.481C236.729 284.267 236.943 284.052 236.943 283.624L240.378 264.115C244.456 262.829 248.32 261.114 252.183 259.184L254.33 260.685L268.067 270.546C268.281 270.761 268.496 270.761 268.496 270.761L271.716 273.119L274.935 269.903L292.322 252.753L295.541 249.537L293.18 246.107C293.18 245.893 293.18 245.893 292.965 245.678L283.95 233.245L281.375 229.814C283.307 225.956 285.024 222.097 286.312 218.024L305.629 214.808C306.059 214.808 306.273 214.594 306.488 214.594L310.137 213.95V185.009H310.781ZM219.557 229.386C201.742 229.386 187.146 214.808 187.146 197.229C187.146 179.65 201.742 165.072 219.557 165.072C237.373 165.072 251.969 179.435 251.969 197.229C251.969 214.808 237.373 229.386 219.557 229.386Z" fill="#21BCC2"/>
<path opacity="0.3" d="M283.519 157.783H-1.74219C-1.74219 157.783 22.0833 129.485 60.0752 129.485C60.0752 129.485 64.368 76.7479 112.448 76.7479C139.064 76.7479 148.508 89.825 148.508 89.825C148.508 89.825 157.309 55.31 199.594 59.3832C238.873 63.242 251.537 96.042 252.181 121.553C252.396 121.553 283.519 128.842 283.519 157.783ZM423.252 208.377C423.252 208.377 415.525 195.085 397.495 195.728C397.495 195.728 395.134 176.649 374.313 176.649C356.713 176.649 350.488 191.655 350.488 191.655C350.488 191.655 327.092 186.724 324.516 208.377H423.252Z" fill="#21BCC2"/>
<path d="M336.32 109.333C336.105 109.333 335.891 109.333 335.891 109.119C335.462 108.905 335.247 108.476 335.247 108.261V100.544H305.626C304.982 100.544 304.553 100.115 304.553 99.4719V85.5373C304.553 84.8941 304.982 84.4654 305.626 84.4654H335.247V76.7477C335.247 76.319 335.462 75.8902 335.891 75.8902C336.32 75.6758 336.749 75.6758 336.964 75.8902L357.999 91.7543C358.214 91.9686 358.428 92.183 358.428 92.6118C358.428 93.0405 358.214 93.2549 357.999 93.4693L336.964 109.333C336.749 109.119 336.535 109.333 336.32 109.333ZM306.485 98.1856H336.105C336.749 98.1856 337.179 98.6144 337.179 99.2575V105.903L355.209 92.183L337.179 78.4628V85.1085C337.179 85.7516 336.749 86.1804 336.105 86.1804H306.485V98.1856ZM320.007 141.705C319.793 141.705 319.578 141.705 319.363 141.49L298.328 125.626C298.114 125.412 297.899 125.197 297.899 124.769C297.899 124.34 298.114 124.126 298.328 123.911L319.363 108.047C319.793 107.833 320.222 107.833 320.436 108.047C320.866 108.261 321.08 108.69 321.08 108.905V116.622H350.701C351.345 116.622 351.774 117.051 351.774 117.694V131.629C351.774 132.272 351.345 132.701 350.701 132.701H321.08V140.418C321.08 140.847 320.866 141.276 320.436 141.276C320.436 141.705 320.222 141.705 320.007 141.705ZM300.904 124.769L318.934 138.489V131.843C318.934 131.2 319.363 130.771 320.007 130.771H349.628V118.98H320.007C319.363 118.98 318.934 118.552 318.934 117.909V111.263L300.904 124.769ZM182.421 246.322C182.421 245.035 183.279 244.178 184.567 244.178C185.64 244.178 186.713 245.035 186.713 246.322C186.713 247.608 185.855 248.465 184.567 248.465C183.279 248.465 182.421 247.394 182.421 246.322ZM169.542 246.322C169.542 245.035 170.401 244.178 171.688 244.178C172.976 244.178 173.835 245.035 173.835 246.322C173.835 247.608 172.976 248.465 171.688 248.465C170.401 248.465 169.542 247.394 169.542 246.322ZM156.663 246.322C156.663 245.035 157.522 244.178 158.81 244.178C160.098 244.178 160.956 245.035 160.956 246.322C160.956 247.608 160.098 248.465 158.81 248.465C157.522 248.465 156.663 247.394 156.663 246.322ZM143.785 246.322C143.785 245.035 144.643 244.178 145.931 244.178C147.219 244.178 148.078 245.035 148.078 246.322C148.078 247.608 147.004 248.465 145.931 248.465C144.643 248.465 143.785 247.394 143.785 246.322ZM130.906 246.322C130.906 245.035 131.765 244.178 133.053 244.178C134.34 244.178 135.199 245.035 135.199 246.322C135.199 247.608 134.126 248.465 133.053 248.465C131.765 248.465 130.906 247.394 130.906 246.322ZM118.027 246.322C118.027 245.035 118.886 244.178 120.174 244.178C121.247 244.178 122.32 245.035 122.32 246.322C122.32 247.608 121.247 248.465 120.174 248.465C118.886 248.465 118.027 247.394 118.027 246.322ZM105.149 246.322C105.149 245.035 106.007 244.178 107.295 244.178C108.369 244.178 109.442 245.035 109.442 246.322C109.442 247.608 108.583 248.465 107.295 248.465C106.007 248.465 105.149 247.394 105.149 246.322ZM92.2702 246.322C92.2702 245.035 93.1288 244.178 94.4167 244.178C95.4899 244.178 96.5631 245.035 96.5631 246.322C96.5631 247.608 95.7045 248.465 94.4167 248.465C93.1288 248.465 92.2702 247.394 92.2702 246.322ZM74.6694 263.686H50.2001C47.1951 263.686 44.834 261.328 44.834 258.327V233.888C44.834 230.886 47.1951 228.528 50.2001 228.528H74.6694C77.6745 228.528 80.0355 230.886 80.0355 233.888V258.327C80.0355 261.328 77.6745 263.686 74.6694 263.686ZM50.2001 230.886C48.4829 230.886 46.9804 232.387 46.9804 234.102V258.541C46.9804 260.256 48.4829 261.757 50.2001 261.757H74.6694C76.3866 261.757 77.8891 260.256 77.8891 258.541V234.102C77.8891 232.387 76.3866 230.886 74.6694 230.886H50.2001ZM222.774 139.346C222.774 138.275 223.847 137.203 224.92 137.203C226.208 137.203 227.066 138.275 227.066 139.346C227.066 140.633 226.208 141.49 224.92 141.49C223.632 141.49 222.774 140.418 222.774 139.346ZM222.774 126.484C222.774 125.412 223.847 124.34 224.92 124.34C226.208 124.34 227.066 125.412 227.066 126.484C227.066 127.77 226.208 128.627 224.92 128.627C223.632 128.627 222.774 127.556 222.774 126.484ZM222.774 113.621C222.774 112.549 223.847 111.477 224.92 111.477C226.208 111.477 227.066 112.549 227.066 113.621C227.066 114.907 226.208 115.765 224.92 115.765C223.632 115.765 222.774 114.693 222.774 113.621ZM222.774 100.758C222.774 99.6863 223.847 98.6144 224.92 98.6144C226.208 98.6144 227.066 99.6863 227.066 100.758C227.066 102.044 226.208 102.902 224.92 102.902C223.632 102.902 222.774 101.83 222.774 100.758ZM222.774 87.8954C222.774 86.8235 223.847 85.7516 224.92 85.7516C226.208 85.7516 227.066 86.8235 227.066 87.8954C227.066 89.1817 226.208 90.0392 224.92 90.0392C223.632 90.0392 222.774 88.9673 222.774 87.8954ZM222.774 75.0327C222.774 73.9608 223.847 72.8889 224.92 72.8889C226.208 72.8889 227.066 73.9608 227.066 75.0327C227.066 76.319 226.208 77.1765 224.92 77.1765C223.632 77.1765 222.774 76.1046 222.774 75.0327ZM222.774 62.1699C222.774 61.098 223.847 60.0262 224.92 60.0262C226.208 60.0262 227.066 61.098 227.066 62.1699C227.066 63.4562 226.208 64.3137 224.92 64.3137C223.632 64.3137 222.774 63.2418 222.774 62.1699ZM222.774 49.3072C222.774 48.2353 223.847 47.1634 224.92 47.1634C226.208 47.1634 227.066 48.2353 227.066 49.3072C227.066 50.5935 226.208 51.451 224.92 51.451C223.632 51.451 222.774 50.3791 222.774 49.3072ZM236.94 35.1582H212.685C209.68 35.1582 207.319 32.8 207.319 29.7987V5.35948C207.319 2.35817 209.68 0 212.685 0H237.155C240.16 0 242.521 2.35817 242.521 5.35948V29.7987C242.306 32.5856 239.945 35.1582 236.94 35.1582ZM212.685 2.14379C210.968 2.14379 209.466 3.64444 209.466 5.35948V29.7987C209.466 31.5137 210.968 33.0144 212.685 33.0144H237.155C238.872 33.0144 240.374 31.5137 240.374 29.7987V5.35948C240.374 3.64444 238.872 2.14379 237.155 2.14379H212.685Z" fill="#21BCC2"/>
<path fill-rule="evenodd" clip-rule="evenodd" d="M281.159 328H329.239C332.244 328 334.605 325.642 334.605 322.641V230.886C334.605 227.885 332.244 225.527 329.239 225.527H281.159C278.154 225.527 275.793 227.885 275.793 230.886V322.641C275.793 325.642 278.154 328 281.159 328ZM278.154 230.886C278.154 229.171 279.657 227.671 281.374 227.671H329.454C331.171 227.671 332.674 229.171 332.674 230.886V322.641C332.674 324.356 331.171 325.856 329.454 325.856H281.374C279.657 325.856 278.154 324.356 278.154 322.641V230.886ZM310.351 240.105H301.979C301.336 240.105 300.906 239.676 300.906 239.033C300.906 238.39 301.336 237.961 301.979 237.961H310.351C310.994 237.961 311.424 238.39 311.424 239.033C311.424 239.676 310.994 240.105 310.351 240.105ZM300.906 314.494C300.906 311.493 303.267 309.135 306.272 309.135C309.277 309.135 311.638 311.493 311.638 314.494C311.638 317.496 309.277 319.854 306.272 319.854C303.267 319.854 300.906 317.496 300.906 314.494Z" fill="#21BCC2"/>
</g>
<defs>
<clipPath id="clip0_97_27935">
<rect width="422" height="328" fill="white"/>
</clipPath>
</defs>
</svg>
