<svg width="15" height="15" viewBox="0 0 15 15" fill="none" xmlns="http://www.w3.org/2000/svg">
<path d="M6.59383 0.941651C6.95293 0.1722 8.04707 0.172199 8.40617 0.94165L10.0509 4.46583C10.1502 4.67867 10.3213 4.84976 10.5342 4.94909L14.0583 6.59383C14.8278 6.95293 14.8278 8.04707 14.0583 8.40617L10.5342 10.0509C10.3213 10.1502 10.1502 10.3213 10.0509 10.5342L8.40617 14.0583C8.04707 14.8278 6.95293 14.8278 6.59383 14.0583L4.94909 10.5342C4.84976 10.3213 4.67867 10.1502 4.46583 10.0509L0.941651 8.40617C0.1722 8.04707 0.172199 6.95293 0.94165 6.59383L4.46583 4.94909C4.67867 4.84976 4.84976 4.67867 4.94909 4.46583L6.59383 0.941651Z" fill="#FFCC31"/>
</svg>
