<svg width="70" height="42" viewBox="0 0 70 42" fill="none" xmlns="http://www.w3.org/2000/svg">
<g clip-path="url(#clip0_97_34291)">
<path d="M29.0004 15.2L28.6387 14.9C28.7593 14.78 31.2916 11.84 33.643 11.42C35.3312 11.12 54.022 11 54.8058 11C54.8661 11 55.6499 11 56.7351 11.42C57.6998 11.84 59.1469 12.68 60.2924 14.54L59.8704 14.78C57.8204 11.54 54.8661 11.48 54.8661 11.48C54.6852 11.48 35.3915 11.6 33.7636 11.84C32.8592 12.02 31.7739 12.62 30.568 13.64C29.6637 14.42 29.0607 15.2 29.0004 15.2Z" fill="#222222"/>
<g opacity="0.6">
<path opacity="0.6" d="M58.0009 12.2001C57.5789 11.9001 57.1568 11.7201 56.7951 11.5401C55.7098 11.0601 54.8657 11.0601 54.8657 11.0601C54.0819 11.0601 35.3308 11.1801 33.7029 11.4801C32.7382 11.6601 31.7132 12.2601 30.8691 12.9201C30.9294 12.9201 30.9897 12.9201 31.05 12.9201C31.8338 12.3201 32.7985 11.7801 33.7029 11.6601C35.3911 11.3601 54.0819 11.3001 54.8657 11.2401C54.926 11.2401 55.7098 11.2401 56.7951 11.6601C57.0965 11.7801 57.4583 11.9601 57.82 12.2001C57.82 12.2001 57.8803 12.2001 58.0009 12.2001Z" fill="#C5C5C5"/>
</g>
<path d="M49.6216 37.8799C49.6216 38.2399 49.3202 38.5999 48.8981 38.5999H20.8016C20.4399 38.5999 20.0781 38.2999 20.0781 37.8799V36.6199C20.0781 36.2599 20.3796 35.8999 20.8016 35.8999H48.9584C49.3202 35.8999 49.6819 36.1999 49.6819 36.6199V37.8799H49.6216Z" fill="black"/>
<path d="M50.4661 38.3598C50.4661 38.6598 50.1646 38.8998 49.8028 38.8998H19.8976C19.5358 38.8998 19.2344 38.6598 19.2344 38.3598C19.2344 38.0598 19.5358 37.8198 19.8976 37.8198H49.8028C50.1646 37.8198 50.4661 38.0598 50.4661 38.3598Z" fill="#515155"/>
<g opacity="0.4">
<path opacity="0.4" d="M50.406 38.1198C50.2854 37.9398 50.0443 37.8198 49.8031 37.8198H19.8979C19.5964 37.8198 19.3552 37.9398 19.2949 38.1198H50.406Z" fill="#D0D0D0"/>
</g>
<path d="M67.8289 22.3999L18.3888 23.7799C18.3888 23.7799 9.64634 25.0999 1.86856 28.9399C1.26563 29.4799 1.14505 29.9599 1.08476 30.5599C1.02446 30.7399 1.02446 30.9799 1.02446 31.1599C0.783291 32.1199 0.361241 34.2799 1.20534 35.1799C2.47149 36.5599 1.68768 35.7199 3.2553 37.5799C3.31559 37.6399 3.37588 37.6399 3.43618 37.6399L63.6687 37.4599L68.9142 35.7799L69.9392 32.6599L68.9142 30.7399L67.8289 22.3999Z" fill="#C6C4BB"/>
<path d="M0.723693 32.66C0.301643 34.94 1.62809 35.72 3.25599 37.58C3.31629 37.64 3.37658 37.64 3.43687 37.64L63.6694 37.46L68.9149 35.78L69.9399 32.66L68.9149 30.74C68.9752 30.74 0.964864 31.34 0.723693 32.66Z" fill="#B9B8B0"/>
<g opacity="0.6">
<path opacity="0.6" d="M1.20571 35.1799C2.47186 36.5599 1.68806 35.7199 3.25567 37.5799C3.31596 37.6399 3.37626 37.6399 3.43655 37.6399L63.6691 37.4599L68.9146 35.7799L69.4572 34.1599C69.4572 34.1599 0.964542 34.8799 1.20571 35.1799Z" fill="#B9B8B0"/>
</g>
<path d="M63.6084 16.7C60.1115 13.16 60.0512 12.26 57.0968 12.2C54.866 12.2 54.3836 12.02 52.1528 12.02C49.0779 12.02 46.0632 12.02 42.9883 12.14C39.9736 12.26 36.8987 12.38 33.8841 12.62C31.7135 12.8 29.8444 13.16 29.6636 13.22C26.1063 14.42 16.0977 25.94 16.0977 25.94L39.7928 25.64L67.8892 22.4C67.8289 22.4 66.9245 20.12 63.6084 16.7Z" fill="#C8C7BE"/>
<path d="M60.0517 18.8C55.6503 13.1 54.7459 12.62 53.7812 12.62C51.3695 12.5 50.4048 12.62 48.0534 12.62C45.099 12.62 33.1008 13.04 30.3876 14.12C26.9509 15.5 25.1421 18.38 22.851 21.38C22.4892 21.8 21.9466 22.34 21.7054 22.88C21.7054 22.88 21.1025 24.2 22.3083 24.32C22.3083 24.32 48.4152 22.34 56.9767 21.44C58.3032 21.32 59.5693 19.94 59.9914 19.4C60.0517 19.16 60.112 18.98 60.0517 18.8Z" fill="black"/>
<path d="M20.1378 22.8799C22.7304 19.5199 27.0715 15.7999 27.9156 15.0199C28.4583 14.5999 28.4583 14.1799 28.3377 13.9399C25.4436 15.7999 20.8011 20.7199 18.0879 23.6599C18.9923 23.7799 20.1378 22.8799 20.1378 22.8799Z" fill="#00384B"/>
<path d="M31.6536 14.1202C31.6536 14.1202 29.4228 14.6002 27.8551 16.1002C26.2875 17.6002 22.3685 23.1202 22.3685 23.1202C22.3685 23.1202 21.4038 24.0802 22.9111 23.8402C23.5141 23.7202 29.5433 23.1802 36.2359 22.6402C36.477 18.8002 37.2608 15.5602 37.8638 13.4602C35.5726 13.6402 33.3418 13.8802 31.6536 14.1202Z" fill="#00384B"/>
<path d="M39.3102 13.4002C39.0087 15.6802 38.7072 18.9802 38.7675 22.4602C44.013 21.9802 49.3791 21.5602 52.6952 21.2602C51.2481 17.4802 50.0423 14.7202 49.1379 12.9202C46.3644 12.9802 42.7468 13.1602 39.3102 13.4002Z" fill="#00384B"/>
<path d="M59.3874 18.6201C59.2065 18.0801 55.2875 12.9201 53.7802 12.8601C53.3581 12.8601 52.092 12.8601 50.2832 12.9201C51.7905 15.7401 53.2376 18.5001 54.4434 21.0801C55.4081 21.0201 55.9507 20.9601 55.9507 20.9601C55.9507 20.9601 56.8551 20.9601 57.5786 20.4801C58.3022 20.0001 59.5683 19.1001 59.3874 18.6201Z" fill="#00384B"/>
<path d="M7.17435 35.24C7.17435 32.06 9.88753 29.48 13.2639 29.48C16.6403 29.48 19.3535 32.06 19.3535 35.24C19.3535 36.08 19.1726 36.92 18.8109 37.64H19.9564C20.3785 36.68 20.6197 35.66 20.6197 34.58C20.6197 30.56 17.3036 27.26 13.2639 27.26C9.22431 27.26 5.9082 30.5 5.9082 34.52C5.9082 35.6 6.14937 36.68 6.57142 37.58H7.6567C7.35523 36.92 7.17435 36.08 7.17435 35.24Z" fill="#201E1E"/>
<path d="M20.6197 34.52C20.6197 30.5 17.3036 27.2 13.2639 27.2C9.22431 27.2 5.9082 30.5 5.9082 34.52C5.9082 35.6 6.14937 36.68 6.57142 37.58H6.7523C6.39055 36.74 6.20967 35.78 6.20967 34.82C6.20967 30.92 9.3449 27.8 13.2639 27.8C17.183 27.8 20.3182 30.92 20.3182 34.82C20.3182 35.78 20.1373 36.74 19.7756 37.58H19.9564C20.3785 36.68 20.6197 35.66 20.6197 34.52Z" fill="#201E1E"/>
<path d="M13.2634 29.48C9.88701 29.48 7.17383 32.06 7.17383 35.24C7.17383 36.08 7.35471 36.92 7.71646 37.64H18.8103C19.1721 36.92 19.353 36.08 19.353 35.24C19.353 32.06 16.6398 29.48 13.2634 29.48Z" fill="black"/>
<path d="M18.4504 35.8399C18.4504 38.7199 16.099 40.9999 13.2653 40.9999C10.4315 40.9999 8.08008 38.6599 8.08008 35.8399C8.08008 32.9599 10.4315 30.6799 13.2653 30.6799C16.099 30.6799 18.4504 32.9599 18.4504 35.8399Z" fill="#363635"/>
<path d="M18.4504 35.8399C18.4504 38.7199 16.099 40.9999 13.2653 40.9999C10.4315 40.9999 8.08008 38.6599 8.08008 35.8399C8.08008 32.9599 10.4315 30.6799 13.2653 30.6799C16.099 30.6799 18.4504 32.9599 18.4504 35.8399Z" fill="#222222"/>
<path d="M16.8221 35.8401C16.8221 37.7601 15.2545 39.3201 13.3251 39.3201C11.3957 39.3201 9.82812 37.7601 9.82812 35.8401C9.82812 33.9201 11.3957 32.3601 13.3251 32.3601C15.2545 32.3601 16.8221 33.9201 16.8221 35.8401Z" fill="black"/>
<path d="M16.5199 35.8399C16.5199 37.5799 15.0729 39.0199 13.3244 39.0199C11.5759 39.0199 10.1289 37.5799 10.1289 35.8399C10.1289 34.0999 11.5759 32.6599 13.3244 32.6599C15.0729 32.6599 16.5199 34.0399 16.5199 35.8399Z" fill="#DEE1D3"/>
<path d="M14.8923 33.92C14.8923 33.86 14.8923 33.86 14.8923 33.8C14.5306 33.5 14.1085 33.32 13.6262 33.26C13.5659 33.26 13.5659 33.26 13.5056 33.32L13.4453 33.38V35.18C13.4453 35.18 13.4453 35.24 13.5056 35.24C13.5056 35.24 13.5056 35.24 13.5659 35.24H13.6262L14.8923 33.92C14.8923 33.98 14.8923 33.92 14.8923 33.92Z" fill="#4C4C49"/>
<path d="M15.8571 35.66C15.9174 35.66 15.9174 35.6 15.9174 35.6C15.9174 35.12 15.7365 34.7 15.3748 34.34C15.3145 34.34 15.3145 34.28 15.2542 34.28H15.1939L13.9277 35.54V35.6C13.9277 35.6 13.9277 35.6 13.9277 35.66L13.988 35.72L15.8571 35.66C15.7968 35.72 15.7968 35.72 15.8571 35.66Z" fill="#4C4C49"/>
<path d="M15.1936 37.5201C15.2539 37.5201 15.2539 37.5201 15.3142 37.5201C15.6157 37.1601 15.8569 36.7401 15.8569 36.2601C15.8569 36.2001 15.8569 36.2001 15.7966 36.1401L15.7363 36.0801H13.9275C13.9275 36.0801 13.8672 36.0801 13.8672 36.1401V36.2001L15.1936 37.5201Z" fill="#4C4C49"/>
<path d="M13.5056 38.2999L13.5659 38.3599C14.0482 38.3599 14.4703 38.1799 14.832 37.8199C14.832 37.7599 14.8923 37.7599 14.8923 37.6999V37.6399L13.6262 36.3799H13.5659C13.5659 36.3799 13.5659 36.3799 13.5056 36.3799L13.4453 36.4399L13.5056 38.2999C13.4453 38.2999 13.4453 38.2999 13.5056 38.2999Z" fill="#4C4C49"/>
<path d="M11.6367 33.92C11.6367 33.86 11.6367 33.86 11.6367 33.8C11.9985 33.5 12.4205 33.32 12.9029 33.26C12.9632 33.26 12.9632 33.26 13.0235 33.32L13.0837 33.38V35.18C13.0837 35.18 13.0837 35.24 13.0235 35.24C13.0235 35.24 13.0235 35.24 12.9632 35.24H12.9029L11.6367 33.92C11.697 33.98 11.697 33.92 11.6367 33.92Z" fill="#4C4C49"/>
<path d="M10.7322 35.66L10.6719 35.6C10.6719 35.12 10.8528 34.7 11.2145 34.34C11.2748 34.34 11.2748 34.28 11.3351 34.28H11.3954L12.6615 35.54V35.6C12.6615 35.6 12.6615 35.6 12.6615 35.66L12.6012 35.72L10.7322 35.66C10.7322 35.72 10.7322 35.72 10.7322 35.66Z" fill="#4C4C49"/>
<path d="M11.3351 37.5201C11.2748 37.5201 11.2748 37.5201 11.2145 37.5201C10.913 37.1601 10.6719 36.7401 10.6719 36.2601C10.6719 36.2001 10.6719 36.2001 10.7322 36.1401L10.7925 36.0801H12.6012C12.6012 36.0801 12.6615 36.0801 12.6615 36.1401V36.2001L11.3351 37.5201C11.3954 37.5201 11.3351 37.5201 11.3351 37.5201Z" fill="#4C4C49"/>
<path d="M13.084 38.2999L13.0237 38.3599C12.5414 38.3599 12.1193 38.1799 11.7576 37.8199C11.7576 37.7599 11.6973 37.7599 11.6973 37.6999V37.6399L12.9634 36.3799H13.0237C13.0237 36.3799 13.0237 36.3799 13.084 36.3799L13.1443 36.4399L13.084 38.2999Z" fill="#4C4C49"/>
<path d="M14.2282 35.8399C14.2282 36.3799 13.8061 36.7999 13.2635 36.7999C12.7209 36.7999 12.2988 36.3799 12.2988 35.8399C12.2988 35.2999 12.7209 34.8799 13.2635 34.8799C13.8061 34.8799 14.2282 35.2999 14.2282 35.8399Z" fill="#DEE1D3"/>
<path d="M13.8681 35.36C13.8681 35.42 13.8078 35.48 13.7475 35.48C13.6872 35.48 13.627 35.42 13.627 35.36C13.627 35.3 13.6872 35.24 13.7475 35.24C13.8078 35.24 13.8681 35.3 13.8681 35.36Z" fill="#4C4C49"/>
<path d="M13.3857 35.1801C13.3857 35.2401 13.3254 35.3001 13.2651 35.3001C13.2048 35.3001 13.1445 35.2401 13.1445 35.1801C13.1445 35.1201 13.2048 35.0601 13.2651 35.0601C13.3254 35.0601 13.3857 35.1201 13.3857 35.1801Z" fill="#4C4C49"/>
<path d="M12.9033 35.42C12.9033 35.48 12.843 35.5401 12.7827 35.5401C12.7224 35.5401 12.6621 35.48 12.6621 35.42C12.6621 35.36 12.7224 35.3 12.7827 35.3C12.843 35.3 12.9033 35.3 12.9033 35.42Z" fill="#4C4C49"/>
<path d="M13.8681 36.38C13.8681 36.32 13.8078 36.26 13.7475 36.26C13.6872 36.26 13.627 36.32 13.627 36.38C13.627 36.44 13.6872 36.5 13.7475 36.5C13.8078 36.5 13.8681 36.44 13.8681 36.38Z" fill="#4C4C49"/>
<path d="M14.1084 35.9C14.1084 35.84 14.0481 35.78 13.9878 35.78C13.9275 35.78 13.8672 35.84 13.8672 35.9C13.8672 35.96 13.9275 36.02 13.9878 36.02C14.0481 36.02 14.1084 35.96 14.1084 35.9Z" fill="#4C4C49"/>
<path d="M12.6611 35.9C12.6611 35.84 12.6008 35.78 12.5405 35.78C12.4802 35.78 12.4199 35.84 12.4199 35.9C12.4199 35.96 12.4802 36.02 12.5405 36.02C12.6008 36.02 12.6611 35.96 12.6611 35.9Z" fill="#4C4C49"/>
<path d="M13.3857 36.5599C13.3857 36.4999 13.3254 36.4399 13.2651 36.4399C13.2048 36.4399 13.1445 36.4999 13.1445 36.5599C13.1445 36.6199 13.2048 36.6799 13.2651 36.6799C13.3254 36.6799 13.3857 36.6199 13.3857 36.5599Z" fill="#4C4C49"/>
<path d="M12.9033 36.38C12.9033 36.32 12.843 36.26 12.7827 36.26C12.7224 36.26 12.6621 36.32 12.6621 36.38C12.6621 36.44 12.7224 36.5 12.7827 36.5C12.843 36.5 12.9033 36.44 12.9033 36.38Z" fill="#4C4C49"/>
<path d="M6.99397 34.9401C6.99397 34.5801 7.05426 34.2201 7.05426 33.8601H0.42205C0.361757 33.8601 0.301464 33.8601 0.241171 33.9201C0.120586 33.9801 0.0602929 34.0401 0.0602929 34.1601L0 35.6001C0 35.6001 1.38674 37.6401 2.29113 37.9401C3.25581 38.2401 3.85874 38.1801 3.85874 38.1801H6.57192C6.69251 38.0001 6.93368 35.4201 6.99397 34.9401Z" fill="#201E1E"/>
<path opacity="0.6" d="M5.4874 33.8601H0.422803C0.36251 33.8601 0.302217 33.8601 0.241924 33.9201C0.121338 33.9801 0.0610456 34.0401 0.0610456 34.1601V35.4201C0.000752751 35.4201 5.42711 34.2201 5.4874 33.8601Z" fill="#222222"/>
<path d="M21.042 22.9399L19.7156 23.7799C19.7156 23.7799 19.1127 24.1999 19.5347 24.6799C19.5347 24.6799 19.7156 24.9199 20.3185 24.9199C20.8612 24.9199 22.0067 24.6799 22.0067 24.6799L21.042 22.9399Z" fill="black"/>
<path d="M23.3334 22.64C23.0923 21.92 21.7055 21.98 21.7055 21.98C21.1026 22.04 20.6806 22.58 20.3791 23.24C20.0173 23.96 20.2585 25.4 20.982 25.28C21.8261 25.1 21.4644 25.22 22.7908 24.86C23.1526 24.74 23.6349 23.54 23.3334 22.64Z" fill="#222222"/>
<path d="M23.3325 22.64C23.3325 22.58 23.2722 22.52 23.2119 22.46C23.2119 22.82 23.1516 23.18 22.9104 23.42C22.609 23.78 22.1869 23.96 21.7649 24.08C21.5237 24.14 21.2825 24.26 20.9811 24.32C20.8002 24.38 20.4987 24.44 20.3179 24.32C20.2576 24.32 20.2576 24.26 20.1973 24.2C20.1973 24.86 20.4987 25.46 20.9811 25.34C21.8252 25.16 21.4634 25.28 22.7899 24.92C23.1516 24.74 23.634 23.54 23.3325 22.64Z" fill="#141412"/>
<path d="M15.918 26.7201L66.8051 20.6001L67.8301 22.3401L67.8904 23.0001L66.3228 24.4401L15.918 26.7201Z" fill="#C8C7BE"/>
<path d="M34.1256 24.6199L35.8138 24.4399C35.8138 24.4399 36.1153 24.4399 36.055 24.7399C35.9344 25.0399 35.9344 25.0999 35.9344 25.0999C35.9344 25.0999 35.9344 25.2799 35.5727 25.3399C35.2712 25.3999 33.3418 25.6999 33.3418 25.6999C33.3418 25.6999 33.1007 25.7599 32.6183 25.5799C32.1963 25.3999 32.136 25.0399 32.3168 24.9199C32.3168 24.9199 32.3168 24.8599 32.558 24.7999C32.7992 24.7399 34.1256 24.6199 34.1256 24.6199Z" fill="#404744"/>
<path d="M32.7388 24.8599L35.5122 24.5599C35.5122 24.5599 35.8137 24.4999 35.874 24.6799C35.9343 24.7999 35.7534 24.9799 35.3314 25.0399C34.9093 25.0999 33.2814 25.3399 33.2814 25.3399C33.2814 25.3399 32.6785 25.4599 32.4373 25.2799C32.3167 25.0999 32.377 24.9199 32.7388 24.8599Z" fill="#C5C5C5"/>
<path d="M51.61 22.7L53.2982 22.52C53.2982 22.52 53.5997 22.52 53.5394 22.76C53.4188 23.06 53.4188 23.12 53.4188 23.12C53.4188 23.12 53.4188 23.24 53.057 23.36C52.7556 23.42 50.8262 23.72 50.8262 23.72C50.8262 23.72 50.585 23.78 50.1027 23.6C49.6806 23.42 49.6203 23.06 49.8012 22.94C49.8012 22.94 49.8012 22.88 50.0424 22.82C50.3439 22.82 51.61 22.7 51.61 22.7Z" fill="#404744"/>
<path d="M50.2231 22.94L52.9966 22.64C52.9966 22.64 53.2981 22.58 53.3584 22.76C53.4187 22.88 53.2378 23.06 52.8157 23.12C52.3937 23.18 50.7658 23.42 50.7658 23.42C50.7658 23.42 50.1628 23.54 49.9217 23.36C49.8011 23.18 49.8614 23 50.2231 22.94Z" fill="#C5C5C5"/>
<path d="M59.8706 12.98C59.0265 12.98 58.4838 13.22 58.7853 13.88L65.1161 21.08C65.1161 21.08 66.2616 22.7 67.4072 21.62C66.8646 20.66 65.719 18.92 63.6087 16.76C61.6794 14.78 60.775 13.64 59.8706 12.98Z" fill="#00384B"/>
<path d="M5.6079 28.0399C4.88439 27.9799 4.22117 27.9799 3.55794 28.2799C2.89472 28.5799 1.99033 28.9399 1.62857 29.2999C1.50799 29.4199 1.44769 29.5999 1.32711 29.7799C1.14623 30.3199 1.08594 30.8599 1.08594 31.3999C1.08594 31.5799 1.14623 31.6999 1.20652 31.8199C1.3874 32.2399 3.55794 31.8799 5.00497 30.7399C5.48732 30.4999 6.33142 28.0999 5.6079 28.0399Z" fill="#DEE1D3"/>
<path opacity="0.6" d="M4.94526 29.8999C4.82467 30.6199 4.40262 31.1599 3.92028 31.0999C3.43794 31.0399 3.13647 30.3799 3.25706 29.6599C3.37764 28.9399 3.79969 28.3999 4.28204 28.4599C4.76438 28.5199 5.06584 29.1199 4.94526 29.8999Z" fill="#E3EDEE"/>
<path d="M2.71443 30.8C2.71443 31.22 2.47326 31.58 2.1718 31.58C1.87033 31.58 1.68945 31.22 1.68945 30.74C1.68945 30.32 1.93062 29.96 2.23209 29.96C2.53355 29.96 2.77472 30.32 2.71443 30.8Z" fill="#E3D8C3"/>
<g opacity="0.4">
<path opacity="0.4" d="M5.48732 28.0399C4.82409 27.9799 4.16087 27.9799 3.55794 28.2799C2.89472 28.5799 1.99033 28.9399 1.62857 29.2999C1.50799 29.4199 1.44769 29.5999 1.32711 29.7799C1.14623 30.3199 1.08594 30.8599 1.08594 31.3999C1.08594 31.5199 1.14623 31.6399 1.14623 31.7599C2.17121 30.0799 3.55794 28.6399 5.48732 28.0399Z" fill="white"/>
</g>
<path d="M4.28111 35.4201C4.94433 35.3601 5.48697 35.8401 5.42667 36.5001C5.36638 37.1601 4.82374 37.7001 4.10023 37.7601C3.43701 37.8201 1.92969 37.4001 1.92969 36.8001C1.98998 36.0801 3.61789 35.4801 4.28111 35.4201Z" fill="#222222"/>
<path d="M4.16078 35.54C4.76371 35.48 5.24605 35.96 5.24605 36.56C5.18576 37.16 4.64312 37.7 4.04019 37.76C3.43726 37.82 1.99023 37.46 1.99023 36.86C1.99023 36.2 3.49756 35.6 4.16078 35.54Z" fill="black"/>
<path opacity="0.5" d="M21.2226 21.5599C23.8152 18.6199 27.1916 15.6799 27.9754 15.0199C28.4577 14.5999 28.4577 14.1799 28.3372 13.9399C25.8651 15.5599 22.0667 19.4599 19.3535 22.3399C19.9564 22.0999 20.5594 21.7999 21.2226 21.5599Z" fill="#00384B"/>
<g opacity="0.5">
<path opacity="0.5" d="M31.6546 18.5C33.403 18.08 35.2118 17.78 36.9603 17.48C37.2618 15.92 37.6235 14.54 37.925 13.52C35.5736 13.64 33.3428 13.88 31.6546 14.12C31.6546 14.12 29.4237 14.6 27.8561 16.1C27.012 16.88 25.5047 18.86 24.2988 20.48C26.7105 19.7 29.1825 19.04 31.6546 18.5Z" fill="#00384B"/>
<path opacity="0.5" d="M50.5254 15.9202C49.9828 14.7202 49.5608 13.7602 49.1387 12.9202C46.3652 12.9802 42.7477 13.1602 39.311 13.4002C39.1904 14.4802 39.0698 15.7402 38.9492 17.1802C42.7477 16.5202 46.6667 16.1602 50.5254 15.9202Z" fill="#00384B"/>
<path opacity="0.5" d="M55.0483 15.7401C55.7718 15.7401 56.4953 15.6801 57.2188 15.6801C56.013 14.2401 54.5659 12.8601 53.7821 12.8601C53.3601 12.8601 52.0939 12.8601 50.2852 12.9201C50.8278 13.9401 51.3704 14.9001 51.8528 15.8601C52.938 15.8001 53.963 15.7401 55.0483 15.7401Z" fill="#00384B"/>
</g>
<path opacity="0.5" d="M60.4738 15.74C61.1973 15.74 61.9208 15.8 62.7046 15.8C61.3782 14.42 60.6546 13.52 59.9311 12.98C59.087 12.98 58.5444 13.22 58.8459 13.88L60.4738 15.74Z" fill="#00384B"/>
<path d="M50.4654 35.24C50.4654 32.06 53.1786 29.48 56.555 29.48C59.9314 29.48 62.6445 32.06 62.6445 35.24C62.6445 36.08 62.4636 36.92 62.1019 37.64H63.2475C63.6695 36.68 63.9107 35.66 63.9107 34.58C63.9107 30.56 60.5946 27.26 56.555 27.26C52.5153 27.26 49.1992 30.56 49.1992 34.58C49.1992 35.66 49.4404 36.74 49.8624 37.64H50.9477C50.7065 36.92 50.4654 36.08 50.4654 35.24Z" fill="#201E1E"/>
<path d="M56.615 29.48C53.2386 29.48 50.5254 32.06 50.5254 35.24C50.5254 36.08 50.7063 36.92 51.068 37.64H62.1619C62.5237 36.92 62.7045 36.08 62.7045 35.24C62.7045 32.06 59.9311 29.48 56.615 29.48Z" fill="black"/>
<path d="M61.8001 35.8399C61.8001 38.7199 59.4486 40.9999 56.6149 40.9999C53.7208 40.9999 51.4297 38.6599 51.4297 35.8399C51.4297 32.9599 53.7811 30.6799 56.6149 30.6799C59.4486 30.6799 61.8001 32.9599 61.8001 35.8399Z" fill="#363635"/>
<path d="M61.8001 35.8399C61.8001 38.7199 59.4486 40.9999 56.6149 40.9999C53.7208 40.9999 51.4297 38.6599 51.4297 35.8399C51.4297 32.9599 53.7811 30.6799 56.6149 30.6799C59.4486 30.6799 61.8001 32.9599 61.8001 35.8399Z" fill="#222222"/>
<path d="M60.1112 35.8401C60.1112 37.7601 58.5435 39.3201 56.6142 39.3201C54.6848 39.3201 53.1172 37.7601 53.1172 35.8401C53.1172 33.9201 54.6848 32.3601 56.6142 32.3601C58.5435 32.3601 60.1112 33.9201 60.1112 35.8401Z" fill="black"/>
<path d="M59.811 35.8399C59.811 37.5799 58.3639 39.0199 56.6154 39.0199C54.867 39.0199 53.4199 37.5799 53.4199 35.8399C53.4199 34.0999 54.867 32.6599 56.6154 32.6599C58.3639 32.6599 59.811 34.0399 59.811 35.8399Z" fill="#DEE1D3"/>
<path d="M58.1834 33.92C58.1834 33.86 58.1834 33.86 58.1834 33.8C57.8216 33.5 57.3996 33.32 56.9172 33.26C56.8569 33.26 56.8569 33.26 56.7966 33.32C56.7966 33.32 56.7966 33.38 56.7363 33.38V35.18C56.7363 35.18 56.7363 35.24 56.7966 35.24C56.7966 35.24 56.7966 35.24 56.8569 35.24H56.9172L58.1834 33.92C58.1834 33.98 58.1834 33.92 58.1834 33.92Z" fill="#4C4C49"/>
<path d="M59.1481 35.66C59.2084 35.66 59.2084 35.6 59.2084 35.6C59.2084 35.12 59.0275 34.7 58.6658 34.34C58.6055 34.34 58.6055 34.28 58.5452 34.28H58.4849L57.2188 35.54V35.6C57.2188 35.6 57.2188 35.6 57.2188 35.66L57.279 35.72L59.1481 35.66C59.0878 35.72 59.1481 35.72 59.1481 35.66Z" fill="#4C4C49"/>
<path d="M58.5452 37.5201C58.6055 37.5201 58.6055 37.5201 58.6658 37.5201C58.9672 37.1601 59.2084 36.7401 59.2084 36.2601C59.2084 36.2001 59.2084 36.2001 59.1481 36.1401L59.0878 36.0801H57.279C57.279 36.0801 57.2188 36.0801 57.2188 36.1401V36.2001L58.5452 37.5201C58.4849 37.5201 58.4849 37.5201 58.5452 37.5201Z" fill="#4C4C49"/>
<path d="M56.7966 38.2999L56.8569 38.3599C57.3393 38.3599 57.7613 38.1799 58.1231 37.8199C58.1231 37.7599 58.1834 37.7599 58.1834 37.6999V37.6399L56.9172 36.3799H56.8569C56.8569 36.3799 56.8569 36.3799 56.7966 36.3799L56.7363 36.4399L56.7966 38.2999Z" fill="#4C4C49"/>
<path d="M54.9863 33.92C54.9863 33.86 54.9863 33.86 54.9863 33.8C55.3481 33.5 55.7701 33.32 56.2525 33.26C56.3128 33.26 56.3128 33.26 56.3731 33.32C56.3731 33.32 56.3731 33.38 56.4334 33.38V35.18C56.4334 35.18 56.4334 35.24 56.3731 35.24C56.3731 35.24 56.3731 35.24 56.3128 35.24H56.2525L54.9863 33.92C54.9863 33.98 54.9863 33.92 54.9863 33.92Z" fill="#4C4C49"/>
<path d="M54.0232 35.66L53.9629 35.6C53.9629 35.12 54.1438 34.7 54.5055 34.34C54.5658 34.34 54.5658 34.28 54.6261 34.28H54.6864L55.9526 35.54V35.6C55.9526 35.6 55.9526 35.6 55.9526 35.66L55.8923 35.72L54.0232 35.66C54.0835 35.72 54.0232 35.72 54.0232 35.66Z" fill="#4C4C49"/>
<path d="M54.6261 37.5201C54.5658 37.5201 54.5658 37.5201 54.5055 37.5201C54.2041 37.1601 53.9629 36.7401 53.9629 36.2601C53.9629 36.2001 53.9629 36.2001 54.0232 36.1401L54.0835 36.0801H55.8923C55.8923 36.0801 55.9526 36.0801 55.9526 36.1401V36.2001L54.6261 37.5201C54.6864 37.5201 54.6864 37.5201 54.6261 37.5201Z" fill="#4C4C49"/>
<path d="M56.3731 38.2999L56.3128 38.3599C55.8304 38.3599 55.4084 38.1799 55.0466 37.8199C55.0466 37.7599 54.9863 37.7599 54.9863 37.6999V37.6399L56.2525 36.3799H56.3128C56.3128 36.3799 56.3128 36.3799 56.3731 36.3799L56.4334 36.4399L56.3731 38.2999Z" fill="#4C4C49"/>
<path d="M57.5192 35.8399C57.5192 36.3799 57.0972 36.7999 56.5545 36.7999C56.0119 36.7999 55.5898 36.3799 55.5898 35.8399C55.5898 35.2999 56.0119 34.8799 56.5545 34.8799C57.0972 34.8799 57.5192 35.2999 57.5192 35.8399Z" fill="#DEE1D3"/>
<path d="M57.2177 35.36C57.2177 35.42 57.1574 35.48 57.0971 35.48C57.0369 35.48 56.9766 35.42 56.9766 35.36C56.9766 35.3 57.0369 35.24 57.0971 35.24C57.1574 35.24 57.2177 35.3 57.2177 35.36Z" fill="#4C4C49"/>
<path d="M56.7353 35.1801C56.7353 35.2401 56.675 35.3001 56.6147 35.3001C56.5544 35.3001 56.4941 35.2401 56.4941 35.1801C56.4941 35.1201 56.5544 35.0601 56.6147 35.0601C56.675 35.0601 56.7353 35.1201 56.7353 35.1801Z" fill="#4C4C49"/>
<path d="M56.0718 35.5401C56.1384 35.5401 56.1923 35.4863 56.1923 35.42C56.1923 35.3538 56.1384 35.3 56.0718 35.3C56.0052 35.3 55.9512 35.3538 55.9512 35.42C55.9512 35.4863 56.0052 35.5401 56.0718 35.5401Z" fill="#4C4C49"/>
<path d="M57.2177 36.38C57.2177 36.32 57.1574 36.26 57.0971 36.26C57.0369 36.26 56.9766 36.32 56.9766 36.38C56.9766 36.44 57.0369 36.5 57.0971 36.5C57.1574 36.5 57.2177 36.44 57.2177 36.38Z" fill="#4C4C49"/>
<path d="M57.3994 35.9C57.3994 35.84 57.3391 35.78 57.2788 35.78C57.2185 35.78 57.1582 35.84 57.1582 35.9C57.1582 35.96 57.2185 36.02 57.2788 36.02C57.3994 36.02 57.3994 35.96 57.3994 35.9Z" fill="#4C4C49"/>
<path d="M55.9521 35.9C55.9521 35.84 55.8918 35.78 55.8315 35.78C55.7712 35.78 55.7109 35.84 55.7109 35.9C55.7109 35.96 55.7712 36.02 55.8315 36.02C55.9521 36.02 55.9521 35.96 55.9521 35.9Z" fill="#4C4C49"/>
<path d="M56.7353 36.5599C56.7353 36.4999 56.675 36.4399 56.6147 36.4399C56.5544 36.4399 56.4941 36.4999 56.4941 36.5599C56.4941 36.6199 56.5544 36.6799 56.6147 36.6799C56.675 36.6799 56.7353 36.6199 56.7353 36.5599Z" fill="#4C4C49"/>
<path d="M56.1923 36.38C56.1923 36.32 56.132 36.26 56.0718 36.26C56.0115 36.26 55.9512 36.32 55.9512 36.38C55.9512 36.44 56.0115 36.5 56.0718 36.5C56.132 36.5 56.1923 36.44 56.1923 36.38Z" fill="#4C4C49"/>
<path d="M63.9107 34.52C63.9107 30.5 60.5946 27.2 56.555 27.2C52.5153 27.2 49.1992 30.5 49.1992 34.52C49.1992 35.6 49.4404 36.68 49.8624 37.58H50.0433C49.6816 36.74 49.5007 35.78 49.5007 34.82C49.5007 30.92 52.6359 27.8 56.555 27.8C60.474 27.8 63.6092 30.92 63.6092 34.82C63.6092 35.78 63.4283 36.74 63.0666 37.58H63.2475C63.6695 36.68 63.9107 35.66 63.9107 34.52Z" fill="#201E1E"/>
<path d="M58.9662 14.3001C58.9662 14.3001 58.0618 13.2801 59.2677 12.9801C59.9912 12.8001 60.2926 13.1001 61.2573 13.4601L61.8 13.7001C62.0411 13.8201 59.5691 15.0201 59.5691 15.0201L58.9662 14.3001Z" fill="#C5C5C5"/>
<path d="M61.8009 13.6399L61.2583 13.3999C60.4142 13.0999 60.0524 12.7999 59.5098 12.9199C59.8715 12.9799 60.2333 13.2199 60.8362 13.4599L61.3788 13.6999C61.5597 13.7599 60.6553 14.3599 59.9318 14.7199C60.5347 14.4799 61.9818 13.7599 61.8009 13.6399Z" fill="#A7A7A7"/>
<path d="M67.5294 31.58L68.7955 31.52C68.7955 31.52 69.1573 31.52 69.2779 31.7L69.6999 32.54C69.6999 32.54 69.7602 32.66 69.519 32.66C69.2779 32.66 68.2529 32.66 68.2529 32.66C68.2529 32.66 68.072 32.66 67.8911 32.54C67.7705 32.42 67.3485 31.7 67.3485 31.7C67.3485 31.7 67.2882 31.58 67.5294 31.58Z" fill="#A62920"/>
<path d="M68.1322 31.76L68.9763 31.7C68.9763 31.7 69.2175 31.7 69.2777 31.82L69.5792 32.42C69.5792 32.42 69.5792 32.54 69.4586 32.54C69.338 32.54 68.6145 32.54 68.6145 32.54C68.6145 32.54 68.4939 32.5399 68.3734 32.4799C68.2528 32.42 68.0116 31.88 68.0116 31.88C68.0116 31.88 67.9513 31.76 68.1322 31.76Z" fill="#E3301F"/>
<path d="M66.6243 23.5401C66.3228 23.7201 66.0817 23.9601 65.9008 24.3201C65.7199 24.6801 65.7199 25.0401 65.7802 25.4001C65.7802 25.7001 65.8405 26.0001 65.9008 26.3001C65.9611 26.6001 66.0214 26.9001 66.0817 27.2001C66.142 27.5001 66.2023 27.7401 66.2625 28.0401C66.3228 28.2201 66.3831 28.4001 66.5037 28.5201C66.6846 28.7001 66.9258 28.7601 67.1066 28.8801C67.3478 29.0001 67.6493 29.1201 67.8904 29.2401C68.1316 29.3601 68.7346 29.6601 68.7346 29.5401L67.9507 23.0001L67.7699 22.8201H67.7096C67.589 22.8801 67.4684 22.9401 67.3478 23.0601C67.1066 23.2401 66.8655 23.4201 66.6243 23.5401Z" fill="#A62920"/>
<path d="M65.8398 26C65.8398 26.12 65.9001 26.24 65.9001 26.36C65.9604 26.66 66.0207 26.96 66.081 27.26C66.1413 27.56 66.2016 27.8 66.2619 28.1C66.3222 28.28 66.3825 28.46 66.5031 28.58C66.6839 28.76 66.9251 28.82 67.106 28.94C67.3472 29.06 67.6486 29.18 67.8898 29.3C68.131 29.42 68.7339 29.72 68.7339 29.6L68.3119 26.12H65.8398V26Z" fill="#DC4E14"/>
<path d="M67.7703 23C67.7703 23 66.0218 23.84 66.0218 24.74C65.9615 25.58 66.5645 28.16 66.5645 28.16C66.5645 28.16 66.6247 28.4 66.9262 28.52L66.3836 25.58C66.3836 25.58 66.1424 24.5 66.7453 24.02C67.288 23.54 67.7703 23 67.7703 23Z" fill="#E3301F"/>
<path d="M16.2196 26.66L18.3299 26.54C18.3299 26.54 18.2696 26.78 18.0887 26.96C17.8476 27.14 16.8226 27.08 16.8226 27.08C16.8226 27.08 16.3402 27.08 16.2196 26.96C16.0388 26.9 16.0388 26.66 16.2196 26.66Z" fill="#E86408"/>
<path opacity="0.5" d="M16.22 26.78L17.667 26.72C17.667 26.72 17.667 26.9 17.4862 27.02C17.3656 27.14 16.6421 27.14 16.6421 27.14C16.6421 27.14 16.3406 27.14 16.22 27.08C16.1597 26.9 16.0994 26.78 16.22 26.78Z" fill="#E86408"/>
<path d="M13.2439 7.93118C13.7288 8.41398 13.9713 8.89677 14.2137 9.13817C14.2137 9.37957 14.4562 9.37957 14.4562 9.62096C14.2137 9.86236 13.9713 9.86236 13.4863 10.1038C13.4863 10.1038 13.4863 10.1038 13.2439 10.1038C13.4863 10.3452 13.9713 10.3452 14.2137 10.5866C14.6987 10.828 15.1836 11.0694 15.6685 11.3107C16.1535 11.5521 16.6384 11.7935 17.1233 11.7935C17.1233 11.7935 17.1233 11.7935 17.1233 11.5521C17.1233 11.3108 17.3658 10.828 17.3658 10.5866C17.6082 10.1038 17.6083 9.86236 17.8507 9.62096V9.37957C17.8507 9.13817 18.0932 8.89677 18.0932 8.65537C18.0932 8.41398 18.0932 8.41398 18.3356 8.17258C18.3356 8.17258 18.3356 8.17258 18.3356 7.93118H18.0932C17.8507 7.93118 17.6082 8.17258 17.3658 8.17258C17.1233 7.93118 16.8809 7.44839 16.6384 7.20699C16.3959 6.96559 16.1534 6.4828 15.911 6.2414C15.911 6.2414 15.6685 6 15.4261 6H15.1836C14.4562 6 13.7288 6 13.0014 6C12.274 6 11.7891 6 11.0617 6C10.8192 6 10.5767 6 10.5767 6C10.5767 6 10.3343 6 10.3343 6.2414C9.84934 6.72419 9.36439 7.44839 8.87946 7.93118C8.63699 8.17258 8.637 8.41398 8.39453 8.41398C8.87946 8.65537 9.36439 9.13817 9.84932 9.37957C10.3343 9.62096 10.5767 10.1038 11.0617 10.3452C11.0617 10.3452 11.3041 10.3452 11.3041 10.5866C11.3041 10.5866 11.3041 10.5866 11.3041 10.3452C11.5466 10.1038 11.7891 9.62096 12.0315 9.37957C12.274 9.13817 12.5164 8.65537 12.5164 8.41398C12.7589 8.41398 13.0014 8.17258 13.2439 7.93118ZM11.3041 6.2414C11.0617 6.2414 11.0617 6 10.8192 6.2414C10.8192 6.2414 10.8192 6.2414 10.5767 6.2414H10.8192C11.0617 6.2414 11.0617 6.2414 11.3041 6.2414C11.5466 6.2414 11.7891 6.2414 11.7891 6.4828C12.274 6.72419 12.7589 7.20699 13.0014 7.68979C12.7589 7.44839 12.7589 7.20699 12.5164 7.20699C12.274 6.96559 12.0315 6.96559 12.0315 6.7242C11.7891 6.4828 11.5466 6.4828 11.3041 6.2414Z" fill="#1A1A1A"/>
<path d="M20.7572 14.2078C20.7572 14.2078 20.7572 13.9664 20.7572 14.2078C20.5148 13.4836 20.2723 12.7594 20.0298 12.0352C20.0298 11.7938 19.7874 11.5524 19.7874 11.311C19.3024 11.5524 18.8175 11.7938 18.0901 12.0352C17.6052 12.2766 17.1202 12.518 16.6353 12.7594H16.3928C16.3928 12.7594 16.3928 12.7594 16.3928 13.0008C16.6353 13.2422 16.6353 13.725 16.8778 13.9664C17.1202 14.2078 17.1202 14.6906 17.3627 14.932C17.6052 15.1734 17.6052 15.6562 17.8476 15.8976C17.3627 15.8976 16.8778 15.8976 16.3928 15.8976C16.1504 15.8976 16.1504 15.8976 15.9079 15.8976C15.9079 15.6562 15.9079 15.1734 15.9079 14.932C15.9079 14.932 15.9079 14.932 15.9079 14.6906C15.6654 14.932 15.423 15.1734 15.1805 15.1734C14.6956 15.4148 14.2107 15.8976 13.9682 16.139C13.4833 16.3804 13.2408 16.6218 12.7559 17.1046C12.9983 17.346 13.2408 17.5874 13.4832 17.8288C13.7257 18.0702 13.9682 18.3116 14.2107 18.7944L14.4531 19.0357C14.6956 19.2771 14.6956 19.2771 14.938 19.5185C14.938 19.7599 15.1805 19.7599 15.1805 20.0013V19.7599C15.1805 19.5185 15.1805 19.2771 15.423 19.0357C15.9079 19.0357 16.1504 19.0357 16.6353 19.0357C17.1202 19.0357 17.3627 19.0358 17.8476 18.7944C18.0901 18.7944 18.0901 18.553 18.3326 18.553L18.575 18.3116C19.06 17.5874 19.3024 17.1046 19.7874 16.3804C20.0298 15.8976 20.5148 15.4148 20.7572 14.6906L20.9997 14.2078C20.7572 14.2078 20.7572 14.2078 20.7572 14.2078ZM20.5148 14.6906C20.2723 15.1734 20.0298 15.4148 19.5449 15.6562C19.06 15.8976 18.575 15.8976 18.0901 15.8976C18.575 15.8976 19.06 15.8976 19.3024 15.6562C19.7874 15.1734 20.0298 14.932 20.5148 14.6906C20.5148 14.4492 20.5148 14.6906 20.5148 14.6906Z" fill="#1A1A1A"/>
<path d="M12.274 15.8975C12.274 15.8975 12.274 15.6561 12.274 15.8975C12.0315 15.6561 12.0315 15.6561 12.274 15.8975C11.789 15.6561 11.3041 15.6561 10.8192 15.6561C10.3343 15.6561 10.0918 15.6561 9.60686 15.6561C9.36439 15.6561 8.87946 15.6561 8.63699 15.6561C8.87946 15.1734 8.87947 14.6906 9.12193 14.2078C9.12193 13.9664 9.3644 13.9664 9.3644 13.725C9.60686 13.9664 9.84932 13.9664 10.0918 14.2078C10.0918 14.2078 10.0918 14.2078 10.3343 14.2078C10.3343 13.9664 10.0918 13.4836 10.0918 13.2422C9.84932 12.7594 9.84932 12.2766 9.60686 11.5524C9.60686 11.0696 9.3644 10.5868 9.12193 10.104C9.12193 10.104 9.12192 10.104 8.87945 10.104C8.63699 10.104 8.15207 10.3454 7.9096 10.3454C7.66714 10.3454 7.18221 10.5868 6.69727 10.5868H6.45479C6.21233 10.5868 5.96987 10.8282 5.72741 10.8282C5.48494 10.8282 5.48493 10.8282 5.24246 11.0696C5.24246 11.0696 5.24247 11.0696 5 11.0696C5 11.0696 5.24246 11.0696 5.24246 11.311C5.48493 11.5524 5.7274 11.5524 5.96987 11.7938C5.7274 12.2766 5.72741 12.518 5.48494 13.0008C5.24248 13.4836 5.24246 13.725 5.24246 14.2078C5.24246 14.4492 5.24246 14.4492 5.24246 14.6906V14.9319C5.72739 15.6561 6.21234 16.1389 6.69727 16.8631C7.18221 17.3459 7.42467 17.8287 7.9096 18.3115C7.9096 18.5529 8.15206 18.5529 8.39453 18.7943H8.63699C9.36439 19.0357 10.0918 19.0357 11.0617 19.0357C11.3041 19.0357 11.5466 19.0357 11.7891 19.0357C11.7891 18.5529 11.7891 17.8287 11.7891 17.3459C12.274 17.1045 12.274 16.3803 12.274 15.8975ZM8.63699 15.8975C8.15206 15.8975 7.42467 15.8975 6.93974 15.6561C6.4548 15.6561 5.96987 15.4147 5.96987 14.9319C6.21233 15.4147 6.69727 15.4148 7.1822 15.6561C7.66713 15.6561 8.15206 15.6561 8.63699 15.8975C8.63699 15.6561 8.63699 15.8975 8.63699 15.8975Z" fill="#1A1A1A"/>
</g>
<defs>
<clipPath id="clip0_97_34291">
<rect width="70" height="42" fill="white"/>
</clipPath>
</defs>
</svg>
