<svg width="57" height="42" viewBox="0 0 57 42" fill="none" xmlns="http://www.w3.org/2000/svg">
<path d="M56.6093 39.3277C56.6093 40.5841 55.613 41.6211 54.3629 41.6211H2.63703C1.40639 41.6211 0.390625 40.6041 0.390625 39.3277V2.69237C0.390625 1.41602 1.38686 0.398926 2.63703 0.398926H54.3629C55.5935 0.398926 56.6093 1.41602 56.6093 2.69237V39.3277Z" fill="#F2F2F2"/>
<path d="M54.3629 42H2.63708C1.19157 42 0 40.8034 0 39.3077V2.69231C0 1.19658 1.17204 0 2.63708 0H54.3629C55.8084 0 57 1.19658 57 2.69231V39.3276C57 40.8034 55.828 42 54.3629 42ZM2.63708 0.797721C1.62132 0.797721 0.781357 1.65527 0.781357 2.69231V39.3276C0.781357 40.3647 1.62132 41.2222 2.63708 41.2222H54.3629C55.3787 41.2222 56.2186 40.3647 56.2186 39.3276V2.69231C56.2186 1.65527 55.3787 0.797721 54.3629 0.797721H2.63708Z" fill="#939598"/>
<path d="M43.2477 30.2934C43.2477 31.1909 42.5249 31.9288 41.6459 31.9288H4.84397C3.96494 31.9288 3.24219 31.1909 3.24219 30.2934V4.24788C3.24219 3.35044 3.96494 2.61255 4.84397 2.61255H41.6459C42.5249 2.61255 43.2477 3.35044 43.2477 4.24788V30.2934Z" fill="#002FA5"/>
<path d="M49.2246 21.9971L50.4162 20.1025L51.6077 21.9971H49.2246Z" fill="#939598"/>
<path d="M49.2246 25.6467L50.4162 27.5413L51.6077 25.6467H49.2246Z" fill="#939598"/>
<path d="M52.1934 22.6155L54.0491 23.8121L52.1934 25.0286V22.6155Z" fill="#939598"/>
<path d="M48.6389 22.6155L46.7637 23.8121L48.6389 25.0286V22.6155Z" fill="#939598"/>
<path d="M54.6762 4.76645C54.6762 5.70377 53.934 6.4616 53.0159 6.4616C52.0978 6.4616 51.3555 5.70377 51.3555 4.76645C51.3555 3.82912 52.0978 3.07129 53.0159 3.07129C53.934 3.07129 54.6762 3.82912 54.6762 4.76645Z" fill="#2BB673"/>
<path d="M49.4399 4.76645C49.4399 5.70377 48.6976 6.4616 47.7795 6.4616C46.8614 6.4616 46.1191 5.70377 46.1191 4.76645C46.1191 3.82912 46.8614 3.07129 47.7795 3.07129C48.6976 3.07129 49.4399 3.82912 49.4399 4.76645Z" fill="#EF4136"/>
<path d="M43.2477 37.9316C43.2477 39.1082 42.31 40.0655 41.1575 40.0655H5.33232C4.17982 40.0655 3.24219 39.1082 3.24219 37.9316V37.1937C3.24219 36.0171 4.17982 35.0598 5.33232 35.0598H41.1575C42.31 35.0598 43.2477 36.0171 43.2477 37.1937V37.9316Z" fill="#BCBEC0"/>
<path d="M13.165 37.5726C13.165 38.111 12.7352 38.5498 12.2078 38.5498H7.38294C6.85553 38.5498 6.42578 38.111 6.42578 37.5726C6.42578 37.0341 6.85553 36.5954 7.38294 36.5954H12.1883C12.7352 36.5754 13.165 37.0341 13.165 37.5726Z" fill="#1163C6"/>
<path d="M22.1318 37.5726C22.1318 38.111 21.702 38.5498 21.1746 38.5498H16.3693C15.8419 38.5498 15.4121 38.111 15.4121 37.5726C15.4121 37.0341 15.8419 36.5954 16.3693 36.5954H21.1746C21.702 36.5754 22.1318 37.0341 22.1318 37.5726Z" fill="#1163C6"/>
<path d="M31.0986 37.5726C31.0986 38.111 30.6688 38.5498 30.1414 38.5498H25.3361C24.8087 38.5498 24.3789 38.111 24.3789 37.5726C24.3789 37.0341 24.8087 36.5954 25.3361 36.5954H30.1414C30.6688 36.5754 31.0986 37.0341 31.0986 37.5726Z" fill="#1163C6"/>
<path d="M40.0634 37.5726C40.0634 38.111 39.6337 38.5498 39.1063 38.5498H34.3009C33.7735 38.5498 33.3438 38.111 33.3438 37.5726C33.3438 37.0341 33.7735 36.5954 34.3009 36.5954H39.1063C39.6337 36.5754 40.0634 37.0341 40.0634 37.5726Z" fill="#1163C6"/>
<path d="M53.7568 10.4901C53.7568 11.0286 53.327 11.4674 52.7996 11.4674H47.9943C47.4669 11.4674 47.0371 11.0286 47.0371 10.4901C47.0371 9.95168 47.4669 9.51294 47.9943 9.51294H52.7996C53.327 9.51294 53.7568 9.95168 53.7568 10.4901Z" fill="#1163C6"/>
<path d="M53.7568 15.2763C53.7568 15.8147 53.327 16.2535 52.7996 16.2535H47.9943C47.4669 16.2535 47.0371 15.8147 47.0371 15.2763C47.0371 14.7378 47.4669 14.2991 47.9943 14.2991H52.7996C53.327 14.2991 53.7568 14.7378 53.7568 15.2763Z" fill="#1163C6"/>
<path d="M54.7922 35.5782C54.7922 38.0512 52.8193 40.0654 50.3971 40.0654C47.9749 40.0654 46.002 38.0512 46.002 35.5782C46.002 33.1053 47.9749 31.0911 50.3971 31.0911C52.8193 31.0911 54.7922 33.1053 54.7922 35.5782Z" fill="#939598"/>
<path d="M11.9348 24.3704L10.8409 12.7835L10.3721 21.718L8.88749 15.0171L7.57871 17.9288H3.26172V17.7294H7.46151L8.94609 14.3989L10.2353 20.2821L10.7237 11.4673H10.919L12.0324 23.2736L13.4975 17.7294H16.5839V17.9288H13.6538L11.9348 24.3704Z" fill="white"/>
<path d="M25.2766 24.3704L24.1631 12.7835L23.6943 21.718L22.2098 15.0171L20.901 17.9288H16.584V17.7294H20.7838L22.2684 14.3989L23.5771 20.2821L24.0459 11.4673H24.2413L25.3547 23.2736L26.8393 17.7294H29.9061V17.9288H26.976L25.2766 24.3704Z" fill="white"/>
<path d="M38.5988 24.3704L37.5049 12.7835L37.0166 21.718L35.532 15.0171L34.2428 17.9288H29.9062V17.7294H34.106L35.5906 14.3989L36.8994 20.2821L37.3682 11.4673H37.5635L38.6965 23.2736L40.1616 17.7294H43.2479V17.9288H40.3178L38.5988 24.3704Z" fill="white"/>
<path d="M37.0176 5.8034V6.46152L36.5293 6.96009V5.68374L36.7051 5.50425L37.0176 5.8034ZM38.5022 3.74927L38.0139 4.24784H37.1153L36.627 3.74927H38.5022ZM38.5022 7.05981H36.627L37.1153 6.56123H38.0334L38.5022 7.05981ZM38.0725 5.16522L38.3069 5.40454L38.0725 5.64385H37.0372L36.8028 5.40454L37.0372 5.16522H38.0725ZM38.1115 5.00568V4.34756L38.5999 3.86893V5.14528L38.4241 5.32477L38.1115 5.00568Z" fill="white"/>
<path d="M39.127 5.10539V3.82904L39.6153 4.30767V4.98573L39.3223 5.30482L39.127 5.10539ZM41.0999 3.74927L40.6115 4.24784H39.6934L39.2051 3.74927H41.0999ZM41.0999 7.05981H39.2246L39.713 6.56123H40.6311L41.0999 7.05981ZM40.6701 5.16522L40.9045 5.40454L40.6701 5.64385H39.6544L39.42 5.40454L39.6544 5.16522H40.6701ZM41.178 5.68374V6.96009L40.6897 6.46152V5.8034L40.9827 5.50425L41.178 5.68374Z" fill="white"/>
<path d="M39.3418 9.09406V8.73509L39.5957 8.47583V9.17384L39.4981 9.27355L39.3418 9.09406ZM39.5957 9.45304V10.151L39.3418 9.89178V9.53281L39.4981 9.37327L39.5957 9.45304Z" fill="white"/>
<path d="M40.0059 9.15391V8.4559L40.2598 8.71516V9.07414L40.1035 9.25362L40.0059 9.15391ZM40.2598 9.53282V9.8918L40.0059 10.1511V9.45305L40.1035 9.35334L40.2598 9.53282ZM41.0607 8.41602L40.8067 8.67527H40.3184L40.0645 8.41602H41.0607ZM41.0607 10.2109H40.0449L40.2989 9.95163H40.7872L41.0607 10.2109ZM40.8653 9.09408V8.7351L41.1193 8.47584V9.17385L41.0216 9.27357L40.8653 9.09408ZM41.1193 9.45305V10.1511L40.8653 9.8918V9.53282L41.0216 9.37328L41.1193 9.45305Z" fill="white"/>
</svg>
