<svg width="171" height="33" viewBox="0 0 171 33" fill="none" xmlns="http://www.w3.org/2000/svg">
<g clip-path="url(#clip0_261_2844)">
<path d="M28.8305 22.8491C28.4185 22.8491 28.1798 23.0963 28.1798 23.5435V27.076H22.7582V23.5435C22.7582 23.0986 22.5195 22.8491 22.1075 22.8491C21.7 22.8491 21.4568 23.0963 21.4568 23.5435V32.0603C21.4568 32.5052 21.7 32.7524 22.1075 32.7524C22.5195 32.7524 22.7582 32.5052 22.7582 32.0603V28.2895H28.1798V32.0603C28.1798 32.5052 28.4185 32.7524 28.8305 32.7524C29.238 32.7524 29.4767 32.5052 29.4767 32.0603V23.5435C29.4789 23.0963 29.238 22.8491 28.8305 22.8491ZM35.5242 27.685L39.2955 23.921C39.4734 23.7435 39.5499 23.5997 39.5499 23.3974C39.5499 23.1008 39.345 22.8491 38.9938 22.8491C38.8114 22.8491 38.6651 22.9121 38.5007 23.0739L34.815 26.7525C34.6079 26.9592 34.3985 27.0738 34.1058 27.0738H33.347V23.5413C33.347 23.0963 33.1084 22.8469 32.6963 22.8469C32.2888 22.8469 32.0457 23.0941 32.0457 23.5413V32.058C32.0457 32.5029 32.2888 32.7501 32.6963 32.7501C33.1084 32.7501 33.347 32.5029 33.347 32.058V28.2873H34.018C34.3084 28.2873 34.5178 28.4041 34.7249 28.6086L38.6381 32.5142C38.8114 32.685 38.9623 32.7501 39.1559 32.7501C39.5252 32.7501 39.739 32.4872 39.739 32.1771C39.739 31.9636 39.658 31.8131 39.4711 31.6266L35.5242 27.685ZM43.6679 11.1234C43.0825 11.4313 42.281 11.6515 41.5132 11.6515C40.2479 11.6515 39.4554 11.1055 39.4554 10.1527C39.4554 9.2943 40.1331 8.6291 41.5042 8.6291C42.227 8.6291 42.8664 8.7347 43.6679 8.9729V11.1234ZM41.6866 3.2157C40.5856 3.2157 39.5927 3.4966 38.9578 3.755C38.4219 3.973 38.1945 4.2831 38.1968 4.6966C38.2013 5.1842 38.5705 5.5415 39.0298 5.5415C39.2505 5.5415 39.4959 5.4561 39.7571 5.3527C40.1713 5.1864 40.8535 5.0067 41.5357 5.0067C43.051 5.0067 43.6679 5.5775 43.6679 6.7437V7.5302C42.7966 7.2965 42.0851 7.1932 41.2701 7.1932C38.7889 7.1932 37.5776 8.6044 37.5776 10.1527C37.5776 11.9437 38.9353 13.292 41.3399 13.292C43.2086 13.292 44.6316 12.6717 45.2012 12.2807C45.4736 12.092 45.5704 11.9122 45.5704 11.5459V6.7864C45.5682 4.337 44.1565 3.2157 41.6866 3.2157ZM65.422 9.5617C64.9762 9.5707 64.7262 9.8358 64.5574 10.1302C64.2151 10.865 63.4924 11.3841 62.504 11.3841C61.1081 11.3841 60.2863 10.5437 60.1714 9.301C60.1107 8.6358 60.1107 7.8673 60.1714 7.2022C60.2863 5.9572 61.1193 5.1168 62.504 5.1168C63.4924 5.1168 64.2084 5.6269 64.5574 6.3797C64.733 6.6651 64.9762 6.937 65.422 6.9415C65.9938 6.946 66.3788 6.5909 66.3788 6.0314C66.3788 5.7415 66.2685 5.4516 66.0929 5.1348C65.5188 4.0674 64.2714 3.2134 62.477 3.2134C60.0544 3.2134 58.4243 4.7393 58.2216 6.9213C58.1518 7.6471 58.1518 8.8493 58.2216 9.5774C58.4333 11.7594 60.0544 13.2897 62.477 13.2897C64.2714 13.2897 65.5188 12.4403 66.0996 11.3661C66.2753 11.047 66.3811 10.7594 66.3811 10.4695C66.3788 9.919 65.9916 9.5482 65.422 9.5617ZM21.2002 11.5167L17.8049 8.128L21.0268 4.9123C21.2767 4.6629 21.405 4.4157 21.405 4.1303C21.405 3.6561 21.0606 3.3033 20.5697 3.3033C20.2838 3.3033 20.0699 3.4067 19.793 3.6831L16.5193 6.9505C16.3414 7.1302 16.15 7.2314 15.8956 7.2314H15.2269V4.3415C15.2269 3.6853 14.8442 3.3033 14.2408 3.3033C13.6419 3.3033 13.2614 3.6853 13.2614 4.3415V12.1616C13.2614 12.8178 13.6441 13.2043 14.2408 13.2043C14.8442 13.2043 15.2269 12.8178 15.2269 12.1616V9.0403H15.7853C16.0397 9.0403 16.2311 9.1415 16.409 9.3212L19.9033 12.8066C20.1915 13.0942 20.4166 13.2066 20.7161 13.2066C21.2339 13.2066 21.5964 12.838 21.5964 12.3369C21.5964 12.038 21.4636 11.7774 21.2002 11.5167ZM54.3491 9.3032C54.2342 10.5504 53.4575 11.3931 52.0345 11.3931C51.2983 11.3931 50.3729 11.1684 49.9158 10.847V5.6606C50.3729 5.3348 51.296 5.11 52.0345 5.11C53.4575 5.11 54.2365 5.9572 54.3491 7.2044C54.4053 7.8314 54.4098 8.6246 54.3491 9.3032ZM52.0953 3.2157C50.3751 3.2157 48.9995 3.8224 48.4456 4.1483C47.9931 4.4157 47.9458 4.6269 47.9458 5.3797V15.402C47.9458 16.0537 48.3263 16.4402 48.9252 16.4402C49.5286 16.4402 49.9136 16.0537 49.9136 15.402V12.7863C50.5035 13.0717 51.4063 13.292 52.2664 13.292C54.5404 13.292 56.103 11.7796 56.3079 9.5976C56.3777 8.8628 56.3777 7.6516 56.3079 6.91C56.1075 4.7235 54.5427 3.2157 52.0953 3.2157ZM17.7959 30.9502C17.0754 31.3367 16.096 31.6198 15.1886 31.6198C13.5653 31.6198 12.6489 30.9322 12.6489 29.7434C12.6489 28.676 13.455 27.8783 15.1886 27.8783C16.0487 27.8783 16.776 28.0041 17.7959 28.3052V30.9502ZM15.4678 22.7637C14.3331 22.7637 13.2276 23.0716 12.6287 23.3435C12.2257 23.5188 12.0433 23.7053 12.0523 24.0266C12.0636 24.3592 12.3202 24.6221 12.6377 24.6221C12.793 24.6221 12.9799 24.5615 13.1623 24.4761C13.6216 24.2806 14.4884 24.0222 15.3372 24.0222C17.0169 24.0222 17.7959 24.7053 17.7959 26.2266V27.1322C16.7422 26.8266 15.9834 26.721 15.0738 26.721C12.6129 26.721 11.3633 28.1345 11.3633 29.7322C11.3633 31.6086 12.7773 32.8423 15.0175 32.8423C16.8683 32.8423 18.2845 32.1928 18.8068 31.8131C19.0185 31.6625 19.0792 31.5412 19.0792 31.2535V26.1929C19.0792 23.8514 17.7216 22.7637 15.4678 22.7637ZM5.98 31.3883H2.301V26.1817H5.98C7.905 26.1817 8.6976 27.1232 8.6976 28.7502C8.6976 30.4131 7.905 31.3883 5.98 31.3883ZM6.1466 24.9323H2.301V20.9143H8.7088C9.1366 20.9143 9.4315 20.6761 9.4315 20.2671C9.4315 19.8761 9.1366 19.6334 8.7088 19.6334H2.1367C1.4004 19.6334 0.9794 20.0424 0.9794 20.7862V31.5097C0.9794 32.2535 1.3982 32.6647 2.1367 32.6647H6.1444C8.6075 32.6647 10.035 31.2355 10.035 28.7389C10.035 26.3098 8.6098 24.9323 6.1466 24.9323ZM28.754 6.9437H31.9781C33.5024 6.9437 34.1823 7.719 34.1823 9.0561C34.1823 10.4156 33.5024 11.2268 31.9781 11.2268H28.754V6.9437ZM28.2676 13.1167H32.1898C34.7407 13.1167 36.2515 11.638 36.2515 9.0134C36.2515 6.537 34.7407 5.1527 32.1898 5.1527H28.754V1.9887H34.5268C35.1572 1.9887 35.567 1.618 35.567 1.0247C35.567 0.46067 35.1572 0.0876398 34.5268 0.0876398H28.2676C27.277 0.0876398 26.7344 0.62471 26.7344 1.618V11.5886C26.7321 12.5819 27.2747 13.1167 28.2676 13.1167ZM3.805 7.2359L5.6062 2.1078C5.676 1.9281 5.7346 1.8651 5.8697 1.8651C6.0025 1.8651 6.061 1.9281 6.1263 2.1078L7.9366 7.2359H3.805ZM11.7529 12.2583C11.7529 12.0762 11.7213 11.8987 11.6178 11.6246L7.9838 1.7236C7.5448 0.5146 6.9054 0 5.8877 0C4.8745 0 4.2306 0.5146 3.7938 1.7236L0.1351 11.6291C0.0225004 11.9369 0 12.1212 0 12.265C0 12.7796 0.4098 13.2066 0.9794 13.2066C1.4455 13.2066 1.7944 12.9729 1.9881 12.4021L3.1724 9.0358H8.576L9.7693 12.4111C9.9584 12.9729 10.3074 13.2066 10.7667 13.2066C11.3453 13.2066 11.7529 12.7774 11.7529 12.2583Z" fill="#170030"/>
<path d="M170.447 15.4826C169.104 12.0821 165.788 10.2302 162.199 10.8783L154.823 12.2065C153.599 12.4269 152.786 13.5987 153.004 14.8232C153.224 16.0478 154.394 16.8616 155.617 16.6431L162.992 15.3149C164.747 14.9984 165.831 16.0497 166.26 17.1367C166.69 18.2256 166.615 19.7346 165.12 20.7048L154.295 27.7299C153.288 28.3818 152.064 28.427 151.016 27.8562C149.967 27.2853 149.338 26.2285 149.338 25.0322V2.2688C149.338 1.0236 148.332 0.0137782 147.089 0.0137782C145.845 0.0137782 144.839 1.0236 144.839 2.2688V25.0359C144.839 27.9108 146.344 30.4465 148.866 31.8199C150.038 32.4567 151.3 32.7751 152.557 32.7751C154.007 32.7751 155.452 32.3549 156.742 31.5166L167.567 24.4915C170.633 22.5021 171.79 18.8831 170.447 15.4826ZM132.37 10.8802L124.994 12.2084C123.772 12.4288 122.959 13.6006 123.177 14.8251C123.397 16.0497 124.567 16.8635 125.79 16.645L133.165 15.3168C134.922 15.0003 136.004 16.0515 136.435 17.1386C136.864 18.2275 136.79 19.7365 135.293 20.7067L124.468 27.7318C123.463 28.3836 122.239 28.4289 121.189 27.858C120.14 27.2872 119.513 26.2303 119.513 25.0341V7.7397C119.513 4.863 118.008 2.3272 115.486 0.953848C112.964 -0.417642 110.02 -0.304601 107.61 1.2572L80.3809 18.9264C77.3167 20.9139 76.1599 24.5329 77.503 27.9334C78.8441 31.332 82.1584 33.182 85.7509 32.5358L109.525 28.2555C110.748 28.0351 111.562 26.8633 111.342 25.6388C111.122 24.4142 109.952 23.5985 108.729 23.8189L84.9555 28.0992C83.1986 28.4157 82.117 27.3645 81.6882 26.2774C81.2574 25.1885 81.3308 23.6795 82.8281 22.7074L110.052 5.0419C111.054 4.392 112.281 4.3449 113.33 4.9157C114.38 5.4884 115.006 6.5453 115.006 7.7416V25.0359C115.006 27.9108 116.511 30.4465 119.034 31.8199C120.205 32.4567 121.469 32.7751 122.726 32.7751C124.176 32.7751 125.619 32.3549 126.909 31.5166L137.736 24.4915C140.799 22.504 141.955 18.885 140.614 15.4845C139.277 12.0821 135.959 10.234 132.37 10.8802Z" fill="#009C32"/>
</g>
<defs>
<clipPath id="clip0_261_2844">
<rect width="171" height="33" fill="white"/>
</clipPath>
</defs>
</svg>
