<svg width="121" height="33" viewBox="0 0 121 33" fill="none" xmlns="http://www.w3.org/2000/svg">
<path d="M54.43 5.22998C53.89 5.52998 52.36 6.39998 52.18 6.48998V31.84H54.43V29.2L54.85 29.74C55.4648 30.5385 56.2558 31.1841 57.1613 31.6264C58.0668 32.0688 59.0623 32.2959 60.07 32.29C64.36 32.29 67.07 28.21 67.07 21.94C67.07 15.67 64.67 12.25 60.44 12.25C59.3638 12.2717 58.3055 12.5293 57.3397 13.0044C56.3738 13.4795 55.524 14.1608 54.85 15L54.43 15.45V5.22998ZM109.96 5.22998C109.42 5.52998 107.89 6.39998 107.71 6.48998V31.84H110V26.35L113.63 21.28C113.63 21.28 118.49 31.6 118.63 31.87H121C120.67 31.21 115 19.42 115 19.42C115 19.42 119.35 13.42 119.86 12.7H117.4C116.68 13.7 111.19 21.76 111.19 21.7L110 23.65V5.22998H109.96ZM34.96 6.57998L31 8.64998V12.58H27.7V16.21H31.06V27.1C31.06 30.1 32.8 32.1 35.44 32.1C36.6593 32.1482 37.8669 31.8463 38.92 31.23L39.92 27.54L39.71 27.69C38.8382 28.2826 37.8223 28.6281 36.77 28.69C35.48 28.69 34.94 28.03 34.94 26.53V16.21H38.94V12.55H34.94L34.96 6.57998ZM11.11 12.25C8.53458 12.1952 6.03378 13.1169 4.10999 14.83C3.09449 15.7666 2.29158 16.9099 1.75508 18.1829C1.21858 19.4559 0.961184 20.8291 0.999984 22.21C0.952484 23.5865 1.19498 24.9575 1.71178 26.2341C2.22868 27.5107 3.00828 28.6643 3.99998 29.62C5.92898 31.3245 8.42618 32.2449 11 32.2C12.3223 32.2376 13.6353 31.9682 14.8359 31.413C16.0366 30.8577 17.0922 30.0318 17.92 29L18 28.9L15.75 26.17V26.26C15.1444 26.9213 14.4116 27.4534 13.5953 27.8246C12.7791 28.1957 11.8964 28.3983 11 28.42C10.19 28.4349 9.38568 28.2828 8.63708 27.9732C7.88848 27.6636 7.21159 27.2032 6.64868 26.6206C6.08578 26.038 5.64898 25.3457 5.36528 24.5869C5.08158 23.8281 4.95728 23.019 4.99998 22.21C4.95428 21.4003 5.07658 20.5899 5.35908 19.8298C5.64168 19.0696 6.07848 18.3761 6.64198 17.7929C7.20548 17.2097 7.88348 16.7493 8.63348 16.4408C9.38348 16.1322 10.1892 15.9822 11 16C11.8869 16.0178 12.7605 16.2188 13.5659 16.5905C14.3713 16.9623 15.0911 17.4966 15.68 18.16L15.74 18.28L18 15.58L17.94 15.52C17.1317 14.4842 16.0943 13.6498 14.9093 13.0824C13.7242 12.515 12.4237 12.2301 11.11 12.25ZM77.56 12.25C75.424 12.2319 73.316 12.7257 71.41 13.69L72.22 15.52C73.771 14.5954 75.544 14.1082 77.35 14.11C80.29 14.11 81.79 15.64 81.79 18.7V21.46L81.4 21.25C79.961 20.5176 78.365 20.1469 76.75 20.17C73.3 20.17 69.61 21.76 69.61 26.17C69.61 31.63 73.72 32.23 75.52 32.23C76.638 32.2279 77.742 31.9795 78.753 31.5025C79.764 31.0255 80.657 30.3315 81.37 29.47L81.79 29.02V31.81H84V18.4C84 14.26 81.9 12.25 77.52 12.25H77.56ZM96.56 12.25C95.535 12.2286 94.522 12.47 93.617 12.9515C92.712 13.4329 91.945 14.1382 91.39 15L90.94 15.66V12.66H88.69V31.84H90.94V20.59C90.94 16.59 92.8 14.2 95.94 14.2C99.08 14.2 100.74 16.2 100.74 20.59V31.84H103V20.08C103 14.95 100.78 12.25 96.52 12.25H96.56ZM20.33 12.55V31.84H24.26V12.55H20.29H20.33ZM42.98 12.55V31.84H46.98V12.55H42.98ZM59.77 14.2C63.04 14.2 64.9 17.05 64.9 22C64.9 27.52 63.22 30.34 59.9 30.34C58.8106 30.3275 57.742 30.0406 56.7929 29.5057C55.8438 28.9709 55.0449 28.2054 54.47 27.28V17.14C55.0512 16.2637 55.8338 15.5395 56.7525 15.028C57.6712 14.5165 58.699 14.2325 59.75 14.2H59.77ZM76.57 21.91C78.329 21.7875 80.087 22.1654 81.64 23L81.79 23.06V27.32C81.157 28.2765 80.297 29.0611 79.286 29.6039C78.276 30.1466 77.147 30.4304 76 30.43C73.3 30.43 71.8 28.84 71.8 25.99C71.8 23.44 73.6 21.91 76.57 21.91Z" fill="#020168"/>
<path d="M49.2099 9.15978C47.4429 6.63868 45.0944 4.58048 42.3632 3.15948C39.632 1.73848 36.5986 0.996582 33.5199 0.996582C30.4412 0.996582 27.4078 1.73848 24.6767 3.15948C21.9455 4.58048 19.5969 6.63868 17.8299 9.15978L17.6499 9.42978H22.1799L22.2399 9.36978C23.6886 7.82618 25.4382 6.59588 27.3809 5.75488C29.3236 4.91388 31.418 4.47988 33.5349 4.47988C35.6518 4.47988 37.7463 4.91388 39.6889 5.75488C41.6316 6.59588 43.3813 7.82618 44.8299 9.36978L44.8899 9.42978H49.4199L49.2099 9.15978Z" fill="#FF0100"/>
</svg>
