<svg width="160" height="36" viewBox="0 0 160 36" fill="none" xmlns="http://www.w3.org/2000/svg">
<path d="M149.996 10.0544H153.359L153.342 15.4831H154.07L155.985 10.0544H159.624L157.014 17.2313L160 25.1778H156.06L154.12 19.0966H153.325L153.342 25.1778H149.979V10.0544H149.996ZM138.662 10.0544H142.008V15.5082H144.4V10.0544H147.737V25.1778H144.4V19.1134H142.008V25.1778H138.662V10.0544ZM127.01 25.2029H130.489L130.908 22.5847H133.3L133.718 25.2029H137.198L134.27 10.0795H129.954L127.01 25.2029ZM132.112 14.6633L132.748 19.2639H131.46L132.112 14.6633ZM117.675 25.1778H121.748C122.635 25.1778 126.341 24.793 126.357 20.2091C126.357 16.3614 123.488 15.6922 121.631 15.6922H121.021V13.6847H125.554V10.0544H117.683L117.675 25.1778ZM121.012 22.1414V18.7202H121.506C121.924 18.7202 122.986 18.7369 122.986 20.3011C122.986 21.8821 121.916 22.1414 121.506 22.1414H121.012ZM104.4 10.0544H107.311L109.879 13.6261L112.472 10.0544H115.358V25.1778H111.937V15.9599L109.879 18.5947L107.821 15.9599V25.1778H104.4V10.0544ZM97.332 25.3618C101.389 25.3618 102.752 21.4638 102.752 17.5993C102.752 13.7348 101.389 9.8369 97.332 9.8369C93.275 9.8369 91.911 13.7265 91.911 17.5993C91.911 21.4722 93.283 25.3618 97.332 25.3618ZM97.332 21.6897C96.127 21.6897 95.508 20.251 95.508 17.5993C95.508 14.9477 96.119 13.5006 97.332 13.5006C98.545 13.5006 99.147 14.9394 99.147 17.5993C99.147 20.2593 98.545 21.698 97.332 21.6897ZM82.008 25.1778H85.429V20.1924H86.575C89.954 20.1924 91.008 17.0724 91.008 15.0816C91.008 13.141 89.804 10.0544 86.575 10.0544H82.008V25.1778ZM85.429 13.3835H86.24C87.01 13.3835 87.503 13.8687 87.503 15.1234C87.503 16.7461 86.667 16.8632 86.24 16.8632H85.429V13.3835ZM70.7069 10.0544H80.042V25.1778H76.6208V13.7098H74.1281V25.1778H70.7069V10.0544ZM63.6889 15.918C64.241 15.918 65.2531 15.55 65.2531 14.4375C65.2531 13.1242 64.0904 13.0406 63.7475 13.0406C63.3543 13.0406 62.6015 13.1075 61.8654 13.4672L61.8236 10.1799C62.9863 9.8787 63.8228 9.7951 64.8098 9.7951C67.6203 9.7951 68.8667 11.8026 68.8667 13.7683C68.8667 15.6755 67.796 16.8298 66.7504 17.2731V17.4153C67.7625 17.7415 69.1009 18.7369 69.1009 21.0456C69.1009 23.9063 67.1603 25.4873 64.6676 25.4873C63.346 25.4705 62.4677 25.2865 61.4221 24.701L61.4806 21.5558C62.451 21.9824 63.1034 22.0243 63.7558 22.0243C64.86 22.0243 65.2949 21.1878 65.2949 20.5855C65.2949 19.7323 64.7596 19.1635 63.5969 19.1635H62.2084V15.918H63.6889ZM50.2385 25.1778H53.7015L54.1364 22.5596H56.5287L56.947 25.1778H60.41L57.4823 10.0544H53.1745C53.1661 10.0544 50.2385 25.1778 50.2385 25.1778ZM55.3159 14.6215L55.9683 19.2388H54.6634L55.3159 14.6215ZM43.6136 10.0544H50.6316V13.8269H47.0934V25.1778H43.6136V10.0544ZM0.8699 17.7917C0.8699 27.0933 8.2727 34.6717 17.3735 34.6717C26.4575 34.6717 33.8519 27.0933 33.8519 17.7917C33.8519 8.4734 26.4575 0.89502 17.3735 0.89502C8.2643 0.88666 0.8699 8.4651 0.8699 17.7917ZM0 17.7917C0 7.9799 7.7875 0 17.3735 0C26.9343 0 34.7219 7.9716 34.7219 17.7917C34.7219 27.5868 26.9343 35.5583 17.3735 35.5583C7.7875 35.5583 0 27.5868 0 17.7917Z" fill="#0D356C"/>
<path d="M12.1871 6.55782C11.5848 6.82552 11.016 7.16012 10.4891 7.54492C14.6212 5.66282 19.6651 5.77992 22.3753 7.01792C23.2285 7.41942 23.7973 7.67032 24.0566 8.15552C21.2461 7.38592 20.0416 7.24372 17.6911 7.30232C14.3452 7.36082 9.89516 8.71592 8.19706 9.75312L7.44426 10.7151C9.89516 9.23452 14.4623 8.26422 16.9968 8.18062C19.8241 8.13882 22.024 8.40642 24.0399 9.15092C23.9228 9.67792 23.6635 9.93722 23.2285 10.2048C15.1566 8.76612 10.3887 10.4641 6.08086 13.3416L5.76296 14.2952C10.5727 10.9158 16.4615 9.97902 22.1411 10.9911C20.1085 11.7188 17.6743 11.8861 15.6334 12.3629C13.8935 12.7728 12.965 12.8899 10.648 13.6845C8.29746 14.4708 6.90896 15.2822 6.03896 16.3194C5.62076 16.8046 5.30296 17.3734 5.22766 17.984C5.19416 18.3437 5.21086 18.6783 5.32796 18.9961C5.42006 19.2805 5.64586 19.5649 5.88006 19.8493C5.60406 20.3345 5.36146 20.9618 5.76296 21.6979C5.93866 22.0409 6.39866 22.3838 6.83366 22.7101L6.70816 23.0697C6.64966 23.4963 6.59106 24.0066 6.86716 24.4248C7.33556 25.1944 7.91266 25.7046 8.82446 26.1898C8.96666 26.8171 9.17576 27.3274 9.65256 27.7707C10.6647 28.7243 12.9148 30.5478 16.9299 30.8322C19.9412 31.0329 22.0909 30.1045 22.9023 29.6946L23.8893 29.1676C22.208 29.8535 19.3807 30.2634 17.0637 30.0543C13.7011 29.7699 10.6982 27.5198 10.3218 26.8673C10.4389 26.951 10.5978 27.0095 10.7316 27.0681C14.6714 29.017 19.7488 30.071 26.2649 27.3525L26.8002 26.8255C20.878 28.7075 15.7003 28.649 10.1377 25.6712C10.1963 25.3868 10.3218 25.1358 10.5727 24.9434C11.9947 25.5875 13.3665 26.1229 15.0227 26.4574C16.9633 26.8255 19.18 26.9091 20.9951 26.8255C22.8354 26.7418 26.474 25.8134 28.1971 24.8765C28.3561 24.7343 28.4313 24.4917 28.5903 24.3328C25.2277 25.5875 21.2293 26.173 18.8203 25.989C16.4615 25.805 14.3703 25.5206 11.6016 24.2241C12.1369 24.0066 12.689 23.8226 13.2411 23.6553C15.0646 24.2241 16.9215 24.567 19.1131 24.6674C21.2879 24.7678 26.3736 23.9397 29.5773 21.9572C29.6777 21.6728 29.7781 21.3633 29.7781 21.3633C29.7781 21.3633 25.328 23.7975 20.2841 23.7975C17.9253 23.7975 16.4866 23.4545 15.4159 23.1868C17.7914 22.7435 20.7776 22.3755 24.1403 21.5055C25.8383 21.0622 27.9378 20.0417 28.8914 19.1969C29.7028 18.4441 30.3385 17.4738 30.121 16.4784C30.0792 16.2107 29.7279 15.5833 29.2845 15.3659C29.7028 14.8221 29.661 14.3537 29.6024 13.9522C29.5606 13.6427 29.4184 13.2998 29.2511 12.9986C28.9751 12.6306 28.7157 12.3462 28.1804 12.02C28.2641 11.5934 28.2055 11.1584 28.0215 10.7653C27.6032 10.0375 26.8588 9.41022 25.5706 8.74102C25.5121 8.47332 25.3531 8.13042 25.0771 7.78742C23.4544 6.14802 20.8027 5.35332 18.5694 5.31152H18.2013C15.5915 5.33662 13.492 5.93882 12.1871 6.55782ZM24.8513 10.6147C25.052 10.3889 25.3448 10.0459 25.4201 9.76152C25.9805 10.1296 26.6078 10.6733 26.6831 11.2421C26.0976 11.0162 25.4619 10.7736 24.8513 10.6147ZM25.3448 13.0823C24.3996 12.8146 23.5631 12.4968 22.459 12.296C23.1365 12.0283 23.5882 11.7523 23.9813 11.4261C24.868 11.6687 25.6961 11.9698 26.3736 12.2793C26.2565 12.4549 25.579 13.099 25.3699 13.099C25.3615 13.0907 25.3531 13.0907 25.3448 13.0823ZM27.0679 13.7933C27.3272 13.5925 27.5614 13.3667 27.7789 13.1074C28.3142 13.5758 28.4732 13.8937 28.2139 14.4039C27.8542 14.1362 27.4778 13.994 27.0679 13.7933ZM6.74996 18.8205C5.28616 16.7544 10.3636 15.2738 11.3339 14.9727C13.8015 14.2199 16.6957 13.6595 19.3055 13.3332C21.1039 13.1074 22.0574 13.3165 23.7555 13.7766C19.3807 14.9727 15.0646 15.3575 10.9575 16.5955C7.64506 17.5741 6.76676 18.8205 6.74996 18.8205ZM7.83746 19.8159C9.38486 18.4775 12.5301 17.7247 13.676 17.4654C17.3314 16.654 20.7358 16.1438 22.1411 15.7841C23.8391 15.3575 25.0269 14.956 25.855 14.5461C25.8968 14.4876 27.2436 15.1567 27.3774 15.3157C26.9257 15.7004 26.29 16.0267 25.5957 16.2692C23.5213 17.0388 19.7404 17.8502 17.7413 18.1597C15.7254 18.5026 14.0357 18.7619 11.8107 19.3725C10.5225 19.7239 9.65256 20.1254 9.01686 20.552C8.54846 20.2592 8.27236 20.1756 7.83746 19.8159ZM10.7065 21.4386C11.359 21.1542 12.07 20.9284 12.7559 20.7527C16.2356 19.8744 19.3055 19.7155 23.538 18.5444C25.5706 17.9924 27.0595 17.4068 27.988 16.6791C28.1219 16.5536 28.2641 16.4533 28.4063 16.3362C29.6359 18.2851 25.0269 19.7824 21.8734 20.4767C20.2256 20.8113 18.5777 21.1291 16.9299 21.4303C14.8722 21.7732 14.203 21.9572 12.7726 22.3838C12.07 22.0827 11.359 21.7816 10.7065 21.4386ZM7.00096 20.828C7.31876 21.0371 7.55306 21.196 7.92946 21.3968C7.78726 21.5223 7.61156 21.6394 7.47776 21.7816C7.16826 21.5976 6.85036 21.196 7.00096 20.828ZM8.64876 22.6933C8.84956 22.5093 9.10046 22.3336 9.37656 22.1496C9.97046 22.434 10.5811 22.6933 11.1582 22.961C10.7735 23.1032 10.4054 23.2872 10.0541 23.5131C9.57726 23.237 9.10886 22.9694 8.64876 22.6933ZM8.13016 23.6804C8.46476 23.9062 8.79936 24.0902 9.14226 24.2659C9.00006 24.4666 8.89976 24.6256 8.84956 24.8347C8.34766 24.4165 8.11346 24.0735 8.13016 23.6804Z" fill="#0D356C"/>
</svg>
