<svg width="120" height="38" viewBox="0 0 120 38" fill="none" xmlns="http://www.w3.org/2000/svg">
<path d="M24.43 0.679688L12.21 12.8897H24.43V37.3197L36.64 25.1397V0.679688H24.43Z" fill="#EA5616"/>
<path d="M12.21 37.3197L24.43 25.1097H12.21V0.679688L0 12.8597V37.3197H12.21ZM48.86 31.2097H55.27V12.2797H65V31.2097H71.41V6.7897H48.86V31.2097ZM111.15 15.9297H105.67V12.2797H117.87V6.7797H99.25V31.2097H111.45C116.34 31.2097 120 28.7597 120 23.5697C120 18.3797 116.34 15.9297 111.14 15.9297H111.15ZM110.53 25.9997H105.66V21.1397H110.53C112.04 21.1397 113.53 21.7397 113.53 23.5697C113.53 25.3997 112 25.9997 110.53 25.9997ZM87.14 25.9997C82.86 25.9997 80.45 22.8597 80.45 18.9997C80.45 15.8897 82.2 11.9997 87.01 11.9997C88.088 12.009 89.151 12.2547 90.124 12.7195C91.096 13.1843 91.955 13.8568 92.64 14.6897L96.54 10.7897C95.338 9.3515 93.834 8.1949 92.135 7.4018C90.437 6.6086 88.585 6.1983 86.71 6.1997C85.021 6.1551 83.341 6.4564 81.773 7.0851C80.205 7.7137 78.782 8.6564 77.591 9.8553C76.401 11.0541 75.468 12.4838 74.851 14.0563C74.233 15.6289 73.944 17.3112 74 18.9997C73.979 21.6928 74.813 24.3231 76.383 26.5116C77.952 28.7002 80.176 30.3342 82.733 31.1782C85.291 32.0222 88.05 32.0326 90.614 31.208C93.178 30.3834 95.414 28.7663 97 26.5897L93.08 22.6697C92.458 23.7016 91.577 24.5533 90.524 25.1408C89.472 25.7283 88.285 26.0312 87.08 26.0197" fill="#2C2D84"/>
</svg>
