<svg width="155" height="34" viewBox="0 0 155 34" fill="none" xmlns="http://www.w3.org/2000/svg">
<path d="M1.12012 1.12012H32.5101V32.5101H1.12012V1.12012Z" fill="#FFED00"/>
<path d="M70.5299 20.19L69.7199 25.19H74.5999L75.4099 20.19H78.9999L76.7999 33.64H73.2399L74.1699 27.87H69.2899L68.3599 33.64H64.7599L66.9999 20.19H70.5699H70.5299ZM84.7499 20.19H80.9999L78.7499 33.64H82.4299L83.4299 27.83L87.2299 33.68H91.9999L86.9999 26.59L93.6999 20.23H89.1999L83.8099 25.77L84.7499 20.19ZM59.2499 28.6L58.4699 24.3L56.2199 28.6H59.2499ZM59.7899 31.27H54.7099L53.3599 33.6H49.4399L57.1099 20.15H61.1099L64.2099 33.6H60.2999L59.7899 31.27ZM50.1399 29.56C50.0342 30.4637 49.6578 31.3142 49.0599 32C47.6299 33.47 45.4599 33.55 44.0599 33.59H38.6699L40.9999 20.19H50.1799L49.7499 22.82H44.1799L43.7499 25.49H45.3399C46.6953 25.3954 48.0407 25.7813 49.1399 26.58C49.5529 26.95 49.8624 27.4213 50.0378 27.9474C50.2131 28.4735 50.2483 29.0362 50.1399 29.58V29.56ZM44.3299 28H43.3299L42.8299 30.87H43.7599C45.8499 30.87 46.2799 30.29 46.3999 29.51C46.5199 28.73 46.3999 28 44.3099 28H44.3299ZM137.31 7.73H141.03C140.945 7.3148 140.715 6.9431 140.382 6.6813C140.049 6.4194 139.634 6.2843 139.21 6.3C138.771 6.2552 138.332 6.3776 137.98 6.6427C137.628 6.9078 137.388 7.2961 137.31 7.73ZM144 9.26V9.61H137.26C137.228 9.8804 137.257 10.1546 137.347 10.4118C137.436 10.6691 137.582 10.9029 137.775 11.0954C137.967 11.2879 138.201 11.4343 138.458 11.5234C138.715 11.6126 138.99 11.6422 139.26 11.61C139.568 11.6362 139.877 11.5691 140.146 11.4175C140.415 11.2659 140.633 11.0368 140.77 10.76H143.87C143.37 12.93 141.35 13.9 139.3 13.9C136.3 13.9 134.07 12.2 134.07 9.02C134.032 8.3589 134.136 7.6973 134.376 7.0799C134.615 6.4625 134.985 5.9037 135.458 5.4412C135.932 4.9786 136.5 4.6231 137.123 4.3987C137.746 4.1742 138.41 4.086 139.07 4.14C142.21 4.14 143.99 6.14 143.99 9.26H144ZM55.0999 6.82C54.8247 6.8061 54.5496 6.8493 54.2919 6.9467C54.0341 7.0442 53.7993 7.1938 53.6021 7.3863C53.4049 7.5788 53.2497 7.8099 53.146 8.0653C53.0424 8.3206 52.9926 8.5945 52.9999 8.87C52.993 9.1411 53.0414 9.4107 53.1419 9.6626C53.2425 9.9144 53.3933 10.1431 53.585 10.3349C53.7768 10.5266 54.0055 10.6774 54.2573 10.7779C54.5092 10.8785 54.7788 10.9269 55.0499 10.92C55.3237 10.9376 55.5981 10.8967 55.8548 10.7999C56.1115 10.7031 56.3446 10.5527 56.5386 10.3587C56.7326 10.1647 56.883 9.9316 56.9798 9.6749C57.0766 9.4182 57.1175 9.1438 57.0999 8.87C57.1067 8.5989 57.0584 8.3293 56.9578 8.0774C56.8572 7.8256 56.7065 7.5969 56.5147 7.4051C56.323 7.2134 56.0943 7.0626 55.8424 6.9621C55.5906 6.8615 55.321 6.8131 55.0499 6.82H55.0999ZM60.1999 4.3V13.45H56.9999V12.45C56.6971 12.8817 56.2896 13.2294 55.8155 13.4603C55.3414 13.6912 54.8165 13.7978 54.2899 13.77C53.6696 13.7548 53.0586 13.6155 52.4929 13.3605C51.9272 13.1054 51.4183 12.7397 50.9961 12.285C50.574 11.8302 50.2471 11.2955 50.0348 10.7125C49.8225 10.1294 49.729 9.5097 49.7599 8.89C49.7263 8.2724 49.8165 7.6543 50.0252 7.0721C50.2339 6.4898 50.5569 5.9552 50.9752 5.4996C51.3936 5.044 51.8988 4.6766 52.4611 4.4191C53.0235 4.1616 53.6317 4.0191 54.2499 4C54.767 3.9879 55.2806 4.088 55.7554 4.2934C56.2301 4.4989 56.6547 4.8047 56.9999 5.19V4.3H60.1999ZM107.05 6.82C106.779 6.8131 106.509 6.8615 106.257 6.9621C106.006 7.0626 105.777 7.2134 105.585 7.4051C105.393 7.5969 105.243 7.8256 105.142 8.0774C105.041 8.3293 104.993 8.5989 105 8.87C104.993 9.1411 105.041 9.4107 105.142 9.6626C105.243 9.9144 105.393 10.1431 105.585 10.3349C105.777 10.5266 106.006 10.6774 106.257 10.7779C106.509 10.8785 106.779 10.9269 107.05 10.92C107.324 10.9376 107.598 10.8967 107.855 10.7999C108.112 10.7031 108.345 10.5527 108.539 10.3587C108.733 10.1647 108.883 9.9316 108.98 9.6749C109.077 9.4182 109.118 9.1438 109.1 8.87C109.107 8.5989 109.059 8.3293 108.958 8.0774C108.857 7.8256 108.707 7.5969 108.515 7.4051C108.323 7.2134 108.094 7.0626 107.843 6.9621C107.591 6.8615 107.321 6.8131 107.05 6.82ZM112.17 4.3V13.45H109V12.45C108.697 12.8817 108.29 13.2294 107.816 13.4603C107.342 13.6912 106.817 13.7978 106.29 13.77C105.67 13.7548 105.059 13.6155 104.493 13.3605C103.927 13.1054 103.418 12.7397 102.996 12.285C102.574 11.8302 102.247 11.2955 102.035 10.7125C101.823 10.1294 101.729 9.5097 101.76 8.89C101.728 8.2724 101.819 7.6546 102.029 7.0728C102.239 6.4911 102.563 5.9572 102.983 5.5026C103.402 5.0479 103.908 4.6817 104.471 4.4254C105.033 4.169 105.642 4.0278 106.26 4.01C106.785 3.9933 107.306 4.0921 107.789 4.2995C108.271 4.5068 108.701 4.8177 109.05 5.21V4.3H112.17ZM39.1699 13.45V0H44.5999C48.2399 0 49.2899 2.6 49.2899 4.42C49.3153 5.0324 49.2094 5.6431 48.9795 6.2112C48.7496 6.7793 48.4009 7.2917 47.9568 7.7141C47.5126 8.1364 46.9834 8.4589 46.4044 8.66C45.8254 8.8611 45.2102 8.9361 44.5999 8.88H42.5999V13.45H39.1699ZM42.6199 2.91V6H43.7799C45.3699 6 45.5199 5 45.5199 4.49C45.5199 3.98 45.2899 2.98 43.7799 2.98H42.7799L42.6599 2.91H42.6199ZM62.2299 4.31V13.46H65.3299L68.5099 8.46V13.46H71.7299V4.3H68.6299L65.4499 9.22V4.3L62.2299 4.31ZM67.2299 3.15C67.9843 3.2107 68.7389 3.0366 69.3906 2.6518C70.0422 2.2669 70.5589 1.68995 70.8699 1L68.7799 0.22C68.7023 0.55563 68.5077 0.85265 68.231 1.05788C67.9543 1.2631 67.6136 1.36311 67.2699 1.34C66.9253 1.36732 66.5826 1.26892 66.305 1.06302C66.0274 0.85712 65.8337 0.55764 65.7599 0.22L63.6699 1C63.985 1.67678 64.4975 2.2424 65.14 2.6225C65.7825 3.0027 66.525 3.1796 67.2699 3.13L67.2299 3.15ZM78.3499 17.43V13.6C76.4499 13.6 73.2699 12.82 73.2699 8.87C73.2699 4.92 76.4099 4.18 78.3499 4.18V0.18H81.5699V4.18C83.5099 4.18 86.5699 4.96 86.5699 8.87C86.5699 12.78 83.4299 13.6 81.5699 13.6V17.48L78.3499 17.43ZM81.3499 6.43V11.51C82.4399 11.51 83.5199 10.73 83.5199 8.95C83.5199 7.17 82.4299 6.39 81.3499 6.43ZM78.5599 11.43V6.43C77.4699 6.43 76.3899 7.21 76.3899 8.99C76.3899 10.77 77.4799 11.51 78.5599 11.47V11.43ZM92.7799 17.47V13.6C90.8799 13.6 87.6999 12.82 87.6999 8.87C87.6999 4.92 90.8399 4.18 92.7799 4.18V0.18H95.9999V4.18C97.9399 4.18 101.08 4.96 101.08 8.87C101.08 12.78 97.9399 13.6 95.9999 13.6V17.48H92.7799V17.47ZM95.7799 6.47V11.55C96.8699 11.55 97.9499 10.77 97.9499 8.99C97.9499 7.21 96.8599 6.43 95.7799 6.47ZM92.9499 11.47V6.47C91.8599 6.47 90.7399 7.25 90.7399 9.03C90.7099 9.3426 90.7469 9.6578 90.8479 9.9552C90.9479 10.2526 91.1109 10.5254 91.3239 10.7557C91.5369 10.986 91.7969 11.1687 92.0859 11.2918C92.3749 11.4149 92.6859 11.4756 92.9999 11.47H92.9499ZM114.27 4.3V13.45H117.37L120.55 8.45V13.45H123.77V4.3H120.67L117.45 9.18V4.3H114.27ZM119.27 3.14C120.012 3.1867 120.75 3.0072 121.388 2.625C122.025 2.2429 122.532 1.67624 122.84 1L120.75 0.22C120.672 0.55563 120.478 0.85265 120.201 1.05788C119.924 1.2631 119.584 1.36311 119.24 1.34C118.895 1.37171 118.55 1.27501 118.271 1.06839C117.993 0.86177 117.8 0.55972 117.73 0.22L115.63 1C115.945 1.67678 116.458 2.2424 117.1 2.6225C117.743 3.0027 118.485 3.1796 119.23 3.13L119.27 3.14ZM126.17 6.93C126.865 6.4486 127.685 6.1778 128.53 6.15C128.92 6.15 129.81 6.23 129.81 6.96C129.81 7.69 129.03 7.74 128.73 7.74H127.14V9.74H128.54C129.01 9.74 129.86 9.74 129.86 10.52C129.86 10.83 129.67 11.41 128.54 11.41C127.559 11.4077 126.601 11.1117 125.79 10.56L125 12.75C126.25 13.4676 127.669 13.8403 129.11 13.83C132.79 13.83 133.26 11.7 133.26 11C133.264 10.4661 133.08 9.9479 132.74 9.5364C132.399 9.1248 131.925 8.8464 131.4 8.75C131.807 8.567 132.15 8.2664 132.386 7.8868C132.621 7.5073 132.737 7.0662 132.72 6.62C132.72 4.49 130.47 4.06 129.08 4.06C127.777 4.0841 126.495 4.3876 125.32 4.95L126.17 6.93ZM145.62 13.44H148.84V9.8H151.79V13.44H155V4.3H151.78V7.52H148.83V4.3H145.61L145.62 13.44Z" fill="black"/>
<path d="M33.6 33.6H0V0H33.6V33.6ZM32.51 1.12H1.12V32.51H32.51V1.12Z" fill="black"/>
<path d="M16.8198 20.6504L7.16978 30.3004L3.32978 26.4604L12.9998 16.8204L10.9998 14.8204V10.8204L9.59978 9.42042V12.8704L8.39978 14.0704L3.47978 9.23042L2.27979 10.4304C2.28629 9.35532 2.50528 8.29212 2.92398 7.30192C3.34278 6.31172 3.95298 5.41402 4.71978 4.66042C5.45988 3.83112 6.49598 3.32562 7.60498 3.25262C8.71408 3.17972 9.80749 3.54522 10.6498 4.27042L15.5298 9.19042L14.2898 10.4304L16.8198 13.0004L19.3798 10.4404L18.1398 9.20042L22.9998 4.26042C23.841 3.53272 24.935 3.16562 26.0448 3.23862C27.1547 3.31162 28.1912 3.81882 28.9298 4.65042C29.6966 5.40402 30.3068 6.30172 30.7256 7.29192C31.1443 8.28212 31.3632 9.34532 31.3698 10.4204L30.1698 9.22042L25.2498 14.1004L24.0498 12.9004V9.42042L22.6598 10.8204V14.8204L20.6598 16.8204L30.3098 26.4704L26.4698 30.3004L16.8198 20.6504Z" fill="black"/>
</svg>
