<svg width="180" height="28" viewBox="0 0 180 28" fill="none" xmlns="http://www.w3.org/2000/svg">
<path d="M80.5 8.50039L84.3 5.70039H71.7V22.3004H84.3V19.5004H75.3V15.3004H82.9V12.5004H75.3V8.50039H80.5ZM64.8 8.50039L68.6 5.70039H54.2V22.3004H61.7C65.9 22.3004 68.3 20.4004 68.3 17.1004C68.3 13.9004 66.1 12.2004 62.1 12.2004H57.7V8.50039H64.8ZM61.6 14.9004C63.9 14.9004 64.9 15.7004 64.9 17.2004C64.9 18.7004 63.8 19.5004 61.6 19.5004H57.8V14.9004H61.6ZM94.4 5.70039H87.6V22.3004H91.2V17.6004H94.5C98.9 17.6004 101.6 15.3004 101.6 11.6004C101.6 7.90039 98.8 5.70039 94.4 5.70039ZM94.4 14.8004H91.2V8.40039H94.4C96.7 8.40039 98 9.50039 98 11.6004C97.9 13.7004 96.7 14.8004 94.4 14.8004ZM48.1 18.7004C47.1 19.2004 46.1 19.5004 45 19.5004C41.8 19.5004 39.4 17.2004 39.4 14.0004C39.4 10.8004 41.7 8.50039 45 8.50039C46.2 8.50039 47.3 8.90039 48.3 9.50039L50.9 7.60039L50.7 7.40039C49.2 6.10039 47.2 5.40039 44.9 5.40039C42.4 5.40039 40.2 6.20039 38.5 7.80039C36.9 9.40039 35.9 11.6004 36 13.9004C36 16.2004 36.9 18.4004 38.5 20.1004C40.2 21.7004 42.5 22.6004 44.8 22.5004C47.4 22.5004 49.6 21.6004 51.2 20.0004L48.9 18.3004L48.1 18.7004ZM156 12.5004H148.3V5.70039H144.7V22.3004H148.3V15.5004H156V22.3004H159.6V5.70039H156V12.5004ZM131.7 5.70039L124.5 22.3004H128.1L129.5 19.0004H137.1L138.5 22.3004H142.3L135.3 5.70039H131.7ZM130.7 16.2004L133.5 9.50039L136.1 16.2004H130.7ZM172.6 13.7004L179.1 5.70039H175L169.6 12.8004H167.6V5.70039H164V22.3004H167.6V15.6004H169.9L175.4 22.3004H180L172.6 13.7004ZM117 12.2004H112.6V8.50039H122V5.70039H109V22.3004H116.5C120.7 22.3004 123.1 20.4004 123.1 17.1004C123.2 13.9004 121 12.2004 117 12.2004ZM116.4 19.6004H112.6V15.0004H116.4C118.7 15.0004 119.7 15.8004 119.7 17.3004C119.8 18.8004 118.6 19.6004 116.4 19.6004Z" fill="#21A038"/>
<path d="M24.4813 5.38086C25.1305 6.23149 25.6801 7.15562 26.1189 8.13471L13.67 17.435L8.46729 14.1297V10.1533L13.67 13.4586L24.4813 5.38086Z" fill="#21A038"/>
<path d="M3.15729 13.8496C3.15729 13.6712 3.16159 13.4939 3.17017 13.3177L0.0171718 13.1611C0.00644001 13.3895 3.81025e-06 13.6201 3.81025e-06 13.8528C-0.0013377 15.6712 0.351574 17.4719 1.0385 19.1516C1.72543 20.8314 2.73284 22.3572 4.00296 23.6414L6.23946 21.3759C5.26177 20.3891 4.48617 19.2161 3.95722 17.9245C3.42828 16.6329 3.15643 15.248 3.15729 13.8496Z" fill="url(#paint0_linear_261_751)"/>
<path d="M13.6669 3.19957C13.8429 3.19957 14.0178 3.2061 14.1917 3.21479L14.3494 0.018277C14.1234 0.00740084 13.8958 0.0019634 13.6669 0.0019634C11.8719 -0.000255084 10.0942 0.35689 8.43573 1.05289C6.7773 1.74889 5.27087 2.77004 4.00293 4.05771L6.23943 6.32431C7.21322 5.33314 8.37073 4.54681 9.64541 4.01056C10.9201 3.4743 12.2867 3.19869 13.6669 3.19957Z" fill="url(#paint1_linear_261_751)"/>
<path d="M13.667 24.5006C13.491 24.5006 13.316 24.5006 13.1412 24.4864L12.9834 27.6819C13.2102 27.6935 13.4381 27.6993 13.667 27.6993C15.4613 27.7012 17.2382 27.3438 18.8957 26.6476C20.5532 25.9514 22.0587 24.9301 23.3257 23.6425L21.0934 21.377C20.1195 22.3676 18.9621 23.1535 17.6877 23.6895C16.4132 24.2256 15.0468 24.5012 13.667 24.5006Z" fill="url(#paint2_linear_261_751)"/>
<path d="M19.5909 5.05746L22.2481 3.07255C19.8194 1.07944 16.7877 -0.00553265 13.6626 2.12167e-05V3.19871C15.7788 3.19605 17.8459 3.84418 19.5909 5.05746Z" fill="url(#paint3_linear_261_751)"/>
<path d="M27.3327 13.8501C27.3344 13.018 27.2626 12.1873 27.118 11.3682L24.1765 13.5652C24.1765 13.6598 24.1765 13.7544 24.1765 13.8501C24.1772 15.3383 23.8694 16.81 23.273 18.1699C22.6766 19.5298 21.8048 20.7475 20.7144 21.7441L22.8361 24.1206C24.2538 22.8234 25.3867 21.2389 26.1613 19.4697C26.936 17.7003 27.335 15.7858 27.3327 13.8501Z" fill="#21A038"/>
<path d="M13.6672 24.5009C12.1987 24.5014 10.7465 24.1893 9.40445 23.5849C8.06251 22.9805 6.86075 22.0972 5.87702 20.9922L3.5332 23.1413C4.81292 24.5784 6.37638 25.7267 8.1222 26.512C9.86801 27.2972 11.7572 27.7018 13.6672 27.6995V24.5009Z" fill="url(#paint4_linear_261_751)"/>
<path d="M6.61938 5.95555L4.49877 3.5791C3.08064 4.87595 1.94732 6.46041 1.1723 8.22972C0.397285 9.99902 -0.00211296 11.9137 8.40637e-06 13.8495H3.1573C3.15665 12.3614 3.46451 10.8897 4.0609 9.52978C4.6573 8.16995 5.52895 6.95222 6.61938 5.95555Z" fill="url(#paint5_linear_261_751)"/>
<defs>
<linearGradient id="paint0_linear_261_751" x1="4.6415" y1="23.2423" x2="1.10907" y2="13.1664" gradientUnits="userSpaceOnUse">
<stop offset="0.14" stop-color="#F1E813"/>
<stop offset="0.3" stop-color="#E6E418"/>
<stop offset="0.58" stop-color="#C9DA26"/>
<stop offset="0.89" stop-color="#A2CC39"/>
</linearGradient>
<linearGradient id="paint1_linear_261_751" x1="4.9044" y1="4.62327" x2="13.819" y2="1.27113" gradientUnits="userSpaceOnUse">
<stop offset="0.06" stop-color="#0FA7DF"/>
<stop offset="0.54" stop-color="#0098F8"/>
<stop offset="0.92" stop-color="#0290EA"/>
</linearGradient>
<linearGradient id="paint2_linear_261_751" x1="12.7752" y1="25.7687" x2="22.8352" y2="23.5263" gradientUnits="userSpaceOnUse">
<stop offset="0.12" stop-color="#A2CC39"/>
<stop offset="0.28" stop-color="#86C239"/>
<stop offset="0.87" stop-color="#219F38"/>
</linearGradient>
<linearGradient id="paint3_linear_261_751" x1="13.0059" y1="1.07133" x2="21.6153" y2="3.69289" gradientUnits="userSpaceOnUse">
<stop offset="0.06" stop-color="#0290EA"/>
<stop offset="0.79" stop-color="#0C89CA"/>
</linearGradient>
<linearGradient id="paint4_linear_261_751" x1="4.3252" y1="22.7519" x2="13.7051" y2="26.211" gradientUnits="userSpaceOnUse">
<stop offset="0.13" stop-color="#F1E813"/>
<stop offset="0.3" stop-color="#EAE616"/>
<stop offset="0.53" stop-color="#D8DF1F"/>
<stop offset="0.8" stop-color="#BAD52D"/>
<stop offset="0.98" stop-color="#A2CC39"/>
</linearGradient>
<linearGradient id="paint5_linear_261_751" x1="1.17621" y1="14.2367" x2="5.01741" y2="4.37701" gradientUnits="userSpaceOnUse">
<stop offset="0.07" stop-color="#A2CC39"/>
<stop offset="0.26" stop-color="#81C45E"/>
<stop offset="0.92" stop-color="#0FA7DF"/>
</linearGradient>
</defs>
</svg>
